<svg width="400" height="400" viewBox="0 0 400 400" fill="none" xmlns="http://www.w3.org/2000/svg">
<rect width="400" height="400" rx="32" fill="#4C7875"/>
<path d="M102.981 300.591C124.061 321.751 149.515 334.564 179.341 339.031C180.961 339.277 182.481 338.987 183.901 338.161C186.441 336.694 188.591 334.201 190.351 330.681C195.318 320.781 194.648 311.321 188.341 302.301" stroke="#FEC8A3" stroke-width="2"/>
<path d="M188.342 302.301C199.708 308.547 211.218 310.584 222.872 308.411C234.625 306.211 243.978 299.717 250.932 288.931" stroke="#D5A99D" stroke-width="2"/>
<path d="M250.932 288.931L250.432 330.471C250.431 330.548 250.45 330.625 250.486 330.694C250.521 330.763 250.573 330.822 250.637 330.866C250.7 330.909 250.773 330.936 250.849 330.944C250.925 330.952 251.001 330.94 251.072 330.911C270.325 323.204 287.008 311.704 301.122 296.411C301.355 296.151 301.445 295.921 301.392 295.721" stroke="#ACCDCB" stroke-width="2"/>
<path d="M301.392 295.721C301.925 295.507 302.372 295.191 302.732 294.771C320.912 273.704 332.228 249.384 336.682 221.811C339.315 205.517 338.918 189.301 335.492 173.161C328.778 141.487 313.225 115.124 288.832 94.0707C269.145 77.084 246.648 66.5507 221.342 62.4707C215.168 61.4774 208.535 60.9473 201.442 60.8807C193.229 60.794 185.558 61.2407 178.432 62.2207C168.945 63.5207 159.508 66.0007 150.122 69.6607C125.355 79.3007 105.118 94.4141 89.4118 115.001C85.4251 120.234 81.7852 125.817 78.4918 131.751C63.9052 158.044 58.3018 186.201 61.6818 216.221C65.3618 248.881 79.1285 277.004 102.982 300.591" stroke="#FEF3F0" stroke-width="2"/>
<path d="M301.392 295.721L250.802 274.131" stroke="#ABC2BC" stroke-width="2"/>
<path d="M250.802 274.131C245.442 272.671 242.558 269.027 242.152 263.201C241.838 258.714 241.585 254.221 241.392 249.721" stroke="#D59E8F" stroke-width="2"/>
<path d="M241.392 249.721V246.471" stroke="#C59089" stroke-width="2"/>
<path d="M241.392 246.471C255.998 236.411 264.322 221.934 266.362 203.041C266.376 202.904 266.42 202.772 266.492 202.655C266.564 202.537 266.661 202.437 266.777 202.362C266.893 202.286 267.024 202.237 267.161 202.218C267.299 202.199 267.439 202.21 267.572 202.251C268.298 202.477 269.292 202.311 270.552 201.751C275.998 199.344 279.402 195.524 280.762 190.291C281.662 186.831 281.818 183.604 281.232 180.611C280.558 177.191 278.695 174.337 275.642 172.051C272.382 169.604 268.925 169.037 265.272 170.351C265.175 170.385 265.072 170.395 264.971 170.38C264.87 170.366 264.774 170.327 264.691 170.267C264.608 170.207 264.542 170.127 264.496 170.036C264.451 169.944 264.429 169.843 264.432 169.741C264.778 157.667 264.735 145.597 264.302 133.531C264.268 132.537 264.048 131.601 263.642 130.721" stroke="#D59E8F" stroke-width="2"/>
<path d="M263.642 130.721C263.622 130.241 263.905 129.844 264.492 129.531C270.212 126.497 275.242 122.194 279.582 116.621C281.688 113.914 283.222 110.967 284.182 107.781C285.262 104.207 285.405 100.981 284.612 98.1007C283.312 93.4207 279.815 90.9641 274.122 90.7307C274.102 90.7307 272.988 90.8507 270.782 91.0907C269.095 91.2774 267.565 90.8174 266.192 89.7107C261.038 85.5574 256.018 85.354 251.132 89.1007C249.612 90.274 248.598 90.9107 248.092 91.0107C246.752 91.2774 245.512 90.7007 244.372 89.2807C242.278 86.674 239.382 85.8274 235.682 86.7407C234.042 87.1407 232.492 87.7307 231.032 88.5107C230.118 89.004 229.852 88.7674 230.232 87.8007C231.285 85.1741 231.262 82.8374 230.162 80.7907C229.255 79.1041 227.622 77.7574 225.262 76.7507C222.275 75.4841 218.998 75.0574 215.432 75.4707C210.745 76.0174 206.482 77.184 202.642 78.9707C202.615 78.984 201.865 79.3807 200.392 80.1607C196.165 82.3874 191.262 83.1574 185.682 82.4707C181.842 81.9974 178.888 83.114 176.822 85.8207C175.788 87.174 175.118 89.2474 174.812 92.0407C174.565 94.2541 174.332 96.4674 174.112 98.6807C173.952 100.267 173.558 101.354 172.932 101.941C171.865 102.941 170.448 102.867 168.682 101.721C165.695 99.7807 163.285 99.9674 161.452 102.281C160.732 103.187 160.345 104.281 160.292 105.561C160.232 106.841 160.382 108.041 160.742 109.161C162.195 113.627 164.855 117.397 168.722 120.471" stroke="#947F85" stroke-width="2"/>
<path d="M168.722 120.471C165.048 122.877 162.585 126.201 161.332 130.441C160.532 133.141 160.065 136.734 159.932 141.221C159.658 150.387 159.578 159.921 159.692 169.821C159.693 169.942 159.667 170.062 159.613 170.171C159.56 170.279 159.482 170.375 159.385 170.448C159.288 170.522 159.175 170.572 159.054 170.595C158.934 170.618 158.81 170.613 158.692 170.581C154.172 169.254 150.425 169.881 147.452 172.461C145.018 174.581 143.432 177.597 142.692 181.511C142.045 184.944 142.305 188.304 143.472 191.591C144.738 195.171 146.612 197.807 149.092 199.501C151.912 201.421 155.432 202.121 159.652 201.601C159.769 201.587 159.887 201.597 160 201.63C160.113 201.663 160.218 201.719 160.308 201.794C160.398 201.869 160.471 201.962 160.523 202.066C160.576 202.17 160.606 202.284 160.612 202.401C161.365 216.154 166.222 227.594 175.182 236.721C176.308 237.867 176.852 239.171 176.812 240.631C176.778 242.037 176.762 242.767 176.762 242.821C177.248 249.794 177.222 256.094 176.682 261.721C176.255 266.161 174.068 269.641 170.122 272.161C169.242 272.721 167.262 273.837 164.182 275.511" stroke="#D59E8F" stroke-width="2"/>
<path d="M164.181 275.511C160.868 276.037 157.911 277.337 155.311 279.411C155.193 279.505 155.053 279.572 154.903 279.608C154.753 279.645 154.596 279.649 154.441 279.621C151.935 279.161 149.938 279.794 148.451 281.521C148.229 281.781 147.947 281.984 147.628 282.112C147.31 282.241 146.965 282.292 146.621 282.261C143.895 282.014 141.805 282.924 140.351 284.991C140.141 285.292 139.825 285.504 139.466 285.585C139.108 285.667 138.732 285.612 138.411 285.431C137.731 285.044 136.851 285.101 135.771 285.601C125.278 290.467 114.695 295.131 104.021 299.591C103.655 299.744 103.308 300.077 102.981 300.591" stroke="#FDBD95" stroke-width="2"/>
<path d="M263.642 130.721C263.282 130.521 262.942 130.497 262.622 130.651C253.542 135.071 244.028 136.174 234.082 133.961C224.375 131.801 216.325 128.971 209.932 125.471C203.092 121.731 195.755 120.111 187.922 120.611C180.822 121.064 176.158 121.434 173.932 121.721C171.878 121.987 170.142 121.571 168.722 120.471" stroke="#6C3533" stroke-width="2"/>
<path d="M241.392 246.471C237.119 248.904 232.649 250.791 227.982 252.131C223.342 253.464 218.585 254.031 213.712 253.831C201.879 253.344 191.095 249.471 181.362 242.211C181.265 242.138 181.163 242.086 181.066 242.06C180.97 242.033 180.882 242.034 180.812 242.061C180.619 242.127 180.685 242.321 181.012 242.641C187.639 249.281 195.242 254.177 203.822 257.331C209.729 259.497 215.245 260.267 220.372 259.641C227.012 258.834 233.049 256.197 238.482 251.731C238.588 251.644 238.673 251.525 238.732 251.383C238.791 251.241 238.822 251.079 238.822 250.911C238.822 250.217 239.192 249.987 239.932 250.221C240.599 250.434 241.085 250.267 241.392 249.721" stroke="#9C4637" stroke-width="2"/>
<path d="M250.802 274.131C251.235 279.391 251.278 284.324 250.932 288.931" stroke="#83786A" stroke-width="2"/>
<path d="M188.342 302.301C185.942 300.361 183.202 297.687 180.122 294.281C173.635 287.121 168.322 280.864 164.182 275.511" stroke="#D57342" stroke-width="2"/>
<path d="M117.042 124.491C118.195 125.144 119.052 124.871 119.612 123.671C122.125 118.317 124.488 112.904 126.702 107.431C127.075 106.504 127.312 105.674 127.412 104.941C127.838 101.981 126.952 101.381 124.752 103.141C124.125 103.647 123.528 104.314 122.962 105.141C119.642 109.987 117.272 115.274 115.852 121.001C115.445 122.641 115.842 123.804 117.042 124.491Z" stroke="#FABE99" stroke-width="2"/>
<path d="M114.452 288.551C116.965 289.031 118.265 287.924 118.352 285.231C119.385 252.971 120.508 220.717 121.722 188.471C121.808 186.304 121.112 184.977 119.632 184.491C118.458 184.097 117.252 184.294 116.012 185.081C114.878 185.794 114.035 186.804 113.482 188.111C112.822 189.664 112.472 191.281 112.432 192.961C111.745 221.381 111.582 249.801 111.942 278.221C111.982 281.167 112.322 284.124 112.962 287.091C113.039 287.452 113.222 287.784 113.486 288.043C113.751 288.303 114.087 288.479 114.452 288.551Z" stroke="#FABE99" stroke-width="2"/>
<path d="M105.702 267.171C107.175 268.151 108.002 267.764 108.182 266.011C108.409 263.737 108.525 261.474 108.532 259.221C108.565 241.134 108.779 223.054 109.172 204.981C109.225 202.561 108.915 200.204 108.242 197.911C107.829 196.477 107.245 196.351 106.492 197.531C105.485 199.117 104.922 200.851 104.802 202.731C103.829 217.544 103.182 232.374 102.862 247.221C102.675 255.754 102.865 261.254 103.432 263.721C103.779 265.247 104.535 266.397 105.702 267.171Z" stroke="#FABE99" stroke-width="2"/>
<path d="M124.222 207.631C123.782 208.331 123.518 209.094 123.432 209.921C122.492 219.434 122.072 228.951 122.172 238.471C122.178 238.825 122.292 239.145 122.492 239.371C123.218 240.204 123.982 240.251 124.782 239.511C124.994 239.317 125.14 239.015 125.192 238.661C126.565 228.607 127.152 218.511 126.952 208.371C126.938 207.624 126.758 207.084 126.412 206.751C125.738 206.104 125.008 206.397 124.222 207.631Z" stroke="#FCC19D" stroke-width="2"/>
<path d="M95.3818 275.541C96.6485 277.094 97.6551 276.941 98.4018 275.081C99.4951 272.354 99.9218 269.484 99.6818 266.471C99.3884 262.844 99.1685 252.927 99.0218 236.721C98.9951 233.974 97.6451 232.831 94.9718 233.291C93.4651 233.551 92.6084 234.437 92.4018 235.951C91.0018 246.011 90.9785 256.131 92.3318 266.311C92.6918 269.011 92.9418 270.617 93.0818 271.131C93.5218 272.737 94.2885 274.207 95.3818 275.541Z" stroke="#FDBD95" stroke-width="2"/>
<path d="M215.622 144.701C226.422 145.247 236.505 147.581 245.872 151.701C246.538 151.994 247.222 152.231 247.922 152.411C250.128 152.957 250.968 152.704 250.442 151.651C250.313 151.387 250.056 151.162 249.722 151.021C241.328 147.334 232.655 144.711 223.702 143.151C217.682 142.104 211.812 141.707 206.092 141.961C200.178 142.227 194.322 143.041 188.522 144.401C184.682 145.294 181.052 146.707 177.632 148.641C176.772 149.127 175.998 149.981 175.312 151.201C174.692 152.307 174.962 152.604 176.122 152.091C188.708 146.471 201.875 144.007 215.622 144.701Z" stroke="#A24A38" stroke-width="2"/>
<path d="M234.312 160.681C234.554 160.962 234.853 161.19 235.188 161.351C235.523 161.513 235.889 161.605 236.262 161.621C244.635 161.967 252.018 163.337 258.412 165.731C258.475 165.754 258.542 165.765 258.609 165.763C258.677 165.761 258.742 165.746 258.803 165.719C258.863 165.692 258.917 165.654 258.962 165.606C259.006 165.558 259.04 165.502 259.062 165.441C259.555 164.081 259.518 162.721 258.952 161.361C258.835 161.076 258.61 160.826 258.312 160.651C251.832 156.957 244.885 155.204 237.472 155.391C236.025 155.424 234.925 155.774 234.172 156.441C232.845 157.614 232.892 159.027 234.312 160.681Z" stroke="#67352C" stroke-width="2"/>
<path d="M201.572 156.611C201.286 156.215 200.906 155.896 200.466 155.683C200.026 155.47 199.54 155.369 199.052 155.391C192.325 155.677 186.352 156.651 181.132 158.311C178.798 159.051 177.128 160.001 176.122 161.161C174.948 162.501 174.945 163.897 176.112 165.351C176.201 165.46 176.325 165.539 176.467 165.578C176.61 165.618 176.764 165.615 176.912 165.571C183.778 163.484 190.788 162.157 197.942 161.591C199.462 161.471 200.565 161.181 201.252 160.721C202.732 159.714 202.838 158.344 201.572 156.611Z" stroke="#65332D" stroke-width="2"/>
<path d="M222.742 169.931C220.828 179.531 221.325 188.997 224.231 198.331C224.258 198.411 224.472 198.947 224.872 199.941C225.625 201.787 225.185 203.344 223.552 204.611C221.505 206.204 219.188 207.504 216.601 208.511C216.135 208.691 216.148 208.834 216.642 208.941C220.015 209.654 223.318 209.514 226.552 208.521C228.365 207.961 229.648 207.031 230.401 205.731C231.195 204.337 231.602 202.684 231.622 200.771" stroke="#964332" stroke-width="2"/>
<path d="M231.622 200.771C232.468 199.697 233.725 199.514 235.392 200.221" stroke="#A44D38" stroke-width="2"/>
<path d="M235.392 200.221C236.685 208.614 241.448 212.531 249.682 211.971C255.395 211.584 259.392 208.904 261.672 203.931C262.592 201.924 262.962 200.057 262.782 198.331C262.588 196.444 261.868 194.594 260.622 192.781C258.268 189.367 255.205 187.417 251.432 186.931C244.058 185.977 238.962 188.824 236.142 195.471" stroke="#9F4837" stroke-width="2"/>
<path d="M236.142 195.471C235.862 195.704 235.608 195.784 235.382 195.711C235.268 195.675 235.177 195.574 235.129 195.429C235.081 195.284 235.078 195.106 235.122 194.931C235.735 192.477 235.922 190.407 235.682 188.721C235.088 184.547 234.935 181.131 235.222 178.471" stroke="#A44D38" stroke-width="2"/>
<path d="M235.222 178.471C237.608 176.317 240.345 175.117 243.432 174.871" stroke="#964332" stroke-width="2"/>
<path d="M243.432 174.871C243.978 180.251 246.392 182.041 250.672 180.241C251.129 180.049 251.518 179.724 251.789 179.309C252.06 178.894 252.2 178.407 252.192 177.911C252.158 175.944 251.685 174.184 250.772 172.631" stroke="#7C3A2C" stroke-width="2"/>
<path d="M250.772 172.631L258.902 178.001C259.025 178.079 259.149 178.135 259.261 178.164C259.372 178.192 259.466 178.191 259.532 178.161C259.732 178.074 259.735 177.881 259.542 177.581C256.302 172.694 251.682 170.157 245.682 169.971C241.542 169.844 238.708 169.941 237.182 170.261" stroke="#964332" stroke-width="2"/>
<path d="M237.182 170.261C236.288 170.201 235.532 169.684 234.912 168.711C234.312 167.764 233.448 167.277 232.322 167.251C230.008 167.197 228.778 166.461 228.632 165.041C228.61 164.857 228.561 164.688 228.49 164.547C228.419 164.407 228.327 164.298 228.222 164.231C227.455 163.744 226.792 163.927 226.232 164.781C225.132 166.447 223.968 168.164 222.742 169.931" stroke="#A44D38" stroke-width="2"/>
<path d="M237.182 170.261C237.282 171.294 237.728 172.187 238.522 172.941C238.689 173.097 238.817 173.29 238.896 173.504C238.975 173.719 239.003 173.949 238.978 174.176C238.952 174.403 238.875 174.621 238.75 174.813C238.626 175.005 238.459 175.165 238.262 175.281C236.695 176.201 235.682 177.264 235.222 178.471" stroke="#8E3C2E" stroke-width="2"/>
<path d="M236.142 195.471L235.392 200.221" stroke="#974133" stroke-width="2"/>
<path d="M231.622 200.771C225.015 191.657 222.055 181.377 222.742 169.931" stroke="#8E3C2E" stroke-width="2"/>
<path d="M250.772 172.631C247.192 171.671 244.745 172.417 243.432 174.871" stroke="#652922" stroke-width="2"/>
<path d="M184.182 176.011C183.955 178.091 184.485 179.537 185.772 180.351C186.858 181.031 187.992 181.144 189.172 180.691C190.398 180.217 191.152 179.144 191.432 177.471C191.732 175.684 191.895 174.284 191.922 173.271" stroke="#7A3E33" stroke-width="2"/>
<path d="M191.922 173.271C195.288 173.197 198.125 174.431 200.432 176.971C200.998 177.591 201.165 177.507 200.932 176.721C199.578 172.114 196.878 169.567 192.832 169.081C190.165 168.761 187.405 168.927 184.552 169.581C180.232 170.561 177.248 173.517 175.602 178.451C175.348 179.211 175.605 179.437 176.372 179.131L184.182 176.011" stroke="#984534" stroke-width="2"/>
<path d="M191.922 173.271C188.262 171.951 185.682 172.864 184.182 176.011" stroke="#662F2B" stroke-width="2"/>
<path d="M271.642 175.131C268.589 174.244 266.795 174.964 266.262 177.291C266.255 177.351 266.122 178.927 265.862 182.021C265.615 185.007 265.689 187.837 266.082 190.511C266.322 192.157 267.252 192.807 268.872 192.461C272.299 191.734 274.332 189.947 274.972 187.101C275.318 185.574 275.378 183.811 275.152 181.811C274.952 180.071 274.409 178.354 273.522 176.661C273.325 176.293 273.058 175.969 272.735 175.706C272.412 175.443 272.041 175.248 271.642 175.131Z" stroke="#A64A39" stroke-width="2"/>
<path d="M153.121 191.031C154.688 192.271 156.271 192.487 157.871 191.681C159.051 191.087 159.928 190.001 160.501 188.421C161.568 185.447 161.578 182.391 160.531 179.251C160.481 179.099 160.401 178.958 160.296 178.838C160.191 178.718 160.064 178.62 159.921 178.551C157.641 177.444 155.545 177.371 153.631 178.331C151.805 179.244 150.641 180.844 150.141 183.131C149.448 186.291 150.441 188.924 153.121 191.031Z" stroke="#A24A38" stroke-width="2"/>
<path d="M195.08 197.623C194.877 195.996 194.334 194.426 193.482 193.005C192.63 191.585 191.485 190.34 190.114 189.342C188.742 188.344 187.17 187.612 185.488 187.189C183.805 186.767 182.045 186.66 180.308 186.877C176.8 187.314 173.598 189.038 171.407 191.672C169.216 194.305 168.215 197.631 168.624 200.918C168.827 202.546 169.37 204.115 170.222 205.536C171.074 206.957 172.218 208.202 173.59 209.2C174.962 210.198 176.534 210.929 178.216 211.352C179.898 211.775 181.659 211.881 183.396 211.665C186.904 211.228 190.106 209.503 192.297 206.87C194.488 204.236 195.489 200.91 195.08 197.623Z" stroke="#9F4837" stroke-width="2"/>
<path d="M208.882 227.421L213.372 228.461C213.497 228.49 213.61 228.562 213.694 228.664C213.778 228.766 213.83 228.895 213.842 229.031C213.882 229.524 214.142 229.941 214.622 230.281C217.468 232.321 220.305 232.361 223.132 230.401C223.959 229.827 223.872 229.517 222.872 229.471C221.485 229.404 220.092 229.497 218.692 229.751C217.525 229.957 216.492 229.791 215.592 229.251C215.292 229.071 215.315 228.921 215.662 228.801C218.002 227.967 219.655 227.711 220.622 228.031C222.882 228.784 224.665 228.367 225.972 226.781" stroke="#973D32" stroke-width="2"/>
<path d="M225.972 226.781C232.098 224.261 236.645 220.177 239.612 214.531C240.012 213.777 239.795 213.487 238.962 213.661C224.688 216.687 210.358 216.674 195.972 213.621C194.398 213.287 193.938 213.854 194.592 215.321C197.465 221.767 202.228 225.801 208.882 227.421" stroke="#D5A99D" stroke-width="2"/>
<path d="M225.972 226.781C220.272 226.607 214.575 226.821 208.882 227.421" stroke="#C09193" stroke-width="2"/>
<path d="M207.183 285.738C207.185 285.623 207.164 285.51 207.122 285.404C207.081 285.297 207.018 285.2 206.939 285.118C206.859 285.036 206.765 284.97 206.66 284.925C206.555 284.879 206.442 284.854 206.328 284.852L206.268 284.852C206.037 284.847 205.815 284.935 205.649 285.096C205.483 285.256 205.387 285.475 205.383 285.706L205.12 300.764C205.118 300.878 205.139 300.992 205.181 301.098C205.222 301.204 205.285 301.301 205.364 301.383C205.444 301.466 205.538 301.531 205.643 301.577C205.748 301.622 205.861 301.647 205.975 301.649L206.035 301.65C206.266 301.654 206.488 301.566 206.654 301.406C206.82 301.246 206.916 301.026 206.92 300.795L207.183 285.738Z" stroke="#9F4837" stroke-width="2"/>
<path d="M166.132 310.791C166.839 311.244 167.189 311.051 167.182 310.211C167.175 309.144 166.975 308.114 166.582 307.121C164.355 301.467 161.959 295.884 159.392 290.371C159.179 289.917 158.972 289.541 158.772 289.241C157.659 287.594 157.139 287.837 157.212 289.971C157.225 290.397 157.309 290.844 157.462 291.311C159.489 297.284 161.819 303.134 164.452 308.861C164.825 309.667 165.385 310.311 166.132 310.791Z" stroke="#ED7A3D" stroke-width="2"/>
<path d="M160.122 314.781C161.202 315.527 161.555 315.341 161.182 314.221C158.668 306.674 155.655 299.337 152.142 292.211C151.815 291.544 151.488 291.054 151.162 290.741C150.228 289.827 149.532 290.077 149.072 291.491C148.975 291.781 148.993 292.115 149.122 292.431C151.675 298.557 154.395 304.611 157.282 310.591C157.315 310.651 157.512 311.121 157.872 312.001C158.338 313.147 159.088 314.074 160.122 314.781Z" stroke="#ED7A3D" stroke-width="2"/>
<path d="M131.602 300.915C131.77 300.772 131.901 300.589 131.987 300.376C132.073 300.163 132.113 299.924 132.104 299.674C132.096 299.423 132.039 299.166 131.937 298.917C131.835 298.667 131.689 298.43 131.509 298.22C131.146 297.794 130.663 297.501 130.166 297.405C129.67 297.308 129.2 297.417 128.862 297.706C128.694 297.849 128.563 298.033 128.477 298.246C128.391 298.459 128.351 298.697 128.36 298.948C128.368 299.198 128.425 299.455 128.527 299.705C128.629 299.954 128.774 300.191 128.954 300.402C129.318 300.827 129.801 301.12 130.297 301.217C130.794 301.313 131.263 301.205 131.602 300.915Z" stroke="#E77948" stroke-width="2"/>
<path d="M301.392 295.721L250.802 274.131C245.442 272.671 242.558 269.027 242.152 263.201C241.838 258.714 241.585 254.221 241.392 249.721V246.471C255.999 236.411 264.322 221.934 266.362 203.041C266.376 202.904 266.42 202.772 266.492 202.655C266.564 202.537 266.661 202.437 266.777 202.362C266.893 202.286 267.024 202.237 267.161 202.218C267.299 202.199 267.439 202.21 267.572 202.251C268.299 202.477 269.292 202.311 270.552 201.751C275.998 199.344 279.402 195.524 280.762 190.291C281.662 186.831 281.818 183.604 281.232 180.611C280.558 177.191 278.695 174.337 275.642 172.051C272.382 169.604 268.925 169.037 265.272 170.351C265.176 170.385 265.072 170.395 264.971 170.38C264.87 170.366 264.774 170.327 264.691 170.267C264.609 170.207 264.542 170.127 264.497 170.036C264.451 169.944 264.429 169.843 264.432 169.741C264.778 157.667 264.735 145.597 264.302 133.531C264.268 132.537 264.049 131.601 263.642 130.721C263.622 130.241 263.905 129.844 264.492 129.531C270.212 126.497 275.242 122.194 279.582 116.621C281.689 113.914 283.222 110.967 284.182 107.781C285.262 104.207 285.405 100.981 284.612 98.1007C283.312 93.4207 279.815 90.9641 274.122 90.7307C274.102 90.7307 272.988 90.8507 270.782 91.0907C269.095 91.2774 267.565 90.8174 266.192 89.7107C261.038 85.5574 256.019 85.354 251.132 89.1007C249.612 90.274 248.598 90.9107 248.092 91.0107C246.752 91.2774 245.512 90.7007 244.372 89.2807C242.278 86.674 239.382 85.8274 235.682 86.7407C234.042 87.1407 232.492 87.7307 231.032 88.5107C230.118 89.004 229.852 88.7674 230.232 87.8007C231.285 85.1741 231.262 82.8374 230.162 80.7907C229.255 79.104 227.622 77.7574 225.262 76.7507C222.275 75.4841 218.998 75.0574 215.432 75.4707C210.745 76.0174 206.482 77.184 202.642 78.9707C202.615 78.984 201.865 79.3807 200.392 80.1607C196.165 82.3874 191.262 83.1574 185.682 82.4707C181.842 81.9974 178.889 83.114 176.822 85.8207C175.789 87.174 175.118 89.2474 174.812 92.0407C174.565 94.254 174.332 96.4674 174.112 98.6807C173.952 100.267 173.558 101.354 172.932 101.941C171.865 102.941 170.448 102.867 168.682 101.721C165.695 99.7807 163.285 99.9674 161.452 102.281C160.732 103.187 160.345 104.281 160.292 105.561C160.232 106.841 160.382 108.041 160.742 109.161C162.195 113.627 164.855 117.397 168.722 120.471C165.048 122.877 162.585 126.201 161.332 130.441C160.532 133.141 160.065 136.734 159.932 141.221C159.658 150.387 159.578 159.921 159.692 169.821C159.694 169.942 159.667 170.062 159.614 170.171C159.56 170.279 159.482 170.375 159.385 170.448C159.288 170.522 159.175 170.572 159.055 170.595C158.934 170.618 158.81 170.613 158.692 170.581C154.172 169.254 150.425 169.881 147.452 172.461C145.019 174.581 143.432 177.597 142.692 181.511C142.045 184.944 142.305 188.304 143.472 191.591C144.738 195.171 146.612 197.807 149.092 199.501C151.912 201.421 155.432 202.121 159.652 201.601C159.769 201.587 159.887 201.597 160 201.63C160.113 201.663 160.218 201.719 160.308 201.794C160.398 201.869 160.471 201.962 160.524 202.066C160.576 202.17 160.606 202.284 160.612 202.401C161.365 216.154 166.222 227.594 175.182 236.721C176.308 237.867 176.852 239.171 176.812 240.631C176.778 242.037 176.762 242.767 176.762 242.821C177.249 249.794 177.222 256.094 176.682 261.721C176.255 266.161 174.068 269.641 170.122 272.161C169.242 272.721 167.262 273.837 164.182 275.511C160.868 276.037 157.912 277.337 155.312 279.411C155.193 279.505 155.054 279.572 154.904 279.608C154.754 279.645 154.596 279.649 154.442 279.621C151.935 279.161 149.939 279.794 148.452 281.521C148.229 281.781 147.947 281.984 147.629 282.112C147.31 282.241 146.965 282.292 146.622 282.261C143.895 282.014 141.805 282.924 140.352 284.991C140.141 285.292 139.825 285.504 139.467 285.585C139.108 285.667 138.732 285.612 138.412 285.431C137.732 285.044 136.852 285.101 135.772 285.601C125.279 290.467 114.695 295.131 104.022 299.591C103.655 299.744 103.308 300.077 102.982 300.591C79.1285 277.004 65.3618 248.881 61.6818 216.221C58.3018 186.201 63.9052 158.044 78.4918 131.751C81.7852 125.817 85.4251 120.234 89.4118 115.001C105.118 94.4141 125.355 79.3007 150.122 69.6607C159.508 66.0007 168.945 63.5207 178.432 62.2207C185.558 61.2407 193.229 60.794 201.442 60.8807C208.535 60.9473 215.168 61.4774 221.342 62.4707C246.648 66.5507 269.145 77.084 288.832 94.0707C313.225 115.124 328.779 141.487 335.492 173.161C338.918 189.301 339.315 205.517 336.682 221.811C332.228 249.384 320.912 273.704 302.732 294.771C302.372 295.191 301.925 295.507 301.392 295.721ZM117.042 124.491C118.195 125.144 119.052 124.871 119.612 123.671C122.125 118.317 124.489 112.904 126.702 107.431C127.075 106.504 127.312 105.674 127.412 104.941C127.838 101.981 126.952 101.381 124.752 103.141C124.125 103.647 123.529 104.314 122.962 105.141C119.642 109.987 117.272 115.274 115.852 121.001C115.445 122.641 115.842 123.804 117.042 124.491ZM114.452 288.551C116.965 289.031 118.265 287.924 118.352 285.231C119.385 252.971 120.508 220.717 121.722 188.471C121.808 186.304 121.112 184.977 119.632 184.491C118.459 184.097 117.252 184.294 116.012 185.081C114.879 185.794 114.035 186.804 113.482 188.111C112.822 189.664 112.472 191.281 112.432 192.961C111.745 221.381 111.582 249.801 111.942 278.221C111.982 281.167 112.322 284.124 112.962 287.091C113.039 287.452 113.222 287.784 113.487 288.043C113.752 288.303 114.087 288.479 114.452 288.551ZM105.702 267.171C107.175 268.151 108.002 267.764 108.182 266.011C108.408 263.737 108.525 261.474 108.532 259.221C108.565 241.134 108.778 223.054 109.172 204.981C109.225 202.561 108.915 200.204 108.242 197.911C107.828 196.477 107.245 196.351 106.492 197.531C105.485 199.117 104.922 200.851 104.802 202.731C103.828 217.544 103.182 232.374 102.862 247.221C102.675 255.754 102.865 261.254 103.432 263.721C103.778 265.247 104.535 266.397 105.702 267.171ZM124.222 207.631C123.782 208.331 123.518 209.094 123.432 209.921C122.492 219.434 122.072 228.951 122.172 238.471C122.178 238.825 122.292 239.145 122.492 239.371C123.218 240.204 123.982 240.251 124.782 239.511C124.995 239.317 125.14 239.015 125.192 238.661C126.565 228.607 127.152 218.511 126.952 208.371C126.939 207.624 126.758 207.084 126.412 206.751C125.738 206.104 125.008 206.397 124.222 207.631ZM95.3818 275.541C96.6485 277.094 97.6551 276.941 98.4018 275.081C99.4951 272.354 99.9218 269.484 99.6818 266.471C99.3885 262.844 99.1685 252.927 99.0219 236.721C98.9952 233.974 97.6451 232.831 94.9718 233.291C93.4651 233.551 92.6085 234.437 92.4018 235.951C91.0018 246.011 90.9785 256.131 92.3319 266.311C92.6919 269.011 92.9419 270.617 93.0819 271.131C93.5219 272.737 94.2885 274.207 95.3818 275.541Z" fill="#FDE8E1"/>
<path d="M263.642 130.721C263.282 130.521 262.942 130.497 262.622 130.651C253.542 135.071 244.028 136.174 234.082 133.961C224.375 131.801 216.325 128.971 209.932 125.471C203.092 121.731 195.755 120.111 187.922 120.611C180.822 121.064 176.158 121.434 173.932 121.721C171.878 121.987 170.142 121.571 168.722 120.471C164.855 117.397 162.195 113.627 160.742 109.161C160.382 108.041 160.232 106.841 160.292 105.561C160.345 104.281 160.732 103.187 161.452 102.281C163.285 99.9674 165.695 99.7807 168.682 101.721C170.448 102.867 171.865 102.941 172.932 101.941C173.558 101.354 173.952 100.267 174.112 98.6807C174.332 96.4674 174.565 94.2541 174.812 92.0407C175.118 89.2474 175.788 87.174 176.822 85.8207C178.888 83.114 181.842 81.9974 185.682 82.4707C191.262 83.1574 196.165 82.3874 200.392 80.1607C201.865 79.3807 202.615 78.984 202.642 78.9707C206.482 77.184 210.745 76.0174 215.432 75.4707C218.998 75.0574 222.275 75.4841 225.262 76.7507C227.622 77.7574 229.255 79.1041 230.162 80.7907C231.262 82.8374 231.285 85.1741 230.232 87.8007C229.852 88.7674 230.118 89.004 231.032 88.5107C232.492 87.7307 234.042 87.1407 235.682 86.7407C239.382 85.8274 242.278 86.674 244.372 89.2807C245.512 90.7007 246.752 91.2774 248.092 91.0107C248.598 90.9107 249.612 90.274 251.132 89.1007C256.018 85.354 261.038 85.5574 266.192 89.7107C267.565 90.8174 269.095 91.2774 270.782 91.0907C272.988 90.8507 274.102 90.7307 274.122 90.7307C279.815 90.9641 283.312 93.4207 284.612 98.1007C285.405 100.981 285.262 104.207 284.182 107.781C283.222 110.967 281.688 113.914 279.582 116.621C275.242 122.194 270.212 126.497 264.492 129.531C263.905 129.844 263.622 130.241 263.642 130.721Z" fill="#2B1529"/>
<path d="M117.042 124.491C115.842 123.804 115.445 122.641 115.852 121.001C117.272 115.274 119.642 109.987 122.962 105.141C123.528 104.314 124.125 103.647 124.752 103.141C126.952 101.381 127.838 101.981 127.412 104.941C127.312 105.674 127.075 106.504 126.702 107.431C124.488 112.904 122.125 118.317 119.612 123.671C119.052 124.871 118.195 125.144 117.042 124.491Z" fill="#599B97"/>
<path d="M168.722 120.471C170.142 121.571 171.878 121.987 173.932 121.721C176.158 121.434 180.822 121.064 187.922 120.611C195.755 120.111 203.092 121.731 209.932 125.471C216.325 128.971 224.375 131.801 234.082 133.961C244.028 136.174 253.542 135.071 262.622 130.651C262.942 130.497 263.282 130.521 263.642 130.721C264.048 131.601 264.268 132.537 264.302 133.531C264.735 145.597 264.778 157.667 264.432 169.741C264.429 169.843 264.451 169.944 264.497 170.036C264.542 170.127 264.609 170.207 264.691 170.267C264.774 170.327 264.87 170.366 264.971 170.38C265.072 170.395 265.175 170.385 265.272 170.351C268.925 169.037 272.382 169.604 275.642 172.051C278.695 174.337 280.558 177.191 281.232 180.611C281.818 183.604 281.662 186.831 280.762 190.291C279.402 195.524 275.998 199.344 270.552 201.751C269.292 202.311 268.298 202.477 267.572 202.251C267.439 202.21 267.299 202.199 267.161 202.218C267.024 202.237 266.893 202.286 266.777 202.362C266.661 202.437 266.564 202.537 266.492 202.655C266.42 202.772 266.376 202.904 266.362 203.041C264.322 221.934 255.998 236.411 241.392 246.471C237.118 248.904 232.648 250.791 227.982 252.131C223.342 253.464 218.585 254.031 213.712 253.831C201.878 253.344 191.095 249.471 181.362 242.211C181.265 242.138 181.163 242.086 181.066 242.06C180.969 242.033 180.881 242.034 180.812 242.061C180.618 242.127 180.685 242.321 181.012 242.641C187.638 249.281 195.242 254.177 203.822 257.331C209.728 259.497 215.245 260.267 220.372 259.641C227.012 258.834 233.048 256.197 238.482 251.731C238.587 251.644 238.673 251.525 238.732 251.383C238.791 251.241 238.821 251.079 238.822 250.911C238.822 250.217 239.192 249.987 239.932 250.221C240.598 250.434 241.085 250.267 241.392 249.721C241.585 254.221 241.838 258.714 242.152 263.201C242.558 269.027 245.442 272.671 250.802 274.131C251.235 279.391 251.278 284.324 250.932 288.931C243.978 299.717 234.625 306.211 222.872 308.411C211.218 310.584 199.708 308.547 188.342 302.301C185.942 300.361 183.202 297.687 180.122 294.281C173.635 287.121 168.322 280.864 164.182 275.511C167.262 273.837 169.242 272.721 170.122 272.161C174.068 269.641 176.255 266.161 176.682 261.721C177.222 256.094 177.248 249.794 176.762 242.821C176.762 242.767 176.778 242.037 176.812 240.631C176.852 239.171 176.308 237.867 175.182 236.721C166.222 227.594 161.365 216.154 160.612 202.401C160.606 202.284 160.576 202.17 160.523 202.066C160.471 201.962 160.398 201.869 160.308 201.794C160.218 201.719 160.113 201.663 160 201.63C159.887 201.597 159.769 201.587 159.652 201.601C155.432 202.121 151.912 201.421 149.092 199.501C146.612 197.807 144.738 195.171 143.472 191.591C142.305 188.304 142.045 184.944 142.692 181.511C143.432 177.597 145.018 174.581 147.452 172.461C150.425 169.881 154.172 169.254 158.692 170.581C158.81 170.613 158.934 170.618 159.054 170.595C159.175 170.572 159.288 170.522 159.385 170.448C159.482 170.375 159.56 170.279 159.613 170.171C159.667 170.062 159.693 169.942 159.692 169.821C159.578 159.921 159.658 150.387 159.932 141.221C160.065 136.734 160.532 133.141 161.332 130.441C162.585 126.201 165.048 122.877 168.722 120.471ZM215.622 144.701C226.422 145.247 236.505 147.581 245.872 151.701C246.538 151.994 247.222 152.231 247.922 152.411C250.128 152.957 250.968 152.704 250.442 151.651C250.312 151.387 250.056 151.162 249.722 151.021C241.328 147.334 232.655 144.711 223.702 143.151C217.682 142.104 211.812 141.707 206.092 141.961C200.178 142.227 194.322 143.041 188.522 144.401C184.682 145.294 181.052 146.707 177.632 148.641C176.772 149.127 175.998 149.981 175.312 151.201C174.692 152.307 174.962 152.604 176.122 152.091C188.708 146.471 201.875 144.007 215.622 144.701ZM234.312 160.681C234.554 160.962 234.853 161.19 235.188 161.352C235.523 161.513 235.889 161.605 236.262 161.621C244.635 161.967 252.018 163.337 258.412 165.731C258.475 165.754 258.542 165.765 258.609 165.763C258.676 165.761 258.742 165.746 258.803 165.719C258.863 165.692 258.917 165.654 258.962 165.606C259.006 165.558 259.04 165.502 259.062 165.441C259.555 164.081 259.518 162.721 258.952 161.361C258.835 161.076 258.61 160.826 258.312 160.651C251.832 156.957 244.885 155.204 237.472 155.391C236.025 155.424 234.925 155.774 234.172 156.441C232.845 157.614 232.892 159.027 234.312 160.681ZM201.572 156.611C201.286 156.215 200.905 155.896 200.466 155.683C200.026 155.47 199.54 155.369 199.052 155.391C192.325 155.677 186.352 156.651 181.132 158.311C178.798 159.051 177.128 160.001 176.122 161.161C174.948 162.501 174.945 163.897 176.112 165.351C176.201 165.46 176.325 165.539 176.467 165.578C176.609 165.618 176.764 165.615 176.912 165.571C183.778 163.484 190.788 162.157 197.942 161.591C199.462 161.471 200.565 161.181 201.252 160.721C202.732 159.714 202.838 158.344 201.572 156.611ZM222.742 169.931C220.828 179.531 221.325 188.997 224.232 198.331C224.258 198.411 224.472 198.947 224.872 199.941C225.625 201.787 225.185 203.344 223.552 204.611C221.505 206.204 219.188 207.504 216.602 208.511C216.135 208.691 216.148 208.834 216.642 208.941C220.015 209.654 223.318 209.514 226.552 208.521C228.365 207.961 229.648 207.031 230.402 205.731C231.195 204.337 231.602 202.684 231.622 200.771C232.468 199.697 233.725 199.514 235.392 200.221C236.685 208.614 241.448 212.531 249.682 211.971C255.395 211.584 259.392 208.904 261.672 203.931C262.592 201.924 262.962 200.057 262.782 198.331C262.588 196.444 261.868 194.594 260.622 192.781C258.268 189.367 255.205 187.417 251.432 186.931C244.058 185.977 238.962 188.824 236.142 195.471C235.862 195.704 235.608 195.784 235.382 195.711C235.268 195.675 235.177 195.574 235.129 195.429C235.081 195.284 235.078 195.106 235.122 194.931C235.735 192.477 235.922 190.407 235.682 188.721C235.088 184.547 234.935 181.131 235.222 178.471C237.608 176.317 240.345 175.117 243.432 174.871C243.978 180.251 246.392 182.041 250.672 180.241C251.129 180.049 251.518 179.724 251.789 179.309C252.06 178.894 252.2 178.407 252.192 177.911C252.158 175.944 251.685 174.184 250.772 172.631L258.902 178.001C259.025 178.079 259.149 178.135 259.261 178.164C259.372 178.192 259.466 178.191 259.532 178.161C259.732 178.074 259.735 177.881 259.542 177.581C256.302 172.694 251.682 170.157 245.682 169.971C241.542 169.844 238.708 169.941 237.182 170.261C236.288 170.201 235.532 169.684 234.912 168.711C234.312 167.764 233.448 167.277 232.322 167.251C230.008 167.197 228.778 166.461 228.632 165.041C228.61 164.857 228.561 164.688 228.49 164.547C228.419 164.407 228.327 164.298 228.222 164.231C227.455 163.744 226.792 163.927 226.232 164.781C225.132 166.447 223.968 168.164 222.742 169.931ZM184.182 176.011C183.955 178.091 184.485 179.537 185.772 180.351C186.858 181.031 187.992 181.144 189.172 180.691C190.398 180.217 191.152 179.144 191.432 177.471C191.732 175.684 191.895 174.284 191.922 173.271C195.288 173.197 198.125 174.431 200.432 176.971C200.998 177.591 201.165 177.507 200.932 176.721C199.578 172.114 196.878 169.567 192.832 169.081C190.165 168.761 187.405 168.927 184.552 169.581C180.232 170.561 177.248 173.517 175.602 178.451C175.348 179.211 175.605 179.437 176.372 179.131L184.182 176.011ZM271.642 175.131C268.588 174.244 266.795 174.964 266.262 177.291C266.255 177.351 266.122 178.927 265.862 182.021C265.615 185.007 265.688 187.837 266.082 190.511C266.322 192.157 267.252 192.807 268.872 192.461C272.298 191.734 274.332 189.947 274.972 187.101C275.318 185.574 275.378 183.811 275.152 181.811C274.952 180.071 274.408 178.354 273.522 176.661C273.325 176.293 273.058 175.969 272.735 175.706C272.412 175.443 272.04 175.248 271.642 175.131ZM153.122 191.031C154.688 192.271 156.272 192.487 157.872 191.681C159.052 191.087 159.928 190.001 160.502 188.421C161.568 185.447 161.578 182.391 160.532 179.251C160.481 179.099 160.401 178.958 160.296 178.838C160.191 178.718 160.064 178.62 159.922 178.551C157.642 177.444 155.545 177.371 153.632 178.331C151.805 179.244 150.642 180.844 150.142 183.131C149.448 186.291 150.442 188.924 153.122 191.031ZM195.079 197.623C194.877 195.995 194.334 194.426 193.482 193.005C192.63 191.584 191.485 190.34 190.113 189.342C188.742 188.344 187.17 187.612 185.487 187.189C183.805 186.766 182.045 186.66 180.308 186.877C176.8 187.313 173.598 189.038 171.407 191.672C169.215 194.305 168.214 197.631 168.624 200.918C168.827 202.546 169.369 204.115 170.222 205.536C171.074 206.957 172.218 208.202 173.59 209.2C174.961 210.198 176.533 210.929 178.216 211.352C179.898 211.775 181.658 211.881 183.395 211.665C186.904 211.228 190.105 209.503 192.297 206.87C194.488 204.236 195.489 200.91 195.079 197.623ZM208.882 227.421L213.372 228.461C213.497 228.491 213.609 228.562 213.694 228.664C213.778 228.766 213.83 228.895 213.842 229.031C213.882 229.524 214.142 229.941 214.622 230.281C217.468 232.321 220.305 232.361 223.132 230.401C223.958 229.827 223.872 229.517 222.872 229.471C221.485 229.404 220.092 229.497 218.692 229.751C217.525 229.957 216.492 229.791 215.592 229.251C215.292 229.071 215.315 228.921 215.662 228.801C218.002 227.967 219.655 227.711 220.622 228.031C222.882 228.784 224.665 228.367 225.972 226.781C232.098 224.261 236.645 220.177 239.612 214.531C240.012 213.777 239.795 213.487 238.962 213.661C224.688 216.687 210.358 216.674 195.972 213.621C194.398 213.287 193.938 213.854 194.592 215.321C197.465 221.767 202.228 225.801 208.882 227.421ZM207.183 285.738C207.185 285.623 207.164 285.51 207.123 285.404C207.081 285.297 207.018 285.2 206.939 285.118C206.86 285.036 206.765 284.97 206.66 284.924C206.555 284.879 206.442 284.854 206.328 284.852L206.268 284.852C206.038 284.847 205.815 284.935 205.649 285.096C205.483 285.256 205.387 285.475 205.383 285.706L205.12 300.764C205.118 300.878 205.139 300.992 205.181 301.098C205.223 301.204 205.285 301.301 205.364 301.383C205.444 301.466 205.539 301.531 205.643 301.577C205.748 301.622 205.861 301.647 205.975 301.649L206.035 301.65C206.266 301.654 206.489 301.566 206.655 301.406C206.82 301.246 206.916 301.026 206.92 300.795L207.183 285.738Z" fill="#AC543C"/>
<path d="M215.622 144.701C201.875 144.007 188.708 146.471 176.122 152.091C174.962 152.604 174.692 152.307 175.312 151.201C175.998 149.981 176.772 149.127 177.632 148.641C181.052 146.707 184.682 145.294 188.522 144.401C194.322 143.041 200.178 142.227 206.092 141.961C211.812 141.707 217.682 142.104 223.702 143.151C232.655 144.711 241.328 147.334 249.722 151.021C250.056 151.162 250.313 151.387 250.442 151.651C250.968 152.704 250.128 152.957 247.922 152.411C247.222 152.231 246.538 151.994 245.872 151.701C236.505 147.581 226.422 145.247 215.622 144.701Z" fill="#973F33"/>
<path d="M234.312 160.681C232.892 159.027 232.845 157.614 234.172 156.441C234.925 155.774 236.025 155.424 237.472 155.391C244.885 155.204 251.832 156.957 258.312 160.651C258.61 160.826 258.835 161.076 258.952 161.361C259.518 162.721 259.555 164.081 259.062 165.441C259.04 165.502 259.006 165.558 258.962 165.606C258.917 165.654 258.863 165.692 258.803 165.719C258.742 165.746 258.677 165.761 258.609 165.763C258.542 165.765 258.475 165.754 258.412 165.731C252.018 163.337 244.635 161.967 236.262 161.621C235.889 161.605 235.523 161.513 235.188 161.351C234.853 161.19 234.554 160.962 234.312 160.681Z" fill="#22151C"/>
<path d="M201.572 156.611C202.838 158.344 202.732 159.714 201.252 160.721C200.565 161.181 199.462 161.471 197.942 161.591C190.788 162.157 183.778 163.484 176.912 165.571C176.764 165.615 176.61 165.618 176.467 165.578C176.325 165.539 176.201 165.46 176.112 165.351C174.945 163.897 174.948 162.501 176.122 161.161C177.128 160.001 178.798 159.051 181.132 158.311C186.352 156.651 192.325 155.677 199.052 155.391C199.54 155.369 200.026 155.47 200.466 155.683C200.906 155.896 201.286 156.215 201.572 156.611Z" fill="#1E111E"/>
<path d="M237.182 170.261C237.282 171.294 237.728 172.187 238.522 172.941C238.688 173.097 238.816 173.29 238.895 173.504C238.975 173.719 239.003 173.949 238.978 174.176C238.952 174.403 238.874 174.621 238.75 174.813C238.626 175.005 238.459 175.165 238.262 175.281C236.695 176.201 235.681 177.264 235.221 178.471C234.935 181.131 235.088 184.547 235.682 188.721C235.922 190.407 235.735 192.477 235.122 194.931C235.078 195.106 235.081 195.284 235.129 195.429C235.177 195.574 235.268 195.675 235.382 195.711C235.608 195.784 235.862 195.704 236.142 195.471L235.392 200.221C233.725 199.514 232.468 199.697 231.622 200.771C225.015 191.657 222.055 181.377 222.742 169.931C223.968 168.164 225.131 166.447 226.231 164.781C226.791 163.927 227.455 163.744 228.221 164.231C228.327 164.298 228.419 164.407 228.49 164.547C228.561 164.688 228.61 164.857 228.632 165.041C228.778 166.461 230.008 167.197 232.322 167.251C233.448 167.277 234.311 167.764 234.911 168.711C235.531 169.684 236.288 170.201 237.182 170.261Z" fill="#9C4534"/>
<path d="M191.922 173.271C188.262 171.951 185.682 172.864 184.182 176.011L176.372 179.131C175.605 179.437 175.348 179.211 175.602 178.451C177.248 173.517 180.232 170.561 184.552 169.581C187.405 168.927 190.165 168.761 192.832 169.081C196.878 169.567 199.578 172.114 200.932 176.721C201.165 177.507 200.998 177.591 200.432 176.971C198.125 174.431 195.288 173.197 191.922 173.271Z" fill="#84362C"/>
<path d="M250.772 172.631C247.192 171.671 244.745 172.417 243.432 174.871C240.345 175.117 237.608 176.317 235.222 178.471C235.682 177.264 236.695 176.201 238.262 175.281C238.459 175.165 238.626 175.005 238.75 174.813C238.875 174.621 238.952 174.403 238.978 174.176C239.003 173.949 238.975 173.719 238.896 173.504C238.817 173.29 238.689 173.097 238.522 172.941C237.728 172.187 237.282 171.294 237.182 170.261C238.708 169.941 241.542 169.844 245.682 169.971C251.682 170.157 256.302 172.694 259.542 177.581C259.735 177.881 259.732 178.074 259.532 178.161C259.466 178.191 259.372 178.192 259.261 178.164C259.149 178.135 259.025 178.079 258.902 178.001L250.772 172.631Z" fill="#7F3228"/>
<path d="M222.742 169.931C222.055 181.377 225.015 191.657 231.622 200.771C231.602 202.684 231.195 204.337 230.401 205.731C229.648 207.031 228.365 207.961 226.552 208.521C223.318 209.514 220.015 209.654 216.642 208.941C216.148 208.834 216.135 208.691 216.601 208.511C219.188 207.504 221.505 206.204 223.552 204.611C225.185 203.344 225.625 201.787 224.872 199.941C224.472 198.947 224.258 198.411 224.231 198.331C221.325 188.997 220.828 179.531 222.742 169.931Z" fill="#7F3228"/>
<path d="M250.772 172.631C251.685 174.184 252.158 175.944 252.192 177.911C252.2 178.407 252.06 178.894 251.789 179.309C251.518 179.724 251.129 180.049 250.672 180.241C246.392 182.041 243.978 180.251 243.432 174.871C244.745 172.417 247.192 171.671 250.772 172.631Z" fill="#4B1F1C"/>
<path d="M191.922 173.271C191.895 174.284 191.732 175.684 191.432 177.471C191.152 179.144 190.398 180.217 189.172 180.691C187.992 181.144 186.858 181.031 185.772 180.351C184.485 179.537 183.955 178.091 184.182 176.011C185.682 172.864 188.262 171.951 191.922 173.271Z" fill="#482729"/>
<path d="M271.642 175.131C272.041 175.248 272.412 175.443 272.735 175.706C273.058 175.969 273.325 176.293 273.522 176.661C274.409 178.354 274.952 180.071 275.152 181.811C275.378 183.811 275.318 185.574 274.972 187.101C274.332 189.947 272.299 191.734 268.872 192.461C267.252 192.807 266.322 192.157 266.082 190.511C265.689 187.837 265.615 185.007 265.862 182.021C266.122 178.927 266.255 177.351 266.262 177.291C266.795 174.964 268.589 174.244 271.642 175.131Z" fill="#9F4035"/>
<path d="M153.121 191.031C150.441 188.924 149.448 186.291 150.141 183.131C150.641 180.844 151.805 179.244 153.631 178.331C155.545 177.371 157.641 177.444 159.921 178.551C160.064 178.62 160.191 178.718 160.296 178.838C160.401 178.958 160.481 179.099 160.531 179.251C161.578 182.391 161.568 185.447 160.501 188.421C159.928 190.001 159.051 191.087 157.871 191.681C156.271 192.487 154.688 192.271 153.121 191.031Z" fill="#973F33"/>
<path d="M114.452 288.551C114.087 288.479 113.751 288.303 113.486 288.043C113.222 287.784 113.039 287.452 112.962 287.091C112.322 284.124 111.982 281.167 111.942 278.221C111.582 249.801 111.745 221.381 112.432 192.961C112.472 191.281 112.822 189.664 113.482 188.111C114.035 186.804 114.878 185.794 116.012 185.081C117.252 184.294 118.458 184.097 119.632 184.491C121.112 184.977 121.808 186.304 121.722 188.471C120.508 220.717 119.385 252.971 118.352 285.231C118.265 287.924 116.965 289.031 114.452 288.551Z" fill="#599B97"/>
<path d="M183.395 211.665C190.701 210.755 195.932 204.468 195.079 197.623C194.227 190.778 187.613 185.967 180.308 186.877C173.002 187.786 167.771 194.073 168.624 200.918C169.476 207.763 176.09 212.575 183.395 211.665Z" fill="#913C32"/>
<path d="M235.392 200.221L236.142 195.471C238.962 188.824 244.058 185.977 251.432 186.931C255.205 187.417 258.268 189.367 260.622 192.781C261.868 194.594 262.588 196.444 262.782 198.331C262.962 200.057 262.592 201.924 261.672 203.931C259.392 208.904 255.395 211.584 249.682 211.971C241.448 212.531 236.685 208.614 235.392 200.221Z" fill="#913C32"/>
<path d="M105.702 267.171C104.535 266.397 103.779 265.247 103.432 263.721C102.865 261.254 102.675 255.754 102.862 247.221C103.182 232.374 103.829 217.544 104.802 202.731C104.922 200.851 105.485 199.117 106.492 197.531C107.245 196.351 107.829 196.477 108.242 197.911C108.915 200.204 109.225 202.561 109.172 204.981C108.779 223.054 108.565 241.134 108.532 259.221C108.525 261.474 108.409 263.737 108.182 266.011C108.002 267.764 107.175 268.151 105.702 267.171Z" fill="#599B97"/>
<path d="M124.222 207.631C125.008 206.397 125.738 206.104 126.412 206.751C126.758 207.084 126.938 207.624 126.952 208.371C127.152 218.511 126.565 228.607 125.192 238.661C125.14 239.015 124.994 239.317 124.782 239.511C123.982 240.251 123.218 240.204 122.492 239.371C122.292 239.145 122.178 238.825 122.172 238.471C122.072 228.951 122.492 219.434 123.432 209.921C123.518 209.094 123.782 208.331 124.222 207.631Z" fill="#599B97"/>
<path d="M225.972 226.781C220.272 226.607 214.575 226.821 208.882 227.421C202.228 225.801 197.465 221.767 194.592 215.321C193.938 213.854 194.398 213.287 195.972 213.621C210.358 216.674 224.688 216.687 238.962 213.661C239.795 213.487 240.012 213.777 239.612 214.531C236.645 220.177 232.098 224.261 225.972 226.781Z" fill="#FDFDFD"/>
<path d="M225.972 226.781C224.665 228.367 222.882 228.784 220.622 228.031C219.655 227.711 218.002 227.967 215.662 228.801C215.315 228.921 215.292 229.071 215.592 229.251C216.492 229.791 217.525 229.957 218.692 229.751C220.092 229.497 221.485 229.404 222.872 229.471C223.872 229.517 223.959 229.827 223.132 230.401C220.305 232.361 217.468 232.321 214.622 230.281C214.142 229.941 213.882 229.524 213.842 229.031C213.83 228.895 213.778 228.766 213.694 228.664C213.61 228.562 213.497 228.49 213.372 228.461L208.882 227.421C214.575 226.821 220.272 226.607 225.972 226.781Z" fill="#822528"/>
<path d="M95.3818 275.541C94.2885 274.207 93.5218 272.737 93.0818 271.131C92.9418 270.617 92.6918 269.011 92.3318 266.311C90.9785 256.131 91.0018 246.011 92.4018 235.951C92.6084 234.437 93.4651 233.551 94.9718 233.291C97.6451 232.831 98.9951 233.974 99.0218 236.721C99.1685 252.927 99.3884 262.844 99.6818 266.471C99.9218 269.484 99.4951 272.354 98.4018 275.081C97.6551 276.941 96.6485 277.094 95.3818 275.541Z" fill="#599B97"/>
<path d="M241.392 246.471V249.721C241.085 250.267 240.599 250.434 239.932 250.221C239.192 249.987 238.822 250.217 238.822 250.911C238.822 251.079 238.791 251.241 238.732 251.383C238.673 251.525 238.588 251.644 238.482 251.731C233.049 256.197 227.012 258.834 220.372 259.641C215.245 260.267 209.729 259.497 203.822 257.331C195.242 254.177 187.639 249.281 181.012 242.641C180.685 242.321 180.619 242.127 180.812 242.061C180.882 242.034 180.97 242.033 181.066 242.06C181.163 242.086 181.265 242.138 181.362 242.211C191.095 249.471 201.879 253.344 213.712 253.831C218.585 254.031 223.342 253.464 227.982 252.131C232.649 250.791 237.119 248.904 241.392 246.471Z" fill="#8C3831"/>
<path d="M250.802 274.131L301.392 295.721C301.445 295.921 301.355 296.151 301.122 296.411C287.008 311.704 270.325 323.204 251.072 330.911C251.001 330.94 250.925 330.952 250.849 330.944C250.773 330.936 250.7 330.909 250.637 330.866C250.573 330.822 250.521 330.763 250.486 330.694C250.45 330.625 250.431 330.548 250.432 330.471L250.932 288.931C251.278 284.324 251.235 279.391 250.802 274.131Z" fill="#599B97"/>
<path d="M164.181 275.511C168.321 280.864 173.635 287.121 180.121 294.281C183.201 297.687 185.941 300.361 188.341 302.301C194.648 311.321 195.318 320.781 190.351 330.681C188.591 334.201 186.441 336.694 183.901 338.161C182.481 338.987 180.961 339.277 179.341 339.031C149.515 334.564 124.061 321.751 102.981 300.591C103.308 300.077 103.655 299.744 104.021 299.591C114.695 295.131 125.278 290.467 135.771 285.601C136.851 285.101 137.731 285.044 138.411 285.431C138.732 285.612 139.108 285.667 139.466 285.585C139.825 285.504 140.141 285.292 140.351 284.991C141.805 282.924 143.895 282.014 146.621 282.261C146.965 282.292 147.31 282.241 147.628 282.112C147.947 281.984 148.229 281.781 148.451 281.521C149.938 279.794 151.935 279.161 154.441 279.621C154.596 279.649 154.753 279.645 154.903 279.608C155.053 279.572 155.193 279.505 155.311 279.411C157.911 277.337 160.868 276.037 164.181 275.511ZM166.131 310.791C166.838 311.244 167.188 311.051 167.181 310.211C167.175 309.144 166.975 308.114 166.581 307.121C164.355 301.467 161.958 295.884 159.391 290.371C159.178 289.917 158.971 289.541 158.771 289.241C157.658 287.594 157.138 287.837 157.211 289.971C157.225 290.397 157.308 290.844 157.461 291.311C159.488 297.284 161.818 303.134 164.451 308.861C164.825 309.667 165.385 310.311 166.131 310.791ZM160.121 314.781C161.201 315.527 161.555 315.341 161.181 314.221C158.668 306.674 155.655 299.337 152.141 292.211C151.815 291.544 151.488 291.054 151.161 290.741C150.228 289.827 149.531 290.077 149.071 291.491C148.975 291.781 148.993 292.115 149.121 292.431C151.675 298.557 154.395 304.611 157.281 310.591C157.315 310.651 157.511 311.121 157.871 312.001C158.338 313.147 159.088 314.074 160.121 314.781ZM131.602 300.915C131.77 300.772 131.9 300.589 131.986 300.376C132.073 300.163 132.112 299.924 132.104 299.674C132.095 299.423 132.038 299.166 131.936 298.917C131.834 298.667 131.689 298.43 131.509 298.22C131.146 297.794 130.662 297.501 130.166 297.405C129.669 297.308 129.2 297.417 128.861 297.706C128.693 297.849 128.563 298.033 128.477 298.246C128.39 298.459 128.351 298.697 128.359 298.948C128.368 299.198 128.425 299.455 128.527 299.705C128.629 299.954 128.774 300.191 128.954 300.402C129.317 300.827 129.801 301.12 130.297 301.217C130.794 301.313 131.263 301.205 131.602 300.915Z" fill="#FD9148"/>
<path d="M206.328 284.853L206.268 284.851C205.788 284.843 205.392 285.226 205.383 285.706L205.12 300.764C205.112 301.244 205.495 301.641 205.975 301.649L206.035 301.65C206.516 301.658 206.912 301.276 206.92 300.795L207.183 285.738C207.191 285.257 206.809 284.861 206.328 284.853Z" fill="#913C32"/>
<path d="M166.132 310.791C165.385 310.311 164.825 309.667 164.452 308.861C161.819 303.134 159.489 297.284 157.462 291.311C157.309 290.844 157.225 290.397 157.212 289.971C157.139 287.837 157.659 287.594 158.772 289.241C158.972 289.541 159.179 289.917 159.392 290.371C161.959 295.884 164.355 301.467 166.582 307.121C166.975 308.114 167.175 309.144 167.182 310.211C167.189 311.051 166.839 311.244 166.132 310.791Z" fill="#DC6232"/>
<path d="M160.122 314.781C159.088 314.074 158.338 313.147 157.872 312.001C157.512 311.121 157.315 310.651 157.282 310.591C154.395 304.611 151.675 298.557 149.122 292.431C148.993 292.115 148.975 291.781 149.072 291.491C149.532 290.077 150.228 289.827 151.162 290.741C151.488 291.054 151.815 291.544 152.142 292.211C155.655 299.337 158.668 306.674 161.182 314.221C161.555 315.341 161.202 315.527 160.122 314.781Z" fill="#DC6232"/>
<path d="M128.954 300.402C129.711 301.288 130.896 301.518 131.602 300.915C132.307 300.313 132.266 299.106 131.509 298.22C130.752 297.334 129.567 297.104 128.861 297.706C128.156 298.309 128.197 299.516 128.954 300.402Z" fill="#D16047"/>
</svg>
