<svg width="400" height="400" viewBox="0 0 400 400" fill="none" xmlns="http://www.w3.org/2000/svg">
<rect width="400" height="400" rx="32" fill="#FB9684"/>
<path d="M96.6416 296.471C104.442 305.631 113.422 313.527 123.582 320.161" stroke="#FDDDD3" stroke-width="2"/>
<path d="M123.582 320.161C136.508 329.227 150.825 335.607 166.531 339.301C166.669 339.332 166.811 339.332 166.949 339.301C167.086 339.27 167.214 339.209 167.325 339.122C167.435 339.034 167.525 338.923 167.586 338.797C167.648 338.67 167.681 338.531 167.682 338.391L167.721 320.471" stroke="#9E919B" stroke-width="2"/>
<path d="M167.722 320.471L167.952 313.721C167.957 313.51 167.991 313.314 168.048 313.159C168.105 313.004 168.183 312.897 168.272 312.851L168.972 312.471" stroke="#FCF9F7" stroke-width="2"/>
<path d="M168.972 312.471C173.612 318.257 179.202 322.387 185.742 324.861C191.668 327.094 198.228 327.771 205.422 326.891C215.522 325.651 224.712 321.614 232.992 314.781C235.265 312.907 236.988 310.794 238.162 308.441" stroke="#FEDCD3" stroke-width="2"/>
<path d="M238.162 308.441L237.932 337.491C237.933 337.597 237.958 337.702 238.005 337.797C238.053 337.892 238.122 337.975 238.206 338.039C238.29 338.103 238.388 338.147 238.491 338.166C238.594 338.185 238.701 338.18 238.802 338.151C250.868 334.731 261.982 329.804 272.142 323.371" stroke="#9E919B" stroke-width="2"/>
<path d="M272.142 323.371C286.022 314.837 297.828 303.977 307.562 290.791" stroke="#FDDBD2" stroke-width="2"/>
<path d="M307.562 290.791C308.942 289.017 310.451 286.967 312.091 284.641C313.245 283.001 313.488 281.057 312.822 278.811" stroke="#E5AB99" stroke-width="2"/>
<path d="M312.822 278.811C314.808 279.344 316.115 278.744 316.742 277.011" stroke="#FCF7F4" stroke-width="2"/>
<path d="M316.742 277.011C319.162 274.797 320.265 272.387 320.052 269.781" stroke="#F7B89C" stroke-width="2"/>
<path d="M320.052 269.781C321.359 269.361 322.132 268.904 322.372 268.411C342.805 226.591 343.535 184.367 324.562 141.741C317.162 125.107 306.892 110.494 293.752 97.9006C276.939 81.7939 257.472 70.6939 235.352 64.6006C228.998 62.8539 222.458 61.5939 215.732 60.8206C199.125 58.9073 183.089 59.8539 167.622 63.6606C142.795 69.7673 121.212 81.8906 102.872 100.031C98.2185 104.631 93.8519 109.657 89.7719 115.111C65.3119 147.757 56.2818 184.794 62.6818 226.221C66.1552 248.714 75.0085 269.444 89.2418 288.411C90.4352 289.997 92.9019 292.684 96.6419 296.471" stroke="#FEF3F0" stroke-width="2"/>
<path d="M320.052 269.781C319.725 260.034 315.822 252.201 308.342 246.281C306.822 245.074 305.322 243.837 303.842 242.571C300.515 239.724 298.482 236.241 297.742 232.121C297.508 230.807 297.482 228.701 297.662 225.801C297.788 223.694 297.878 221.584 297.932 219.471C298.165 209.484 293.728 202.671 284.622 199.031C279.928 197.151 275.485 194.834 271.292 192.081C268.898 190.514 267.228 189.021 266.282 187.601C264.995 185.674 264.265 183.467 264.092 180.981C263.965 179.174 263.912 176.587 263.932 173.221C263.945 170.994 264.202 169.014 264.702 167.281" stroke="#F7AD8D" stroke-width="2"/>
<path d="M264.702 167.281C269.922 163.167 273.518 158.157 275.492 152.251C276.858 148.164 277.075 143.937 276.142 139.571C274.202 130.484 268.872 123.614 260.152 118.961C256.705 117.121 254.975 114.207 254.962 110.221C254.935 103.047 252.215 97.1739 246.802 92.6006C240.602 87.3539 233.638 83.9973 225.912 82.5306C220.372 81.4839 215.568 81.5639 211.502 82.7706C206.742 84.1839 202.592 87.0306 199.052 91.3106C198.992 91.3838 198.916 91.4429 198.831 91.4834C198.745 91.5239 198.651 91.5449 198.557 91.5449C198.462 91.5449 198.369 91.5239 198.283 91.4834C198.197 91.4429 198.122 91.3838 198.062 91.3106C195.928 88.7506 193.532 86.9406 190.872 85.8806C184.145 83.1939 177.248 82.7239 170.182 84.4706C163.835 86.0373 158.768 89.0173 154.982 93.4106C153.342 95.3039 151.968 97.7173 150.862 100.651C149.875 103.277 149.085 105.971 148.492 108.731C147.045 115.544 143.718 121.234 138.512 125.801C134.165 129.621 131.575 132.031 130.742 133.031C124.955 139.991 125.038 147.117 130.992 154.411C132.852 156.684 136.145 159.097 140.872 161.651" stroke="#FDBC96" stroke-width="2"/>
<path d="M140.872 161.651L144.332 167.651" stroke="#928082" stroke-width="2"/>
<path d="M144.332 167.651C135.092 172.817 129.911 180.677 128.791 191.231C128.331 195.597 127.878 198.594 127.431 200.221C126.631 203.134 125.118 205.621 122.892 207.681C120.292 210.081 117.698 212.484 115.111 214.891C109.845 219.804 107.531 225.907 108.171 233.201C108.398 235.801 108.658 238.401 108.952 241.001C109.492 245.834 107.881 249.721 104.121 252.661C101.101 255.021 98.9382 258.147 97.6315 262.041C96.7848 264.587 96.3448 268.251 96.3115 273.031C96.2715 280.177 96.6448 287.311 97.4315 294.431" stroke="#F7AD8D" stroke-width="2"/>
<path d="M97.4316 294.431L96.6416 296.471" stroke="#FCD2C5" stroke-width="2"/>
<path d="M264.702 167.281C265.788 165.381 265.212 164.277 262.972 163.971" stroke="#F78142" stroke-width="2"/>
<path d="M262.972 163.971C263.685 159.157 262.155 155.421 258.382 152.761C255.762 150.914 252.915 149.547 249.842 148.661C249.715 148.624 249.599 148.547 249.505 148.438C249.412 148.329 249.345 148.191 249.312 148.041C249.265 147.801 249.182 147.587 249.062 147.401C248.895 147.134 248.582 146.957 248.122 146.871C243.702 146.037 240.138 145.154 237.432 144.221C233.592 142.894 230.278 140.457 227.492 136.911C225.912 134.891 223.085 130.284 219.012 123.091C216.625 118.877 214.162 115.941 211.622 114.281C209.395 112.827 207.248 112.224 205.182 112.471C200.788 112.991 197.055 115.177 193.982 119.031C191.642 121.971 189.622 125.104 187.922 128.431C185.355 133.451 183.782 136.321 183.202 137.041C180.675 140.221 177.432 142.617 173.472 144.231C165.738 147.384 157.785 149.871 149.612 151.691" stroke="#FDA579" stroke-width="2"/>
<path d="M149.612 151.691C146.698 153.284 144.112 155.194 141.852 157.421C141.718 157.554 141.618 157.706 141.565 157.857C141.511 158.009 141.507 158.153 141.552 158.271C141.625 158.457 141.752 158.621 141.932 158.761" stroke="#F8AC83" stroke-width="2"/>
<path d="M141.932 158.761L140.872 161.651" stroke="#925436" stroke-width="2"/>
<path d="M316.742 277.011C317.175 268.537 315.125 260.967 310.592 254.301C309.518 252.714 307.632 250.767 304.932 248.461C302.638 246.501 300.475 244.407 298.442 242.181C296.602 240.167 295.358 238.337 294.712 236.691C293.878 234.577 293.512 232.337 293.612 229.971C293.792 225.804 293.878 221.637 293.872 217.471C293.865 212.951 292.655 209.431 290.242 206.911C288.048 204.617 284.645 202.504 280.032 200.571C276.072 198.911 272.602 197.147 269.622 195.281C263.102 191.207 259.962 185.167 260.202 177.161" stroke="#F5B191" stroke-width="2"/>
<path d="M258.182 176.761C257.408 177.081 256.812 177.567 256.392 178.221C255.772 179.194 255.352 179.787 255.132 180.001C254.372 180.734 253.612 181.464 252.852 182.191C252.729 182.308 252.635 182.447 252.579 182.595C252.523 182.743 252.507 182.896 252.532 183.041L252.902 185.211" stroke="#8F868A" stroke-width="2"/>
<path d="M252.902 185.211C252.148 185.344 251.678 185.077 251.492 184.411C251.125 183.064 250.438 182.904 249.432 183.931" stroke="#75362A" stroke-width="2"/>
<path d="M249.432 183.931L245.642 185.721" stroke="#936964" stroke-width="2"/>
<path d="M245.642 185.721C238.608 188.587 231.378 189.347 223.952 188.001" stroke="#91504D" stroke-width="2"/>
<path d="M223.952 188.001C220.545 185.987 217.902 183.367 216.022 180.141C213.222 175.321 211.392 170.157 210.532 164.651C210.385 163.717 210.182 162.997 209.922 162.491C208.975 160.671 207.992 160.914 206.972 163.221" stroke="#926965" stroke-width="2"/>
<path d="M206.972 163.221L206.182 167.181" stroke="#8F4B47" stroke-width="2"/>
<path d="M206.182 167.181C204.442 173.794 201.042 178.747 195.982 182.041C191.642 184.867 186.205 186.277 179.672 186.271C173.032 186.264 166.618 184.734 160.432 181.681" stroke="#936964" stroke-width="2"/>
<path d="M160.432 181.681L152.472 176.721" stroke="#8E5857" stroke-width="2"/>
<path d="M152.472 176.721L147.182 171.681" stroke="#8F868A" stroke-width="2"/>
<path d="M147.182 171.681C146.922 171.341 146.588 171.091 146.182 170.931" stroke="#6B2C2C" stroke-width="2"/>
<path d="M146.182 170.931C146.375 170.131 146.125 169.631 145.432 169.431" stroke="#918689" stroke-width="2"/>
<path d="M145.432 169.431L144.332 167.651" stroke="#8C452E" stroke-width="2"/>
<path d="M141.932 158.761C143.718 156.327 145.948 154.627 148.622 153.661C150.395 153.014 152.288 153.267 154.302 154.421" stroke="#8D706F" stroke-width="2"/>
<path d="M155.392 155.971C155.858 156.891 156.072 157.871 156.032 158.911C156.025 159.197 156.078 159.214 156.192 158.961C157.612 155.954 160.028 153.911 163.442 152.831" stroke="#90777C" stroke-width="2"/>
<path d="M145.432 169.431C141.325 172.684 138.888 174.761 138.122 175.661C134.108 180.334 131.828 185.767 131.282 191.961C130.788 197.641 130.318 201.041 129.872 202.161C128.485 205.647 126.395 208.644 123.602 211.151C122.068 212.531 120.528 213.894 118.982 215.241C111.935 221.367 109.642 229.034 112.102 238.241C113.742 244.374 112.165 249.597 107.372 253.911C102.878 257.944 100.315 263.131 99.6818 269.471C99.1751 274.531 99.3551 282.197 100.222 292.471" stroke="#F5B395" stroke-width="2"/>
<path d="M100.222 292.471C99.6616 293.637 98.7316 294.291 97.4316 294.431" stroke="#F69771" stroke-width="2"/>
<path d="M262.972 163.971C262.725 167.311 262.128 170.061 261.182 172.221C260.368 174.074 260.042 175.721 260.202 177.161" stroke="#F79671" stroke-width="2"/>
<path d="M260.202 177.161C259.109 177.041 258.589 177.227 258.642 177.721" stroke="#FCD4C9" stroke-width="2"/>
<path d="M258.642 177.721L258.182 177.181" stroke="#ED7365" stroke-width="2"/>
<path d="M258.182 177.181V176.761" stroke="#FAD6CD" stroke-width="2"/>
<path d="M258.182 176.761C260.802 172.114 262.142 167.101 262.202 161.721C262.235 158.547 261.082 156.027 258.742 154.161C256.815 152.621 254.655 151.511 252.262 150.831C251.209 150.531 248.855 150.121 245.202 149.601C238.155 148.594 231.065 148.184 223.932 148.371C217.965 148.531 213.025 150.797 209.112 155.171C207.812 156.624 206.522 156.614 205.242 155.141C201.802 151.161 197.365 148.937 191.932 148.471C183.225 147.717 173.729 149.171 163.442 152.831" stroke="#926965" stroke-width="2"/>
<path d="M163.442 152.831C160.442 152.951 157.758 153.997 155.392 155.971" stroke="#FBC8BF" stroke-width="2"/>
<path d="M155.392 155.971L154.302 154.421" stroke="#926965" stroke-width="2"/>
<path d="M154.302 154.421C153.528 152.654 151.965 151.744 149.612 151.691" stroke="#F8C0B2" stroke-width="2"/>
<path d="M140.682 211.931C138.622 214.691 136.435 217.017 134.122 218.911C129.035 223.064 126.898 228.241 127.712 234.441C127.718 234.461 128.175 236.244 129.082 239.791C130.288 244.504 129.878 249.074 127.852 253.501C127.845 253.514 127.125 254.744 125.692 257.191C123.492 260.937 122.835 265.027 123.722 269.461C124.475 273.227 124.218 277.144 122.952 281.211" stroke="#E6A995" stroke-width="2"/>
<path d="M122.952 281.211L104.722 289.471" stroke="#E68A6D" stroke-width="2"/>
<path d="M134.932 278.181L127.682 280.261" stroke="#873D37" stroke-width="2"/>
<path d="M127.682 280.261L126.682 279.681" stroke="#E6896F" stroke-width="2"/>
<path d="M126.682 279.681C127.475 275.507 127.365 271.234 126.352 266.861C126.045 265.547 126.162 264.277 126.702 263.051C128.162 259.737 129.655 256.247 131.182 252.581C132.115 250.321 132.448 248.201 132.182 246.221C131.908 244.214 131.095 240.444 129.742 234.911C128.362 229.271 129.925 224.291 134.432 219.971C137.305 217.217 139.555 214.647 141.182 212.261" stroke="#E5A897" stroke-width="2"/>
<path d="M167.722 311.221V320.471" stroke="#9C8B94" stroke-width="2"/>
<path d="M123.582 320.161C125.742 306.781 127.108 293.481 127.682 280.261" stroke="#9C6F70" stroke-width="2"/>
<path d="M126.682 279.681C125.562 280.581 124.318 281.091 122.952 281.211" stroke="#FBDAD1" stroke-width="2"/>
<path d="M146.182 170.931L143.932 173.181" stroke="#D49A93" stroke-width="2"/>
<path d="M143.931 173.181C140.818 175.294 138.508 178.081 137.002 181.541C135.028 186.047 134.128 190.774 134.301 195.721C134.548 202.687 132.165 208.511 127.151 213.191C124.611 215.571 122.181 218.057 119.861 220.651C117.348 223.471 115.951 226.681 115.671 230.281C115.571 231.527 115.821 233.457 116.421 236.071C116.868 237.984 117.195 239.917 117.401 241.871C117.735 244.937 117.442 247.617 116.522 249.911C115.442 252.571 113.848 254.861 111.741 256.781C109.461 258.861 107.695 261.167 106.442 263.701C105.415 265.774 104.748 268.534 104.442 271.981C103.928 277.807 104.021 283.637 104.721 289.471" stroke="#E6A691" stroke-width="2"/>
<path d="M104.722 289.471C103.555 290.984 102.055 291.984 100.222 292.471" stroke="#FBD7CC" stroke-width="2"/>
<path d="M312.822 278.811C312.028 272.537 310.355 266.371 307.802 260.311C306.322 256.811 303.865 253.864 300.432 251.471C297.445 249.384 294.548 246.614 291.742 243.161C288.842 239.581 287.808 235.234 288.642 230.121C289.675 223.827 289.855 219.277 289.182 216.471C288.315 212.851 286.462 210.121 283.622 208.281C281.088 206.641 276.661 204.157 270.341 200.831C264.221 197.617 260.302 192.694 258.582 186.061" stroke="#E3A48F" stroke-width="2"/>
<path d="M210.001 196.841C207.868 197.794 205.628 198.257 203.281 198.231C203.015 198.224 202.778 198.241 202.572 198.281C201.285 198.527 201.318 198.851 202.671 199.251C205.878 200.197 208.938 200.134 211.851 199.061" stroke="#FDA895" stroke-width="2"/>
<path d="M219.642 189.721C220.368 188.987 221.105 188.864 221.852 189.351C222.172 189.557 222.465 189.694 222.732 189.761C223.732 190.001 224.402 190.467 224.742 191.161C226.068 193.821 226.902 195.404 227.242 195.911C229.295 198.951 232.285 200.111 236.212 199.391C238.998 198.877 241.218 197.551 242.872 195.411C244.345 193.497 245.592 191.287 246.612 188.781C246.872 188.141 246.918 187.591 246.752 187.131C246.545 186.577 246.175 186.107 245.642 185.721" stroke="#FCA08F" stroke-width="2"/>
<path d="M249.432 183.931C247.765 195.464 244.579 206.374 239.872 216.661C237.225 222.441 233.519 227.457 228.752 231.711" stroke="#E0866C" stroke-width="2"/>
<path d="M228.752 231.711C218.405 240.971 206.818 243.704 193.992 239.911C188.412 238.257 182.475 235.041 176.182 230.261" stroke="#F9A091" stroke-width="2"/>
<path d="M176.182 230.261C167.248 222.447 160.832 212.931 156.932 201.711C156.905 201.64 156.866 201.579 156.819 201.536C156.773 201.493 156.721 201.47 156.672 201.471H156.472" stroke="#E2866B" stroke-width="2"/>
<path d="M156.472 201.471L156.142 199.971" stroke="#FCD9D0" stroke-width="2"/>
<path d="M156.142 199.971C154.989 195.411 153.689 191.557 152.242 188.411C150.669 184.977 150.169 181.431 150.742 177.771" stroke="#E7886E" stroke-width="2"/>
<path d="M150.742 177.771C152.402 180.917 154.042 184.041 155.662 187.141C157.342 190.341 159.245 193.401 161.372 196.321C163.765 199.601 166.785 201.234 170.432 201.221C178.852 201.194 182.602 196.964 181.682 188.531C181.666 188.389 181.6 188.258 181.496 188.159C181.392 188.061 181.256 188.001 181.112 187.991C175.345 187.497 169.702 186.394 164.182 184.681" stroke="#FDA191" stroke-width="2"/>
<path d="M164.182 184.681C162.508 184.294 161.195 183.704 160.242 182.911C159.622 182.384 159.685 181.974 160.432 181.681" stroke="#FAA999" stroke-width="2"/>
<path d="M223.952 188.001C221.718 187.841 219.808 186.914 218.222 185.221" stroke="#FCA090" stroke-width="2"/>
<path d="M218.222 185.221C214.382 180.434 211.868 175.434 210.682 170.221C209.915 166.874 209.362 164.634 209.022 163.501C208.989 163.388 208.907 163.291 208.791 163.225C208.674 163.16 208.53 163.13 208.382 163.141L206.972 163.221" stroke="#FA9C8A" stroke-width="2"/>
<path d="M258.182 177.181C257.335 177.874 256.905 178.804 256.892 179.971" stroke="#E99089" stroke-width="2"/>
<path d="M256.892 179.971C255.358 180.517 254.538 181.517 254.432 182.971C253.825 191.324 254.838 199.824 257.472 208.471" stroke="#E1A693" stroke-width="2"/>
<path d="M257.472 208.471C256.638 208.931 256.472 209.514 256.972 210.221" stroke="#F8E5E3" stroke-width="2"/>
<path d="M256.972 210.221C257.805 214.694 257.275 218.987 255.382 223.101C254.102 225.881 252.958 228.717 251.952 231.611C251.152 233.931 250.992 236.297 251.472 238.711C252.185 242.257 252.318 245.797 251.872 249.331C251.518 252.117 251.382 253.891 251.462 254.651C251.628 256.284 252.055 258.037 252.742 259.911C254.288 264.111 254.268 268.561 252.682 273.261" stroke="#E0A592" stroke-width="2"/>
<path d="M252.682 273.261L249.202 272.961" stroke="#9A8B95" stroke-width="2"/>
<path d="M249.202 272.961C250.435 268.527 250.575 264.551 249.622 261.031C248.568 257.171 248.265 253.554 248.712 250.181C249.112 247.187 249.312 245.534 249.312 245.221C249.312 243.701 249.185 242.034 248.932 240.221C248.265 235.401 248.998 230.757 251.132 226.291C252.345 223.744 252.955 222.464 252.962 222.451C254.935 217.411 255.432 212.167 254.452 206.721C253.178 199.614 252.662 192.444 252.902 185.211" stroke="#DCA391" stroke-width="2"/>
<path d="M249.202 272.961L239.472 271.971" stroke="#803B35" stroke-width="2"/>
<path d="M239.472 271.971C234.212 270.637 231.198 267.471 230.432 262.471C229.485 256.297 229.032 246.767 229.072 233.881" stroke="#E0866D" stroke-width="2"/>
<path d="M229.072 233.881C229.419 233.441 229.312 232.717 228.752 231.711" stroke="#DB6D57" stroke-width="2"/>
<path d="M147.182 171.681C146.675 171.821 146.425 172.154 146.432 172.681" stroke="#D29A93" stroke-width="2"/>
<path d="M146.432 172.681C145.652 173.261 144.818 173.427 143.932 173.181" stroke="#C04D33" stroke-width="2"/>
<path d="M152.472 176.721C152.498 177.107 152.318 177.287 151.932 177.261" stroke="#F6C6BE" stroke-width="2"/>
<path d="M151.932 177.261C151.218 177.094 150.592 176.777 150.052 176.311C150.005 176.271 149.95 176.242 149.891 176.227C149.832 176.211 149.771 176.209 149.715 176.221C149.659 176.233 149.609 176.259 149.57 176.295C149.531 176.332 149.504 176.379 149.492 176.431L149.182 177.931" stroke="#F9BEB7" stroke-width="2"/>
<path d="M149.182 177.931C147.908 183.957 146.558 189.967 145.132 195.961C144.605 198.174 144.538 200.677 144.932 203.471C145.932 210.624 146.652 215.111 147.092 216.931C147.838 220.031 147.752 222.997 146.832 225.831C146.478 226.917 145.505 228.714 143.912 231.221C142.332 233.707 141.422 235.541 141.182 236.721C140.575 239.727 140.512 242.041 140.992 243.661C142.365 248.261 143.095 251.281 143.182 252.721C143.328 255.247 142.778 257.601 141.532 259.781C141.065 260.581 140.135 262.247 138.742 264.781C136.515 268.827 136.245 273.211 137.932 277.931" stroke="#E3A593" stroke-width="2"/>
<path d="M137.932 277.931C136.958 278.257 135.958 278.341 134.932 278.181" stroke="#9A8B95" stroke-width="2"/>
<path d="M134.932 278.181C133.632 272.941 134.279 267.997 136.872 263.351C137.819 261.657 138.765 259.964 139.712 258.271C140.899 256.157 141.399 253.967 141.212 251.701C141.212 251.687 140.675 249.777 139.602 245.971C138.582 242.357 138.689 238.791 139.922 235.271C140.269 234.291 141.219 232.781 142.772 230.741C145.732 226.854 146.785 222.431 145.932 217.471C144.932 211.637 144.292 207.004 144.012 203.571C143.999 203.451 143.965 203.347 143.912 203.261C143.732 202.987 143.625 203.144 143.592 203.731C143.425 206.784 142.622 209.627 141.182 212.261" stroke="#E3A593" stroke-width="2"/>
<path d="M141.182 212.261L140.682 211.931" stroke="#F8F6F5" stroke-width="2"/>
<path d="M140.682 211.931C141.268 210.411 141.685 208.257 141.932 205.471C142.298 201.377 143.765 194.247 146.332 184.081C146.705 182.587 146.972 180.997 147.132 179.311C147.285 177.691 147.468 176.077 147.682 174.471C147.768 173.824 147.352 173.227 146.432 172.681" stroke="#E4A691" stroke-width="2"/>
<path d="M218.222 185.221C218.362 186.807 218.835 188.307 219.642 189.721" stroke="#F98371" stroke-width="2"/>
<path d="M219.642 189.721C220.548 195.661 217.952 198.774 211.852 199.061" stroke="#FB9C89" stroke-width="2"/>
<path d="M211.852 199.061C215.512 198.187 217.752 196.067 218.572 192.701C218.65 192.403 218.618 192.072 218.482 191.761C217.149 188.647 215.792 185.544 214.412 182.451C213.825 181.137 213.435 181.087 213.242 182.301C213.195 182.554 213.212 182.827 213.292 183.121C214.079 185.934 214.292 188.967 213.932 192.221C213.632 194.894 212.322 196.434 210.002 196.841" stroke="#F98A78" stroke-width="2"/>
<path d="M210.002 196.841C210.462 188.021 210.105 179.331 208.932 170.771C208.892 170.451 208.768 170.157 208.562 169.891C207.842 168.937 207.465 168.297 207.432 167.971C207.358 167.297 206.942 167.034 206.182 167.181" stroke="#FB9C89" stroke-width="2"/>
<path d="M258.642 177.721L258.582 186.061" stroke="#EB8E85" stroke-width="2"/>
<path d="M258.582 186.061C257.568 184.221 257.005 182.191 256.892 179.971" stroke="#D4422B" stroke-width="2"/>
<path d="M176.182 230.261C175.922 231.767 176.022 233.094 176.482 234.241" stroke="#DD6C56" stroke-width="2"/>
<path d="M176.482 234.241C176.542 238.881 176.525 247.374 176.432 259.721C176.378 266.394 173.282 270.644 167.142 272.471" stroke="#E1866C" stroke-width="2"/>
<path d="M167.142 272.471L157.472 273.471" stroke="#813B34" stroke-width="2"/>
<path d="M239.472 271.971L238.162 308.441" stroke="#9D6E70" stroke-width="2"/>
<path d="M168.972 312.471C169.018 311.544 168.602 311.127 167.722 311.221" stroke="#FCD6CC" stroke-width="2"/>
<path d="M167.722 311.221L167.142 272.471" stroke="#9D6E70" stroke-width="2"/>
<path d="M156.142 199.971C154.795 201.924 154.141 203.924 154.181 205.971C154.255 209.444 154.621 213.871 155.281 219.251C155.281 219.284 155.402 220.097 155.642 221.691C156.222 225.531 155.928 229.314 154.762 233.041C153.608 236.747 153.511 240.644 154.471 244.731C154.891 246.524 154.745 248.267 154.031 249.961C153.125 252.107 152.208 254.394 151.281 256.821C150.141 259.821 149.545 262.194 149.491 263.941C149.371 267.947 150.768 271.527 153.681 274.681" stroke="#E5A897" stroke-width="2"/>
<path d="M153.682 274.681L137.932 277.931" stroke="#873D37" stroke-width="2"/>
<path d="M156.472 201.471C155.632 207.557 155.815 213.617 157.022 219.651C158.055 224.844 157.942 229.617 156.682 233.971C156.182 235.704 155.905 237.301 155.852 238.761C155.825 239.514 156.155 241.061 156.842 243.401C157.275 244.894 157.468 246.414 157.422 247.961C157.382 249.127 156.992 250.574 156.252 252.301C155.105 254.954 154.112 257.661 153.272 260.421C152.792 262.014 152.615 263.404 152.742 264.591C152.922 266.231 153.422 267.587 154.242 268.661C155.422 270.194 156.498 271.797 157.472 273.471" stroke="#E0A695" stroke-width="2"/>
<path d="M157.472 273.471C156.412 274.351 155.148 274.754 153.682 274.681" stroke="#9C8E99" stroke-width="2"/>
<path d="M307.562 290.791C301.022 286.291 294.312 282.337 287.432 278.931" stroke="#E4886D" stroke-width="2"/>
<path d="M287.432 278.931C288.705 273.931 289.338 268.877 289.332 263.771C289.332 260.257 288.785 257.481 287.692 255.441C286.385 253.007 284.402 250.831 281.742 248.911C276.568 245.171 274.625 240.051 275.912 233.551C276.412 231.044 276.665 229.771 276.672 229.731C276.998 227.211 277.002 225.207 276.682 223.721C276.148 221.247 274.462 219.264 271.622 217.771C268.968 216.377 266.265 215.077 263.512 213.871C260.905 212.717 258.892 210.917 257.472 208.471" stroke="#E39785" stroke-width="2"/>
<path d="M229.071 233.881C225.958 238.947 222.725 242.957 219.371 245.911C213.158 251.371 206.418 253.171 199.151 251.311C195.398 250.344 191.281 247.997 186.801 244.271C183.108 241.197 179.668 237.854 176.481 234.241" stroke="#F9A092" stroke-width="2"/>
<path d="M151.932 177.261L155.342 180.361C155.436 180.449 155.515 180.571 155.574 180.719C155.632 180.866 155.669 181.037 155.682 181.221C155.762 182.301 156.325 183.154 157.372 183.781C159.605 185.121 161.875 185.421 164.182 184.681" stroke="#F89084" stroke-width="2"/>
<path d="M150.742 177.771C150.155 177.364 149.635 177.417 149.182 177.931" stroke="#E67059" stroke-width="2"/>
<path d="M265.642 275.471L272.142 323.371" stroke="#9D6D6F" stroke-width="2"/>
<path d="M287.432 278.931C286.805 279.097 285.958 278.997 284.892 278.631" stroke="#FBC7BD" stroke-width="2"/>
<path d="M284.892 278.631C286.152 273.244 286.952 267.807 287.292 262.321C287.438 259.887 287.128 257.884 286.362 256.311C285.428 254.391 284.098 252.751 282.372 251.391C280.625 250.004 279.742 249.304 279.722 249.291C275.175 244.937 273.658 239.404 275.172 232.691C275.498 231.231 275.762 229.757 275.962 228.271C276.568 223.691 274.832 220.377 270.752 218.331C268.132 217.011 265.462 215.787 262.742 214.661C260.422 213.694 258.498 212.214 256.972 210.221" stroke="#E29684" stroke-width="2"/>
<path d="M284.892 278.631C278.838 276.937 272.422 275.884 265.642 275.471" stroke="#E3876C" stroke-width="2"/>
<path d="M265.642 275.471L252.682 273.261" stroke="#843D35" stroke-width="2"/>
<path d="M293.911 161.961C295.118 162.367 296.115 161.891 296.901 160.531C299.955 155.311 300.422 149.977 298.302 144.531C297.495 142.464 296.395 142.294 295.002 144.021C291.515 148.341 290.448 153.541 291.802 159.621C292.068 160.801 292.771 161.581 293.911 161.961Z" stroke="#FACCBA" stroke-width="2"/>
<path d="M308.232 202.201C309.505 203.281 310.882 203.434 312.362 202.661C315.662 200.941 318.162 198.417 319.862 195.091C323.522 187.924 325.138 180.301 324.712 172.221C324.372 165.754 321.925 164.651 317.372 168.911C309.858 175.931 306.002 185.014 305.802 196.161C305.755 198.781 306.565 200.794 308.232 202.201Z" stroke="#FCC7AB" stroke-width="2"/>
<path d="M84.3118 236.531C86.0185 236.477 87.3818 235.777 88.4018 234.431C90.9618 231.057 92.8218 227.377 93.9818 223.391C94.7685 220.711 95.4085 217.934 95.9018 215.061C96.3818 212.227 96.5218 209.364 96.3218 206.471C96.2285 205.224 95.8518 204.344 95.1918 203.831C94.1652 203.024 92.9952 203.237 91.6818 204.471C84.7685 210.964 81.1885 219.131 80.9418 228.971C80.8885 230.997 81.1285 232.884 81.6618 234.631C82.0618 235.944 82.9452 236.577 84.3118 236.531Z" stroke="#FCC2A3" stroke-width="2"/>
<path d="M161.922 100.951C160.155 103.484 158.898 106.237 158.152 109.211C157.405 112.157 157.025 113.647 157.012 113.681C155.365 118.694 152.925 123.307 149.692 127.521C147.998 129.734 145.642 131.364 142.622 132.411C140.275 133.224 137.312 134.557 133.732 136.411C133.565 136.497 133.415 136.597 133.282 136.711C132.142 137.677 132.255 137.884 133.622 137.331C137.508 135.751 141.432 134.264 145.392 132.871C147.772 132.031 149.432 130.961 150.372 129.661C153.638 125.114 156.355 119.577 158.522 113.051C158.528 113.031 158.908 111.631 159.662 108.851C161.375 102.537 165.285 97.9406 171.392 95.0606C172.505 94.5406 172.372 94.334 170.992 94.4406C170.785 94.4606 170.582 94.504 170.382 94.5706C166.875 95.764 164.055 97.8906 161.922 100.951Z" stroke="#F9A268" stroke-width="2"/>
<path d="M221.162 96.6506C229.395 99.1106 235.642 103.917 239.902 111.071C240.615 112.271 241.109 113.844 241.382 115.791C242.735 125.444 247.835 132.587 256.682 137.221C260.389 139.154 263.839 141.457 267.032 144.131C268.185 145.097 268.562 144.837 268.162 143.351C267.983 142.685 267.548 142.117 266.952 141.771C262.492 139.171 258.319 136.724 254.432 134.431C248.865 131.144 245.105 126.527 243.152 120.581C243.138 120.541 242.752 118.784 241.992 115.311C241.205 111.724 239.665 108.381 237.372 105.281C233.359 99.8673 228.035 96.7706 221.402 95.9906C221.242 95.9773 221.092 95.984 220.952 96.0106C220.212 96.1773 220.282 96.3906 221.162 96.6506Z" stroke="#F9A268" stroke-width="2"/>
<path d="M222.312 104.881C225.165 106.954 227.429 109.281 229.102 111.861C229.259 112.11 229.352 112.427 229.372 112.781C229.425 113.781 229.715 114.824 230.242 115.911C231.082 117.624 231.395 119.561 231.182 121.721C231.109 122.454 231.599 124.667 232.652 128.361C232.959 129.421 233.369 129.671 233.882 129.111C233.978 129.009 234.047 128.875 234.083 128.72C234.12 128.565 234.123 128.394 234.092 128.221C233.672 125.961 233.362 123.684 233.162 121.391C232.902 118.537 232.435 116.324 231.762 114.751C230.275 111.277 228.162 108.184 225.422 105.471C224.322 104.384 223.442 103.794 222.782 103.701C221.082 103.481 220.925 103.874 222.312 104.881Z" stroke="#FC9B53" stroke-width="2"/>
<path d="M162.112 138.671C160.958 139.904 159.555 140.691 157.902 141.031C153.942 141.837 149.938 142.861 145.892 144.101C141.185 145.547 138.365 148.671 137.432 153.471C137.172 154.817 137.442 155.964 138.242 156.911C138.422 157.124 138.632 157.237 138.872 157.251C138.934 157.255 138.997 157.243 139.055 157.214C139.113 157.185 139.166 157.141 139.209 157.084C139.253 157.027 139.286 156.959 139.307 156.885C139.328 156.81 139.337 156.73 139.332 156.651C139.018 151.791 141.052 148.647 145.432 147.221C150.025 145.721 154.602 144.177 159.162 142.591C160.515 142.117 161.605 141.364 162.432 140.331C166.878 134.757 169.882 128.504 171.442 121.571C172.368 117.437 173.145 114.787 173.772 113.621C175.412 110.567 177.778 108.084 180.872 106.171C181.538 105.757 182.105 105.271 182.572 104.711C183.172 103.991 183.045 103.824 182.192 104.211C177.725 106.237 174.438 109.371 172.332 113.611C171.885 114.517 171.415 115.831 170.922 117.551C170.535 118.911 170.138 120.264 169.732 121.611C169.712 121.671 169.242 123.564 168.322 127.291C167.255 131.571 165.185 135.364 162.112 138.671Z" stroke="#FAAF7A" stroke-width="2"/>
<path d="M190.042 114.771C188.942 116.377 189.102 116.314 190.522 114.581C191.215 113.734 191.115 113.727 190.222 114.561C190.155 114.627 190.095 114.697 190.042 114.771Z" stroke="#F08140" stroke-width="2"/>
<path d="M177.272 127.151C177.359 127.177 177.442 127.147 177.522 127.061C177.589 126.987 177.625 126.881 177.632 126.741C177.745 124.974 177.945 123.221 178.232 121.481C178.392 120.467 178.205 120.071 177.672 120.291C177.539 120.343 177.419 120.436 177.321 120.562C177.224 120.687 177.152 120.841 177.112 121.011L175.782 126.481C175.741 126.649 175.744 126.821 175.79 126.97C175.837 127.119 175.925 127.239 176.042 127.311C176.348 127.504 176.662 127.457 176.982 127.171C177.012 127.144 177.056 127.128 177.107 127.125C177.158 127.121 177.215 127.13 177.272 127.151Z" stroke="#F08140" stroke-width="2"/>
<path d="M166.012 128.551C166.539 127.977 166.789 127.367 166.762 126.721C166.742 126.361 166.592 126.307 166.312 126.561C160.165 132.247 152.975 135.981 144.742 137.761C141.602 138.434 138.585 139.454 135.692 140.821C135.624 140.852 135.561 140.895 135.51 140.948C135.459 141.001 135.419 141.062 135.394 141.127C135.369 141.192 135.36 141.26 135.366 141.324C135.373 141.389 135.395 141.449 135.432 141.501C135.665 141.834 136.082 141.907 136.682 141.721C139.802 140.741 142.939 139.824 146.092 138.971C146.152 138.951 147.385 138.654 149.792 138.081C156.139 136.567 161.545 133.391 166.012 128.551Z" stroke="#FAA971" stroke-width="2"/>
<path d="M248.712 144.311C253.485 146.384 257.905 149.021 261.972 152.221C262.086 152.31 262.177 152.43 262.236 152.57C262.295 152.709 262.321 152.864 262.312 153.021C262.225 154.301 262.745 155.071 263.872 155.331C263.936 155.345 264.002 155.345 264.067 155.331C264.131 155.317 264.191 155.289 264.244 155.25C264.297 155.21 264.342 155.159 264.374 155.101C264.406 155.042 264.426 154.977 264.432 154.911C264.612 152.904 263.925 151.361 262.372 150.281C258.699 147.727 254.342 145.474 249.302 143.521C249.089 143.441 248.885 143.407 248.692 143.421C247.432 143.467 247.439 143.764 248.712 144.311Z" stroke="#FAA971" stroke-width="2"/>
<path d="M180.532 143.621C185.425 142.694 190.122 141.624 194.622 140.411C196.022 140.031 196.738 139.281 196.772 138.161C196.777 138.025 196.725 137.892 196.628 137.791C196.53 137.69 196.395 137.629 196.252 137.621C193.765 137.454 191.392 137.817 189.132 138.711C186.445 139.771 185.065 140.314 184.992 140.341C182.952 141.034 181.322 141.747 180.102 142.481C178.088 143.674 178.232 144.054 180.532 143.621Z" stroke="#FCA896" stroke-width="2"/>
<path d="M223.642 152.971C220.635 153.091 218.215 154.094 216.382 155.981C214.989 157.414 214.219 159.441 214.072 162.061C213.612 170.347 216.565 177.331 222.932 183.011" stroke="#926C69" stroke-width="2"/>
<path d="M222.932 183.011C225.758 184.837 229.175 185.491 233.182 184.971C238.408 184.297 242.832 183.081 246.452 181.321C252.498 178.387 255.768 173.544 256.262 166.791C256.662 161.424 254.508 157.734 249.802 155.721C249.688 155.674 249.288 155.484 248.602 155.151C247.255 154.517 246.878 155.041 247.472 156.721" stroke="#905350" stroke-width="2"/>
<path d="M247.472 156.721C247.512 156.981 247.392 157.184 247.112 157.331" stroke="#8E5857" stroke-width="2"/>
<path d="M247.112 157.331C246.558 155.791 245.588 154.734 244.202 154.161C242.535 153.474 240.758 153.121 238.872 153.101" stroke="#8D706F" stroke-width="2"/>
<path d="M238.872 153.101C233.845 152.034 228.768 151.991 223.642 152.971" stroke="#905350" stroke-width="2"/>
<path d="M238.872 153.101C240.485 154.201 242.258 154.957 244.192 155.371C244.337 155.403 244.469 155.478 244.567 155.586C244.666 155.694 244.727 155.828 244.742 155.971L245.142 159.471" stroke="#F6AA9C" stroke-width="2"/>
<path d="M245.142 159.471L244.432 159.511" stroke="#F17F72" stroke-width="2"/>
<path d="M244.432 159.511C238.472 156.031 232.298 155.551 225.912 158.071" stroke="#E46B61" stroke-width="2"/>
<path d="M225.912 158.071C222.852 159.817 220.959 162.367 220.232 165.721C219.812 167.687 219.629 169.191 219.682 170.231C219.769 171.797 220.425 173.244 221.652 174.571C223.239 176.291 224.275 176.007 224.762 173.721C225.549 169.954 227.405 166.811 230.332 164.291" stroke="#F17F72" stroke-width="2"/>
<path d="M230.332 164.291C229.818 166.484 230.035 168.274 230.982 169.661C231.808 170.874 233.008 171.524 234.582 171.611C236.808 171.737 237.778 170.254 237.492 167.161C237.305 165.107 236.368 163.864 234.682 163.431" stroke="#B76C62" stroke-width="2"/>
<path d="M234.682 163.431C235.468 162.691 236.255 162.597 237.042 163.151C237.317 163.343 237.629 163.425 237.912 163.381C239.712 163.101 241.385 163.451 242.932 164.431" stroke="#F17F72" stroke-width="2"/>
<path d="M242.932 164.431C242.092 164.431 241.915 164.784 242.401 165.491C243.035 166.397 243.015 167.351 242.341 168.351C242.182 168.589 242.071 168.846 242.018 169.105C241.964 169.364 241.969 169.619 242.031 169.851L244.322 178.691C244.351 178.797 244.433 178.891 244.555 178.958C244.676 179.025 244.83 179.061 244.992 179.061L246.722 179.091" stroke="#F6AA9C" stroke-width="2"/>
<path d="M246.722 179.091C246.269 179.731 246.379 180.037 247.052 180.011C247.279 180.004 247.512 179.921 247.752 179.761C250.832 177.761 252.955 175.477 254.122 172.911C254.589 171.877 254.762 170.231 254.642 167.971" stroke="#DC6A58" stroke-width="2"/>
<path d="M254.642 167.971C255.635 165.191 255.368 162.551 253.842 160.051C252.368 157.631 250.245 156.521 247.472 156.721" stroke="#F79384" stroke-width="2"/>
<path d="M222.932 183.011C223.585 182.697 223.688 182.331 223.242 181.911C219.355 178.237 216.872 173.747 215.792 168.441C215.052 164.847 214.812 162.151 215.072 160.351C215.572 156.891 218.025 154.941 222.432 154.501C223.538 154.387 223.942 153.877 223.642 152.971" stroke="#FBA696" stroke-width="2"/>
<path d="M247.112 157.331L248.722 165.721" stroke="#F4B0A3" stroke-width="2"/>
<path d="M248.722 165.721C248.435 170.234 247.768 174.691 246.722 179.091" stroke="#D98777" stroke-width="2"/>
<path d="M242.932 164.431L246.142 167.611C246.475 167.944 246.678 167.901 246.752 167.481C247.338 164.174 246.802 161.504 245.142 159.471" stroke="#EE9C91" stroke-width="2"/>
<path d="M254.642 167.971C253.695 167.344 252.942 166.527 252.382 165.521C251.048 163.147 249.828 163.214 248.722 165.721" stroke="#DA6F5F" stroke-width="2"/>
<path d="M234.682 163.431C233.095 162.984 231.645 163.271 230.332 164.291" stroke="#AF5E56" stroke-width="2"/>
<path d="M244.432 159.511C244.232 160.384 243.835 160.684 243.242 160.411C237.495 157.724 231.718 156.944 225.912 158.071" stroke="#DC5D56" stroke-width="2"/>
<path d="M156.142 166.221C154.942 167.721 154.998 169.167 156.312 170.561" stroke="#884444" stroke-width="2"/>
<path d="M156.312 170.561C156.465 172.127 157.235 173.451 158.622 174.531C163.935 178.697 169.718 181.321 175.972 182.401C180.392 183.167 184.348 183.054 187.842 182.061C191.982 180.874 195.408 178.574 198.122 175.161C201.668 170.681 202.835 165.621 201.622 159.981C200.935 156.801 198.935 154.817 195.622 154.031C185.222 151.577 175.255 152.314 165.722 156.241C161.055 158.167 157.862 161.494 156.142 166.221" stroke="#915753" stroke-width="2"/>
<path d="M156.312 170.561L159.782 173.921C159.891 174.026 160.034 174.091 160.19 174.105C160.345 174.12 160.504 174.083 160.642 174.001C161.882 173.247 161.652 171.764 159.952 169.551C159.704 169.229 159.37 168.985 158.989 168.848C158.607 168.712 158.195 168.688 157.802 168.781C156.715 169.034 156.162 168.181 156.142 166.221" stroke="#F28375" stroke-width="2"/>
<path d="M155.882 161.161C155.288 162.541 154.992 163.984 154.992 165.491C154.991 165.547 155.007 165.602 155.037 165.643C155.067 165.684 155.108 165.708 155.152 165.711L155.312 165.731C155.383 165.74 155.461 165.707 155.531 165.637C155.601 165.567 155.658 165.465 155.692 165.351L156.722 161.631C156.772 161.445 156.797 161.266 156.796 161.104C156.794 160.942 156.765 160.802 156.712 160.691C156.492 160.244 156.215 160.401 155.882 161.161Z" stroke="#5E5B4B" stroke-width="2"/>
<path d="M177.812 167.491L181.142 166.471" stroke="#CD6B5D" stroke-width="2"/>
<path d="M181.142 166.471C180.802 170.351 182.065 172.284 184.932 172.271C186.819 172.271 188.119 171.487 188.832 169.921C189.585 168.274 189.352 166.467 188.132 164.501" stroke="#AB6B61" stroke-width="2"/>
<path d="M188.132 164.501C189.845 163.581 191.615 163.077 193.442 162.991C193.584 162.981 193.73 163.015 193.863 163.087C193.997 163.159 194.114 163.267 194.202 163.401L195.642 165.561C195.75 165.724 195.879 165.859 196.014 165.952C196.15 166.045 196.287 166.093 196.412 166.091C196.838 166.077 196.972 165.614 196.812 164.701C196.078 160.561 193.615 158.174 189.422 157.541C186.188 157.054 183.145 157.407 180.292 158.601C177.745 159.661 175.818 160.734 174.512 161.821C172.778 163.274 171.638 165.294 171.092 167.881C170.698 169.774 171.345 170.347 173.032 169.601L177.812 167.491" stroke="#F28272" stroke-width="2"/>
<path d="M188.132 164.501C186.025 163.494 183.875 163.497 181.682 164.511" stroke="#A1574F" stroke-width="2"/>
<path d="M181.682 164.511C179.735 164.671 178.445 165.664 177.812 167.491" stroke="#C4574A" stroke-width="2"/>
<path d="M181.142 166.471L181.682 164.511" stroke="#7D403A" stroke-width="2"/>
<path d="M224.922 204.551C216.815 206.597 208.568 207.501 200.182 207.261" stroke="#FEDBD2" stroke-width="2"/>
<path d="M200.182 207.261C196.768 206.301 193.005 205.757 188.892 205.631C188.165 205.611 187.981 205.917 188.341 206.551C191.461 211.997 195.545 216.257 200.591 219.331C204.605 221.777 208.578 222.467 212.512 221.401C215.692 220.527 218.588 218.531 221.202 215.411C223.548 212.611 225.241 209.391 226.281 205.751C226.401 205.344 226.435 204.987 226.382 204.681C226.235 203.721 225.748 203.677 224.921 204.551" stroke="#ED8679" stroke-width="2"/>
<path d="M200.182 207.261C201.648 209.954 203.232 212.274 204.932 214.221C206.932 216.507 209.255 217.584 211.902 217.451C214.008 217.344 216.118 216.364 218.232 214.511C221.232 211.891 223.462 208.571 224.922 204.551" stroke="#ECA8A4" stroke-width="2"/>
<path d="M200.933 276.744C200.934 276.497 200.837 276.261 200.663 276.086C200.489 275.911 200.253 275.812 200.007 275.811L199.947 275.811C199.824 275.81 199.703 275.834 199.59 275.88C199.477 275.927 199.375 275.995 199.288 276.081C199.201 276.167 199.133 276.269 199.085 276.382C199.038 276.494 199.014 276.615 199.013 276.737L198.95 294.977C198.949 295.224 199.046 295.461 199.22 295.636C199.394 295.811 199.63 295.91 199.876 295.91L199.936 295.911C200.059 295.911 200.18 295.887 200.293 295.841C200.406 295.795 200.508 295.727 200.595 295.641C200.682 295.555 200.751 295.452 200.798 295.34C200.845 295.227 200.869 295.106 200.87 294.984L200.933 276.744Z" stroke="#FBA393" stroke-width="2"/>
<path d="M320.052 269.781C319.725 260.034 315.822 252.201 308.342 246.281C306.822 245.074 305.322 243.837 303.842 242.571C300.515 239.724 298.482 236.241 297.742 232.121C297.508 230.807 297.482 228.701 297.662 225.801C297.788 223.694 297.879 221.584 297.932 219.471C298.165 209.484 293.729 202.671 284.622 199.031C279.929 197.151 275.485 194.834 271.292 192.081C268.898 190.514 267.228 189.021 266.282 187.601C264.995 185.674 264.265 183.467 264.092 180.981C263.965 179.174 263.912 176.587 263.932 173.221C263.945 170.994 264.202 169.014 264.702 167.281C269.922 163.167 273.519 158.157 275.492 152.251C276.859 148.164 277.075 143.937 276.142 139.571C274.202 130.484 268.872 123.614 260.152 118.961C256.705 117.121 254.975 114.207 254.962 110.221C254.935 103.047 252.215 97.1739 246.802 92.6006C240.602 87.3539 233.638 83.9973 225.912 82.5306C220.372 81.4839 215.569 81.5639 211.502 82.7706C206.742 84.1839 202.592 87.0306 199.052 91.3106C198.992 91.3838 198.916 91.4429 198.831 91.4834C198.745 91.5239 198.652 91.5449 198.557 91.5449C198.462 91.5449 198.369 91.5239 198.283 91.4834C198.197 91.4429 198.122 91.3838 198.062 91.3106C195.929 88.7506 193.532 86.9406 190.872 85.8806C184.145 83.1939 177.249 82.7239 170.182 84.4706C163.835 86.0373 158.768 89.0173 154.982 93.4106C153.342 95.3039 151.968 97.7173 150.862 100.651C149.875 103.277 149.085 105.971 148.492 108.731C147.045 115.544 143.719 121.234 138.512 125.801C134.165 129.621 131.575 132.031 130.742 133.031C124.955 139.991 125.039 147.117 130.992 154.411C132.852 156.684 136.145 159.097 140.872 161.651L144.332 167.651C135.092 172.817 129.912 180.677 128.792 191.231C128.332 195.597 127.879 198.594 127.432 200.221C126.632 203.134 125.119 205.621 122.892 207.681C120.292 210.081 117.699 212.484 115.112 214.891C109.845 219.804 107.532 225.907 108.172 233.201C108.398 235.801 108.659 238.401 108.952 241.001C109.492 245.834 107.882 249.721 104.122 252.661C101.102 255.021 98.9385 258.147 97.6319 262.041C96.7852 264.587 96.3452 268.251 96.3118 273.031C96.2718 280.177 96.6452 287.311 97.4318 294.431L96.6419 296.471C92.9019 292.684 90.4352 289.997 89.2418 288.411C75.0085 269.444 66.1552 248.714 62.6818 226.221C56.2818 184.794 65.3119 147.757 89.7719 115.111C93.8519 109.657 98.2185 104.631 102.872 100.031C121.212 81.8906 142.795 69.7673 167.622 63.6606C183.089 59.8539 199.125 58.9073 215.732 60.8206C222.458 61.5939 228.998 62.8539 235.352 64.6006C257.472 70.6939 276.939 81.7939 293.752 97.9006C306.892 110.494 317.162 125.107 324.562 141.741C343.535 184.367 342.805 226.591 322.372 268.411C322.132 268.904 321.359 269.361 320.052 269.781ZM293.912 161.961C295.118 162.367 296.115 161.891 296.902 160.531C299.955 155.311 300.422 149.977 298.302 144.531C297.495 142.464 296.395 142.294 295.002 144.021C291.515 148.341 290.449 153.541 291.802 159.621C292.068 160.801 292.772 161.581 293.912 161.961ZM308.232 202.201C309.505 203.281 310.882 203.434 312.362 202.661C315.662 200.941 318.162 198.417 319.862 195.091C323.522 187.924 325.139 180.301 324.712 172.221C324.372 165.754 321.925 164.651 317.372 168.911C309.859 175.931 306.002 185.014 305.802 196.161C305.755 198.781 306.565 200.794 308.232 202.201ZM84.3118 236.531C86.0185 236.477 87.3818 235.777 88.4018 234.431C90.9618 231.057 92.8218 227.377 93.9818 223.391C94.7685 220.711 95.4085 217.934 95.9018 215.061C96.3818 212.227 96.5219 209.364 96.3219 206.471C96.2285 205.224 95.8519 204.344 95.1919 203.831C94.1652 203.024 92.9952 203.237 91.6818 204.471C84.7685 210.964 81.1885 219.131 80.9419 228.971C80.8885 230.997 81.1285 232.884 81.6618 234.631C82.0618 235.944 82.9452 236.577 84.3118 236.531Z" fill="#FDE8E1"/>
<path d="M264.702 167.281C265.788 165.381 265.212 164.277 262.972 163.971C263.685 159.157 262.155 155.421 258.382 152.761C255.762 150.914 252.915 149.547 249.842 148.661C249.715 148.624 249.599 148.547 249.505 148.438C249.412 148.329 249.345 148.191 249.312 148.041C249.265 147.801 249.182 147.587 249.062 147.401C248.895 147.134 248.582 146.957 248.122 146.871C243.702 146.037 240.138 145.154 237.432 144.221C233.592 142.894 230.278 140.457 227.492 136.911C225.912 134.891 223.085 130.284 219.012 123.091C216.625 118.877 214.162 115.941 211.622 114.281C209.395 112.827 207.248 112.224 205.182 112.471C200.788 112.991 197.055 115.177 193.982 119.031C191.642 121.971 189.622 125.104 187.922 128.431C185.355 133.451 183.782 136.321 183.202 137.041C180.675 140.221 177.432 142.617 173.472 144.231C165.738 147.384 157.785 149.871 149.612 151.691C146.698 153.284 144.112 155.194 141.852 157.421C141.718 157.554 141.618 157.706 141.565 157.857C141.511 158.009 141.507 158.152 141.552 158.271C141.625 158.457 141.752 158.621 141.932 158.761L140.872 161.651C136.145 159.097 132.852 156.684 130.992 154.411C125.038 147.117 124.955 139.991 130.742 133.031C131.575 132.031 134.165 129.621 138.512 125.801C143.718 121.234 147.045 115.544 148.492 108.731C149.085 105.971 149.875 103.277 150.862 100.651C151.968 97.7173 153.342 95.3039 154.982 93.4106C158.768 89.0173 163.835 86.0373 170.182 84.4706C177.248 82.7239 184.145 83.1939 190.872 85.8806C193.532 86.9406 195.928 88.7506 198.062 91.3106C198.122 91.3838 198.197 91.4429 198.283 91.4834C198.369 91.5239 198.462 91.5449 198.557 91.5449C198.651 91.5449 198.745 91.5239 198.831 91.4834C198.916 91.4429 198.992 91.3838 199.052 91.3106C202.592 87.0306 206.742 84.1839 211.502 82.7706C215.568 81.5639 220.372 81.4839 225.912 82.5306C233.638 83.9973 240.602 87.3539 246.802 92.6006C252.215 97.1739 254.935 103.047 254.962 110.221C254.975 114.207 256.705 117.121 260.152 118.961C268.872 123.614 274.202 130.484 276.142 139.571C277.075 143.937 276.858 148.164 275.492 152.251C273.518 158.157 269.922 163.167 264.702 167.281ZM161.922 100.951C160.155 103.484 158.898 106.237 158.152 109.211C157.405 112.157 157.025 113.647 157.012 113.681C155.365 118.694 152.925 123.307 149.692 127.521C147.998 129.734 145.642 131.364 142.622 132.411C140.275 133.224 137.312 134.557 133.732 136.411C133.565 136.497 133.415 136.597 133.282 136.711C132.142 137.677 132.255 137.884 133.622 137.331C137.508 135.751 141.432 134.264 145.392 132.871C147.772 132.031 149.432 130.961 150.372 129.661C153.638 125.114 156.355 119.577 158.522 113.051C158.528 113.031 158.908 111.631 159.662 108.851C161.375 102.537 165.285 97.9406 171.392 95.0606C172.505 94.5406 172.372 94.3339 170.992 94.4406C170.785 94.4606 170.582 94.5039 170.382 94.5706C166.875 95.7639 164.055 97.8906 161.922 100.951ZM221.162 96.6506C229.395 99.1106 235.642 103.917 239.902 111.071C240.615 112.271 241.108 113.844 241.382 115.791C242.735 125.444 247.835 132.587 256.682 137.221C260.388 139.154 263.838 141.457 267.032 144.131C268.185 145.097 268.562 144.837 268.162 143.351C267.983 142.685 267.548 142.117 266.952 141.771C262.492 139.171 258.318 136.724 254.432 134.431C248.865 131.144 245.105 126.527 243.152 120.581C243.138 120.541 242.752 118.784 241.992 115.311C241.205 111.724 239.665 108.381 237.372 105.281C233.358 99.8673 228.035 96.7706 221.402 95.9906C221.242 95.9773 221.092 95.9839 220.952 96.0106C220.212 96.1773 220.282 96.3906 221.162 96.6506ZM222.312 104.881C225.165 106.954 227.428 109.281 229.102 111.861C229.259 112.11 229.352 112.427 229.372 112.781C229.425 113.781 229.715 114.824 230.242 115.911C231.082 117.624 231.395 119.561 231.182 121.721C231.108 122.454 231.598 124.667 232.652 128.361C232.958 129.421 233.368 129.671 233.882 129.111C233.978 129.009 234.047 128.875 234.083 128.72C234.12 128.565 234.123 128.394 234.092 128.221C233.672 125.961 233.362 123.684 233.162 121.391C232.902 118.537 232.435 116.324 231.762 114.751C230.275 111.277 228.162 108.184 225.422 105.471C224.322 104.384 223.442 103.794 222.782 103.701C221.082 103.481 220.925 103.874 222.312 104.881ZM162.112 138.671C160.958 139.904 159.555 140.691 157.902 141.031C153.942 141.837 149.938 142.861 145.892 144.101C141.185 145.547 138.365 148.671 137.432 153.471C137.172 154.817 137.442 155.964 138.242 156.911C138.422 157.124 138.632 157.237 138.872 157.251C138.934 157.255 138.997 157.243 139.055 157.214C139.113 157.185 139.166 157.141 139.209 157.084C139.253 157.027 139.286 156.959 139.307 156.885C139.329 156.81 139.337 156.73 139.332 156.651C139.018 151.791 141.052 148.647 145.432 147.221C150.025 145.721 154.602 144.177 159.162 142.591C160.515 142.117 161.605 141.364 162.432 140.331C166.878 134.757 169.882 128.504 171.442 121.571C172.368 117.437 173.145 114.787 173.772 113.621C175.412 110.567 177.778 108.084 180.872 106.171C181.538 105.757 182.105 105.271 182.572 104.711C183.172 103.991 183.045 103.824 182.192 104.211C177.725 106.237 174.438 109.371 172.332 113.611C171.885 114.517 171.415 115.831 170.922 117.551C170.535 118.911 170.138 120.264 169.732 121.611C169.712 121.671 169.242 123.564 168.322 127.291C167.255 131.571 165.185 135.364 162.112 138.671ZM190.042 114.771C188.942 116.377 189.102 116.314 190.522 114.581C191.215 113.734 191.115 113.727 190.222 114.561C190.155 114.627 190.095 114.697 190.042 114.771ZM177.272 127.151C177.358 127.177 177.442 127.147 177.522 127.061C177.588 126.987 177.625 126.881 177.632 126.741C177.745 124.974 177.945 123.221 178.232 121.481C178.392 120.467 178.205 120.071 177.672 120.291C177.539 120.343 177.419 120.436 177.321 120.562C177.223 120.687 177.152 120.841 177.112 121.011L175.782 126.481C175.741 126.649 175.744 126.821 175.79 126.97C175.837 127.119 175.925 127.238 176.042 127.311C176.348 127.504 176.662 127.457 176.982 127.171C177.012 127.144 177.056 127.128 177.107 127.125C177.158 127.121 177.215 127.13 177.272 127.151ZM166.012 128.551C166.538 127.977 166.788 127.367 166.762 126.721C166.742 126.361 166.592 126.307 166.312 126.561C160.165 132.247 152.975 135.981 144.742 137.761C141.602 138.434 138.585 139.454 135.692 140.821C135.623 140.852 135.561 140.895 135.51 140.948C135.458 141.001 135.419 141.062 135.394 141.127C135.369 141.192 135.36 141.26 135.366 141.324C135.373 141.389 135.395 141.449 135.432 141.501C135.665 141.834 136.082 141.907 136.682 141.721C139.802 140.741 142.938 139.824 146.092 138.971C146.152 138.951 147.385 138.654 149.792 138.081C156.138 136.567 161.545 133.391 166.012 128.551ZM248.712 144.311C253.485 146.384 257.905 149.021 261.972 152.221C262.086 152.31 262.176 152.43 262.236 152.57C262.295 152.709 262.321 152.864 262.312 153.021C262.225 154.301 262.745 155.071 263.872 155.331C263.936 155.345 264.002 155.345 264.066 155.331C264.131 155.317 264.191 155.289 264.244 155.25C264.297 155.21 264.341 155.159 264.374 155.101C264.406 155.042 264.426 154.977 264.432 154.911C264.612 152.904 263.925 151.361 262.372 150.281C258.698 147.727 254.342 145.474 249.302 143.521C249.088 143.441 248.885 143.407 248.692 143.421C247.432 143.467 247.438 143.764 248.712 144.311Z" fill="#FD904A"/>
<path d="M161.922 100.951C164.055 97.8906 166.875 95.764 170.382 94.5706C170.582 94.504 170.785 94.4606 170.992 94.4406C172.372 94.334 172.505 94.5406 171.392 95.0606C165.285 97.9406 161.375 102.537 159.662 108.851C158.908 111.631 158.528 113.031 158.522 113.051C156.355 119.577 153.638 125.114 150.372 129.661C149.432 130.961 147.772 132.031 145.392 132.871C141.432 134.264 137.508 135.751 133.622 137.331C132.255 137.884 132.142 137.677 133.282 136.711C133.415 136.597 133.565 136.497 133.732 136.411C137.312 134.557 140.275 133.224 142.622 132.411C145.642 131.364 147.998 129.734 149.692 127.521C152.925 123.307 155.365 118.694 157.012 113.681C157.025 113.647 157.405 112.157 158.152 109.211C158.898 106.237 160.155 103.484 161.922 100.951Z" fill="#F5B486"/>
<path d="M221.162 96.6506C220.282 96.3906 220.212 96.1773 220.952 96.0106C221.092 95.984 221.242 95.9773 221.402 95.9906C228.035 96.7706 233.359 99.8673 237.372 105.281C239.665 108.381 241.205 111.724 241.992 115.311C242.752 118.784 243.138 120.541 243.152 120.581C245.105 126.527 248.865 131.144 254.432 134.431C258.319 136.724 262.492 139.171 266.952 141.771C267.548 142.117 267.983 142.685 268.162 143.351C268.562 144.837 268.185 145.097 267.032 144.131C263.839 141.457 260.389 139.154 256.682 137.221C247.835 132.587 242.735 125.444 241.382 115.791C241.109 113.844 240.615 112.271 239.902 111.071C235.642 103.917 229.395 99.1106 221.162 96.6506Z" fill="#F5B486"/>
<path d="M222.312 104.881C220.925 103.874 221.082 103.481 222.782 103.701C223.442 103.794 224.322 104.384 225.422 105.471C228.162 108.184 230.275 111.277 231.762 114.751C232.435 116.324 232.902 118.537 233.162 121.391C233.362 123.684 233.672 125.961 234.092 128.221C234.123 128.394 234.12 128.565 234.083 128.72C234.047 128.875 233.978 129.009 233.882 129.111C233.369 129.671 232.959 129.421 232.652 128.361C231.599 124.667 231.109 122.454 231.182 121.721C231.395 119.561 231.082 117.624 230.242 115.911C229.715 114.824 229.425 113.781 229.372 112.781C229.352 112.427 229.259 112.11 229.102 111.861C227.429 109.281 225.165 106.954 222.312 104.881Z" fill="#FAA65C"/>
<path d="M162.112 138.671C165.185 135.364 167.255 131.571 168.322 127.291C169.242 123.564 169.712 121.671 169.732 121.611C170.138 120.264 170.535 118.911 170.922 117.551C171.415 115.831 171.885 114.517 172.332 113.611C174.438 109.371 177.725 106.237 182.192 104.211C183.045 103.824 183.172 103.991 182.572 104.711C182.105 105.271 181.538 105.757 180.872 106.171C177.778 108.084 175.412 110.567 173.772 113.621C173.145 114.787 172.368 117.437 171.442 121.571C169.882 128.504 166.878 134.757 162.432 140.331C161.605 141.364 160.515 142.117 159.162 142.591C154.602 144.177 150.025 145.721 145.432 147.221C141.052 148.647 139.018 151.791 139.332 156.651C139.337 156.73 139.328 156.81 139.307 156.885C139.286 156.959 139.253 157.027 139.209 157.084C139.166 157.141 139.113 157.185 139.055 157.214C138.997 157.243 138.934 157.255 138.872 157.251C138.632 157.237 138.422 157.124 138.242 156.911C137.442 155.964 137.172 154.817 137.432 153.471C138.365 148.671 141.185 145.547 145.892 144.101C149.938 142.861 153.942 141.837 157.902 141.031C159.555 140.691 160.958 139.904 162.112 138.671Z" fill="#F6CDAA"/>
<path d="M262.972 163.971C262.725 167.311 262.128 170.061 261.182 172.221C260.368 174.074 260.042 175.721 260.202 177.161C259.109 177.041 258.589 177.227 258.642 177.721L258.182 177.181V176.761C260.802 172.114 262.142 167.101 262.202 161.721C262.235 158.547 261.082 156.027 258.742 154.161C256.815 152.621 254.655 151.511 252.262 150.831C251.209 150.531 248.855 150.121 245.202 149.601C238.155 148.594 231.065 148.184 223.932 148.371C217.965 148.531 213.025 150.797 209.112 155.171C207.812 156.624 206.522 156.614 205.242 155.141C201.802 151.161 197.365 148.937 191.932 148.471C183.225 147.717 173.729 149.171 163.442 152.831C160.442 152.951 157.759 153.997 155.392 155.971L154.302 154.421C153.528 152.654 151.965 151.744 149.612 151.691C157.785 149.871 165.738 147.384 173.472 144.231C177.432 142.617 180.675 140.221 183.202 137.041C183.782 136.321 185.355 133.451 187.922 128.431C189.622 125.104 191.642 121.971 193.982 119.031C197.055 115.177 200.788 112.991 205.182 112.471C207.248 112.224 209.395 112.827 211.622 114.281C214.162 115.941 216.625 118.877 219.012 123.091C223.085 130.284 225.912 134.891 227.492 136.911C230.278 140.457 233.592 142.894 237.432 144.221C240.138 145.154 243.702 146.037 248.122 146.871C248.582 146.957 248.895 147.134 249.062 147.401C249.182 147.587 249.265 147.801 249.312 148.041C249.345 148.191 249.412 148.329 249.505 148.438C249.599 148.547 249.715 148.624 249.842 148.661C252.915 149.547 255.762 150.914 258.382 152.761C262.155 155.421 263.685 159.157 262.972 163.971ZM180.532 143.621C185.425 142.694 190.122 141.624 194.622 140.411C196.022 140.031 196.739 139.281 196.772 138.161C196.777 138.025 196.725 137.892 196.628 137.791C196.531 137.69 196.396 137.629 196.252 137.621C193.765 137.454 191.392 137.817 189.132 138.711C186.445 139.771 185.065 140.314 184.992 140.341C182.952 141.034 181.322 141.747 180.102 142.481C178.088 143.674 178.232 144.054 180.532 143.621Z" fill="#FDB9A8"/>
<path d="M190.222 114.561C191.115 113.727 191.215 113.734 190.522 114.581C189.102 116.314 188.942 116.377 190.042 114.771C190.095 114.697 190.155 114.627 190.222 114.561Z" fill="#E27136"/>
<path d="M176.982 127.171C176.662 127.457 176.348 127.504 176.042 127.311C175.925 127.239 175.837 127.119 175.79 126.97C175.744 126.821 175.741 126.649 175.782 126.481L177.112 121.011C177.152 120.841 177.224 120.687 177.321 120.562C177.419 120.436 177.539 120.343 177.672 120.291C178.205 120.071 178.392 120.467 178.232 121.481C177.945 123.221 177.745 124.974 177.632 126.741C177.625 126.881 177.589 126.987 177.522 127.061C177.442 127.147 177.359 127.177 177.272 127.151C177.215 127.13 177.158 127.121 177.107 127.125C177.056 127.128 177.012 127.144 176.982 127.171Z" fill="#E27136"/>
<path d="M166.012 128.551C161.545 133.391 156.139 136.567 149.792 138.081C147.385 138.654 146.152 138.951 146.092 138.971C142.939 139.824 139.802 140.741 136.682 141.721C136.082 141.907 135.665 141.834 135.432 141.501C135.395 141.449 135.373 141.389 135.366 141.324C135.36 141.26 135.369 141.192 135.394 141.127C135.419 141.062 135.459 141.001 135.51 140.948C135.561 140.895 135.624 140.852 135.692 140.821C138.585 139.454 141.602 138.434 144.742 137.761C152.975 135.981 160.165 132.247 166.312 126.561C166.592 126.307 166.742 126.361 166.762 126.721C166.789 127.367 166.539 127.977 166.012 128.551Z" fill="#F6C197"/>
<path d="M180.532 143.621C178.232 144.054 178.088 143.674 180.102 142.481C181.322 141.747 182.952 141.034 184.992 140.341C185.065 140.314 186.445 139.771 189.132 138.711C191.392 137.817 193.765 137.454 196.252 137.621C196.395 137.629 196.53 137.69 196.628 137.791C196.725 137.892 196.777 138.025 196.772 138.161C196.738 139.281 196.022 140.031 194.622 140.411C190.122 141.624 185.425 142.694 180.532 143.621Z" fill="#FB9684"/>
<path d="M248.712 144.311C247.439 143.764 247.432 143.467 248.692 143.421C248.885 143.407 249.089 143.441 249.302 143.521C254.342 145.474 258.699 147.727 262.372 150.281C263.925 151.361 264.612 152.904 264.432 154.911C264.426 154.977 264.406 155.042 264.374 155.101C264.342 155.159 264.297 155.21 264.244 155.25C264.191 155.289 264.131 155.317 264.067 155.331C264.002 155.345 263.936 155.345 263.872 155.331C262.745 155.071 262.225 154.301 262.312 153.021C262.321 152.864 262.295 152.709 262.236 152.57C262.177 152.43 262.086 152.31 261.972 152.221C257.905 149.021 253.485 146.384 248.712 144.311Z" fill="#F6C197"/>
<path d="M293.911 161.961C292.771 161.581 292.068 160.801 291.802 159.621C290.448 153.541 291.515 148.341 295.002 144.021C296.395 142.294 297.495 142.464 298.302 144.531C300.422 149.977 299.955 155.311 296.901 160.531C296.115 161.891 295.118 162.367 293.911 161.961Z" fill="#F7B093"/>
<path d="M258.182 176.761C257.408 177.081 256.812 177.567 256.392 178.221C255.772 179.194 255.352 179.787 255.132 180.001C254.372 180.734 253.612 181.464 252.852 182.191C252.729 182.308 252.635 182.447 252.579 182.595C252.523 182.743 252.507 182.896 252.532 183.041L252.902 185.211C252.148 185.344 251.678 185.077 251.492 184.411C251.125 183.064 250.438 182.904 249.432 183.931L245.642 185.721C238.608 188.587 231.378 189.347 223.952 188.001C220.545 185.987 217.902 183.367 216.022 180.141C213.222 175.321 211.392 170.157 210.532 164.651C210.385 163.717 210.182 162.997 209.922 162.491C208.975 160.671 207.992 160.914 206.972 163.221L206.182 167.181C204.442 173.794 201.042 178.747 195.982 182.041C191.642 184.867 186.205 186.277 179.672 186.271C173.032 186.264 166.618 184.734 160.432 181.681L152.472 176.721L147.182 171.681C146.922 171.341 146.588 171.091 146.182 170.931C146.375 170.131 146.125 169.631 145.432 169.431L144.332 167.651L140.872 161.651L141.932 158.761C143.718 156.327 145.948 154.627 148.622 153.661C150.395 153.014 152.288 153.267 154.302 154.421L155.392 155.971C155.858 156.891 156.072 157.871 156.032 158.911C156.025 159.197 156.078 159.214 156.192 158.961C157.612 155.954 160.028 153.911 163.442 152.831C173.728 149.171 183.225 147.717 191.932 148.471C197.365 148.937 201.802 151.161 205.242 155.141C206.522 156.614 207.812 156.624 209.112 155.171C213.025 150.797 217.965 148.531 223.932 148.371C231.065 148.184 238.155 148.594 245.202 149.601C248.855 150.121 251.208 150.531 252.262 150.831C254.655 151.511 256.815 152.621 258.742 154.161C261.082 156.027 262.235 158.547 262.202 161.721C262.142 167.101 260.802 172.114 258.182 176.761ZM223.642 152.971C220.635 153.091 218.215 154.094 216.382 155.981C214.988 157.414 214.218 159.441 214.072 162.061C213.612 170.347 216.565 177.331 222.932 183.011C225.758 184.837 229.175 185.491 233.182 184.971C238.408 184.297 242.832 183.081 246.452 181.321C252.498 178.387 255.768 173.544 256.262 166.791C256.662 161.424 254.508 157.734 249.802 155.721C249.688 155.674 249.288 155.484 248.602 155.151C247.255 154.517 246.878 155.041 247.472 156.721C247.512 156.981 247.392 157.184 247.112 157.331C246.558 155.791 245.588 154.734 244.202 154.161C242.535 153.474 240.758 153.121 238.872 153.101C233.845 152.034 228.768 151.991 223.642 152.971ZM156.142 166.221C154.942 167.721 154.998 169.167 156.312 170.561C156.465 172.127 157.235 173.451 158.622 174.531C163.935 178.697 169.718 181.321 175.972 182.401C180.392 183.167 184.348 183.054 187.842 182.061C191.982 180.874 195.408 178.574 198.122 175.161C201.668 170.681 202.835 165.621 201.622 159.981C200.935 156.801 198.935 154.817 195.622 154.031C185.222 151.577 175.255 152.314 165.722 156.241C161.055 158.167 157.862 161.494 156.142 166.221ZM155.882 161.161C155.288 162.541 154.992 163.984 154.992 165.491C154.991 165.547 155.007 165.602 155.037 165.643C155.067 165.684 155.108 165.708 155.152 165.711L155.312 165.731C155.383 165.74 155.461 165.707 155.531 165.637C155.601 165.567 155.658 165.466 155.692 165.351L156.722 161.631C156.772 161.445 156.797 161.266 156.795 161.104C156.794 160.942 156.765 160.802 156.712 160.691C156.492 160.244 156.215 160.401 155.882 161.161Z" fill="#271822"/>
<path d="M149.612 151.691C151.965 151.744 153.528 152.654 154.302 154.421C152.288 153.267 150.395 153.014 148.622 153.661C145.948 154.627 143.718 156.327 141.932 158.761C141.752 158.621 141.625 158.457 141.552 158.271C141.507 158.153 141.511 158.009 141.565 157.857C141.618 157.706 141.718 157.554 141.852 157.421C144.112 155.194 146.698 153.284 149.612 151.691Z" fill="#F2C7BB"/>
<path d="M163.442 152.831C160.028 153.911 157.612 155.954 156.192 158.961C156.078 159.214 156.025 159.197 156.032 158.911C156.072 157.871 155.858 156.891 155.392 155.971C157.758 153.997 160.442 152.951 163.442 152.831Z" fill="#F9D6D5"/>
<path d="M238.872 153.101C240.485 154.201 242.258 154.957 244.192 155.371C244.337 155.403 244.469 155.478 244.567 155.586C244.666 155.694 244.727 155.828 244.742 155.971L245.142 159.471L244.432 159.511C238.472 156.031 232.298 155.551 225.912 158.071C222.852 159.817 220.958 162.367 220.232 165.721C219.812 167.687 219.628 169.191 219.682 170.231C219.768 171.797 220.425 173.244 221.652 174.571C223.238 176.291 224.275 176.007 224.762 173.721C225.548 169.954 227.405 166.811 230.332 164.291C229.818 166.484 230.035 168.274 230.982 169.661C231.808 170.874 233.008 171.524 234.582 171.611C236.808 171.737 237.778 170.254 237.492 167.161C237.305 165.107 236.368 163.864 234.682 163.431C235.468 162.691 236.255 162.597 237.042 163.151C237.317 163.343 237.629 163.425 237.912 163.381C239.712 163.101 241.385 163.451 242.932 164.431C242.092 164.431 241.915 164.784 242.402 165.491C243.035 166.397 243.015 167.351 242.342 168.351C242.182 168.589 242.072 168.846 242.018 169.105C241.964 169.364 241.969 169.619 242.032 169.851L244.322 178.691C244.351 178.797 244.433 178.891 244.555 178.958C244.676 179.025 244.83 179.061 244.992 179.061L246.722 179.091C246.268 179.731 246.378 180.037 247.052 180.011C247.278 180.004 247.512 179.921 247.752 179.761C250.832 177.761 252.955 175.477 254.122 172.911C254.588 171.877 254.762 170.231 254.642 167.971C255.635 165.191 255.368 162.551 253.842 160.051C252.368 157.631 250.245 156.521 247.472 156.721C246.878 155.041 247.255 154.517 248.602 155.151C249.288 155.484 249.688 155.674 249.802 155.721C254.508 157.734 256.662 161.424 256.262 166.791C255.768 173.544 252.498 178.387 246.452 181.321C242.832 183.081 238.408 184.297 233.182 184.971C229.175 185.491 225.758 184.837 222.932 183.011C223.585 182.697 223.688 182.331 223.242 181.911C219.355 178.237 216.872 173.747 215.792 168.441C215.052 164.847 214.812 162.151 215.072 160.351C215.572 156.891 218.025 154.941 222.432 154.501C223.538 154.387 223.942 153.877 223.642 152.971C228.768 151.991 233.845 152.034 238.872 153.101Z" fill="#F98D7D"/>
<path d="M156.312 170.561L159.782 173.921C159.891 174.026 160.034 174.091 160.19 174.105C160.345 174.12 160.504 174.083 160.642 174.001C161.882 173.247 161.652 171.764 159.952 169.551C159.704 169.229 159.37 168.985 158.989 168.848C158.607 168.712 158.195 168.688 157.802 168.781C156.715 169.034 156.162 168.181 156.142 166.221C157.862 161.494 161.055 158.167 165.722 156.241C175.255 152.314 185.222 151.577 195.622 154.031C198.935 154.817 200.935 156.801 201.622 159.981C202.835 165.621 201.668 170.681 198.122 175.161C195.408 178.574 191.982 180.874 187.842 182.061C184.348 183.054 180.392 183.167 175.972 182.401C169.718 181.321 163.935 178.697 158.622 174.531C157.235 173.451 156.465 172.127 156.312 170.561ZM177.812 167.491L181.142 166.471C180.802 170.351 182.065 172.284 184.932 172.271C186.818 172.271 188.118 171.487 188.832 169.921C189.585 168.274 189.352 166.467 188.132 164.501C189.845 163.581 191.615 163.077 193.442 162.991C193.584 162.981 193.73 163.015 193.863 163.087C193.997 163.159 194.114 163.267 194.202 163.401L195.642 165.561C195.75 165.724 195.879 165.859 196.014 165.952C196.15 166.045 196.287 166.093 196.412 166.091C196.838 166.077 196.972 165.614 196.812 164.701C196.078 160.561 193.615 158.174 189.422 157.541C186.188 157.054 183.145 157.407 180.292 158.601C177.745 159.661 175.818 160.734 174.512 161.821C172.778 163.274 171.638 165.294 171.092 167.881C170.698 169.774 171.345 170.347 173.032 169.601L177.812 167.491Z" fill="#FB9684"/>
<path d="M223.642 152.971C223.942 153.877 223.539 154.387 222.432 154.501C218.025 154.941 215.572 156.891 215.072 160.351C214.812 162.151 215.052 164.847 215.792 168.441C216.872 173.747 219.355 178.237 223.242 181.911C223.689 182.331 223.585 182.697 222.932 183.011C216.565 177.331 213.612 170.347 214.072 162.061C214.219 159.441 214.989 157.414 216.382 155.981C218.215 154.094 220.635 153.091 223.642 152.971Z" fill="#FCBFAF"/>
<path d="M238.872 153.101C240.758 153.121 242.535 153.474 244.202 154.161C245.588 154.734 246.558 155.791 247.112 157.331L248.722 165.721C248.435 170.234 247.768 174.691 246.722 179.091L244.992 179.061C244.83 179.061 244.676 179.025 244.555 178.958C244.433 178.891 244.351 178.797 244.322 178.691L242.032 169.851C241.969 169.619 241.964 169.364 242.018 169.105C242.072 168.846 242.182 168.589 242.342 168.351C243.015 167.351 243.035 166.397 242.402 165.491C241.915 164.784 242.092 164.431 242.932 164.431L246.142 167.611C246.475 167.944 246.678 167.901 246.752 167.481C247.338 164.174 246.802 161.504 245.142 159.471L244.742 155.971C244.727 155.828 244.666 155.694 244.567 155.586C244.469 155.478 244.337 155.403 244.192 155.371C242.258 154.957 240.485 154.201 238.872 153.101Z" fill="#F2C7BB"/>
<path d="M244.432 159.511C244.232 160.384 243.835 160.684 243.242 160.411C237.495 157.724 231.718 156.944 225.912 158.071C232.298 155.551 238.472 156.031 244.432 159.511Z" fill="#CF4945"/>
<path d="M254.642 167.971C253.695 167.344 252.942 166.527 252.382 165.521C251.049 163.147 249.828 163.214 248.722 165.721L247.112 157.331C247.392 157.184 247.512 156.981 247.472 156.721C250.245 156.521 252.368 157.631 253.842 160.051C255.368 162.551 255.635 165.191 254.642 167.971Z" fill="#F5988B"/>
<path d="M188.132 164.501C186.025 163.494 183.875 163.497 181.682 164.511C179.735 164.671 178.445 165.664 177.812 167.491L173.032 169.601C171.345 170.347 170.698 169.774 171.092 167.881C171.638 165.294 172.778 163.274 174.512 161.821C175.818 160.734 177.745 159.661 180.292 158.601C183.145 157.407 186.188 157.054 189.422 157.541C193.615 158.174 196.078 160.561 196.812 164.701C196.972 165.614 196.838 166.077 196.412 166.091C196.287 166.093 196.15 166.045 196.014 165.952C195.879 165.859 195.75 165.724 195.642 165.561L194.202 163.401C194.114 163.267 193.997 163.159 193.863 163.087C193.73 163.015 193.584 162.981 193.442 162.991C191.615 163.077 189.845 163.581 188.132 164.501Z" fill="#E86E5F"/>
<path d="M244.432 159.511L245.142 159.471C246.802 161.504 247.339 164.174 246.752 167.481C246.679 167.901 246.475 167.944 246.142 167.611L242.932 164.431C241.385 163.451 239.712 163.101 237.912 163.381C237.63 163.425 237.317 163.343 237.042 163.151C236.255 162.597 235.469 162.691 234.682 163.431C233.095 162.984 231.645 163.271 230.332 164.291C227.405 166.811 225.549 169.954 224.762 173.721C224.275 176.007 223.239 176.291 221.652 174.571C220.425 173.244 219.769 171.797 219.682 170.231C219.629 169.191 219.812 167.687 220.232 165.721C220.959 162.367 222.852 159.817 225.912 158.071C231.719 156.944 237.495 157.724 243.242 160.411C243.835 160.684 244.232 160.384 244.432 159.511Z" fill="#E97066"/>
<path d="M155.882 161.161C156.215 160.401 156.492 160.244 156.712 160.691C156.765 160.802 156.794 160.942 156.796 161.104C156.797 161.266 156.772 161.445 156.722 161.631L155.692 165.351C155.658 165.465 155.601 165.567 155.531 165.637C155.461 165.707 155.383 165.74 155.312 165.731L155.152 165.711C155.108 165.708 155.067 165.684 155.037 165.643C155.007 165.602 154.991 165.547 154.992 165.491C154.992 163.984 155.288 162.541 155.882 161.161Z" fill="#959E74"/>
<path d="M223.952 188.001C221.718 187.841 219.808 186.914 218.222 185.221C214.382 180.434 211.868 175.434 210.682 170.221C209.915 166.874 209.362 164.634 209.022 163.501C208.989 163.388 208.907 163.291 208.791 163.225C208.674 163.16 208.53 163.13 208.382 163.141L206.972 163.221C207.992 160.914 208.975 160.671 209.922 162.491C210.182 162.997 210.385 163.717 210.532 164.651C211.392 170.157 213.222 175.321 216.022 180.141C217.902 183.367 220.545 185.987 223.952 188.001Z" fill="#FDB9A8"/>
<path d="M218.222 185.221C218.362 186.807 218.835 188.307 219.642 189.721C220.548 195.661 217.952 198.774 211.852 199.061C215.512 198.187 217.752 196.067 218.572 192.701C218.649 192.403 218.618 192.072 218.482 191.761C217.148 188.647 215.792 185.544 214.412 182.451C213.825 181.137 213.435 181.087 213.242 182.301C213.195 182.554 213.212 182.827 213.292 183.121C214.078 185.934 214.292 188.967 213.932 192.221C213.632 194.894 212.322 196.434 210.002 196.841C210.462 188.021 210.105 179.331 208.932 170.771C208.892 170.451 208.768 170.157 208.562 169.891C207.842 168.937 207.465 168.297 207.432 167.971C207.358 167.297 206.942 167.034 206.182 167.181L206.972 163.221L208.382 163.141C208.53 163.13 208.674 163.16 208.791 163.225C208.907 163.291 208.989 163.388 209.022 163.501C209.362 164.634 209.915 166.874 210.682 170.221C211.868 175.434 214.382 180.434 218.222 185.221Z" fill="#F77E6B"/>
<path d="M234.682 163.431C236.368 163.864 237.305 165.107 237.492 167.161C237.778 170.254 236.808 171.737 234.582 171.611C233.008 171.524 231.808 170.874 230.982 169.661C230.035 168.274 229.818 166.484 230.332 164.291C231.645 163.271 233.095 162.984 234.682 163.431Z" fill="#744B46"/>
<path d="M188.132 164.501C189.352 166.467 189.585 168.274 188.832 169.921C188.119 171.487 186.819 172.271 184.932 172.271C182.065 172.284 180.802 170.351 181.142 166.471L181.682 164.511C183.875 163.497 186.025 163.494 188.132 164.501Z" fill="#5A403E"/>
<path d="M254.642 167.971C254.762 170.231 254.589 171.877 254.122 172.911C252.955 175.477 250.832 177.761 247.752 179.761C247.512 179.921 247.279 180.004 247.052 180.011C246.379 180.037 246.269 179.731 246.722 179.091C247.769 174.691 248.435 170.234 248.722 165.721C249.829 163.214 251.049 163.147 252.382 165.521C252.942 166.527 253.695 167.344 254.642 167.971Z" fill="#BF4633"/>
<path d="M262.972 163.971C265.212 164.277 265.788 165.381 264.702 167.281C264.202 169.014 263.945 170.994 263.932 173.221C263.912 176.587 263.965 179.174 264.092 180.981C264.265 183.467 264.995 185.674 266.282 187.601C267.228 189.021 268.898 190.514 271.292 192.081C275.485 194.834 279.928 197.151 284.622 199.031C293.728 202.671 298.165 209.484 297.932 219.471C297.878 221.584 297.788 223.694 297.662 225.801C297.482 228.701 297.508 230.807 297.742 232.121C298.482 236.241 300.515 239.724 303.842 242.571C305.322 243.837 306.822 245.074 308.342 246.281C315.822 252.201 319.725 260.034 320.052 269.781C320.265 272.387 319.162 274.797 316.742 277.011C317.175 268.537 315.125 260.967 310.592 254.301C309.518 252.714 307.632 250.767 304.932 248.461C302.638 246.501 300.475 244.407 298.442 242.181C296.602 240.167 295.358 238.337 294.712 236.691C293.878 234.577 293.512 232.337 293.612 229.971C293.792 225.804 293.878 221.637 293.872 217.471C293.865 212.951 292.655 209.431 290.242 206.911C288.048 204.617 284.645 202.504 280.032 200.571C276.072 198.911 272.602 197.147 269.622 195.281C263.102 191.207 259.962 185.167 260.202 177.161C260.042 175.721 260.368 174.074 261.182 172.221C262.128 170.061 262.725 167.311 262.972 163.971Z" fill="#F07239"/>
<path d="M181.682 164.511L181.142 166.471L177.812 167.491C178.445 165.664 179.735 164.671 181.682 164.511Z" fill="#9F4035"/>
<path d="M156.142 166.221C156.162 168.181 156.715 169.034 157.802 168.781C158.195 168.688 158.607 168.712 158.989 168.848C159.37 168.985 159.704 169.229 159.952 169.551C161.652 171.764 161.882 173.247 160.642 174.001C160.504 174.083 160.345 174.12 160.19 174.105C160.034 174.091 159.891 174.026 159.782 173.921L156.312 170.561C154.998 169.167 154.942 167.721 156.142 166.221Z" fill="#E97066"/>
<path d="M308.232 202.201C306.565 200.794 305.755 198.781 305.802 196.161C306.002 185.014 309.858 175.931 317.372 168.911C321.925 164.651 324.372 165.754 324.712 172.221C325.138 180.301 323.522 187.924 319.862 195.091C318.162 198.417 315.662 200.941 312.362 202.661C310.882 203.434 309.505 203.281 308.232 202.201Z" fill="#FAA575"/>
<path d="M144.332 167.651L145.431 169.431C141.325 172.684 138.888 174.761 138.121 175.661C134.108 180.334 131.828 185.767 131.281 191.961C130.788 197.641 130.318 201.041 129.871 202.161C128.485 205.647 126.395 208.644 123.601 211.151C122.068 212.531 120.528 213.894 118.981 215.241C111.935 221.367 109.641 229.034 112.101 238.241C113.741 244.374 112.165 249.597 107.371 253.911C102.878 257.944 100.315 263.131 99.6815 269.471C99.1748 274.531 99.3548 282.197 100.221 292.471C99.6615 293.637 98.7315 294.291 97.4315 294.431C96.6448 287.311 96.2715 280.177 96.3115 273.031C96.3448 268.251 96.7848 264.587 97.6315 262.041C98.9382 258.147 101.101 255.021 104.121 252.661C107.881 249.721 109.492 245.834 108.952 241.001C108.658 238.401 108.398 235.801 108.171 233.201C107.531 225.907 109.845 219.804 115.111 214.891C117.698 212.484 120.292 210.081 122.892 207.681C125.118 205.621 126.631 203.134 127.431 200.221C127.878 198.594 128.331 195.597 128.791 191.231C129.911 180.677 135.092 172.817 144.332 167.651Z" fill="#F07239"/>
<path d="M206.182 167.181C206.942 167.034 207.359 167.297 207.432 167.971C207.465 168.297 207.842 168.937 208.562 169.891C208.769 170.157 208.892 170.451 208.932 170.771C210.105 179.331 210.462 188.021 210.002 196.841C207.869 197.794 205.629 198.257 203.282 198.231C203.015 198.224 202.779 198.241 202.572 198.281C201.285 198.527 201.319 198.851 202.672 199.251C205.879 200.197 208.939 200.134 211.852 199.061C217.952 198.774 220.549 195.661 219.642 189.721C220.369 188.987 221.105 188.864 221.852 189.351C222.172 189.557 222.465 189.694 222.732 189.761C223.732 190.001 224.402 190.467 224.742 191.161C226.069 193.821 226.902 195.404 227.242 195.911C229.295 198.951 232.285 200.111 236.212 199.391C238.999 198.877 241.219 197.551 242.872 195.411C244.345 193.497 245.592 191.287 246.612 188.781C246.872 188.141 246.919 187.591 246.752 187.131C246.545 186.577 246.175 186.107 245.642 185.721L249.432 183.931C247.765 195.464 244.579 206.374 239.872 216.661C237.225 222.441 233.519 227.457 228.752 231.711C218.405 240.971 206.819 243.704 193.992 239.911C188.412 238.257 182.475 235.041 176.182 230.261C167.249 222.447 160.832 212.931 156.932 201.711C156.906 201.64 156.866 201.579 156.82 201.536C156.773 201.493 156.721 201.47 156.672 201.471H156.472L156.142 199.971C154.989 195.411 153.689 191.557 152.242 188.411C150.669 184.977 150.169 181.431 150.742 177.771C152.402 180.917 154.042 184.041 155.662 187.141C157.342 190.341 159.245 193.401 161.372 196.321C163.765 199.601 166.785 201.234 170.432 201.221C178.852 201.194 182.602 196.964 181.682 188.531C181.666 188.389 181.6 188.258 181.496 188.159C181.392 188.061 181.256 188.001 181.112 187.991C175.345 187.497 169.702 186.394 164.182 184.681C162.509 184.294 161.195 183.704 160.242 182.911C159.622 182.384 159.685 181.974 160.432 181.681C166.619 184.734 173.032 186.264 179.672 186.271C186.205 186.277 191.642 184.867 195.982 182.041C201.042 178.747 204.442 173.794 206.182 167.181ZM224.922 204.551C216.815 206.597 208.569 207.501 200.182 207.261C196.769 206.301 193.005 205.757 188.892 205.631C188.165 205.611 187.982 205.917 188.342 206.551C191.462 211.997 195.545 216.257 200.592 219.331C204.605 221.777 208.579 222.467 212.512 221.401C215.692 220.527 218.589 218.531 221.202 215.411C223.549 212.611 225.242 209.391 226.282 205.751C226.402 205.344 226.435 204.987 226.382 204.681C226.235 203.721 225.749 203.677 224.922 204.551Z" fill="#FEB9A6"/>
<path d="M145.432 169.431C146.125 169.631 146.375 170.131 146.182 170.931L143.932 173.181C140.818 175.294 138.508 178.081 137.002 181.541C135.028 186.047 134.128 190.774 134.302 195.721C134.548 202.687 132.165 208.511 127.152 213.191C124.612 215.571 122.182 218.057 119.862 220.651C117.348 223.471 115.952 226.681 115.672 230.281C115.572 231.527 115.822 233.457 116.422 236.071C116.868 237.984 117.195 239.917 117.402 241.871C117.735 244.937 117.442 247.617 116.522 249.911C115.442 252.571 113.848 254.861 111.742 256.781C109.462 258.861 107.695 261.167 106.442 263.701C105.415 265.774 104.748 268.534 104.442 271.981C103.928 277.807 104.022 283.637 104.722 289.471C103.555 290.984 102.055 291.984 100.222 292.471C99.3551 282.197 99.1751 274.531 99.6818 269.471C100.315 263.131 102.878 257.944 107.372 253.911C112.165 249.597 113.742 244.374 112.102 238.241C109.642 229.034 111.935 221.367 118.982 215.241C120.528 213.894 122.068 212.531 123.602 211.151C126.395 208.644 128.485 205.647 129.872 202.161C130.318 201.041 130.788 197.641 131.282 191.961C131.828 185.767 134.108 180.334 138.122 175.661C138.888 174.761 141.325 172.684 145.432 169.431Z" fill="#FAF3F0"/>
<path d="M146.182 170.931C146.588 171.091 146.922 171.341 147.182 171.681C146.675 171.821 146.425 172.154 146.432 172.681C145.652 173.261 144.818 173.427 143.932 173.181L146.182 170.931Z" fill="#AE4035"/>
<path d="M147.182 171.681L152.472 176.721C152.499 177.107 152.319 177.287 151.932 177.261C151.219 177.094 150.592 176.777 150.052 176.311C150.005 176.271 149.95 176.242 149.891 176.227C149.832 176.211 149.772 176.209 149.716 176.221C149.659 176.233 149.609 176.259 149.57 176.295C149.531 176.332 149.504 176.379 149.492 176.431L149.182 177.931C147.909 183.957 146.559 189.967 145.132 195.961C144.605 198.174 144.539 200.677 144.932 203.471C145.932 210.624 146.652 215.111 147.092 216.931C147.839 220.031 147.752 222.997 146.832 225.831C146.479 226.917 145.505 228.714 143.912 231.221C142.332 233.707 141.422 235.541 141.182 236.721C140.575 239.727 140.512 242.041 140.992 243.661C142.365 248.261 143.095 251.281 143.182 252.721C143.329 255.247 142.779 257.601 141.532 259.781C141.065 260.581 140.135 262.247 138.742 264.781C136.515 268.827 136.245 273.211 137.932 277.931C136.959 278.257 135.959 278.341 134.932 278.181C133.632 272.941 134.279 267.997 136.872 263.351C137.819 261.657 138.765 259.964 139.712 258.271C140.899 256.157 141.399 253.967 141.212 251.701C141.212 251.687 140.675 249.777 139.602 245.971C138.582 242.357 138.689 238.791 139.922 235.271C140.269 234.291 141.219 232.781 142.772 230.741C145.732 226.854 146.785 222.431 145.932 217.471C144.932 211.637 144.292 207.004 144.012 203.571C143.999 203.451 143.965 203.347 143.912 203.261C143.732 202.987 143.625 203.144 143.592 203.731C143.425 206.784 142.622 209.627 141.182 212.261L140.682 211.931C141.269 210.411 141.685 208.257 141.932 205.471C142.299 201.377 143.765 194.247 146.332 184.081C146.705 182.587 146.972 180.997 147.132 179.311C147.285 177.691 147.469 176.077 147.682 174.471C147.769 173.824 147.352 173.227 146.432 172.681C146.425 172.154 146.675 171.821 147.182 171.681Z" fill="#F6F3F1"/>
<path d="M146.431 172.681C147.351 173.227 147.768 173.824 147.681 174.471C147.468 176.077 147.285 177.691 147.132 179.311C146.972 180.997 146.705 182.587 146.332 184.081C143.765 194.247 142.298 201.377 141.931 205.471C141.685 208.257 141.268 210.411 140.681 211.931C138.621 214.691 136.435 217.017 134.121 218.911C129.035 223.064 126.898 228.241 127.712 234.441C127.718 234.461 128.175 236.244 129.082 239.791C130.288 244.504 129.878 249.074 127.851 253.501C127.845 253.514 127.125 254.744 125.692 257.191C123.492 260.937 122.835 265.027 123.721 269.461C124.475 273.227 124.218 277.144 122.952 281.211L104.721 289.471C104.021 283.637 103.928 277.807 104.442 271.981C104.748 268.534 105.415 265.774 106.442 263.701C107.695 261.167 109.461 258.861 111.741 256.781C113.848 254.861 115.442 252.571 116.522 249.911C117.442 247.617 117.735 244.937 117.401 241.871C117.195 239.917 116.868 237.984 116.421 236.071C115.821 233.457 115.571 231.527 115.671 230.281C115.951 226.681 117.348 223.471 119.861 220.651C122.181 218.057 124.611 215.571 127.151 213.191C132.165 208.511 134.548 202.687 134.301 195.721C134.128 190.774 135.028 186.047 137.002 181.541C138.508 178.081 140.818 175.294 143.931 173.181C144.818 173.427 145.651 173.261 146.431 172.681Z" fill="#D15931"/>
<path d="M151.932 177.261L155.342 180.361C155.436 180.449 155.515 180.571 155.574 180.719C155.632 180.866 155.669 181.037 155.682 181.221C155.762 182.301 156.325 183.154 157.372 183.781C159.605 185.121 161.875 185.421 164.182 184.681C169.702 186.394 175.345 187.497 181.112 187.991C181.256 188.001 181.392 188.061 181.496 188.159C181.6 188.258 181.666 188.389 181.682 188.531C182.602 196.964 178.852 201.194 170.432 201.221C166.785 201.234 163.765 199.601 161.372 196.321C159.245 193.401 157.342 190.341 155.662 187.141C154.042 184.041 152.402 180.917 150.742 177.771C150.155 177.364 149.635 177.417 149.182 177.931L149.492 176.431C149.504 176.379 149.531 176.332 149.57 176.295C149.609 176.259 149.659 176.233 149.715 176.221C149.771 176.209 149.832 176.211 149.891 176.227C149.95 176.242 150.005 176.271 150.052 176.311C150.592 176.777 151.218 177.094 151.932 177.261Z" fill="#FB887C"/>
<path d="M152.472 176.721L160.432 181.681C159.685 181.974 159.622 182.384 160.242 182.911C161.195 183.704 162.508 184.294 164.182 184.681C161.875 185.421 159.605 185.121 157.372 183.781C156.325 183.154 155.762 182.301 155.682 181.221C155.669 181.037 155.632 180.866 155.574 180.719C155.515 180.571 155.436 180.449 155.342 180.361L151.932 177.261C152.318 177.287 152.498 177.107 152.472 176.721Z" fill="#F5988B"/>
<path d="M258.182 176.761V177.181C257.335 177.874 256.905 178.804 256.892 179.971C255.358 180.517 254.538 181.517 254.432 182.971C253.825 191.324 254.838 199.824 257.472 208.471C256.638 208.931 256.472 209.514 256.972 210.221C257.805 214.694 257.275 218.987 255.382 223.101C254.102 225.881 252.958 228.717 251.952 231.611C251.152 233.931 250.992 236.297 251.472 238.711C252.185 242.257 252.318 245.797 251.872 249.331C251.518 252.117 251.382 253.891 251.462 254.651C251.628 256.284 252.055 258.037 252.742 259.911C254.288 264.111 254.268 268.561 252.682 273.261L249.202 272.961C250.435 268.527 250.575 264.551 249.622 261.031C248.568 257.171 248.265 253.554 248.712 250.181C249.112 247.187 249.312 245.534 249.312 245.221C249.312 243.701 249.185 242.034 248.932 240.221C248.265 235.401 248.998 230.757 251.132 226.291C252.345 223.744 252.955 222.464 252.962 222.451C254.935 217.411 255.432 212.167 254.452 206.721C253.178 199.614 252.662 192.444 252.902 185.211L252.532 183.041C252.507 182.896 252.523 182.743 252.579 182.595C252.635 182.447 252.729 182.308 252.852 182.191C253.612 181.464 254.372 180.734 255.132 180.001C255.352 179.787 255.772 179.194 256.392 178.221C256.812 177.567 257.408 177.081 258.182 176.761Z" fill="#F6F3F1"/>
<path d="M258.182 177.181L258.642 177.721L258.582 186.061C257.568 184.221 257.005 182.191 256.892 179.971C256.905 178.804 257.335 177.874 258.182 177.181Z" fill="#DC2C21"/>
<path d="M260.202 177.161C259.962 185.167 263.102 191.207 269.622 195.281C272.602 197.147 276.071 198.911 280.031 200.571C284.645 202.504 288.048 204.617 290.242 206.911C292.655 209.431 293.865 212.951 293.872 217.471C293.878 221.637 293.792 225.804 293.612 229.971C293.512 232.337 293.878 234.577 294.712 236.691C295.358 238.337 296.602 240.167 298.442 242.181C300.475 244.407 302.638 246.501 304.932 248.461C307.632 250.767 309.518 252.714 310.591 254.301C315.125 260.967 317.175 268.537 316.742 277.011C316.115 278.744 314.808 279.344 312.822 278.811C312.028 272.537 310.355 266.371 307.802 260.311C306.322 256.811 303.865 253.864 300.432 251.471C297.445 249.384 294.548 246.614 291.742 243.161C288.842 239.581 287.808 235.234 288.642 230.121C289.675 223.827 289.855 219.277 289.182 216.471C288.315 212.851 286.462 210.121 283.622 208.281C281.088 206.641 276.661 204.157 270.341 200.831C264.221 197.617 260.302 192.694 258.582 186.061L258.642 177.721C258.588 177.227 259.108 177.041 260.202 177.161Z" fill="#FAEFE9"/>
<path d="M150.742 177.771C150.168 181.431 150.668 184.977 152.242 188.411C153.688 191.557 154.988 195.411 156.142 199.971C154.795 201.924 154.142 203.924 154.182 205.971C154.255 209.444 154.622 213.871 155.282 219.251C155.282 219.284 155.402 220.097 155.642 221.691C156.222 225.531 155.928 229.314 154.762 233.041C153.608 236.747 153.512 240.644 154.472 244.731C154.892 246.524 154.745 248.267 154.032 249.961C153.125 252.107 152.208 254.394 151.282 256.821C150.142 259.821 149.545 262.194 149.492 263.941C149.372 267.947 150.768 271.527 153.682 274.681L137.932 277.931C136.245 273.211 136.515 268.827 138.742 264.781C140.135 262.247 141.065 260.581 141.532 259.781C142.778 257.601 143.328 255.247 143.182 252.721C143.095 251.281 142.365 248.261 140.992 243.661C140.512 242.041 140.575 239.727 141.182 236.721C141.422 235.541 142.332 233.707 143.912 231.221C145.505 228.714 146.478 226.917 146.832 225.831C147.752 222.997 147.838 220.031 147.092 216.931C146.652 215.111 145.932 210.624 144.932 203.471C144.538 200.677 144.605 198.174 145.132 195.961C146.558 189.967 147.908 183.957 149.182 177.931C149.635 177.417 150.155 177.364 150.742 177.771Z" fill="#D05735"/>
<path d="M256.892 179.971C257.005 182.191 257.568 184.221 258.582 186.061C260.302 192.694 264.222 197.617 270.342 200.831C276.662 204.157 281.088 206.641 283.622 208.281C286.462 210.121 288.315 212.851 289.182 216.471C289.855 219.277 289.675 223.827 288.642 230.121C287.808 235.234 288.842 239.581 291.742 243.161C294.548 246.614 297.445 249.384 300.432 251.471C303.865 253.864 306.322 256.811 307.802 260.311C310.355 266.371 312.028 272.537 312.822 278.811C313.488 281.057 313.245 283.001 312.092 284.641C310.452 286.967 308.942 289.017 307.562 290.791C301.022 286.291 294.312 282.337 287.432 278.931C288.705 273.931 289.338 268.877 289.332 263.771C289.332 260.257 288.785 257.481 287.692 255.441C286.385 253.007 284.402 250.831 281.742 248.911C276.568 245.171 274.625 240.051 275.912 233.551C276.412 231.044 276.665 229.771 276.672 229.731C276.998 227.211 277.002 225.207 276.682 223.721C276.148 221.247 274.462 219.264 271.622 217.771C268.968 216.377 266.265 215.077 263.512 213.871C260.905 212.717 258.892 210.917 257.472 208.471C254.838 199.824 253.825 191.324 254.432 182.971C254.538 181.517 255.358 180.517 256.892 179.971Z" fill="#CC5834"/>
<path d="M211.851 199.061C208.938 200.134 205.878 200.197 202.671 199.251C201.318 198.851 201.285 198.527 202.572 198.281C202.778 198.241 203.015 198.224 203.281 198.231C205.628 198.257 207.868 197.794 210.001 196.841C212.321 196.434 213.631 194.894 213.931 192.221C214.291 188.967 214.078 185.934 213.291 183.121C213.211 182.827 213.195 182.554 213.241 182.301C213.435 181.087 213.825 181.137 214.411 182.451C215.791 185.544 217.148 188.647 218.481 191.761C218.617 192.072 218.649 192.403 218.572 192.701C217.752 196.067 215.511 198.187 211.851 199.061Z" fill="#FB9684"/>
<path d="M252.902 185.211C252.662 192.444 253.179 199.614 254.452 206.721C255.432 212.167 254.935 217.411 252.962 222.451C252.955 222.464 252.345 223.744 251.132 226.291C248.999 230.757 248.265 235.401 248.932 240.221C249.185 242.034 249.312 243.701 249.312 245.221C249.312 245.534 249.112 247.187 248.712 250.181C248.265 253.554 248.569 257.171 249.622 261.031C250.575 264.551 250.435 268.527 249.202 272.961L239.472 271.971C234.212 270.637 231.199 267.471 230.432 262.471C229.485 256.297 229.032 246.767 229.072 233.881C229.419 233.441 229.312 232.717 228.752 231.711C233.519 227.457 237.225 222.441 239.872 216.661C244.579 206.374 247.765 195.464 249.432 183.931C250.439 182.904 251.125 183.064 251.492 184.411C251.679 185.077 252.149 185.344 252.902 185.211Z" fill="#C25331"/>
<path d="M218.222 185.221C219.808 186.914 221.718 187.841 223.952 188.001C231.378 189.347 238.608 188.587 245.642 185.721C246.175 186.107 246.545 186.577 246.752 187.131C246.918 187.591 246.872 188.141 246.612 188.781C245.592 191.287 244.345 193.497 242.872 195.411C241.218 197.551 238.998 198.877 236.212 199.391C232.285 200.111 229.295 198.951 227.242 195.911C226.902 195.404 226.068 193.821 224.742 191.161C224.402 190.467 223.732 190.001 222.732 189.761C222.465 189.694 222.172 189.557 221.852 189.351C221.105 188.864 220.368 188.987 219.642 189.721C218.835 188.307 218.362 186.807 218.222 185.221Z" fill="#FA8777"/>
<path d="M156.142 199.971L156.471 201.471C155.631 207.557 155.815 213.617 157.022 219.651C158.055 224.844 157.941 229.617 156.681 233.971C156.181 235.704 155.905 237.301 155.851 238.761C155.825 239.514 156.155 241.061 156.841 243.401C157.275 244.894 157.468 246.414 157.421 247.961C157.381 249.127 156.992 250.574 156.252 252.301C155.105 254.954 154.112 257.661 153.272 260.421C152.792 262.014 152.615 263.404 152.741 264.591C152.921 266.231 153.421 267.587 154.241 268.661C155.421 270.194 156.498 271.797 157.471 273.471C156.411 274.351 155.148 274.754 153.681 274.681C150.768 271.527 149.371 267.947 149.491 263.941C149.545 262.194 150.141 259.821 151.281 256.821C152.208 254.394 153.125 252.107 154.031 249.961C154.745 248.267 154.891 246.524 154.471 244.731C153.511 240.644 153.608 236.747 154.762 233.041C155.928 229.314 156.222 225.531 155.642 221.691C155.402 220.097 155.281 219.284 155.281 219.251C154.621 213.871 154.255 209.444 154.181 205.971C154.141 203.924 154.795 201.924 156.142 199.971Z" fill="#FAF9F9"/>
<path d="M156.472 201.471H156.672C156.721 201.47 156.773 201.493 156.82 201.536C156.866 201.579 156.906 201.64 156.932 201.711C160.832 212.931 167.248 222.447 176.182 230.261C175.922 231.767 176.022 233.094 176.482 234.241C176.542 238.881 176.525 247.374 176.432 259.721C176.378 266.394 173.282 270.644 167.142 272.471L157.472 273.471C156.498 271.797 155.422 270.194 154.242 268.661C153.422 267.587 152.922 266.231 152.742 264.591C152.615 263.404 152.792 262.014 153.272 260.421C154.112 257.661 155.105 254.954 156.252 252.301C156.992 250.574 157.382 249.127 157.422 247.961C157.468 246.414 157.275 244.894 156.842 243.401C156.155 241.061 155.825 239.514 155.852 238.761C155.905 237.301 156.182 235.704 156.682 233.971C157.942 229.617 158.055 224.844 157.022 219.651C155.815 213.617 155.632 207.557 156.472 201.471Z" fill="#C55230"/>
<path d="M134.932 278.181L127.682 280.261L126.682 279.681C127.475 275.507 127.365 271.234 126.352 266.861C126.045 265.547 126.162 264.277 126.702 263.051C128.162 259.737 129.655 256.247 131.182 252.581C132.115 250.321 132.448 248.201 132.182 246.221C131.908 244.214 131.095 240.444 129.742 234.911C128.362 229.271 129.925 224.291 134.432 219.971C137.305 217.217 139.555 214.647 141.182 212.261C142.622 209.627 143.425 206.784 143.592 203.731C143.625 203.144 143.732 202.987 143.912 203.261C143.965 203.347 143.998 203.451 144.012 203.571C144.292 207.004 144.932 211.637 145.932 217.471C146.785 222.431 145.732 226.854 142.772 230.741C141.218 232.781 140.268 234.291 139.922 235.271C138.688 238.791 138.582 242.357 139.602 245.971C140.675 249.777 141.212 251.687 141.212 251.701C141.398 253.967 140.898 256.157 139.712 258.271C138.765 259.964 137.818 261.657 136.872 263.351C134.278 267.997 133.632 272.941 134.932 278.181Z" fill="#D05735"/>
<path d="M84.3118 236.531C82.9452 236.577 82.0618 235.944 81.6618 234.631C81.1285 232.884 80.8885 230.997 80.9418 228.971C81.1885 219.131 84.7685 210.964 91.6818 204.471C92.9952 203.237 94.1652 203.024 95.1918 203.831C95.8518 204.344 96.2285 205.224 96.3218 206.471C96.5218 209.364 96.3818 212.227 95.9018 215.061C95.4085 217.934 94.7685 220.711 93.9818 223.391C92.8218 227.377 90.9618 231.057 88.4018 234.431C87.3818 235.777 86.0185 236.477 84.3118 236.531Z" fill="#FB9C65"/>
<path d="M200.182 207.261C201.648 209.954 203.232 212.274 204.932 214.221C206.932 216.507 209.255 217.584 211.901 217.451C214.008 217.344 216.118 216.364 218.231 214.511C221.231 211.891 223.461 208.571 224.921 204.551C225.748 203.677 226.235 203.721 226.382 204.681C226.435 204.987 226.401 205.344 226.281 205.751C225.241 209.391 223.548 212.611 221.202 215.411C218.588 218.531 215.692 220.527 212.512 221.401C208.578 222.467 204.605 221.777 200.591 219.331C195.545 216.257 191.461 211.997 188.341 206.551C187.981 205.917 188.165 205.611 188.892 205.631C193.005 205.757 196.768 206.301 200.182 207.261Z" fill="#DB534B"/>
<path d="M224.922 204.551C223.462 208.571 221.232 211.891 218.232 214.511C216.118 216.364 214.008 217.344 211.902 217.451C209.255 217.584 206.932 216.507 204.932 214.221C203.232 212.274 201.648 209.954 200.182 207.261C208.568 207.501 216.815 206.597 224.922 204.551Z" fill="#FDFDFD"/>
<path d="M257.472 208.471C258.892 210.917 260.905 212.717 263.512 213.871C266.265 215.077 268.968 216.377 271.622 217.771C274.462 219.264 276.148 221.247 276.682 223.721C277.002 225.207 276.998 227.211 276.672 229.731C276.665 229.771 276.412 231.044 275.912 233.551C274.625 240.051 276.568 245.171 281.742 248.911C284.402 250.831 286.385 253.007 287.692 255.441C288.785 257.481 289.332 260.257 289.332 263.771C289.338 268.877 288.705 273.931 287.432 278.931C286.805 279.097 285.958 278.997 284.892 278.631C286.152 273.244 286.952 267.807 287.292 262.321C287.438 259.887 287.128 257.884 286.362 256.311C285.428 254.391 284.098 252.751 282.372 251.391C280.625 250.004 279.742 249.304 279.722 249.291C275.175 244.937 273.658 239.404 275.172 232.691C275.498 231.231 275.762 229.757 275.962 228.271C276.568 223.691 274.832 220.377 270.752 218.331C268.132 217.011 265.462 215.787 262.742 214.661C260.422 213.694 258.498 212.214 256.972 210.221C256.472 209.514 256.638 208.931 257.472 208.471Z" fill="#F9D6D5"/>
<path d="M256.972 210.221C258.498 212.214 260.422 213.694 262.742 214.661C265.462 215.787 268.132 217.011 270.752 218.331C274.832 220.377 276.568 223.691 275.962 228.271C275.762 229.757 275.498 231.231 275.172 232.691C273.658 239.404 275.175 244.937 279.722 249.291C279.742 249.304 280.625 250.004 282.372 251.391C284.098 252.751 285.428 254.391 286.362 256.311C287.128 257.884 287.438 259.887 287.292 262.321C286.952 267.807 286.152 273.244 284.892 278.631C278.838 276.937 272.422 275.884 265.642 275.471L252.682 273.261C254.268 268.561 254.288 264.111 252.742 259.911C252.055 258.037 251.628 256.284 251.462 254.651C251.382 253.891 251.518 252.117 251.872 249.331C252.318 245.797 252.185 242.257 251.472 238.711C250.992 236.297 251.152 233.931 251.952 231.611C252.958 228.717 254.102 225.881 255.382 223.101C257.275 218.987 257.805 214.694 256.972 210.221Z" fill="#CA5632"/>
<path d="M140.682 211.931L141.182 212.261C139.555 214.647 137.305 217.217 134.432 219.971C129.925 224.291 128.362 229.271 129.742 234.911C131.095 240.444 131.908 244.214 132.182 246.221C132.448 248.201 132.115 250.321 131.182 252.581C129.655 256.247 128.162 259.737 126.702 263.051C126.162 264.277 126.045 265.547 126.352 266.861C127.365 271.234 127.475 275.507 126.682 279.681C125.562 280.581 124.318 281.091 122.952 281.211C124.218 277.144 124.475 273.227 123.722 269.461C122.835 265.027 123.492 260.937 125.692 257.191C127.125 254.744 127.845 253.514 127.852 253.501C129.878 249.074 130.288 244.504 129.082 239.791C128.175 236.244 127.718 234.461 127.712 234.441C126.898 228.241 129.035 223.064 134.122 218.911C136.435 217.017 138.622 214.691 140.682 211.931Z" fill="#FAF9F9"/>
<path d="M176.182 230.261C182.475 235.041 188.412 238.257 193.992 239.911C206.819 243.704 218.405 240.971 228.752 231.711C229.312 232.717 229.419 233.441 229.072 233.881C225.959 238.947 222.725 242.957 219.372 245.911C213.159 251.371 206.418 253.171 199.152 251.311C195.398 250.344 191.282 247.997 186.802 244.271C183.109 241.197 179.669 237.854 176.482 234.241C176.022 233.094 175.922 231.767 176.182 230.261Z" fill="#F4867C"/>
<path d="M229.072 233.881C229.032 246.767 229.485 256.297 230.432 262.471C231.198 267.471 234.212 270.637 239.472 271.971L238.162 308.441C236.988 310.794 235.265 312.907 232.992 314.781C224.712 321.614 215.522 325.651 205.422 326.891C198.228 327.771 191.668 327.094 185.742 324.861C179.202 322.387 173.612 318.257 168.972 312.471C169.018 311.544 168.602 311.127 167.722 311.221L167.142 272.471C173.282 270.644 176.378 266.394 176.432 259.721C176.525 247.374 176.542 238.881 176.482 234.241C179.668 237.854 183.108 241.197 186.802 244.271C191.282 247.997 195.398 250.344 199.152 251.311C206.418 253.171 213.158 251.371 219.372 245.911C222.725 242.957 225.958 238.947 229.072 233.881ZM200.933 276.744C200.934 276.497 200.837 276.26 200.663 276.085C200.489 275.91 200.253 275.812 200.007 275.811L199.947 275.811C199.825 275.81 199.704 275.834 199.591 275.88C199.478 275.926 199.375 275.995 199.288 276.081C199.201 276.167 199.133 276.269 199.085 276.382C199.038 276.494 199.014 276.615 199.013 276.737L198.95 294.977C198.949 295.224 199.046 295.461 199.22 295.636C199.394 295.811 199.63 295.91 199.876 295.91L199.936 295.911C200.059 295.911 200.18 295.887 200.293 295.841C200.406 295.795 200.508 295.727 200.595 295.641C200.682 295.554 200.751 295.452 200.798 295.34C200.845 295.227 200.869 295.106 200.87 294.984L200.933 276.744Z" fill="#FDB9A8"/>
<path d="M239.472 271.971L249.202 272.961L252.682 273.261L265.642 275.471L272.142 323.371C261.982 329.804 250.868 334.731 238.802 338.151C238.701 338.18 238.594 338.185 238.491 338.166C238.388 338.147 238.29 338.103 238.206 338.039C238.122 337.975 238.053 337.892 238.005 337.797C237.958 337.702 237.933 337.597 237.932 337.491L238.162 308.441L239.472 271.971Z" fill="#3D2338"/>
<path d="M167.142 272.471L167.721 311.221V320.471L167.682 338.391C167.681 338.531 167.648 338.67 167.586 338.797C167.525 338.923 167.435 339.034 167.325 339.122C167.214 339.209 167.086 339.27 166.949 339.301C166.811 339.332 166.669 339.332 166.531 339.301C150.825 335.607 136.508 329.227 123.582 320.161C125.742 306.781 127.108 293.481 127.682 280.261L134.932 278.181C135.958 278.341 136.958 278.257 137.932 277.931L153.682 274.681C155.148 274.754 156.411 274.351 157.471 273.471L167.142 272.471Z" fill="#3D2338"/>
<path d="M284.892 278.631C285.958 278.997 286.805 279.097 287.432 278.931C294.312 282.337 301.022 286.291 307.562 290.791C297.828 303.977 286.022 314.837 272.142 323.371L265.642 275.471C272.422 275.884 278.838 276.937 284.892 278.631Z" fill="#FCB7A5"/>
<path d="M200.007 275.811L199.947 275.811C199.433 275.809 199.015 276.224 199.013 276.737L198.95 294.977C198.948 295.491 199.363 295.909 199.876 295.91L199.936 295.911C200.45 295.912 200.868 295.498 200.87 294.984L200.933 276.744C200.935 276.23 200.52 275.813 200.007 275.811Z" fill="#F98D7D"/>
<path d="M126.682 279.681L127.682 280.261C127.108 293.481 125.742 306.781 123.582 320.161C113.422 313.527 104.442 305.631 96.6416 296.471L97.4316 294.431C98.7316 294.291 99.6616 293.637 100.222 292.471C102.055 291.984 103.555 290.984 104.722 289.471L122.952 281.211C124.318 281.091 125.562 280.581 126.682 279.681Z" fill="#FBBBA8"/>
<path d="M167.722 311.221C168.602 311.127 169.018 311.544 168.972 312.471L168.272 312.851C168.183 312.897 168.105 313.004 168.048 313.159C167.991 313.314 167.957 313.51 167.952 313.721L167.722 320.471V311.221Z" fill="#FAF3F0"/>
</svg>
