<svg width="400" height="400" viewBox="0 0 400 400" fill="none" xmlns="http://www.w3.org/2000/svg">
<rect width="400" height="400" rx="32" fill="#737198"/>
<path d="M98.7715 296.931C110.418 309.117 123.451 318.817 137.871 326.031C156.385 335.291 176.071 340.207 196.931 340.781C203.538 340.961 210.188 340.637 216.881 339.811C250.908 335.611 279.638 320.641 303.071 294.901" stroke="#F2ADAA" stroke-width="2"/>
<path d="M303.071 294.901C303.738 294.254 304.388 293.561 305.021 292.821C318.988 276.487 328.585 258.041 333.811 237.481C335.371 231.334 336.548 224.784 337.341 217.831C341.801 178.884 332.468 143.974 309.341 113.101C305.308 107.721 300.915 102.721 296.161 98.1007C268.715 71.434 235.551 58.4074 196.671 59.0207C189.865 59.1274 183.231 59.7107 176.771 60.7707C156.198 64.1307 137.688 71.4674 121.241 82.7807C90.5081 103.934 71.3381 132.824 63.7315 169.451C62.3781 175.951 61.4748 182.547 61.0215 189.241C60.1215 202.534 60.8415 215.444 63.1815 227.971C68.0881 254.251 79.9515 277.237 98.7715 296.931" stroke="#E2D8DF" stroke-width="2"/>
<path d="M303.072 294.901L286.472 285.221" stroke="#D6868A" stroke-width="2"/>
<path d="M286.472 285.221C285.098 284.027 283.502 283.541 281.682 283.761" stroke="#CA797F" stroke-width="2"/>
<path d="M281.682 283.761C279.902 284.027 278.582 283.431 277.722 281.971" stroke="#D6868A" stroke-width="2"/>
<path d="M277.722 281.971C276.235 279.977 274.222 279.074 271.682 279.261" stroke="#CA797F" stroke-width="2"/>
<path d="M271.682 279.261C268.935 278.514 266.682 277.304 264.922 275.631" stroke="#D6868A" stroke-width="2"/>
<path d="M264.922 275.631C266.502 270.997 269.362 267.407 273.502 264.861" stroke="#C2AEBD" stroke-width="2"/>
<path d="M273.502 264.861C274.109 265.421 274.899 265.437 275.872 264.911C277.459 264.044 278.855 262.737 280.062 260.991C280.195 260.804 281.159 259.174 282.952 256.101C286.645 249.787 289.639 243.411 291.932 236.971C294.979 228.411 296.445 219.494 296.332 210.221C296.285 206.527 296.142 203.861 295.902 202.221C295.489 199.461 294.645 196.897 293.372 194.531C292.999 193.844 292.352 193.561 291.432 193.681" stroke="#9D91AC" stroke-width="2"/>
<path d="M291.432 193.681C287.258 186.647 282.122 180.461 276.022 175.121C272.282 171.854 270.135 169.997 269.582 169.551C267.388 167.784 264.968 166.264 262.322 164.991" stroke="#C2AEBD" stroke-width="2"/>
<path d="M262.322 164.991C262.535 157.724 259.162 153.444 252.202 152.151" stroke="#E1B0AF" stroke-width="2"/>
<path d="M252.202 152.151L254.151 115.111C254.167 114.814 254.258 114.527 254.415 114.277C254.573 114.026 254.792 113.821 255.051 113.681C260.871 110.521 263.261 106.081 262.221 100.361C261.755 97.834 260.855 95.944 259.522 94.6907C257.588 92.8907 255.128 92.8607 252.142 94.6007C249.855 95.934 248.305 95.6207 247.492 93.6607C246.725 91.8074 246.382 89.0774 246.462 85.4707C246.502 83.444 245.805 81.8807 244.372 80.7807C233.938 72.7807 221.958 68.4274 208.432 67.7207C202.725 67.4207 198.155 69.0174 194.721 72.5107C194.695 72.5374 194.321 72.994 193.601 73.8807C192.155 75.6807 190.495 75.6474 188.622 73.7807C186.782 71.954 184.731 70.8974 182.471 70.6107C180.511 70.364 178.388 70.8074 176.101 71.9407C171.881 74.034 168.905 77.4674 167.171 82.2407C166.705 83.5274 165.825 83.9474 164.531 83.5007C158.998 81.5874 154.255 82.5174 150.301 86.2907C148.855 87.6707 147.875 89.144 147.361 90.7107C146.795 92.444 146.682 94.274 147.022 96.2007C147.428 98.4874 146.501 100.014 144.241 100.781C143.061 101.181 141.922 101.931 140.822 103.031C139.722 104.117 139.138 105.274 139.072 106.501C138.952 108.754 140.175 110.701 142.741 112.341C143.795 113.014 144.335 114.007 144.361 115.321L145.192 152.341" stroke="#786273" stroke-width="2"/>
<path d="M145.191 152.341C140.145 151.401 136.531 152.627 134.351 156.021C133.118 157.941 132.485 160.564 132.451 163.891C132.425 166.837 132.815 169.577 133.621 172.111" stroke="#E1B7B7" stroke-width="2"/>
<path d="M133.622 172.111C122.595 178.944 114.115 188.161 108.182 199.761" stroke="#C2AEBD" stroke-width="2"/>
<path d="M108.181 199.761C105.761 199.647 104.261 200.717 103.681 202.971C99.8348 217.957 101.291 232.487 108.051 246.561C110.598 251.867 113.468 256.984 116.661 261.911C118.021 264.004 119.758 265.707 121.871 267.021C122.425 267.361 123.365 267.261 124.691 266.721" stroke="#9D91AC" stroke-width="2"/>
<path d="M124.692 266.721C125.599 266.887 126.212 268.017 126.532 270.111C126.745 271.497 127.042 272.867 127.422 274.221C127.729 275.294 128.339 275.884 129.252 275.991C129.405 276.004 130.112 275.804 131.372 275.391C132.312 275.084 133.002 275.434 133.442 276.441C133.463 276.49 133.495 276.533 133.536 276.566C133.578 276.6 133.626 276.623 133.678 276.634C133.73 276.645 133.784 276.643 133.835 276.628C133.886 276.614 133.933 276.587 133.972 276.551C134.972 275.624 135.709 275.834 136.182 277.181" stroke="#C2AEBD" stroke-width="2"/>
<path d="M136.181 277.181C134.108 278.194 132.045 279.237 129.991 280.311C129.545 280.544 128.405 280.907 126.571 281.401C124.931 281.847 123.441 282.897 122.101 284.551C121.115 285.757 119.845 286.267 118.291 286.081C117.745 286.014 116.915 286.284 115.801 286.891C110.168 289.937 104.491 293.284 98.7715 296.931" stroke="#D6868A" stroke-width="2"/>
<path d="M252.202 152.151C249.595 153.077 248.235 154.907 248.122 157.641C248.035 159.687 247.988 160.741 247.982 160.801C247.235 166.041 245.815 171.097 243.722 175.971" stroke="#936163" stroke-width="2"/>
<path d="M243.722 175.971C242.522 175.131 241.515 174.787 240.702 174.941" stroke="#211221" stroke-width="2"/>
<path d="M240.702 174.941C243.582 166.887 244.672 158.867 243.972 150.881C243.872 149.761 243.278 149.041 242.192 148.721C233.378 146.161 224.375 144.901 215.182 144.941C214.242 144.941 213.505 145.284 212.972 145.971" stroke="#936264" stroke-width="2"/>
<path d="M212.972 145.971C212.952 145.584 212.772 145.321 212.432 145.181" stroke="#211221" stroke-width="2"/>
<path d="M212.432 145.181L212.572 144.951C212.588 144.924 212.598 144.894 212.6 144.862C212.602 144.83 212.597 144.797 212.585 144.766C212.572 144.735 212.553 144.706 212.528 144.681C212.504 144.656 212.474 144.635 212.442 144.621C211.008 143.974 210.268 142.954 210.222 141.561C210.188 140.354 210.392 139.311 210.832 138.431C211.392 137.304 212.515 136.824 214.202 136.991C216.188 137.184 218.182 137.357 220.182 137.511" stroke="#92686B" stroke-width="2"/>
<path d="M220.182 137.511C226.168 138.291 232.085 139.431 237.932 140.931" stroke="#8F5659" stroke-width="2"/>
<path d="M237.932 140.931L246.892 144.001C246.945 144.018 247.002 144.022 247.058 144.013C247.114 144.005 247.167 143.983 247.213 143.95C247.258 143.917 247.296 143.873 247.322 143.823C247.347 143.773 247.361 143.717 247.362 143.661L247.242 116.911C247.242 116.774 247.191 116.643 247.098 116.542C247.005 116.442 246.878 116.381 246.742 116.371C215.508 113.764 184.352 111.721 153.272 110.241C152.997 110.227 152.729 110.321 152.524 110.503C152.32 110.685 152.197 110.939 152.182 111.211L150.162 143.371" stroke="#92686B" stroke-width="2"/>
<path d="M150.162 143.371C150.602 144.337 151.545 144.427 152.992 143.641C153.082 143.593 153.183 143.57 153.286 143.573C153.389 143.577 153.491 143.607 153.582 143.661C153.674 143.715 153.752 143.792 153.812 143.884C153.871 143.976 153.908 144.081 153.922 144.191L154.472 148.721" stroke="#211221" stroke-width="2"/>
<path d="M154.472 148.721C153.052 149.727 152.288 150.811 152.182 151.971C151.768 156.517 152.282 161.767 153.722 167.721" stroke="#915F61" stroke-width="2"/>
<path d="M153.722 167.721C154.035 170.987 155.522 173.474 158.182 175.181" stroke="#92676E" stroke-width="2"/>
<path d="M158.182 175.181C157.482 175.307 157.238 175.671 157.452 176.271C157.49 176.365 157.568 176.478 157.682 176.6C157.796 176.722 157.942 176.852 158.112 176.981C158.832 177.521 158.938 178.267 158.432 179.221" stroke="#211221" stroke-width="2"/>
<path d="M158.432 179.221C156.912 179.021 155.592 178.491 154.472 177.631C153.579 176.944 152.845 175.804 152.272 174.211C149.952 167.711 148.322 160.934 147.382 153.881C147.366 153.747 147.318 153.619 147.242 153.508C147.165 153.397 147.064 153.305 146.945 153.24C146.825 153.176 146.692 153.141 146.556 153.137C146.42 153.134 146.285 153.162 146.162 153.221C145.489 153.534 145.165 153.241 145.192 152.341" stroke="#92686B" stroke-width="2"/>
<path d="M262.322 164.991C262.195 172.104 258.982 176.931 252.682 179.471C251.755 179.844 251.268 180.407 251.222 181.161C251.208 181.294 251.312 181.594 251.532 182.061C251.718 182.461 251.532 182.764 250.972 182.971" stroke="#DDADAD" stroke-width="2"/>
<path d="M250.972 182.971L248.972 180.571C248.438 179.931 248.092 180.057 247.932 180.951C246.852 187.071 245.032 192.951 242.472 198.591C240.785 202.291 238.402 205.494 235.322 208.201C233.642 209.674 232.635 209.304 232.302 207.091C232.102 205.771 232.098 204.151 232.292 202.231C232.792 197.151 230.985 193.251 226.872 190.531C223.118 188.051 218.722 187.114 213.682 187.721C211.748 187.954 209.225 189.484 206.112 192.311" stroke="#916061" stroke-width="2"/>
<path d="M206.112 192.311C205.712 186.731 205.489 181.154 205.442 175.581C205.435 174.667 205.239 173.291 204.852 171.451C204.559 170.044 204.485 168.627 204.632 167.201" stroke="#C77568" stroke-width="2"/>
<path d="M291.432 193.681C289.638 194.194 288.285 195.437 287.372 197.411C286.265 199.791 285.578 201.787 285.312 203.401C284.745 206.854 284.202 210.314 283.682 213.781C283.095 217.741 282.392 221.161 281.572 224.041C280.165 229.021 278.538 233.927 276.692 238.761C275.125 242.854 274.125 245.747 273.692 247.441C272.985 250.201 272.398 253.211 271.932 256.471C271.538 259.224 272.062 262.021 273.502 264.861" stroke="#988EAA" stroke-width="2"/>
<path d="M264.922 275.631L251.532 271.171" stroke="#D18388" stroke-width="2"/>
<path d="M251.532 271.171C248.605 270.857 246.098 270.097 244.012 268.891C241.898 267.671 240.622 266.031 240.182 263.971C239.248 259.631 238.498 256.604 237.932 254.891" stroke="#DDB5B5" stroke-width="2"/>
<path d="M237.932 254.891C255.558 241.571 262.308 223.764 258.182 201.471C257.288 196.657 254.885 190.491 250.972 182.971" stroke="#715E70" stroke-width="2"/>
<path d="M143.402 190.721C141.782 197.954 140.875 202.287 140.682 203.721C137.942 223.967 144.439 240.607 160.172 253.641" stroke="#715E70" stroke-width="2"/>
<path d="M160.172 253.641C159.405 256.874 158.632 260.077 157.852 263.251C156.712 267.857 153.642 270.717 148.642 271.831" stroke="#DDB5B5" stroke-width="2"/>
<path d="M148.642 271.831L136.182 277.181" stroke="#D18388" stroke-width="2"/>
<path d="M124.692 266.721C126.725 258.501 125.658 250.231 121.492 241.911C117.092 233.104 114.305 223.004 113.132 211.611C112.965 209.997 112.712 208.594 112.372 207.401C111.972 206.027 111.535 204.661 111.062 203.301C110.522 201.767 109.562 200.587 108.182 199.761" stroke="#988EAA" stroke-width="2"/>
<path d="M271.682 279.261C271.642 280.341 271.318 281.334 270.712 282.241C270.065 283.221 270.255 284.314 271.282 285.521C271.387 285.645 271.521 285.742 271.673 285.802C271.825 285.861 271.989 285.882 272.151 285.862C272.313 285.843 272.467 285.783 272.6 285.688C272.733 285.593 272.84 285.467 272.912 285.321C273.892 283.341 275.495 282.224 277.722 281.971" stroke="#DA4E4A" stroke-width="2"/>
<path d="M281.682 283.761C280.755 285.181 280.255 286.751 280.182 288.471C280.075 290.944 280.805 291.507 282.372 290.161C284.005 288.747 285.372 287.101 286.472 285.221" stroke="#DA4E4A" stroke-width="2"/>
<path d="M158.432 179.221C158.465 179.554 158.402 179.837 158.242 180.071C158.147 180.199 158.011 180.292 157.857 180.333C157.702 180.375 157.539 180.364 157.392 180.301L152.202 178.091C152.068 178.033 151.921 178.005 151.776 178.011C151.631 178.016 151.491 178.055 151.37 178.123C151.25 178.191 151.152 178.286 151.085 178.399C151.019 178.512 150.987 178.64 150.992 178.771C151.105 182.544 151.778 186.201 153.012 189.741C153.062 189.885 153.152 190.011 153.272 190.102C153.392 190.193 153.534 190.245 153.682 190.251L164.372 190.651C164.679 190.663 164.992 190.545 165.242 190.321C168.782 187.207 172.908 185.494 177.622 185.181C177.783 185.169 177.934 185.108 178.042 185.011C178.15 184.914 178.208 184.788 178.202 184.661L178.062 181.451C178.055 181.329 177.988 181.214 177.873 181.129C177.758 181.043 177.604 180.994 177.442 180.991C176.262 180.951 175.592 180.374 175.432 179.261" stroke="#FCB1A1" stroke-width="2"/>
<path d="M203.502 164.191C202.928 174.191 203.025 184.191 203.792 194.191" stroke="#C67D70" stroke-width="2"/>
<path d="M203.792 194.191C201.272 196.877 198.062 197.831 194.162 197.051C189.702 196.164 186.789 193.627 185.422 189.441C184.995 188.141 184.105 187.414 182.752 187.261C179.332 186.861 176.105 187.197 173.072 188.271C170.279 189.264 168.199 190.911 166.832 193.211C165.772 195.011 165.225 197.447 165.192 200.521C165.152 204.021 165.632 207.447 166.632 210.801C166.959 211.894 166.665 212.101 165.752 211.421C159.265 206.561 154.825 200.244 152.432 192.471C151.312 188.837 150.312 185.167 149.432 181.461C149.125 180.174 148.685 180.107 148.112 181.261L143.402 190.721" stroke="#906769" stroke-width="2"/>
<path d="M143.402 190.721C143.348 188.261 143.965 185.944 145.252 183.771C145.958 182.577 145.632 181.851 144.272 181.591C139.518 180.691 135.968 177.531 133.622 172.111" stroke="#DCB4B5" stroke-width="2"/>
<path d="M212.432 145.181C210.058 145.967 207.942 147.161 206.082 148.761C204.962 149.734 204.038 150.297 203.312 150.451C202.398 150.644 201.272 150.734 199.932 150.721C195.932 150.674 192.932 150.341 190.932 149.721C189.765 149.361 187.332 147.734 183.632 144.841C183.392 144.654 183.432 144.567 183.752 144.581C186.038 144.721 187.098 143.434 186.932 140.721C186.785 138.321 185.702 137.141 183.682 137.181" stroke="#8A6764" stroke-width="2"/>
<path d="M220.182 137.511C220.369 136.311 219.952 135.714 218.932 135.721C213.632 135.754 210.065 135.704 208.232 135.571C200.452 135.004 192.685 135.134 184.932 135.961C184.085 136.054 183.669 136.461 183.682 137.181" stroke="#F8AB9D" stroke-width="2"/>
<path d="M183.682 137.181L180.002 137.151" stroke="#875553" stroke-width="2"/>
<path d="M188.142 162.721C187.662 162.947 187.272 163.281 186.972 163.721" stroke="#F9B3A7" stroke-width="2"/>
<path d="M186.972 163.721C187.552 161.374 187.485 159.054 186.772 156.761C186.725 156.61 186.645 156.472 186.538 156.357C186.431 156.241 186.299 156.15 186.152 156.091C185.098 155.671 184.018 155.357 182.912 155.151C181.545 154.897 180.318 154.561 179.232 154.141C171.992 151.307 165.828 153.104 160.742 159.531C158.722 162.084 157.345 164.391 156.612 166.451" stroke="#EC8B79" stroke-width="2"/>
<path d="M156.612 166.451C156.212 166.617 155.902 166.944 155.682 167.431" stroke="#D37568" stroke-width="2"/>
<path d="M155.682 167.431C154.915 167.244 154.262 167.341 153.722 167.721" stroke="#F9B3A7" stroke-width="2"/>
<path d="M212.972 145.971C209.878 148.671 208.115 152.421 207.682 157.221C207.315 161.294 207.685 165.294 208.792 169.221C209.672 172.334 211.615 174.187 214.622 174.781C223.068 176.447 231.762 176.501 240.702 174.941" stroke="#8B615E" stroke-width="2"/>
<path d="M243.722 175.971C242.422 178.164 240.575 179.331 238.182 179.471C230.288 179.924 221.965 179.447 213.212 178.041C210.639 177.621 208.815 176.661 207.742 175.161C206.722 173.727 205.685 171.074 204.632 167.201" stroke="#8A605C" stroke-width="2"/>
<path d="M204.632 167.201C204.852 166.194 204.475 165.191 203.502 164.191" stroke="#552726" stroke-width="2"/>
<path d="M203.502 164.191L203.042 156.911C203.03 156.738 202.956 156.576 202.833 156.453C202.71 156.33 202.546 156.255 202.372 156.241L194.462 155.691C193.215 155.604 192.548 156.211 192.462 157.511C192.022 163.997 190.862 169.797 188.982 174.911C188.355 176.631 187.252 177.601 185.672 177.821L175.432 179.261" stroke="#8A6764" stroke-width="2"/>
<path d="M175.432 179.261C169.758 179.874 164.092 179.861 158.432 179.221" stroke="#8B5B57" stroke-width="2"/>
<path d="M158.182 175.181C163.615 176.054 170.365 176.067 178.432 175.221C181.472 174.901 183.765 174.337 185.312 173.531C185.59 173.382 185.816 173.136 185.952 172.831C187.398 169.637 188.128 166.267 188.142 162.721" stroke="#896667" stroke-width="2"/>
<path d="M188.142 162.721C188.735 158.307 188.498 154.807 187.432 152.221C186.552 150.087 184.625 147.917 181.652 145.711C181.391 145.515 181.078 145.4 180.752 145.381C171.778 144.827 163.018 145.941 154.472 148.721" stroke="#885E5A" stroke-width="2"/>
<path d="M155.682 167.431C156.075 168.057 156.565 168.144 157.152 167.691C159.932 165.557 162.362 163.074 164.442 160.241C164.808 159.734 165.292 159.477 165.892 159.471" stroke="#D47E75" stroke-width="2"/>
<path d="M237.932 140.931C237.752 140.631 237.655 140.311 237.642 139.971C237.636 139.816 237.593 139.67 237.516 139.549C237.44 139.428 237.334 139.338 237.212 139.291C224.405 134.364 210.978 132.341 196.932 133.221C189.058 133.714 181.898 134.474 175.452 135.501C175.312 135.521 175.182 135.564 175.062 135.631C174.115 136.144 174.308 136.267 175.642 136.001C177.395 135.641 178.848 136.024 180.002 137.151" stroke="#F8AB9D" stroke-width="2"/>
<path d="M180.002 137.151C169.868 137.924 159.922 139.997 150.162 143.371" stroke="#8A6764" stroke-width="2"/>
<path d="M237.932 254.891L235.182 257.011" stroke="#91686A" stroke-width="2"/>
<path d="M235.182 257.011C222.155 265.717 207.905 269.121 192.432 267.221C181.298 265.854 171.062 261.771 161.722 254.971" stroke="#8B4B50" stroke-width="2"/>
<path d="M161.722 254.971L160.172 253.641" stroke="#91686A" stroke-width="2"/>
<path d="M206.112 192.311C205.852 193.037 205.078 193.664 203.792 194.191" stroke="#5B272B" stroke-width="2"/>
<path d="M161.722 254.971L161.502 255.981C161.471 256.123 161.481 256.275 161.532 256.42C161.583 256.566 161.673 256.7 161.792 256.811C163.625 258.551 166.318 260.957 169.872 264.031C179.558 272.431 190.392 276.104 202.372 275.051C208.105 274.544 213.805 272.904 219.472 270.131C224.892 267.484 229.855 264.071 234.362 259.891C234.428 259.831 234.702 259.621 235.182 259.261C235.988 258.674 235.988 257.924 235.182 257.011" stroke="#F7A295" stroke-width="2"/>
<path d="M251.532 271.171C249.092 284.071 243.248 294.944 234.002 303.791C228.655 308.911 222.625 312.624 215.912 314.931C209.678 317.071 203.102 317.784 196.182 317.071C183.748 315.797 173.018 310.327 163.992 300.661C156.218 292.334 151.102 282.724 148.642 271.831" stroke="#F18D82" stroke-width="2"/>
<path d="M186.972 163.721C186.578 164.781 185.835 165.094 184.742 164.661C182.935 163.947 181.642 162.804 180.862 161.231C179.762 159.011 178.022 157.591 175.642 156.971" stroke="#ED9386" stroke-width="2"/>
<path d="M175.642 156.971C171.962 155.644 168.642 156.241 165.682 158.761" stroke="#A34F41" stroke-width="2"/>
<path d="M165.682 158.761C164.575 158.881 163.705 159.417 163.072 160.371C161.405 162.871 159.252 164.897 156.612 166.451" stroke="#C75646" stroke-width="2"/>
<path d="M175.642 156.971C176.462 159.344 176.228 161.284 174.942 162.791C173.775 164.157 172.215 164.801 170.262 164.721C167.575 164.614 166.118 162.864 165.892 159.471" stroke="#B1776F" stroke-width="2"/>
<path d="M165.892 159.471C165.952 159.197 165.882 158.961 165.682 158.761" stroke="#8B3A30" stroke-width="2"/>
<path d="M288.593 151.461C289.3 151.593 290.043 151.487 290.782 151.148C291.52 150.808 292.24 150.243 292.899 149.484C293.557 148.725 294.143 147.787 294.621 146.724C295.1 145.66 295.463 144.493 295.688 143.287C295.914 142.081 295.998 140.861 295.936 139.697C295.875 138.533 295.668 137.446 295.328 136.5C294.989 135.555 294.522 134.767 293.956 134.184C293.39 133.601 292.736 133.232 292.03 133.1C291.324 132.968 290.58 133.075 289.841 133.414C289.103 133.753 288.383 134.318 287.725 135.078C287.066 135.837 286.48 136.775 286.002 137.838C285.523 138.901 285.16 140.069 284.935 141.274C284.709 142.48 284.625 143.7 284.687 144.864C284.748 146.029 284.955 147.115 285.295 148.061C285.635 149.007 286.101 149.794 286.667 150.377C287.233 150.961 287.887 151.329 288.593 151.461Z" stroke="#B5A6BA" stroke-width="2"/>
<path d="M310.945 248.758C310.827 247.693 310.244 246.723 309.324 246.063C308.404 245.402 307.222 245.104 306.039 245.235C305.453 245.3 304.884 245.468 304.364 245.729C303.845 245.991 303.386 246.341 303.013 246.76C302.639 247.178 302.36 247.657 302.189 248.169C302.019 248.681 301.961 249.216 302.019 249.743C302.137 250.808 302.72 251.778 303.64 252.439C304.56 253.099 305.742 253.397 306.925 253.266C307.511 253.202 308.08 253.034 308.599 252.772C309.119 252.51 309.578 252.16 309.951 251.742C310.324 251.323 310.604 250.844 310.775 250.332C310.945 249.82 311.003 249.285 310.945 248.758Z" stroke="#A99CB3" stroke-width="2"/>
<path d="M224.662 87.8007C222.588 91.6674 220.588 95.5674 218.662 99.5007C218.375 100.081 218.445 100.444 218.872 100.591C218.999 100.634 219.144 100.623 219.282 100.56C219.42 100.496 219.543 100.384 219.632 100.241C222.992 94.994 225.008 91.0707 225.682 88.4707C226.128 86.7507 225.958 86.284 225.172 87.0707C224.992 87.2574 224.822 87.5007 224.662 87.8007Z" stroke="#210F22" stroke-width="2"/>
<path d="M212.977 98.4033C213.076 98.4606 213.255 98.3784 213.502 98.1613C213.75 97.9443 214.063 97.5966 214.422 97.1382C214.781 96.6799 215.18 96.1197 215.595 95.4898C216.011 94.8599 216.436 94.1725 216.844 93.467C217.67 92.0421 218.383 90.6296 218.826 89.5402C219.269 88.4508 219.406 87.7738 219.206 87.6581C219.107 87.6008 218.929 87.683 218.681 87.9C218.433 88.1171 218.121 88.4647 217.762 88.9231C217.403 89.3815 217.004 89.9416 216.588 90.5716C216.173 91.2015 215.748 91.8888 215.339 92.5944C214.513 94.0193 213.8 95.4318 213.357 96.5212C212.914 97.6105 212.778 98.2876 212.977 98.4033Z" stroke="#210F22" stroke-width="2"/>
<path d="M225.053 100.999C225.157 101.051 225.331 100.958 225.567 100.725C225.804 100.492 226.096 100.123 226.429 99.641C226.762 99.1586 227.129 98.5716 227.508 97.9133C227.887 97.2551 228.271 96.5386 228.639 95.8047C229.006 95.0708 229.35 94.3338 229.65 93.636C229.95 92.9382 230.2 92.2931 230.387 91.7375C230.574 91.182 230.693 90.7269 230.738 90.3983C230.784 90.0696 230.754 89.8739 230.65 89.8222C230.547 89.7704 230.372 89.8637 230.136 90.0968C229.9 90.3298 229.607 90.698 229.274 91.1804C228.941 91.6627 228.575 92.2498 228.196 92.908C227.817 93.5662 227.432 94.2828 227.065 95.0167C226.697 95.7506 226.354 96.4875 226.054 97.1853C225.754 97.8832 225.503 98.5283 225.317 99.0838C225.13 99.6393 225.01 100.094 224.965 100.423C224.92 100.752 224.95 100.947 225.053 100.999Z" stroke="#210F22" stroke-width="2"/>
<path d="M219.182 158.931C219.895 161.517 221.332 163.094 223.492 163.661C227.172 164.621 229.882 163.351 231.622 159.851C231.882 159.311 232.158 159.304 232.452 159.831C233.732 162.137 235.405 164.064 237.472 165.611C237.745 165.817 237.812 165.761 237.672 165.441C235.998 161.654 233.752 158.664 230.932 156.471C228.085 154.251 224.752 153.681 220.932 154.761" stroke="#C06B65" stroke-width="2"/>
<path d="M220.932 154.761C217.085 153.841 213.828 154.521 211.162 156.801C209.968 157.821 209.285 159.187 209.112 160.901C208.792 164.047 209.232 167.081 210.432 170.001C210.912 171.167 211.305 171.141 211.612 169.921C211.872 168.907 212.305 167.987 212.912 167.161C214.938 164.367 217.028 161.624 219.182 158.931" stroke="#FA9886" stroke-width="2"/>
<path d="M220.932 154.761C219.718 155.881 219.135 157.271 219.182 158.931" stroke="#BD524A" stroke-width="2"/>
<path d="M136.622 159.151C134.849 163.757 135.615 167.864 138.922 171.471C140.282 172.957 141.849 173.624 143.622 173.471C144.549 173.391 145.442 172.954 146.302 172.161C147.062 171.461 147.755 170.697 148.382 169.871C148.582 169.612 148.688 169.294 148.682 168.971C148.642 166.857 148.292 164.811 147.632 162.831C147.019 160.984 146.102 159.601 144.882 158.681C143.455 157.601 141.789 157.034 139.882 156.981C138.282 156.934 137.195 157.657 136.622 159.151Z" stroke="#F8A295" stroke-width="2"/>
<path d="M250.212 157.921C248.765 161.887 247.998 166.224 247.912 170.931C247.908 171.13 247.946 171.328 248.021 171.513C248.097 171.699 248.209 171.868 248.352 172.011C250.532 174.204 252.572 174.457 254.472 172.771C255.765 171.624 256.689 170.044 257.242 168.031C258.615 163.071 257.032 159.404 252.492 157.031C252.286 156.923 252.06 156.86 251.829 156.847C251.597 156.834 251.365 156.871 251.149 156.955C250.933 157.04 250.737 157.17 250.575 157.336C250.414 157.503 250.29 157.702 250.212 157.921Z" stroke="#FB9E8E" stroke-width="2"/>
<path d="M176.692 200.721C177.178 205.554 179.515 209.567 183.702 212.761C185.202 213.901 186.462 213.677 187.482 212.091C188.308 210.811 189.448 209.767 190.902 208.961C192.002 208.347 193.455 207.997 195.262 207.911C198.362 207.751 201.238 207.684 203.892 207.711C205.298 207.724 206.435 208.281 207.302 209.381C210.048 212.861 212.792 213.897 215.532 212.491C217.252 211.604 218.798 209.751 220.172 206.931C221.498 204.191 222.475 201.207 223.102 197.981C223.282 197.041 222.948 196.794 222.102 197.241C219.275 198.714 216.368 200.187 213.382 201.661C208.022 204.294 205.092 205.691 204.592 205.851C201.045 207.011 197.328 207.037 193.442 205.931C188.835 204.611 184.228 202.144 179.622 198.531C178.368 197.551 177.478 197.591 176.952 198.651C176.692 199.164 176.605 199.854 176.692 200.721Z" stroke="#88494D" stroke-width="2"/>
<path d="M256.573 205.794C256.64 205.692 256.665 205.568 256.641 205.448C256.616 205.329 256.546 205.224 256.444 205.156L251.13 201.626C251.029 201.558 250.904 201.534 250.785 201.558C250.665 201.582 250.56 201.653 250.493 201.754L250.47 201.787C250.403 201.889 250.379 202.013 250.403 202.133C250.427 202.253 250.497 202.358 250.599 202.425L255.913 205.956C256.015 206.023 256.139 206.048 256.259 206.024C256.378 205.999 256.483 205.929 256.551 205.827L256.573 205.794Z" stroke="#3B2C42" stroke-width="2"/>
<path d="M252.742 210.411C251.915 210.011 250.442 208.821 248.322 206.841C247.002 205.607 246.852 205.754 247.872 207.281C248.458 208.161 250.338 209.634 253.512 211.701C253.878 211.934 253.998 211.861 253.872 211.481C253.725 211.054 253.348 210.697 252.742 210.411Z" stroke="#3B2C42" stroke-width="2"/>
<path d="M193.281 311.721C193.4 311.801 193.537 311.851 193.68 311.865C193.822 311.88 193.966 311.859 194.099 311.805C194.231 311.75 194.348 311.664 194.44 311.553C194.531 311.443 194.593 311.311 194.621 311.171C195.001 309.204 195.178 307.221 195.151 305.221C195.091 300.221 195.205 294.831 195.491 289.051C195.537 288.088 195.243 287.139 194.661 286.371C194.115 285.637 193.485 285.627 192.771 286.341C192.553 286.553 192.424 286.869 192.411 287.221C192.045 294.867 192.075 302.514 192.501 310.161C192.541 310.874 192.801 311.394 193.281 311.721Z" stroke="#FCAB9A" stroke-width="2"/>
<path d="M256.702 294.741C251.628 301.841 247.095 308.724 243.102 315.391C242.575 316.271 242.268 317.214 242.182 318.221C242.075 319.454 242.555 319.601 243.622 318.661C245.188 317.267 246.532 315.694 247.652 313.941C249.185 311.534 249.975 310.301 250.022 310.241C253.288 305.534 256.105 300.567 258.472 295.341C259.112 293.934 258.852 293.471 257.692 293.951C257.299 294.114 256.957 294.387 256.702 294.741Z" stroke="#DA4E4A" stroke-width="2"/>
<path d="M149.372 311.781C149.818 312.314 150.142 312.257 150.342 311.611C150.415 311.377 150.402 311.121 150.302 310.841C149.682 309.074 148.828 307.431 147.742 305.911C145.522 302.817 143.232 299.774 140.872 296.781C139.952 295.607 138.798 294.751 137.412 294.211C136.712 293.937 136.562 294.121 136.962 294.761C140.689 300.714 144.825 306.387 149.372 311.781Z" stroke="#DA524D" stroke-width="2"/>
<path d="M140.268 316.066C140.435 315.939 140.07 315.127 139.255 313.808C138.44 312.489 137.241 310.772 135.921 309.033C135.268 308.172 134.604 307.332 133.969 306.561C133.334 305.789 132.739 305.102 132.218 304.537C131.698 303.973 131.262 303.543 130.935 303.271C130.609 303 130.399 302.892 130.316 302.955C130.149 303.082 130.513 303.894 131.329 305.213C132.144 306.532 133.343 308.25 134.663 309.988C135.316 310.849 135.979 311.689 136.615 312.461C137.25 313.232 137.845 313.92 138.366 314.484C138.886 315.048 139.322 315.479 139.648 315.75C139.975 316.022 140.185 316.129 140.268 316.066Z" stroke="#DA524D" stroke-width="2"/>
<path d="M267.247 304.62C267.386 304.394 267.43 304.122 267.369 303.864C267.308 303.606 267.147 303.383 266.921 303.243L266.887 303.222C266.662 303.083 266.39 303.039 266.132 303.1C265.874 303.161 265.65 303.322 265.511 303.548L257.177 317.042C257.038 317.267 256.994 317.539 257.055 317.797C257.116 318.055 257.277 318.279 257.502 318.418L257.536 318.439C257.762 318.578 258.034 318.622 258.292 318.561C258.55 318.5 258.773 318.339 258.913 318.114L267.247 304.62Z" stroke="#DA524D" stroke-width="2"/>
<path d="M230.482 329.201C232.295 329.287 232.862 328.211 232.182 325.971C231.688 324.357 230.668 324.254 229.122 325.661C228.035 326.647 227.828 327.537 228.502 328.331C228.955 328.864 229.615 329.154 230.482 329.201Z" stroke="#D55548" stroke-width="2"/>
<path d="M169.386 329.893C169.519 330.021 169.679 330.117 169.859 330.175C170.039 330.233 170.235 330.253 170.436 330.233C170.636 330.212 170.838 330.153 171.029 330.057C171.219 329.961 171.395 329.832 171.547 329.675C171.699 329.518 171.823 329.338 171.913 329.145C172.002 328.951 172.056 328.748 172.07 328.547C172.083 328.345 172.058 328.15 171.994 327.972C171.93 327.794 171.829 327.637 171.697 327.509C171.565 327.381 171.404 327.285 171.224 327.226C171.044 327.168 170.848 327.149 170.648 327.169C170.447 327.189 170.246 327.249 170.055 327.344C169.864 327.44 169.688 327.57 169.536 327.726C169.385 327.883 169.26 328.063 169.171 328.257C169.081 328.45 169.028 328.654 169.014 328.855C169 329.056 169.026 329.251 169.09 329.429C169.154 329.607 169.254 329.765 169.386 329.893Z" stroke="#CF4745" stroke-width="2"/>
<path d="M303.071 294.901L286.471 285.221C285.098 284.027 283.501 283.541 281.681 283.761C279.901 284.027 278.581 283.431 277.721 281.971C276.235 279.977 274.221 279.074 271.681 279.261C268.935 278.514 266.681 277.304 264.921 275.631C266.501 270.997 269.361 267.407 273.501 264.861C274.108 265.421 274.898 265.437 275.871 264.911C277.458 264.044 278.855 262.737 280.061 260.991C280.195 260.804 281.158 259.174 282.951 256.101C286.645 249.787 289.638 243.411 291.931 236.971C294.978 228.411 296.445 219.494 296.331 210.221C296.285 206.527 296.141 203.861 295.901 202.221C295.488 199.461 294.645 196.897 293.371 194.531C292.998 193.844 292.351 193.561 291.431 193.681C287.258 186.647 282.121 180.461 276.021 175.121C272.281 171.854 270.135 169.997 269.581 169.551C267.388 167.784 264.968 166.264 262.321 164.991C262.535 157.724 259.161 153.444 252.201 152.151L254.151 115.111C254.167 114.814 254.257 114.527 254.415 114.277C254.573 114.026 254.792 113.821 255.051 113.681C260.871 110.521 263.261 106.081 262.221 100.361C261.755 97.834 260.855 95.944 259.521 94.6907C257.588 92.8907 255.128 92.8607 252.141 94.6007C249.855 95.934 248.305 95.6207 247.491 93.6607C246.725 91.8074 246.381 89.0774 246.461 85.4707C246.501 83.444 245.805 81.8807 244.371 80.7807C233.938 72.7807 221.958 68.4274 208.431 67.7207C202.725 67.4207 198.155 69.0174 194.721 72.5107C194.695 72.5374 194.321 72.994 193.601 73.8807C192.155 75.6807 190.495 75.6473 188.621 73.7807C186.781 71.954 184.731 70.8974 182.471 70.6107C180.511 70.364 178.388 70.8074 176.101 71.9407C171.881 74.034 168.905 77.4674 167.171 82.2407C166.705 83.5273 165.825 83.9474 164.531 83.5007C158.998 81.5874 154.255 82.5174 150.301 86.2907C148.855 87.6707 147.875 89.144 147.361 90.7107C146.795 92.444 146.681 94.274 147.021 96.2007C147.428 98.4874 146.501 100.014 144.241 100.781C143.061 101.181 141.921 101.931 140.821 103.031C139.721 104.117 139.138 105.274 139.071 106.501C138.951 108.754 140.175 110.701 142.741 112.341C143.795 113.014 144.335 114.007 144.361 115.321L145.191 152.341C140.145 151.401 136.531 152.627 134.351 156.021C133.118 157.941 132.485 160.564 132.451 163.891C132.425 166.837 132.815 169.577 133.621 172.111C122.595 178.944 114.115 188.161 108.181 199.761C105.761 199.647 104.261 200.717 103.681 202.971C99.8348 217.957 101.291 232.487 108.051 246.561C110.598 251.867 113.468 256.984 116.661 261.911C118.021 264.004 119.758 265.707 121.871 267.021C122.425 267.361 123.365 267.261 124.691 266.721C125.598 266.887 126.211 268.017 126.531 270.111C126.745 271.497 127.041 272.867 127.421 274.221C127.728 275.294 128.338 275.884 129.251 275.991C129.405 276.004 130.111 275.804 131.371 275.391C132.311 275.084 133.001 275.434 133.441 276.441C133.462 276.49 133.495 276.533 133.536 276.566C133.577 276.6 133.626 276.623 133.678 276.634C133.73 276.645 133.784 276.643 133.835 276.628C133.886 276.614 133.933 276.587 133.971 276.551C134.971 275.624 135.708 275.834 136.181 277.181C134.108 278.194 132.045 279.237 129.991 280.311C129.545 280.544 128.405 280.907 126.571 281.401C124.931 281.847 123.441 282.897 122.101 284.551C121.115 285.757 119.845 286.267 118.291 286.081C117.745 286.014 116.915 286.284 115.801 286.891C110.168 289.937 104.491 293.284 98.7715 296.931C79.9515 277.237 68.0881 254.251 63.1815 227.971C60.8415 215.444 60.1215 202.534 61.0215 189.241C61.4748 182.547 62.3781 175.951 63.7315 169.451C71.3381 132.824 90.5081 103.934 121.241 82.7807C137.688 71.4674 156.198 64.1307 176.771 60.7707C183.231 59.7107 189.865 59.1274 196.671 59.0207C235.551 58.4074 268.715 71.434 296.161 98.1007C300.915 102.721 305.308 107.721 309.341 113.101C332.468 143.974 341.801 178.884 337.341 217.831C336.548 224.784 335.371 231.334 333.811 237.481C328.585 258.041 318.988 276.487 305.021 292.821C304.388 293.561 303.738 294.254 303.071 294.901ZM288.593 151.461C289.299 151.593 290.043 151.487 290.782 151.148C291.52 150.808 292.24 150.243 292.898 149.484C293.557 148.725 294.143 147.787 294.621 146.724C295.1 145.66 295.463 144.493 295.688 143.287C295.914 142.081 295.998 140.861 295.936 139.697C295.875 138.533 295.668 137.446 295.328 136.5C294.989 135.555 294.522 134.767 293.956 134.184C293.39 133.601 292.736 133.232 292.03 133.1C291.323 132.968 290.58 133.075 289.841 133.414C289.103 133.753 288.383 134.318 287.724 135.077C287.066 135.837 286.48 136.775 286.002 137.838C285.523 138.901 285.16 140.069 284.935 141.274C284.709 142.48 284.625 143.7 284.687 144.864C284.748 146.029 284.955 147.115 285.295 148.061C285.634 149.007 286.101 149.794 286.667 150.377C287.233 150.961 287.887 151.329 288.593 151.461ZM310.944 248.758C310.827 247.693 310.244 246.724 309.324 246.063C308.404 245.402 307.222 245.104 306.038 245.235C305.452 245.3 304.883 245.468 304.364 245.729C303.845 245.991 303.386 246.341 303.012 246.76C302.639 247.178 302.359 247.657 302.189 248.169C302.018 248.681 301.96 249.216 302.019 249.743C302.136 250.808 302.719 251.778 303.639 252.439C304.559 253.099 305.741 253.397 306.925 253.266C307.511 253.202 308.08 253.034 308.599 252.772C309.118 252.51 309.577 252.16 309.951 251.742C310.324 251.323 310.604 250.844 310.774 250.332C310.945 249.82 311.003 249.285 310.944 248.758Z" fill="#C6B1BF"/>
<path d="M252.202 152.151C249.595 153.077 248.235 154.907 248.122 157.641C248.035 159.687 247.988 160.741 247.981 160.801C247.235 166.041 245.815 171.097 243.721 175.971C242.521 175.131 241.515 174.787 240.702 174.941C243.582 166.887 244.671 158.867 243.971 150.881C243.871 149.761 243.278 149.041 242.192 148.721C233.378 146.161 224.375 144.901 215.182 144.941C214.242 144.941 213.505 145.284 212.971 145.971C212.951 145.584 212.771 145.321 212.432 145.181L212.572 144.951C212.588 144.924 212.597 144.894 212.6 144.862C212.602 144.83 212.597 144.797 212.584 144.766C212.572 144.735 212.553 144.706 212.528 144.681C212.504 144.656 212.474 144.635 212.442 144.621C211.008 143.974 210.268 142.954 210.221 141.561C210.188 140.354 210.392 139.311 210.832 138.431C211.392 137.304 212.515 136.824 214.202 136.991C216.188 137.184 218.182 137.357 220.182 137.511C226.168 138.291 232.085 139.431 237.932 140.931L246.892 144.001C246.945 144.018 247.002 144.022 247.058 144.013C247.114 144.005 247.167 143.983 247.213 143.95C247.258 143.917 247.296 143.873 247.321 143.823C247.347 143.773 247.361 143.717 247.361 143.661L247.242 116.911C247.242 116.774 247.191 116.643 247.098 116.542C247.005 116.442 246.878 116.381 246.742 116.371C215.508 113.764 184.352 111.721 153.272 110.241C152.997 110.227 152.729 110.321 152.524 110.503C152.32 110.685 152.197 110.939 152.182 111.211L150.161 143.371C150.601 144.337 151.545 144.427 152.991 143.641C153.082 143.593 153.183 143.57 153.286 143.573C153.389 143.577 153.49 143.607 153.582 143.661C153.674 143.715 153.752 143.792 153.811 143.884C153.871 143.976 153.908 144.081 153.921 144.191L154.471 148.721C153.051 149.727 152.288 150.811 152.182 151.971C151.768 156.517 152.281 161.767 153.721 167.721C154.035 170.987 155.522 173.474 158.182 175.181C157.482 175.307 157.238 175.671 157.452 176.271C157.49 176.365 157.568 176.478 157.682 176.6C157.796 176.722 157.942 176.852 158.111 176.981C158.831 177.521 158.938 178.267 158.432 179.221C156.912 179.021 155.591 178.491 154.471 177.631C153.578 176.944 152.845 175.804 152.272 174.211C149.952 167.711 148.322 160.934 147.382 153.881C147.365 153.747 147.317 153.619 147.241 153.508C147.165 153.397 147.063 153.305 146.944 153.24C146.825 153.176 146.692 153.141 146.556 153.137C146.42 153.134 146.285 153.162 146.161 153.221C145.488 153.534 145.165 153.241 145.192 152.341L144.361 115.321C144.335 114.007 143.795 113.014 142.741 112.341C140.175 110.701 138.952 108.754 139.072 106.501C139.138 105.274 139.722 104.117 140.822 103.031C141.922 101.931 143.061 101.181 144.241 100.781C146.501 100.014 147.428 98.4874 147.022 96.2007C146.682 94.274 146.795 92.444 147.361 90.7107C147.875 89.144 148.855 87.6707 150.301 86.2907C154.255 82.5174 158.998 81.5874 164.531 83.5007C165.825 83.9474 166.705 83.5274 167.171 82.2407C168.905 77.4674 171.881 74.034 176.101 71.9407C178.388 70.8074 180.511 70.364 182.471 70.6107C184.731 70.8974 186.782 71.954 188.622 73.7807C190.495 75.6474 192.155 75.6807 193.601 73.8807C194.321 72.994 194.695 72.5374 194.721 72.5107C198.155 69.0174 202.725 67.4207 208.432 67.7207C221.958 68.4274 233.938 72.7807 244.372 80.7807C245.805 81.8807 246.502 83.444 246.462 85.4707C246.382 89.0774 246.725 91.8074 247.492 93.6607C248.305 95.6207 249.855 95.934 252.142 94.6007C255.128 92.8607 257.588 92.8907 259.522 94.6907C260.855 95.944 261.755 97.834 262.221 100.361C263.261 106.081 260.871 110.521 255.051 113.681C254.792 113.821 254.573 114.026 254.415 114.277C254.258 114.527 254.167 114.814 254.151 115.111L252.202 152.151ZM224.661 87.8007C222.588 91.6674 220.588 95.5674 218.661 99.5007C218.375 100.081 218.445 100.444 218.872 100.591C218.999 100.634 219.144 100.623 219.282 100.56C219.42 100.496 219.543 100.384 219.632 100.241C222.992 94.994 225.008 91.0707 225.682 88.4707C226.128 86.7507 225.958 86.284 225.171 87.0707C224.991 87.2574 224.821 87.5007 224.661 87.8007ZM212.977 98.4033C213.076 98.4606 213.254 98.3784 213.502 98.1614C213.75 97.9443 214.062 97.5967 214.421 97.1383C214.781 96.6799 215.179 96.1198 215.595 95.4898C216.011 94.8599 216.435 94.1726 216.844 93.467C217.67 92.0421 218.383 90.6296 218.826 89.5402C219.269 88.4508 219.406 87.7738 219.206 87.6581C219.107 87.6008 218.929 87.683 218.681 87.9001C218.433 88.1171 218.121 88.4648 217.762 88.9231C217.402 89.3815 217.004 89.9417 216.588 90.5716C216.172 91.2015 215.748 91.8889 215.339 92.5944C214.513 94.0193 213.8 95.4318 213.357 96.5212C212.914 97.6106 212.777 98.2876 212.977 98.4033ZM225.053 100.999C225.156 101.051 225.331 100.958 225.567 100.725C225.803 100.492 226.096 100.123 226.429 99.641C226.762 99.1587 227.128 98.5716 227.508 97.9134C227.887 97.2551 228.271 96.5386 228.638 95.8047C229.006 95.0708 229.349 94.3339 229.649 93.636C229.949 92.9382 230.2 92.2931 230.387 91.7376C230.574 91.182 230.693 90.727 230.738 90.3983C230.783 90.0697 230.753 89.8739 230.65 89.8222C230.547 89.7705 230.372 89.8638 230.136 90.0968C229.9 90.3298 229.607 90.698 229.274 91.1804C228.941 91.6628 228.575 92.2498 228.195 92.908C227.816 93.5663 227.432 94.2828 227.065 95.0167C226.697 95.7506 226.354 96.4875 226.054 97.1854C225.754 97.8832 225.503 98.5283 225.316 99.0838C225.129 99.6394 225.01 100.094 224.965 100.423C224.92 100.752 224.95 100.947 225.053 100.999Z" fill="#291327"/>
<path d="M225.172 87.0707C225.958 86.284 226.128 86.7507 225.682 88.4707C225.008 91.0707 222.992 94.994 219.632 100.241C219.543 100.384 219.42 100.496 219.282 100.56C219.144 100.623 218.999 100.634 218.872 100.591C218.445 100.444 218.375 100.081 218.662 99.5007C220.588 95.5674 222.588 91.6674 224.662 87.8007C224.822 87.5007 224.992 87.2574 225.172 87.0707Z" fill="#180B1D"/>
<path d="M215.339 92.5944C213.619 95.5616 212.562 98.1623 212.978 98.4033C213.393 98.6443 215.125 96.4342 216.845 93.467C218.565 90.4998 219.622 87.8991 219.206 87.6581C218.791 87.4171 217.059 89.6272 215.339 92.5944Z" fill="#180B1D"/>
<path d="M227.065 95.0167C225.519 98.1031 224.619 100.782 225.053 100.999C225.488 101.217 227.093 98.8911 228.639 95.8047C230.184 92.7183 231.085 90.0398 230.65 89.8222C230.216 89.6046 228.61 91.9302 227.065 95.0167Z" fill="#180B1D"/>
<path d="M237.932 140.931C237.752 140.631 237.655 140.311 237.642 139.971C237.636 139.816 237.592 139.67 237.516 139.549C237.439 139.428 237.334 139.338 237.212 139.291C224.405 134.364 210.978 132.341 196.932 133.221C189.058 133.714 181.898 134.474 175.452 135.501C175.312 135.521 175.182 135.564 175.062 135.631C174.115 136.144 174.308 136.267 175.642 136.001C177.395 135.641 178.848 136.024 180.002 137.151C169.868 137.924 159.922 139.997 150.162 143.371L152.182 111.211C152.197 110.939 152.32 110.685 152.524 110.503C152.729 110.321 152.997 110.227 153.272 110.241C184.352 111.721 215.508 113.764 246.742 116.371C246.878 116.381 247.005 116.442 247.098 116.542C247.191 116.643 247.242 116.774 247.242 116.911L247.362 143.661C247.361 143.717 247.347 143.773 247.322 143.823C247.296 143.873 247.258 143.917 247.213 143.95C247.167 143.983 247.114 144.005 247.058 144.013C247.002 144.022 246.945 144.018 246.892 144.001L237.932 140.931Z" fill="#FBBDAE"/>
<path d="M237.932 140.931C232.085 139.431 226.168 138.291 220.182 137.511C220.368 136.311 219.952 135.714 218.932 135.721C213.632 135.754 210.065 135.704 208.232 135.571C200.452 135.004 192.685 135.134 184.932 135.961C184.085 136.054 183.668 136.461 183.682 137.181L180.002 137.151C178.848 136.024 177.395 135.641 175.642 136.001C174.308 136.267 174.115 136.144 175.062 135.631C175.182 135.564 175.312 135.521 175.452 135.501C181.898 134.474 189.058 133.714 196.932 133.221C210.978 132.341 224.405 134.364 237.212 139.291C237.334 139.338 237.44 139.428 237.516 139.549C237.593 139.67 237.636 139.816 237.642 139.971C237.655 140.311 237.752 140.631 237.932 140.931Z" fill="#F5988B"/>
<path d="M284.935 141.275C283.986 146.345 285.624 150.906 288.593 151.461C291.563 152.017 294.739 148.357 295.688 143.287C296.637 138.217 294.999 133.656 292.03 133.1C289.06 132.544 285.884 136.204 284.935 141.275Z" fill="#A49AB5"/>
<path d="M220.182 137.511C218.182 137.357 216.188 137.184 214.202 136.991C212.515 136.824 211.392 137.304 210.832 138.431C210.392 139.311 210.188 140.354 210.222 141.561C210.268 142.954 211.008 143.974 212.442 144.621C212.474 144.635 212.504 144.655 212.528 144.681C212.553 144.706 212.572 144.735 212.585 144.766C212.597 144.797 212.602 144.83 212.6 144.862C212.598 144.894 212.588 144.924 212.572 144.951L212.432 145.181C210.058 145.967 207.942 147.161 206.082 148.761C204.962 149.734 204.038 150.297 203.312 150.451C202.398 150.644 201.272 150.734 199.932 150.721C195.932 150.674 192.932 150.341 190.932 149.721C189.765 149.361 187.332 147.734 183.632 144.841C183.392 144.654 183.432 144.567 183.752 144.581C186.038 144.721 187.098 143.434 186.932 140.721C186.785 138.321 185.702 137.141 183.682 137.181C183.668 136.461 184.085 136.054 184.932 135.961C192.685 135.134 200.452 135.004 208.232 135.571C210.065 135.704 213.632 135.754 218.932 135.721C219.952 135.714 220.368 136.311 220.182 137.511Z" fill="#FBBDAE"/>
<path d="M180.002 137.151L183.682 137.181C185.702 137.141 186.785 138.321 186.932 140.721C187.098 143.434 186.038 144.721 183.752 144.581C183.432 144.567 183.392 144.654 183.632 144.841C187.332 147.734 189.765 149.361 190.932 149.721C192.932 150.341 195.932 150.674 199.932 150.721C201.272 150.734 202.398 150.644 203.312 150.451C204.038 150.297 204.962 149.734 206.082 148.761C207.942 147.161 210.058 145.967 212.432 145.181C212.772 145.321 212.952 145.584 212.972 145.971C209.878 148.671 208.115 152.421 207.682 157.221C207.315 161.294 207.685 165.294 208.792 169.221C209.672 172.334 211.615 174.187 214.622 174.781C223.068 176.447 231.762 176.501 240.702 174.941C241.515 174.787 242.522 175.131 243.722 175.971C242.422 178.164 240.575 179.331 238.182 179.471C230.288 179.924 221.965 179.447 213.212 178.041C210.638 177.621 208.815 176.661 207.742 175.161C206.722 173.727 205.685 171.074 204.632 167.201C204.852 166.194 204.475 165.191 203.502 164.191L203.042 156.911C203.03 156.738 202.956 156.576 202.833 156.453C202.71 156.33 202.546 156.255 202.372 156.241L194.462 155.691C193.215 155.604 192.548 156.211 192.462 157.511C192.022 163.997 190.862 169.797 188.982 174.911C188.355 176.631 187.252 177.601 185.672 177.821L175.432 179.261C169.758 179.874 164.092 179.861 158.432 179.221C158.938 178.267 158.832 177.521 158.112 176.981C157.942 176.852 157.796 176.722 157.682 176.6C157.568 176.478 157.49 176.365 157.452 176.271C157.238 175.671 157.482 175.307 158.182 175.181C163.615 176.054 170.365 176.067 178.432 175.221C181.472 174.901 183.765 174.337 185.312 173.531C185.59 173.382 185.816 173.136 185.952 172.831C187.398 169.637 188.128 166.267 188.142 162.721C188.735 158.307 188.498 154.807 187.432 152.221C186.552 150.087 184.625 147.917 181.652 145.711C181.391 145.515 181.078 145.4 180.752 145.381C171.778 144.827 163.018 145.941 154.472 148.721L153.922 144.191C153.908 144.081 153.871 143.976 153.812 143.884C153.752 143.792 153.674 143.715 153.582 143.661C153.491 143.607 153.389 143.577 153.286 143.573C153.183 143.57 153.082 143.593 152.992 143.641C151.545 144.427 150.602 144.337 150.162 143.371C159.922 139.997 169.868 137.924 180.002 137.151Z" fill="#18111A"/>
<path d="M240.702 174.941C231.762 176.501 223.068 176.447 214.622 174.781C211.615 174.187 209.672 172.334 208.792 169.221C207.685 165.294 207.315 161.294 207.682 157.221C208.115 152.421 209.878 148.671 212.972 145.971C213.505 145.284 214.242 144.941 215.182 144.941C224.375 144.901 233.378 146.161 242.192 148.721C243.278 149.041 243.872 149.761 243.972 150.881C244.672 158.867 243.582 166.887 240.702 174.941ZM219.182 158.931C219.895 161.517 221.332 163.094 223.492 163.661C227.172 164.621 229.882 163.351 231.622 159.851C231.882 159.311 232.158 159.304 232.452 159.831C233.732 162.137 235.405 164.064 237.472 165.611C237.745 165.817 237.812 165.761 237.672 165.441C235.998 161.654 233.752 158.664 230.932 156.471C228.085 154.251 224.752 153.681 220.932 154.761C217.085 153.841 213.828 154.521 211.162 156.801C209.968 157.821 209.285 159.187 209.112 160.901C208.792 164.047 209.232 167.081 210.432 170.001C210.912 171.167 211.305 171.141 211.612 169.921C211.872 168.907 212.305 167.987 212.912 167.161C214.938 164.367 217.028 161.624 219.182 158.931Z" fill="#FDB1A1"/>
<path d="M188.142 162.721C187.662 162.947 187.272 163.281 186.972 163.721C187.552 161.374 187.485 159.054 186.772 156.761C186.725 156.611 186.645 156.472 186.538 156.357C186.431 156.241 186.299 156.15 186.152 156.091C185.098 155.671 184.018 155.357 182.912 155.151C181.545 154.897 180.318 154.561 179.232 154.141C171.992 151.307 165.828 153.104 160.742 159.531C158.722 162.084 157.345 164.391 156.612 166.451C156.212 166.617 155.902 166.944 155.682 167.431C154.915 167.244 154.262 167.341 153.722 167.721C152.282 161.767 151.768 156.517 152.182 151.971C152.288 150.811 153.052 149.727 154.472 148.721C163.018 145.941 171.778 144.827 180.752 145.381C181.078 145.4 181.391 145.515 181.652 145.711C184.625 147.917 186.552 150.087 187.432 152.221C188.498 154.807 188.735 158.307 188.142 162.721Z" fill="#F8AA9A"/>
<path d="M145.191 152.341C145.165 153.241 145.488 153.534 146.161 153.221C146.285 153.162 146.42 153.134 146.556 153.137C146.692 153.141 146.825 153.176 146.944 153.24C147.063 153.305 147.165 153.397 147.241 153.508C147.317 153.619 147.365 153.747 147.381 153.881C148.321 160.934 149.951 167.711 152.271 174.211C152.845 175.804 153.578 176.944 154.471 177.631C155.591 178.491 156.911 179.021 158.431 179.221C158.465 179.554 158.401 179.837 158.241 180.071C158.146 180.199 158.011 180.292 157.856 180.333C157.702 180.375 157.538 180.364 157.391 180.301L152.201 178.091C152.068 178.033 151.921 178.005 151.776 178.011C151.63 178.016 151.491 178.055 151.37 178.123C151.25 178.191 151.151 178.286 151.085 178.399C151.019 178.512 150.987 178.64 150.991 178.771C151.105 182.544 151.778 186.201 153.011 189.741C153.061 189.885 153.152 190.011 153.272 190.102C153.391 190.193 153.534 190.245 153.681 190.251L164.371 190.651C164.679 190.663 164.992 190.545 165.241 190.321C168.781 187.207 172.908 185.494 177.621 185.181C177.783 185.169 177.933 185.108 178.042 185.011C178.15 184.914 178.207 184.788 178.201 184.661L178.061 181.451C178.055 181.329 177.988 181.214 177.873 181.129C177.758 181.043 177.604 180.994 177.441 180.991C176.261 180.951 175.591 180.374 175.431 179.261L185.671 177.821C187.251 177.601 188.355 176.631 188.981 174.911C190.861 169.797 192.021 163.997 192.461 157.511C192.548 156.211 193.215 155.604 194.461 155.691L202.371 156.241C202.546 156.255 202.71 156.33 202.833 156.453C202.956 156.576 203.03 156.738 203.041 156.911L203.501 164.191C202.928 174.191 203.025 184.191 203.791 194.191C201.271 196.877 198.061 197.831 194.161 197.051C189.701 196.164 186.788 193.627 185.421 189.441C184.995 188.141 184.105 187.414 182.751 187.261C179.331 186.861 176.105 187.197 173.071 188.271C170.278 189.264 168.198 190.911 166.831 193.211C165.771 195.011 165.225 197.447 165.191 200.521C165.151 204.021 165.631 207.447 166.631 210.801C166.958 211.894 166.665 212.101 165.751 211.421C159.265 206.561 154.825 200.244 152.431 192.471C151.311 188.837 150.311 185.167 149.431 181.461C149.125 180.174 148.685 180.107 148.111 181.261L143.401 190.721C143.348 188.261 143.965 185.944 145.251 183.771C145.958 182.577 145.631 181.851 144.271 181.591C139.518 180.691 135.968 177.531 133.621 172.111C132.815 169.577 132.425 166.837 132.451 163.891C132.485 160.564 133.118 157.941 134.351 156.021C136.531 152.627 140.145 151.401 145.191 152.341ZM136.621 159.151C134.848 163.757 135.615 167.864 138.921 171.471C140.281 172.957 141.848 173.624 143.621 173.471C144.548 173.391 145.441 172.954 146.301 172.161C147.061 171.461 147.755 170.697 148.381 169.871C148.582 169.612 148.688 169.294 148.681 168.971C148.641 166.857 148.291 164.811 147.631 162.831C147.018 160.984 146.101 159.601 144.881 158.681C143.455 157.601 141.788 157.034 139.881 156.981C138.281 156.934 137.195 157.657 136.621 159.151Z" fill="#FBBDAE"/>
<path d="M252.202 152.151C259.162 153.444 262.535 157.724 262.322 164.991C262.195 172.104 258.982 176.931 252.682 179.471C251.755 179.844 251.269 180.407 251.222 181.161C251.209 181.294 251.312 181.594 251.532 182.061C251.719 182.461 251.532 182.764 250.972 182.971L248.972 180.571C248.439 179.931 248.092 180.057 247.932 180.951C246.852 187.071 245.032 192.951 242.472 198.591C240.785 202.291 238.402 205.494 235.322 208.201C233.642 209.674 232.635 209.304 232.302 207.091C232.102 205.771 232.099 204.151 232.292 202.231C232.792 197.151 230.985 193.251 226.872 190.531C223.119 188.051 218.722 187.114 213.682 187.721C211.749 187.954 209.225 189.484 206.112 192.311C205.712 186.731 205.489 181.154 205.442 175.581C205.435 174.667 205.239 173.291 204.852 171.451C204.559 170.044 204.485 168.627 204.632 167.201C205.685 171.074 206.722 173.727 207.742 175.161C208.815 176.661 210.639 177.621 213.212 178.041C221.965 179.447 230.289 179.924 238.182 179.471C240.575 179.331 242.422 178.164 243.722 175.971C245.815 171.097 247.235 166.041 247.982 160.801C247.989 160.741 248.035 159.687 248.122 157.641C248.235 154.907 249.595 153.077 252.202 152.151ZM250.212 157.921C248.765 161.887 247.999 166.224 247.912 170.931C247.909 171.13 247.946 171.328 248.021 171.513C248.097 171.699 248.209 171.868 248.352 172.011C250.532 174.204 252.572 174.457 254.472 172.771C255.765 171.624 256.689 170.044 257.242 168.031C258.615 163.071 257.032 159.404 252.492 157.031C252.287 156.923 252.06 156.86 251.829 156.847C251.597 156.834 251.365 156.871 251.149 156.955C250.933 157.04 250.737 157.17 250.575 157.336C250.414 157.503 250.29 157.702 250.212 157.921Z" fill="#FCAE9E"/>
<path d="M186.972 163.721C186.578 164.781 185.835 165.094 184.742 164.661C182.935 163.947 181.642 162.804 180.862 161.231C179.762 159.011 178.022 157.591 175.642 156.971C171.962 155.644 168.642 156.241 165.682 158.761C164.575 158.881 163.705 159.417 163.072 160.371C161.405 162.871 159.252 164.897 156.612 166.451C157.345 164.391 158.722 162.084 160.742 159.531C165.828 153.104 171.992 151.307 179.232 154.141C180.318 154.561 181.545 154.897 182.912 155.151C184.018 155.357 185.098 155.671 186.152 156.091C186.299 156.15 186.431 156.241 186.538 156.357C186.645 156.472 186.725 156.61 186.772 156.761C187.485 159.054 187.552 161.374 186.972 163.721Z" fill="#DF6B57"/>
<path d="M220.932 154.761C219.718 155.881 219.135 157.271 219.182 158.931C217.028 161.624 214.938 164.367 212.912 167.161C212.305 167.987 211.872 168.907 211.612 169.921C211.305 171.141 210.912 171.167 210.432 170.001C209.232 167.081 208.792 164.047 209.112 160.901C209.285 159.187 209.968 157.821 211.162 156.801C213.828 154.521 217.085 153.841 220.932 154.761Z" fill="#F77E6B"/>
<path d="M219.182 158.931C219.135 157.271 219.718 155.881 220.932 154.761C224.752 153.681 228.085 154.251 230.932 156.471C233.752 158.664 235.998 161.654 237.672 165.441C237.812 165.761 237.745 165.817 237.472 165.611C235.405 164.064 233.732 162.137 232.452 159.831C232.158 159.304 231.882 159.311 231.622 159.851C229.882 163.351 227.172 164.621 223.492 163.661C221.332 163.094 219.895 161.517 219.182 158.931Z" fill="#822528"/>
<path d="M175.642 156.971C176.462 159.344 176.228 161.284 174.942 162.791C173.775 164.157 172.215 164.801 170.262 164.721C167.575 164.614 166.118 162.864 165.892 159.471C165.952 159.197 165.882 158.961 165.682 158.761C168.642 156.241 171.962 155.644 175.642 156.971Z" fill="#67332A"/>
<path d="M186.972 163.721C187.272 163.281 187.662 162.947 188.142 162.721C188.128 166.267 187.398 169.637 185.952 172.831C185.816 173.136 185.59 173.382 185.312 173.531C183.765 174.337 181.472 174.901 178.432 175.221C170.365 176.067 163.615 176.054 158.182 175.181C155.522 173.474 154.035 170.987 153.722 167.721C154.262 167.341 154.915 167.244 155.682 167.431C156.075 168.057 156.565 168.144 157.152 167.691C159.932 165.557 162.362 163.074 164.442 160.241C164.808 159.734 165.292 159.477 165.892 159.471C166.118 162.864 167.575 164.614 170.262 164.721C172.215 164.801 173.775 164.157 174.942 162.791C176.228 161.284 176.462 159.344 175.642 156.971C178.022 157.591 179.762 159.011 180.862 161.231C181.642 162.804 182.935 163.947 184.742 164.661C185.835 165.094 186.578 164.781 186.972 163.721Z" fill="#FABBB4"/>
<path d="M250.212 157.921C250.29 157.702 250.414 157.503 250.575 157.336C250.737 157.17 250.933 157.04 251.149 156.955C251.365 156.871 251.597 156.834 251.829 156.847C252.06 156.86 252.286 156.923 252.492 157.031C257.032 159.404 258.615 163.071 257.242 168.031C256.689 170.044 255.765 171.624 254.472 172.771C252.572 174.457 250.532 174.204 248.352 172.011C248.209 171.868 248.097 171.699 248.021 171.513C247.946 171.328 247.908 171.13 247.912 170.931C247.998 166.224 248.765 161.887 250.212 157.921Z" fill="#F98D7D"/>
<path d="M136.622 159.151C137.195 157.657 138.282 156.934 139.882 156.981C141.789 157.034 143.455 157.601 144.882 158.681C146.102 159.601 147.019 160.984 147.632 162.831C148.292 164.811 148.642 166.857 148.682 168.971C148.688 169.294 148.582 169.612 148.382 169.871C147.755 170.697 147.062 171.461 146.302 172.161C145.442 172.954 144.549 173.391 143.622 173.471C141.849 173.624 140.282 172.957 138.922 171.471C135.615 167.864 134.849 163.757 136.622 159.151Z" fill="#F4867C"/>
<path d="M165.682 158.761C165.882 158.961 165.952 159.197 165.892 159.471C165.292 159.477 164.808 159.734 164.442 160.241C162.362 163.074 159.932 165.557 157.152 167.691C156.565 168.144 156.075 168.057 155.682 167.431C155.902 166.944 156.212 166.617 156.612 166.451C159.252 164.897 161.405 162.871 163.072 160.371C163.705 159.417 164.575 158.881 165.682 158.761Z" fill="#AE4035"/>
<path d="M203.502 164.191C204.475 165.191 204.852 166.194 204.632 167.201C204.485 168.627 204.558 170.044 204.852 171.451C205.238 173.291 205.435 174.667 205.442 175.581C205.488 181.154 205.712 186.731 206.112 192.311C205.852 193.037 205.078 193.664 203.792 194.191C203.025 184.191 202.928 174.191 203.502 164.191Z" fill="#913C32"/>
<path d="M262.322 164.991C264.968 166.264 267.388 167.784 269.582 169.551C270.135 169.997 272.282 171.854 276.022 175.121C282.122 180.461 287.258 186.647 291.432 193.681C289.638 194.194 288.285 195.437 287.372 197.411C286.265 199.791 285.578 201.787 285.312 203.401C284.745 206.854 284.202 210.314 283.682 213.781C283.095 217.741 282.392 221.161 281.572 224.041C280.165 229.021 278.538 233.927 276.692 238.761C275.125 242.854 274.125 245.747 273.692 247.441C272.985 250.201 272.398 253.211 271.932 256.471C271.538 259.224 272.062 262.021 273.502 264.861C269.362 267.407 266.502 270.997 264.922 275.631L251.532 271.171C248.605 270.857 246.098 270.097 244.012 268.891C241.898 267.671 240.622 266.031 240.182 263.971C239.248 259.631 238.498 256.604 237.932 254.891C255.558 241.571 262.308 223.764 258.182 201.471C257.288 196.657 254.885 190.491 250.972 182.971C251.532 182.764 251.718 182.461 251.532 182.061C251.312 181.594 251.208 181.294 251.222 181.161C251.268 180.407 251.755 179.844 252.682 179.471C258.982 176.931 262.195 172.104 262.322 164.991Z" fill="#BDABBB"/>
<path d="M133.622 172.111C135.968 177.531 139.518 180.691 144.272 181.591C145.632 181.851 145.958 182.577 145.252 183.771C143.965 185.944 143.348 188.261 143.402 190.721C141.782 197.954 140.875 202.287 140.682 203.721C137.942 223.967 144.438 240.607 160.172 253.641C159.405 256.874 158.632 260.077 157.852 263.251C156.712 267.857 153.642 270.717 148.642 271.831L136.182 277.181C135.708 275.834 134.972 275.624 133.972 276.551C133.933 276.587 133.886 276.614 133.835 276.628C133.784 276.643 133.73 276.645 133.678 276.634C133.626 276.623 133.577 276.6 133.536 276.566C133.495 276.533 133.463 276.49 133.442 276.441C133.002 275.434 132.312 275.084 131.372 275.391C130.112 275.804 129.405 276.004 129.252 275.991C128.338 275.884 127.728 275.294 127.422 274.221C127.042 272.867 126.745 271.497 126.532 270.111C126.212 268.017 125.598 266.887 124.692 266.721C126.725 258.501 125.658 250.231 121.492 241.911C117.092 233.104 114.305 223.004 113.132 211.611C112.965 209.997 112.712 208.594 112.372 207.401C111.972 206.027 111.535 204.661 111.062 203.301C110.522 201.767 109.562 200.587 108.182 199.761C114.115 188.161 122.595 178.944 133.622 172.111Z" fill="#BDABBB"/>
<path d="M158.432 179.221C164.092 179.861 169.758 179.874 175.432 179.261C175.592 180.374 176.262 180.951 177.442 180.991C177.604 180.994 177.758 181.043 177.873 181.129C177.988 181.214 178.055 181.329 178.062 181.451L178.202 184.661C178.208 184.788 178.15 184.914 178.042 185.011C177.934 185.108 177.783 185.169 177.622 185.181C172.908 185.494 168.782 187.207 165.242 190.321C164.992 190.545 164.679 190.663 164.372 190.651L153.682 190.251C153.534 190.245 153.392 190.193 153.272 190.102C153.152 190.011 153.062 189.885 153.012 189.741C151.778 186.201 151.105 182.544 150.992 178.771C150.987 178.64 151.019 178.512 151.085 178.399C151.152 178.286 151.25 178.191 151.37 178.123C151.491 178.055 151.631 178.016 151.776 178.011C151.921 178.005 152.068 178.033 152.202 178.091L157.392 180.301C157.539 180.364 157.702 180.375 157.857 180.333C158.011 180.292 158.147 180.199 158.242 180.071C158.402 179.837 158.465 179.554 158.432 179.221Z" fill="#FDA493"/>
<path d="M250.972 182.971C254.885 190.491 257.289 196.657 258.182 201.471C262.309 223.764 255.559 241.571 237.932 254.891L235.182 257.011C222.155 265.717 207.905 269.121 192.432 267.221C181.299 265.854 171.062 261.771 161.722 254.971L160.172 253.641C144.439 240.607 137.942 223.967 140.682 203.721C140.875 202.287 141.782 197.954 143.402 190.721L148.112 181.261C148.685 180.107 149.125 180.174 149.432 181.461C150.312 185.167 151.312 188.837 152.432 192.471C154.825 200.244 159.265 206.561 165.752 211.421C166.665 212.101 166.959 211.894 166.632 210.801C165.632 207.447 165.152 204.021 165.192 200.521C165.225 197.447 165.772 195.011 166.832 193.211C168.199 190.911 170.279 189.264 173.072 188.271C176.105 187.197 179.332 186.861 182.752 187.261C184.105 187.414 184.995 188.141 185.422 189.441C186.789 193.627 189.702 196.164 194.162 197.051C198.062 197.831 201.272 196.877 203.792 194.191C205.079 193.664 205.852 193.037 206.112 192.311C209.225 189.484 211.749 187.954 213.682 187.721C218.722 187.114 223.119 188.051 226.872 190.531C230.985 193.251 232.792 197.151 232.292 202.231C232.099 204.151 232.102 205.771 232.302 207.091C232.635 209.304 233.642 209.674 235.322 208.201C238.402 205.494 240.785 202.291 242.472 198.591C245.032 192.951 246.852 187.071 247.932 180.951C248.092 180.057 248.439 179.931 248.972 180.571L250.972 182.971ZM176.692 200.721C177.179 205.554 179.515 209.567 183.702 212.761C185.202 213.901 186.462 213.677 187.482 212.091C188.309 210.811 189.449 209.767 190.902 208.961C192.002 208.347 193.455 207.997 195.262 207.911C198.362 207.751 201.239 207.684 203.892 207.711C205.299 207.724 206.435 208.281 207.302 209.381C210.049 212.861 212.792 213.897 215.532 212.491C217.252 211.604 218.799 209.751 220.172 206.931C221.499 204.191 222.475 201.207 223.102 197.981C223.282 197.041 222.949 196.794 222.102 197.241C219.275 198.714 216.369 200.187 213.382 201.661C208.022 204.294 205.092 205.691 204.592 205.851C201.045 207.011 197.329 207.037 193.442 205.931C188.835 204.611 184.229 202.144 179.622 198.531C178.369 197.551 177.479 197.591 176.952 198.651C176.692 199.164 176.605 199.854 176.692 200.721ZM256.573 205.794C256.641 205.692 256.665 205.568 256.641 205.448C256.617 205.329 256.546 205.224 256.444 205.156L251.13 201.626C251.029 201.558 250.905 201.534 250.785 201.558C250.665 201.582 250.56 201.653 250.493 201.754L250.471 201.787C250.403 201.889 250.379 202.013 250.403 202.133C250.427 202.253 250.498 202.358 250.599 202.425L255.913 205.956C256.015 206.023 256.139 206.048 256.259 206.024C256.378 205.999 256.483 205.929 256.551 205.827L256.573 205.794ZM252.742 210.411C251.915 210.011 250.442 208.821 248.322 206.841C247.002 205.607 246.852 205.754 247.872 207.281C248.459 208.161 250.339 209.634 253.512 211.701C253.879 211.934 253.999 211.861 253.872 211.481C253.725 211.054 253.349 210.697 252.742 210.411Z" fill="#251124"/>
<path d="M291.432 193.681C292.352 193.561 292.998 193.844 293.372 194.531C294.645 196.897 295.488 199.461 295.902 202.221C296.142 203.861 296.285 206.527 296.332 210.221C296.445 219.494 294.978 228.411 291.932 236.971C289.638 243.411 286.645 249.787 282.952 256.101C281.158 259.174 280.195 260.804 280.062 260.991C278.855 262.737 277.458 264.044 275.872 264.911C274.898 265.437 274.108 265.421 273.502 264.861C272.062 262.021 271.538 259.224 271.932 256.471C272.398 253.211 272.985 250.201 273.692 247.441C274.125 245.747 275.125 242.854 276.692 238.761C278.538 233.927 280.165 229.021 281.572 224.041C282.392 221.161 283.095 217.741 283.682 213.781C284.202 210.314 284.745 206.854 285.312 203.401C285.578 201.787 286.265 199.791 287.372 197.411C288.285 195.437 289.638 194.194 291.432 193.681Z" fill="#737198"/>
<path d="M176.952 198.651C177.478 197.591 178.368 197.551 179.622 198.531C184.228 202.144 188.835 204.611 193.442 205.931C197.328 207.037 201.045 207.011 204.592 205.851C205.092 205.691 208.022 204.294 213.382 201.661C216.368 200.187 219.275 198.714 222.102 197.241C222.948 196.794 223.282 197.041 223.102 197.981C222.475 201.207 221.498 204.191 220.172 206.931C218.798 209.751 217.252 211.604 215.532 212.491C212.792 213.897 210.048 212.861 207.302 209.381C206.435 208.281 205.298 207.724 203.892 207.711C201.238 207.684 198.362 207.751 195.262 207.911C193.455 207.997 192.002 208.347 190.902 208.961C189.448 209.767 188.308 210.811 187.482 212.091C186.462 213.677 185.202 213.901 183.702 212.761C179.515 209.567 177.178 205.554 176.692 200.721C176.605 199.854 176.692 199.164 176.952 198.651Z" fill="#EB8075"/>
<path d="M108.181 199.761C109.561 200.587 110.521 201.767 111.061 203.301C111.535 204.661 111.971 206.027 112.371 207.401C112.711 208.594 112.965 209.997 113.131 211.611C114.305 223.004 117.091 233.104 121.491 241.911C125.658 250.231 126.725 258.501 124.691 266.721C123.365 267.261 122.425 267.361 121.871 267.021C119.758 265.707 118.021 264.004 116.661 261.911C113.468 256.984 110.598 251.867 108.051 246.561C101.291 232.487 99.8348 217.957 103.681 202.971C104.261 200.717 105.761 199.647 108.181 199.761Z" fill="#737198"/>
<path d="M256.444 205.156L251.13 201.626C250.919 201.485 250.633 201.543 250.493 201.754L250.47 201.787C250.33 201.999 250.387 202.285 250.599 202.425L255.913 205.956C256.125 206.096 256.41 206.039 256.551 205.827L256.573 205.794C256.713 205.582 256.656 205.297 256.444 205.156Z" fill="#51475F"/>
<path d="M252.742 210.411C253.348 210.697 253.725 211.054 253.872 211.481C253.998 211.861 253.878 211.934 253.512 211.701C250.338 209.634 248.458 208.161 247.872 207.281C246.852 205.754 247.002 205.607 248.322 206.841C250.442 208.821 251.915 210.011 252.742 210.411Z" fill="#51475F"/>
<path d="M306.925 253.266C309.39 252.994 311.19 250.976 310.945 248.758C310.7 246.54 308.503 244.963 306.039 245.235C303.574 245.507 301.774 247.526 302.019 249.743C302.264 251.961 304.46 253.538 306.925 253.266Z" fill="#8C87A7"/>
<path d="M160.172 253.641L161.722 254.971L161.502 255.981C161.471 256.123 161.481 256.275 161.532 256.42C161.583 256.566 161.673 256.7 161.792 256.811C163.625 258.551 166.318 260.957 169.872 264.031C179.558 272.431 190.392 276.104 202.372 275.051C208.105 274.544 213.805 272.904 219.472 270.131C224.892 267.484 229.855 264.071 234.362 259.891C234.428 259.831 234.702 259.621 235.182 259.261C235.988 258.674 235.988 257.924 235.182 257.011L237.932 254.891C238.498 256.604 239.248 259.631 240.182 263.971C240.622 266.031 241.898 267.671 244.012 268.891C246.098 270.097 248.605 270.857 251.532 271.171C249.092 284.071 243.248 294.944 234.002 303.791C228.655 308.911 222.625 312.624 215.912 314.931C209.678 317.071 203.102 317.784 196.182 317.071C183.748 315.797 173.018 310.327 163.992 300.661C156.218 292.334 151.102 282.724 148.642 271.831C153.642 270.717 156.712 267.857 157.852 263.251C158.632 260.077 159.405 256.874 160.172 253.641ZM193.282 311.721C193.4 311.801 193.537 311.851 193.68 311.865C193.822 311.88 193.966 311.859 194.099 311.805C194.231 311.75 194.349 311.664 194.44 311.553C194.531 311.443 194.593 311.311 194.622 311.171C195.002 309.204 195.178 307.221 195.152 305.221C195.092 300.221 195.205 294.831 195.492 289.051C195.537 288.088 195.243 287.139 194.662 286.371C194.115 285.637 193.485 285.627 192.772 286.341C192.553 286.553 192.424 286.869 192.412 287.221C192.045 294.867 192.075 302.514 192.502 310.161C192.542 310.874 192.802 311.394 193.282 311.721Z" fill="#FCBFAF"/>
<path d="M161.722 254.971C171.062 261.771 181.298 265.854 192.432 267.221C207.905 269.121 222.155 265.717 235.182 257.011C235.988 257.924 235.988 258.674 235.182 259.261C234.702 259.621 234.428 259.831 234.362 259.891C229.855 264.071 224.892 267.484 219.472 270.131C213.805 272.904 208.105 274.544 202.372 275.051C190.392 276.104 179.558 272.431 169.872 264.031C166.318 260.957 163.625 258.551 161.792 256.811C161.673 256.7 161.583 256.566 161.532 256.42C161.481 256.275 161.471 256.123 161.502 255.981L161.722 254.971Z" fill="#F1847B"/>
<path d="M264.921 275.631C266.681 277.304 268.935 278.514 271.681 279.261C271.641 280.341 271.318 281.334 270.711 282.241C270.065 283.221 270.255 284.314 271.281 285.521C271.386 285.645 271.521 285.742 271.673 285.802C271.825 285.861 271.989 285.882 272.151 285.862C272.313 285.843 272.467 285.783 272.6 285.688C272.733 285.593 272.84 285.467 272.911 285.321C273.891 283.341 275.495 282.224 277.721 281.971C278.581 283.431 279.901 284.027 281.681 283.761C280.755 285.181 280.255 286.751 280.181 288.471C280.075 290.944 280.805 291.507 282.371 290.161C284.005 288.747 285.371 287.101 286.471 285.221L303.071 294.901C279.638 320.641 250.908 335.611 216.881 339.811C210.188 340.637 203.538 340.961 196.931 340.781C176.071 340.207 156.385 335.291 137.871 326.031C123.451 318.817 110.418 309.117 98.7715 296.931C104.491 293.284 110.168 289.937 115.801 286.891C116.915 286.284 117.745 286.014 118.291 286.081C119.845 286.267 121.115 285.757 122.101 284.551C123.441 282.897 124.931 281.847 126.571 281.401C128.405 280.907 129.545 280.544 129.991 280.311C132.045 279.237 134.108 278.194 136.181 277.181L148.641 271.831C151.101 282.724 156.218 292.334 163.991 300.661C173.018 310.327 183.748 315.797 196.181 317.071C203.101 317.784 209.678 317.071 215.911 314.931C222.625 312.624 228.655 308.911 234.001 303.791C243.248 294.944 249.091 284.071 251.531 271.171L264.921 275.631ZM256.701 294.741C251.628 301.841 247.095 308.724 243.101 315.391C242.575 316.271 242.268 317.214 242.181 318.221C242.075 319.454 242.555 319.601 243.621 318.661C245.188 317.267 246.531 315.694 247.651 313.941C249.185 311.534 249.975 310.301 250.021 310.241C253.288 305.534 256.105 300.567 258.471 295.341C259.111 293.934 258.851 293.471 257.691 293.951C257.299 294.114 256.956 294.387 256.701 294.741ZM149.371 311.781C149.818 312.314 150.141 312.257 150.341 311.611C150.415 311.377 150.401 311.121 150.301 310.841C149.681 309.074 148.828 307.431 147.741 305.911C145.521 302.817 143.231 299.774 140.871 296.781C139.951 295.607 138.798 294.751 137.411 294.211C136.711 293.937 136.561 294.121 136.961 294.761C140.688 300.714 144.825 306.387 149.371 311.781ZM140.267 316.066C140.434 315.939 140.07 315.127 139.255 313.808C138.44 312.489 137.24 310.772 135.921 309.033C135.267 308.172 134.604 307.332 133.969 306.561C133.333 305.789 132.738 305.102 132.218 304.537C131.697 303.973 131.261 303.543 130.935 303.271C130.609 303 130.398 302.892 130.316 302.955C130.149 303.082 130.513 303.894 131.328 305.213C132.143 306.532 133.343 308.25 134.662 309.988C135.316 310.849 135.979 311.689 136.614 312.461C137.25 313.232 137.845 313.92 138.365 314.484C138.886 315.048 139.322 315.479 139.648 315.75C139.974 316.022 140.185 316.129 140.267 316.066ZM267.246 304.62C267.386 304.394 267.43 304.122 267.369 303.864C267.308 303.606 267.147 303.383 266.921 303.243L266.887 303.222C266.661 303.083 266.389 303.039 266.131 303.1C265.873 303.161 265.65 303.322 265.511 303.548L257.177 317.042C257.037 317.267 256.993 317.539 257.054 317.797C257.115 318.055 257.276 318.279 257.502 318.418L257.536 318.439C257.762 318.578 258.033 318.622 258.292 318.561C258.55 318.5 258.773 318.339 258.912 318.114L267.246 304.62ZM230.481 329.201C232.295 329.287 232.861 328.211 232.181 325.971C231.688 324.357 230.668 324.254 229.121 325.661C228.035 326.647 227.828 327.537 228.501 328.331C228.955 328.864 229.615 329.154 230.481 329.201ZM169.386 329.893C169.518 330.021 169.679 330.117 169.859 330.175C170.039 330.233 170.235 330.253 170.436 330.233C170.636 330.212 170.838 330.153 171.028 330.057C171.219 329.961 171.395 329.832 171.547 329.675C171.699 329.518 171.823 329.338 171.912 329.145C172.002 328.951 172.055 328.748 172.069 328.547C172.083 328.346 172.057 328.15 171.993 327.972C171.93 327.794 171.829 327.637 171.697 327.509C171.565 327.381 171.404 327.285 171.224 327.227C171.044 327.168 170.848 327.149 170.647 327.169C170.447 327.189 170.245 327.249 170.055 327.344C169.864 327.44 169.688 327.57 169.536 327.726C169.384 327.883 169.26 328.063 169.17 328.257C169.081 328.45 169.028 328.654 169.014 328.855C169 329.056 169.025 329.251 169.089 329.429C169.153 329.607 169.254 329.765 169.386 329.893Z" fill="#E55B55"/>
<path d="M271.682 279.261C274.222 279.074 276.235 279.977 277.722 281.971C275.495 282.224 273.892 283.341 272.912 285.321C272.84 285.467 272.733 285.593 272.6 285.688C272.467 285.783 272.313 285.843 272.151 285.862C271.989 285.882 271.825 285.861 271.673 285.802C271.521 285.742 271.387 285.645 271.282 285.521C270.255 284.314 270.065 283.221 270.712 282.241C271.318 281.334 271.642 280.341 271.682 279.261Z" fill="#CE413E"/>
<path d="M281.682 283.761C283.502 283.541 285.098 284.027 286.472 285.221C285.372 287.101 284.005 288.747 282.372 290.161C280.805 291.507 280.075 290.944 280.182 288.471C280.255 286.751 280.755 285.181 281.682 283.761Z" fill="#CE413E"/>
<path d="M193.281 311.721C192.801 311.394 192.541 310.874 192.501 310.161C192.075 302.514 192.045 294.867 192.411 287.221C192.424 286.869 192.553 286.553 192.771 286.341C193.485 285.627 194.115 285.637 194.661 286.371C195.243 287.139 195.537 288.088 195.491 289.051C195.205 294.831 195.091 300.221 195.151 305.221C195.178 307.221 195.001 309.204 194.621 311.171C194.593 311.311 194.531 311.443 194.44 311.553C194.348 311.664 194.231 311.75 194.099 311.805C193.966 311.859 193.822 311.88 193.68 311.865C193.537 311.851 193.4 311.801 193.281 311.721Z" fill="#FB9684"/>
<path d="M256.702 294.741C256.957 294.387 257.299 294.114 257.692 293.951C258.852 293.471 259.112 293.934 258.472 295.341C256.105 300.567 253.288 305.534 250.022 310.241C249.975 310.301 249.185 311.534 247.652 313.941C246.532 315.694 245.188 317.267 243.622 318.661C242.555 319.601 242.075 319.454 242.182 318.221C242.268 317.214 242.575 316.271 243.102 315.391C247.095 308.724 251.628 301.841 256.702 294.741Z" fill="#CE413E"/>
<path d="M149.372 311.781C144.825 306.387 140.689 300.714 136.962 294.761C136.562 294.121 136.712 293.937 137.412 294.211C138.798 294.751 139.952 295.607 140.872 296.781C143.232 299.774 145.522 302.817 147.742 305.911C148.828 307.431 149.682 309.074 150.302 310.841C150.402 311.121 150.415 311.377 150.342 311.611C150.142 312.257 149.818 312.314 149.372 311.781Z" fill="#CF4945"/>
<path d="M134.663 309.988C137.411 313.609 139.92 316.33 140.268 316.066C140.615 315.802 138.669 312.654 135.921 309.033C133.173 305.413 130.664 302.691 130.316 302.955C129.969 303.219 131.915 306.368 134.663 309.988Z" fill="#CF4945"/>
<path d="M266.921 303.243L266.887 303.222C266.417 302.932 265.801 303.078 265.511 303.548L257.177 317.042C256.886 317.512 257.032 318.128 257.502 318.418L257.536 318.439C258.006 318.729 258.622 318.583 258.912 318.114L267.246 304.62C267.537 304.15 267.391 303.534 266.921 303.243Z" fill="#CF4945"/>
<path d="M228.502 328.331C227.828 327.537 228.035 326.647 229.122 325.661C230.668 324.254 231.688 324.357 232.182 325.971C232.862 328.211 232.295 329.287 230.482 329.201C229.615 329.154 228.955 328.864 228.502 328.331Z" fill="#C54E3A"/>
<path d="M169.536 327.726C168.898 328.385 168.831 329.355 169.386 329.893C169.942 330.431 170.909 330.333 171.547 329.675C172.185 329.017 172.252 328.047 171.697 327.509C171.142 326.97 170.174 327.068 169.536 327.726Z" fill="#B93334"/>
</svg>
