<svg width="400" height="400" viewBox="0 0 400 400" fill="none" xmlns="http://www.w3.org/2000/svg">
<rect width="400" height="400" rx="32" fill="#3E3636"/>
<path d="M89.2017 283.821C94.6883 290.714 100.515 297.264 106.682 303.471C106.801 303.589 106.951 303.67 107.115 303.704C107.278 303.737 107.448 303.723 107.602 303.661C115.268 300.594 122.975 297.651 130.722 294.831C133.615 293.771 135.018 294.817 134.932 297.971C134.852 300.831 134.872 309.307 134.992 323.401C134.991 323.557 135.035 323.71 135.117 323.838C135.199 323.966 135.315 324.065 135.452 324.121L153.692 331.741C153.778 331.777 153.873 331.791 153.966 331.781C154.059 331.771 154.149 331.738 154.227 331.685C154.306 331.631 154.37 331.559 154.414 331.475C154.458 331.39 154.482 331.296 154.482 331.201C154.828 312.527 154.815 294.034 154.442 275.721C154.439 275.562 154.391 275.411 154.304 275.29C154.217 275.169 154.097 275.085 153.962 275.051L147.172 273.221C146.959 273.163 146.759 273.063 146.587 272.928C146.415 272.793 146.274 272.626 146.174 272.438C146.075 272.25 146.018 272.045 146.009 271.839C146 271.632 146.038 271.428 146.122 271.241C148.782 265.201 152.082 259.401 156.022 253.841C157.182 252.201 158.922 251.891 161.242 252.911C164.608 254.384 168.002 255.874 171.422 257.381" stroke="#FEC8A3" stroke-width="2"/>
<path d="M171.422 257.381L184.642 263.721" stroke="#FEDDD5" stroke-width="2"/>
<path d="M184.642 263.721C186.368 274.214 188.402 282.944 190.742 289.911C192.668 295.644 195.755 302.127 200.002 309.361" stroke="#FAC1BB" stroke-width="2"/>
<path d="M200.002 309.361C199.355 318.294 199.158 327.201 199.412 336.081C199.412 336.134 199.395 336.557 199.362 337.351C199.308 338.637 199.925 339.071 201.212 338.651C201.518 338.551 201.842 338.511 202.182 338.531C202.695 338.564 203.185 338.504 203.652 338.351C203.789 338.304 203.908 338.213 203.992 338.089C204.077 337.965 204.122 337.815 204.122 337.661C204.195 329.767 204.215 321.871 204.182 313.971C204.175 311.817 203.912 310.067 203.392 308.721" stroke="#FBC5A1" stroke-width="2"/>
<path d="M203.392 308.721L203.722 308.221" stroke="#FAC1BB" stroke-width="2"/>
<path d="M203.722 308.221C207.082 303.587 209.718 298.567 211.632 293.161C214.958 283.801 216.875 274.437 217.382 265.071C217.462 263.691 218.162 262.681 219.482 262.041L234.432 254.761" stroke="#FEDDD5" stroke-width="2"/>
<path d="M234.432 254.761L239.942 252.901C240.395 252.747 240.88 252.736 241.328 252.869C241.776 253.003 242.163 253.273 242.432 253.641C246.985 259.861 250.828 266.154 253.962 272.521C254.032 272.667 254.066 272.825 254.061 272.981C254.056 273.137 254.011 273.285 253.932 273.411C253.185 274.584 252.038 275.151 250.492 275.111C248.338 275.064 247.348 275.907 247.522 277.641C247.628 278.674 247.682 279.231 247.682 279.311C247.762 296.511 247.702 313.664 247.502 330.771C247.501 330.852 247.521 330.933 247.558 331.005C247.595 331.077 247.649 331.139 247.714 331.185C247.78 331.23 247.855 331.259 247.933 331.267C248.011 331.275 248.09 331.262 248.162 331.231L266.762 323.081C267.035 322.962 267.268 322.76 267.432 322.499C267.595 322.237 267.682 321.929 267.682 321.611C267.682 315.451 267.682 309.457 267.682 303.631C267.682 300.857 267.688 299.421 267.702 299.321C267.988 297.061 269.215 296.004 271.382 296.151C272.308 296.211 273.965 296.734 276.352 297.721C281.305 299.761 286.338 301.797 291.452 303.831C291.637 303.903 291.839 303.919 292.034 303.878C292.229 303.837 292.409 303.741 292.552 303.601C299.592 296.574 306.122 288.957 312.142 280.751" stroke="#FEC8A3" stroke-width="2"/>
<path d="M312.142 280.751C320.408 269.364 326.568 257.084 330.622 243.911C340.728 211.011 339.695 178.867 327.522 147.481C325.055 141.141 322.192 135.131 318.932 129.451C306.585 107.971 289.505 90.9041 267.692 78.2508C248.512 67.1174 227.092 61.1074 203.432 60.2207C187.038 59.6074 171.288 61.8574 156.182 66.9707C130.855 75.5441 109.888 90.0741 93.2816 110.561C89.1216 115.681 85.3416 121.164 81.9416 127.011C67.0549 152.604 60.6349 180.507 62.6816 210.721C64.5016 237.587 73.3416 261.954 89.2016 283.821" stroke="#DFD6DE" stroke-width="2"/>
<path d="M312.142 280.751C308.735 279.377 306.189 277.297 304.502 274.511C303.322 272.564 303.012 270.617 303.572 268.671C304.172 266.577 305.469 264.851 307.462 263.491C310.455 261.457 312.878 258.951 314.732 255.971C316.098 253.777 316.888 251.621 317.102 249.501C317.342 247.067 316.952 244.724 315.932 242.471C314.872 240.131 313.399 237.997 311.512 236.071C311.125 235.684 309.092 234.124 305.412 231.391C303.758 230.164 302.215 228.811 300.782 227.331C299.515 226.031 298.828 224.741 298.722 223.461C298.568 221.647 299.242 220.171 300.742 219.031C306.282 214.844 309.512 209.707 310.432 203.621C310.999 199.934 310.592 196.574 309.212 193.541C307.732 190.274 305.338 187.624 302.032 185.591C297.338 182.717 292.669 179.797 288.022 176.831C280.769 172.211 277.075 165.844 276.942 157.731C276.909 155.744 277.289 152.931 278.082 149.291C278.682 146.517 279.295 143.744 279.922 140.971C281.095 135.771 281.475 130.517 281.062 125.211C280.262 115.051 276.422 106.271 269.542 98.8707C263.555 92.4307 256.102 89.1341 247.182 88.9807C246.189 88.9607 245.235 88.9574 244.322 88.9707C244.191 88.971 244.061 88.9424 243.944 88.887C243.826 88.8317 243.723 88.7509 243.642 88.6507C238.609 82.6307 232.742 78.3107 226.042 75.6907C221.208 73.804 214.855 72.9074 206.982 73.0007C193.535 73.1607 180.425 75.2907 167.652 79.3907C160.559 81.664 154.485 84.374 149.432 87.5207C134.485 96.8274 124.472 110.374 119.392 128.161C116.932 136.761 116.635 145.397 118.502 154.071C118.515 154.111 118.905 155.487 119.672 158.201C121.005 162.894 120.705 167.351 118.772 171.571C117.765 173.777 116.219 175.791 114.132 177.611C112.499 179.037 110.452 180.594 107.992 182.281C103.219 185.561 100.219 187.894 98.9918 189.281C95.9052 192.787 94.3852 196.684 94.4318 200.971C94.5052 207.304 97.1185 212.521 102.272 216.621C104.699 218.547 106.085 219.914 106.432 220.721C107.312 222.774 107.209 224.754 106.122 226.661C105.642 227.501 104.095 228.871 101.482 230.771C99.2752 232.384 97.2052 234.151 95.2718 236.071C93.0518 238.271 91.4618 240.444 90.5018 242.591C87.6752 248.911 88.9452 254.831 94.3118 260.351C95.5452 261.624 96.8485 262.821 98.2218 263.941C102.195 267.181 103.109 270.464 100.962 273.791C100.275 274.857 98.3618 276.571 95.2218 278.931C93.1552 280.484 91.1485 282.114 89.2018 283.821" stroke="#DFA083" stroke-width="2"/>
<path d="M234.432 254.761C233.345 252.647 233.025 250.384 233.472 247.971" stroke="#FDA77A" stroke-width="2"/>
<path d="M233.472 247.971C242.265 244.691 248.648 238.827 252.622 230.381" stroke="#E1743E" stroke-width="2"/>
<path d="M252.622 230.381C253.755 229.974 255.015 229.557 256.402 229.131C258.055 228.624 257.918 227.957 255.992 227.131" stroke="#F9C095" stroke-width="2"/>
<path d="M255.992 227.131C258.878 225.091 261.832 223.121 264.852 221.221C266.845 219.961 268.248 218.631 269.062 217.231C270.582 214.604 271.348 211.654 271.362 208.381" stroke="#E1743E" stroke-width="2"/>
<path d="M271.362 208.381C271.762 208.814 272.452 209.177 273.432 209.471C275.172 209.984 275.655 209.564 274.882 208.211C274.708 207.904 274.615 207.594 274.602 207.281C274.302 201.747 272.098 197.121 267.992 193.401" stroke="#FC9C52" stroke-width="2"/>
<path d="M267.992 193.401C266.145 189.727 263.122 187.914 258.922 187.961C258.591 187.961 258.278 187.859 258.032 187.671L257.182 187.011" stroke="#E1743E" stroke-width="2"/>
<path d="M257.182 187.011C256.382 186.724 255.895 187.127 255.722 188.221" stroke="#F9C095" stroke-width="2"/>
<path d="M255.722 188.221C254.962 186.061 254.758 183.611 255.112 180.871" stroke="#E1743E" stroke-width="2"/>
<path d="M255.112 180.871L257.332 182.621C257.453 182.714 257.598 182.777 257.756 182.804C257.914 182.832 258.08 182.824 258.242 182.781C265.002 180.974 267.765 176.464 266.532 169.251C265.432 162.851 261.622 159.591 255.102 159.471C254.889 159.468 254.684 159.395 254.517 159.263C254.351 159.131 254.233 158.947 254.182 158.741C253.389 155.414 252.319 152.191 250.972 149.071C249.759 146.244 249.135 144.791 249.102 144.711C244.155 132.644 238.492 120.911 232.112 109.511C231.352 108.157 230.412 108.021 229.292 109.101C220.845 117.301 211.059 123.507 199.932 127.721C194.079 129.941 186.712 131.824 177.832 133.371C177.772 133.377 175.332 133.687 170.512 134.301C167.705 134.654 164.409 135.274 160.622 136.161C152.509 138.054 148.279 143.071 147.932 151.211C147.792 154.551 147.592 157.891 147.332 161.231C147.212 162.797 146.745 163.114 145.932 162.181C145.685 161.894 145.429 161.704 145.162 161.611C142.582 160.671 140.149 160.624 137.862 161.471C135.762 162.251 134.092 163.737 132.852 165.931C131.705 167.971 131.075 170.234 130.962 172.721C130.715 178.381 133.489 181.931 139.282 183.371C139.431 183.407 139.588 183.406 139.737 183.365C139.885 183.325 140.021 183.248 140.132 183.141C141.532 181.794 143.142 180.791 144.962 180.131C145.097 180.081 145.245 180.081 145.378 180.131C145.51 180.181 145.619 180.277 145.682 180.401C146.269 181.487 146.422 182.677 146.142 183.971" stroke="#FDA87C" stroke-width="2"/>
<path d="M146.142 183.971C144.795 184.197 143.808 184.804 143.182 185.791" stroke="#E3753C" stroke-width="2"/>
<path d="M143.182 185.791C142.815 184.324 142.305 183.981 141.652 184.761C141.559 184.872 141.44 184.96 141.304 185.018C141.169 185.075 141.021 185.1 140.872 185.091C139.925 185.024 139.485 185.461 139.552 186.401C139.571 186.772 139.512 187.103 139.382 187.351C136.628 192.624 134.668 198.174 133.502 204.001C133.428 204.361 133.248 204.757 132.962 205.191C132.415 206.024 132.572 206.517 133.432 206.671C133.569 206.697 133.694 206.765 133.787 206.864C133.879 206.964 133.934 207.089 133.942 207.221C134.002 208.467 134.395 209.554 135.122 210.481" stroke="#FC9B5F" stroke-width="2"/>
<path d="M135.122 210.481C135.902 215.201 137.735 219.384 140.622 223.031C142.262 225.104 144.435 226.167 147.142 226.221" stroke="#E3753C" stroke-width="2"/>
<path d="M147.142 226.221C148.875 229.961 151.292 230.461 154.392 227.721" stroke="#F9C095" stroke-width="2"/>
<path d="M154.392 227.721C156.278 232.761 158.395 237.074 160.742 240.661C163.135 244.301 166.602 246.737 171.142 247.971" stroke="#E3753C" stroke-width="2"/>
<path d="M171.142 247.971C171.668 251.011 171.762 254.147 171.422 257.381" stroke="#FDA77A" stroke-width="2"/>
<path d="M257.182 187.011C254.022 197.324 251.315 207.754 249.062 218.301C248.548 220.687 248.505 222.494 248.932 223.721C250.118 227.141 252.472 228.277 255.992 227.131" stroke="#DDA38B" stroke-width="2"/>
<path d="M255.722 188.221C251.282 199.267 248.268 209.851 246.682 219.971C245.942 224.691 247.922 228.161 252.622 230.381" stroke="#DDA38B" stroke-width="2"/>
<path d="M233.472 247.971L233.142 222.441" stroke="#E18A6F" stroke-width="2"/>
<path d="M233.142 222.441C233.395 221.641 233.242 220.997 232.682 220.511" stroke="#DD6F58" stroke-width="2"/>
<path d="M203.722 308.221C202.128 304.261 200.968 301.574 200.242 300.161C197.802 295.401 196.012 290.411 194.872 285.191C194.405 283.064 194.342 280.491 194.682 277.471C195.128 273.477 193.982 269.791 191.242 266.411C189.788 264.611 187.588 263.714 184.642 263.721" stroke="#F9A091" stroke-width="2"/>
<path d="M255.112 180.871C253.665 184.851 252.225 188.804 250.792 192.731C248.978 197.691 247.285 201.534 245.712 204.261C242.225 210.301 237.882 215.717 232.682 220.511" stroke="#E18B71" stroke-width="2"/>
<path d="M232.682 220.511C227.795 224.184 223.775 226.817 220.622 228.411C202.335 237.617 185.832 235.251 171.112 221.311" stroke="#F9A296" stroke-width="2"/>
<path d="M171.112 221.311C167.299 217.891 164.175 214.674 161.742 211.661C157.195 206.014 153.695 199.431 151.242 191.911C149.769 187.384 148.999 183.351 148.932 179.811C148.932 179.544 148.899 179.324 148.832 179.151C148.565 178.464 148.265 178.571 147.932 179.471C147.465 180.724 147.619 183.974 148.392 189.221" stroke="#E38B6F" stroke-width="2"/>
<path d="M148.392 189.221L146.642 190.221" stroke="#F9D6C9" stroke-width="2"/>
<path d="M146.642 190.221L146.142 183.971" stroke="#E38B6F" stroke-width="2"/>
<path d="M267.992 193.401C270.305 198.294 271.428 203.287 271.362 208.381" stroke="#E07F48" stroke-width="2"/>
<path d="M171.112 221.311C170.425 222.477 170.389 223.254 171.002 223.641" stroke="#DE6F56" stroke-width="2"/>
<path d="M171.002 223.641L171.142 247.971" stroke="#E38A6D" stroke-width="2"/>
<path d="M154.392 227.721C155.472 223.647 155.498 219.561 154.472 215.461C152.278 206.754 150.252 198.007 148.392 189.221" stroke="#DEA389" stroke-width="2"/>
<path d="M146.642 190.221C148.595 200.214 150.192 207.714 151.432 212.721C152.365 216.507 152.865 220.141 152.932 223.621C152.952 224.754 152.772 225.614 152.392 226.201C151.672 227.334 150.602 227.424 149.182 226.471C148.435 225.971 147.755 225.887 147.142 226.221" stroke="#DEA389" stroke-width="2"/>
<path d="M135.122 210.481C136.055 201.714 138.742 193.484 143.182 185.791" stroke="#E17F52" stroke-width="2"/>
<path d="M233.142 222.441C232.415 224.327 231.442 226.014 230.222 227.501C227.929 230.281 225.502 232.941 222.942 235.481C218.995 239.414 214.495 242.211 209.442 243.871C204.202 245.597 199.149 245.901 194.282 244.781C189.042 243.574 184.492 240.824 180.632 236.531C178.625 234.297 176.639 232.044 174.672 229.771C173.872 228.844 173.195 227.861 172.642 226.821C172.082 225.774 171.535 224.714 171.002 223.641" stroke="#F9A194" stroke-width="2"/>
<path d="M203.392 308.721C202.445 309.387 201.315 309.601 200.002 309.361" stroke="#F7885E" stroke-width="2"/>
<path d="M88.0837 164.516C88.586 164.724 89.1439 164.784 89.7254 164.692C90.307 164.601 90.9009 164.36 91.4732 163.983C92.0455 163.605 92.585 163.1 93.0609 162.495C93.5368 161.889 93.9398 161.196 94.2468 160.455C94.5539 159.714 94.759 158.939 94.8504 158.174C94.9419 157.41 94.9179 156.671 94.7799 155.999C94.6418 155.328 94.3924 154.738 94.0459 154.262C93.6993 153.786 93.2624 153.434 92.7601 153.226C92.2578 153.018 91.7 152.958 91.1184 153.049C90.5369 153.141 89.943 153.382 89.3707 153.759C88.7984 154.136 88.2589 154.642 87.783 155.247C87.3071 155.852 86.9041 156.545 86.597 157.286C86.29 158.028 86.0849 158.803 85.9934 159.567C85.9019 160.332 85.9259 161.071 86.064 161.742C86.202 162.413 86.4514 163.004 86.798 163.48C87.1445 163.956 87.5814 164.308 88.0837 164.516Z" stroke="#A69BB2" stroke-width="2"/>
<path d="M302.733 172.469C303.794 172.916 305.032 172.82 306.174 172.203C307.316 171.587 308.269 170.5 308.823 169.182C309.377 167.865 309.486 166.424 309.128 165.176C308.769 163.929 307.972 162.978 306.911 162.532C305.849 162.086 304.612 162.182 303.47 162.798C302.328 163.414 301.375 164.501 300.821 165.819C300.267 167.137 300.157 168.578 300.516 169.825C300.875 171.072 301.672 172.023 302.733 172.469Z" stroke="#A69BB2" stroke-width="2"/>
<path d="M131.112 131.671C130.392 132.651 130.559 132.834 131.612 132.221C138.065 128.427 144.902 125.364 152.122 123.031C154.169 122.371 156.002 121.331 157.622 119.911C162.235 115.837 166.899 111.831 171.612 107.891C174.219 105.711 176.432 104.161 178.252 103.241C180.679 102.014 183.239 101.091 185.932 100.471C188.112 99.9707 189.509 99.3674 190.122 98.6607C190.662 98.034 190.432 97.8107 189.432 97.9907C188.685 98.1174 187.952 98.3074 187.232 98.5607C186.398 98.8474 185.679 99.0507 185.072 99.1707C178.585 100.424 172.959 103.361 168.192 107.981C162.039 113.927 158.432 117.487 157.372 118.661C155.785 120.401 154.452 121.401 153.372 121.661C147.199 123.134 141.255 125.244 135.542 127.991C133.755 128.851 132.279 130.077 131.112 131.671Z" stroke="#FC9B5F" stroke-width="2"/>
<path d="M253.772 109.081C257.912 116.314 261.422 123.834 264.302 131.641C264.449 132.034 264.629 132.347 264.842 132.581C265.509 133.301 265.932 133.204 266.112 132.291C266.179 131.957 266.139 131.584 265.992 131.171C263.399 123.704 259.979 116.354 255.732 109.121C255.578 108.859 255.363 108.639 255.105 108.48C254.847 108.321 254.554 108.229 254.252 108.211C253.572 108.164 253.412 108.454 253.772 109.081Z" stroke="#FAAF79" stroke-width="2"/>
<path d="M244.542 112.891C249.529 123.357 253.999 134.041 257.952 144.941C258.065 145.261 258.119 145.251 258.112 144.911C258.059 141.931 257.395 138.804 256.122 135.531C252.735 126.851 249.259 119.181 245.692 112.521C245.552 112.261 245.399 112.037 245.232 111.851C244.392 110.931 244.075 111.031 244.282 112.151C244.329 112.377 244.415 112.624 244.542 112.891Z" stroke="#FAA970" stroke-width="2"/>
<path d="M171.991 130.661C171.365 130.534 170.738 130.467 170.111 130.461C164.745 130.387 159.482 130.934 154.322 132.101C147.908 133.547 143.108 135.581 139.921 138.201C134.835 142.387 132.461 148.391 132.801 156.211C132.881 158.037 133.211 158.241 133.791 156.821C133.885 156.601 133.931 156.354 133.931 156.081C133.918 149.661 135.995 144.474 140.162 140.521C142.408 138.394 145.535 136.664 149.541 135.331C152.995 134.184 156.531 133.387 160.151 132.941C162.018 132.714 163.971 132.401 166.011 132.001C167.965 131.621 169.938 131.361 171.931 131.221C173.351 131.121 173.371 130.934 171.991 130.661Z" stroke="#FAA970" stroke-width="2"/>
<path d="M128.322 212.301C123.782 218.261 119.685 224.511 116.032 231.051C111.905 238.437 111.642 245.974 115.242 253.661C117.442 258.354 119.068 262.681 120.122 266.641C120.502 268.074 120.812 270.491 121.052 273.891C121.225 276.337 121.585 278.764 122.132 281.171C122.212 281.517 122.302 281.521 122.402 281.181C122.922 279.334 122.932 276.931 122.432 273.971C121.098 266.064 119.128 259.517 116.522 254.331C113.555 248.431 112.902 242.547 114.562 236.681C115.208 234.401 116.862 231.334 119.522 227.481C123.088 222.321 126.475 217.041 129.682 211.641C129.719 211.577 129.744 211.506 129.755 211.434C129.766 211.362 129.762 211.29 129.745 211.225C129.728 211.159 129.697 211.101 129.655 211.056C129.612 211.01 129.56 210.977 129.502 210.961C129.215 210.881 128.978 211.044 128.792 211.451C128.592 211.864 128.435 212.147 128.322 212.301Z" stroke="#F78241" stroke-width="2"/>
<path d="M274.622 238.411C272.988 243.997 272.455 249.274 273.022 254.241C273.268 256.394 273.485 258.551 273.672 260.711C273.905 263.431 273.665 265.554 272.952 267.081C271.778 269.561 269.802 271.397 267.022 272.591C265.602 273.197 265.532 273.564 266.812 273.691C267.052 273.717 267.295 273.684 267.542 273.591C273.882 271.224 276.512 266.684 275.432 259.971C274.118 251.837 274.168 244.414 275.582 237.701C275.675 237.247 275.555 237.144 275.222 237.391C274.962 237.577 274.762 237.917 274.622 238.411Z" stroke="#F9A367" stroke-width="2"/>
<path d="M132.572 276.761C132.605 276.101 132.579 275.424 132.492 274.731L128.422 241.271C128.383 240.926 128.253 240.621 128.052 240.401C127.272 239.561 126.949 239.914 127.082 241.461C128.142 253.674 129.555 265.847 131.322 277.981C131.429 278.707 131.599 279.167 131.832 279.361C132.219 279.694 132.465 278.827 132.572 276.761Z" stroke="#F9A367" stroke-width="2"/>
<path d="M112.362 269.271C112.409 269.478 112.401 269.716 112.337 269.97C112.273 270.223 112.155 270.486 111.992 270.741C111.132 272.081 111.095 272.451 111.882 271.851C112.042 271.724 112.165 271.567 112.252 271.381C113.012 269.687 113.008 267.864 112.242 265.911C112.122 265.597 111.988 265.407 111.842 265.341C111.568 265.227 111.488 265.414 111.602 265.901L112.362 269.271Z" stroke="#F0813F" stroke-width="2"/>
<path d="M103.422 281.181C102.128 283.014 100.932 284.911 99.8317 286.871C99.7717 286.984 99.7351 287.101 99.7217 287.221C99.6751 287.821 99.8651 287.784 100.292 287.111C101.692 284.924 103.048 282.711 104.362 280.471C104.608 280.051 104.532 279.944 104.132 280.151C103.958 280.244 103.825 280.387 103.732 280.581C103.558 280.941 103.455 281.141 103.422 281.181Z" stroke="#F78241" stroke-width="2"/>
<path d="M218.341 144.461C219.601 144.881 221.298 145.134 223.431 145.221C230.471 145.507 237.078 147.321 243.252 150.661C244.645 151.414 245.065 151.051 244.512 149.571C243.345 146.464 240.891 144.177 237.151 142.711C232.018 140.697 226.718 139.417 221.252 138.871C219.725 138.724 218.565 138.921 217.772 139.461C216.378 140.421 216.315 141.887 217.582 143.861C217.763 144.145 218.031 144.357 218.341 144.461Z" stroke="#906B6A" stroke-width="2"/>
<path d="M181.752 139.621C173.658 139.021 166.342 141.101 159.802 145.861C157.735 147.367 156.292 149.277 155.472 151.591C155.125 152.591 155.438 152.887 156.412 152.481C157.598 151.981 158.728 151.394 159.802 150.721C161.522 149.647 162.612 149.004 163.072 148.791C166.265 147.284 169.635 146.357 173.182 146.011C175.422 145.791 177.658 145.564 179.892 145.331C181.338 145.184 182.362 144.757 182.962 144.051C183.962 142.871 183.835 141.531 182.582 140.031C182.376 139.793 182.078 139.646 181.752 139.621Z" stroke="#8B6865" stroke-width="2"/>
<path d="M214.121 144.851C209.468 145.291 206.255 147.837 204.481 152.491" stroke="#FBA696" stroke-width="2"/>
<path d="M204.482 152.491C202.442 162.197 202.508 171.441 204.682 180.221C205.342 182.894 204.745 184.894 202.892 186.221" stroke="#F49F92" stroke-width="2"/>
<path d="M202.892 186.221L197.042 188.401C196.582 188.574 196.585 188.744 197.052 188.911C199.878 189.964 202.722 190.621 205.582 190.881C208.895 191.181 211.668 190.634 213.902 189.241C218.068 186.627 218.662 182.537 215.682 176.971C213.795 173.444 212.698 170.277 212.392 167.471" stroke="#FBA696" stroke-width="2"/>
<path d="M212.392 167.471C212.605 166.911 213.052 166.694 213.732 166.821" stroke="#FDB6A7" stroke-width="2"/>
<path d="M213.731 166.821C217.885 164.147 221.645 160.977 225.011 157.311" stroke="#EE9583" stroke-width="2"/>
<path d="M225.012 157.311C224.465 161.284 226.025 163.344 229.692 163.491C232.345 163.591 233.592 162.417 233.432 159.971C233.325 158.344 233.352 157.201 233.512 156.541" stroke="#BE786C" stroke-width="2"/>
<path d="M233.512 156.541C237.005 157.694 239.998 159.401 242.492 161.661C242.992 162.107 243.485 162.274 243.972 162.161C244.03 162.147 244.084 162.119 244.128 162.078C244.172 162.036 244.206 161.983 244.227 161.923C244.247 161.863 244.254 161.797 244.246 161.73C244.238 161.664 244.216 161.599 244.182 161.541C243.108 159.781 241.775 158.244 240.182 156.931" stroke="#EE9583" stroke-width="2"/>
<path d="M240.182 156.931C241.428 156.144 241.822 155.094 241.362 153.781C241.042 152.874 240.755 151.954 240.502 151.021C240.458 150.866 240.384 150.724 240.286 150.601C240.188 150.479 240.067 150.38 239.932 150.311C235.945 148.317 232.758 147.224 230.372 147.031C227.138 146.771 223.512 146.467 219.492 146.121C218.978 146.074 218.498 145.927 218.052 145.681C216.712 144.934 215.402 144.657 214.122 144.851" stroke="#FDB6A7" stroke-width="2"/>
<path d="M240.181 156.931C235.361 153.937 230.091 152.591 224.371 152.891C222.045 153.011 220.128 154.184 218.621 156.411C216.175 160.017 214.545 163.487 213.731 166.821" stroke="#EE8D7B" stroke-width="2"/>
<path d="M212.392 167.471C211.838 165.717 211.725 163.964 212.052 162.211C212.418 160.244 212.602 159.237 212.602 159.191C213.128 154.517 213.635 149.737 214.122 144.851" stroke="#FB9E8E" stroke-width="2"/>
<path d="M233.512 156.541C230.478 154.034 227.645 154.291 225.012 157.311" stroke="#AF4F40" stroke-width="2"/>
<path d="M202.892 186.221C204.258 186.447 205.245 186.101 205.852 185.181C206.198 184.654 206.375 183.767 206.382 182.521C206.455 172.441 205.822 162.431 204.482 152.491" stroke="#F28779" stroke-width="2"/>
<path d="M166.932 159.261C166.745 160.941 167.135 162.254 168.102 163.201C168.988 164.061 170.142 164.324 171.562 163.991C174.555 163.297 175.748 161.041 175.142 157.221" stroke="#B2796D" stroke-width="2"/>
<path d="M175.142 157.221C177.202 157.654 179.098 158.454 180.832 159.621C181.092 159.794 181.302 160.044 181.462 160.371C182.122 161.724 182.582 161.774 182.842 160.521C182.915 160.167 182.915 159.797 182.842 159.411C182.168 155.684 179.782 153.621 175.682 153.221C167.168 152.394 161.478 155.881 158.612 163.681C158.205 164.794 158.485 165.021 159.452 164.361L166.932 159.261" stroke="#E18675" stroke-width="2"/>
<path d="M175.142 157.221C174.615 156.261 173.692 155.907 172.372 156.161C169.898 156.621 168.085 157.654 166.932 159.261" stroke="#964132" stroke-width="2"/>
<path d="M254.992 177.661C256.338 179.061 257.902 179.164 259.682 177.971C261.168 176.971 262.222 175.787 262.842 174.421C263.468 173.021 263.528 171.537 263.022 169.971C262.242 167.504 260.378 165.927 257.432 165.241C256.018 164.907 254.898 165.337 254.072 166.531C251.338 170.471 251.645 174.181 254.992 177.661Z" stroke="#F9A193" stroke-width="2"/>
<path d="M140.101 177.799C140.73 177.911 141.376 177.888 142.002 177.732C142.629 177.576 143.224 177.289 143.754 176.888C144.284 176.487 144.738 175.98 145.09 175.396C145.442 174.812 145.686 174.162 145.807 173.483C146.051 172.112 145.781 170.708 145.056 169.579C144.332 168.449 143.212 167.688 141.943 167.462C141.314 167.35 140.668 167.373 140.041 167.529C139.415 167.686 138.819 167.972 138.29 168.373C137.76 168.774 137.306 169.281 136.954 169.865C136.602 170.45 136.358 171.1 136.237 171.778C135.993 173.149 136.263 174.554 136.988 175.683C137.712 176.812 138.832 177.573 140.101 177.799Z" stroke="#FCAA9A" stroke-width="2"/>
<path d="M226.672 190.471C230.312 193.484 234.399 194.317 238.932 192.971C244.759 191.237 248.105 187.311 248.972 181.191C249.212 179.491 248.635 177.481 247.242 175.161C244.175 170.041 239.825 167.767 234.192 168.341C227.759 169.001 223.909 172.474 222.642 178.761C221.682 183.547 223.025 187.451 226.672 190.471Z" stroke="#FCA694" stroke-width="2"/>
<path d="M179.7 181.045C179.378 177.767 177.71 174.756 175.062 172.675C172.414 170.595 169.003 169.614 165.58 169.95C163.884 170.116 162.237 170.6 160.732 171.375C159.227 172.15 157.893 173.2 156.807 174.465C155.721 175.731 154.904 177.187 154.402 178.75C153.901 180.313 153.724 181.953 153.883 183.576C154.205 186.855 155.873 189.865 158.521 191.946C161.169 194.027 164.58 195.007 168.004 194.671C169.699 194.505 171.346 194.021 172.851 193.246C174.356 192.471 175.69 191.421 176.776 190.156C177.862 188.891 178.679 187.435 179.181 185.872C179.683 184.308 179.859 182.668 179.7 181.045Z" stroke="#FCA694" stroke-width="2"/>
<path d="M185.162 199.931C187.875 204.257 191.318 207.381 195.492 209.301C199.632 211.207 204.015 211.711 208.642 210.811C215.255 209.531 220.225 205.531 223.552 198.811" stroke="#F3978B" stroke-width="2"/>
<path d="M223.552 198.811C210.432 198.784 197.635 199.157 185.162 199.931" stroke="#FDDED6" stroke-width="2"/>
<path d="M223.552 198.811C220.765 201.764 217.818 204.241 214.712 206.241C209.245 209.767 203.422 210.407 197.242 208.161C193.862 206.927 189.835 204.184 185.162 199.931" stroke="#F3B7B2" stroke-width="2"/>
<path d="M312.142 280.751C308.735 279.377 306.188 277.297 304.502 274.511C303.322 272.564 303.012 270.617 303.572 268.671C304.172 266.577 305.468 264.851 307.462 263.491C310.455 261.457 312.878 258.951 314.732 255.971C316.098 253.777 316.888 251.621 317.102 249.501C317.342 247.067 316.952 244.724 315.932 242.471C314.872 240.131 313.398 237.997 311.512 236.071C311.125 235.684 309.092 234.124 305.412 231.391C303.758 230.164 302.215 228.811 300.782 227.331C299.515 226.031 298.828 224.741 298.722 223.461C298.568 221.647 299.242 220.171 300.742 219.031C306.282 214.844 309.512 209.707 310.432 203.621C310.998 199.934 310.592 196.574 309.212 193.541C307.732 190.274 305.338 187.624 302.032 185.591C297.338 182.717 292.668 179.797 288.022 176.831C280.768 172.211 277.075 165.844 276.942 157.731C276.908 155.744 277.288 152.931 278.082 149.291C278.682 146.517 279.295 143.744 279.922 140.971C281.095 135.771 281.475 130.517 281.062 125.211C280.262 115.051 276.422 106.271 269.542 98.8708C263.555 92.4308 256.102 89.1341 247.182 88.9807C246.188 88.9607 245.235 88.9574 244.322 88.9707C244.19 88.971 244.061 88.9424 243.944 88.887C243.826 88.8317 243.723 88.7509 243.642 88.6507C238.608 82.6307 232.742 78.3107 226.042 75.6907C221.208 73.804 214.855 72.9074 206.982 73.0008C193.535 73.1608 180.425 75.2907 167.652 79.3907C160.558 81.664 154.485 84.374 149.432 87.5207C134.485 96.8274 124.472 110.374 119.392 128.161C116.932 136.761 116.635 145.397 118.502 154.071C118.515 154.111 118.905 155.487 119.672 158.201C121.005 162.894 120.705 167.351 118.772 171.571C117.765 173.777 116.218 175.791 114.132 177.611C112.498 179.037 110.452 180.594 107.992 182.281C103.218 185.561 100.218 187.894 98.9916 189.281C95.9049 192.787 94.3849 196.684 94.4316 200.971C94.5049 207.304 97.1183 212.521 102.272 216.621C104.698 218.547 106.085 219.914 106.432 220.721C107.312 222.774 107.208 224.754 106.122 226.661C105.642 227.501 104.095 228.871 101.482 230.771C99.2749 232.384 97.2049 234.151 95.2716 236.071C93.0516 238.271 91.4616 240.444 90.5016 242.591C87.6749 248.911 88.9449 254.831 94.3116 260.351C95.5449 261.624 96.8483 262.821 98.2216 263.941C102.195 267.181 103.108 270.464 100.962 273.791C100.275 274.857 98.3616 276.571 95.2216 278.931C93.1549 280.484 91.1483 282.114 89.2016 283.821C73.3416 261.954 64.5016 237.587 62.6816 210.721C60.6349 180.507 67.0549 152.604 81.9416 127.011C85.3416 121.164 89.1216 115.681 93.2816 110.561C109.888 90.0741 130.855 75.5441 156.182 66.9707C171.288 61.8574 187.038 59.6074 203.432 60.2207C227.092 61.1074 248.512 67.1174 267.692 78.2508C289.505 90.9041 306.585 107.971 318.932 129.451C322.192 135.131 325.055 141.141 327.522 147.481C339.695 178.867 340.728 211.011 330.622 243.911C326.568 257.084 320.408 269.364 312.142 280.751ZM88.0834 164.516C88.5857 164.724 89.1436 164.784 89.7251 164.692C90.3067 164.601 90.9006 164.36 91.4729 163.983C92.0452 163.606 92.5847 163.1 93.0606 162.495C93.5365 161.889 93.9395 161.196 94.2465 160.455C94.5536 159.714 94.7587 158.939 94.8501 158.174C94.9416 157.41 94.9176 156.671 94.7796 155.999C94.6415 155.328 94.3921 154.738 94.0455 154.262C93.699 153.786 93.2621 153.434 92.7598 153.226C92.2575 153.018 91.6997 152.958 91.1181 153.049C90.5365 153.141 89.9427 153.382 89.3704 153.759C88.7981 154.136 88.2586 154.642 87.7826 155.247C87.3067 155.852 86.9038 156.545 86.5967 157.286C86.2897 158.028 86.0845 158.803 85.9931 159.567C85.9016 160.332 85.9256 161.071 86.0637 161.742C86.2017 162.413 86.4511 163.004 86.7977 163.48C87.1442 163.956 87.5811 164.308 88.0834 164.516ZM302.733 172.47C303.794 172.916 305.032 172.82 306.174 172.203C307.316 171.587 308.269 170.5 308.823 169.183C309.376 167.865 309.486 166.424 309.128 165.176C308.769 163.929 307.971 162.978 306.91 162.532C305.849 162.086 304.612 162.182 303.47 162.798C302.327 163.414 301.375 164.501 300.821 165.819C300.267 167.137 300.157 168.578 300.516 169.825C300.874 171.072 301.672 172.023 302.733 172.47Z" fill="#C0AEBD"/>
<path d="M312.142 280.751C306.122 288.957 299.592 296.574 292.552 303.601C292.409 303.741 292.229 303.838 292.034 303.878C291.839 303.919 291.637 303.903 291.452 303.831C286.339 301.797 281.305 299.761 276.352 297.721C273.965 296.734 272.309 296.211 271.382 296.151C269.215 296.004 267.989 297.061 267.702 299.321C267.689 299.421 267.682 300.857 267.682 303.631C267.682 309.457 267.682 315.451 267.682 321.611C267.682 321.929 267.596 322.237 267.432 322.499C267.269 322.76 267.036 322.962 266.762 323.081L248.162 331.231C248.09 331.262 248.012 331.275 247.934 331.267C247.855 331.259 247.78 331.23 247.715 331.185C247.649 331.139 247.595 331.077 247.558 331.005C247.521 330.933 247.502 330.852 247.502 330.771C247.702 313.664 247.762 296.511 247.682 279.311C247.682 279.231 247.629 278.674 247.522 277.641C247.349 275.907 248.339 275.064 250.492 275.111C252.038 275.151 253.185 274.584 253.932 273.411C254.011 273.285 254.056 273.137 254.061 272.981C254.066 272.825 254.032 272.667 253.962 272.521C250.829 266.154 246.985 259.861 242.432 253.641C242.163 253.273 241.776 253.003 241.328 252.869C240.881 252.736 240.395 252.747 239.942 252.901L234.432 254.761C233.345 252.647 233.025 250.384 233.472 247.971C242.265 244.691 248.649 238.827 252.622 230.381C253.755 229.974 255.015 229.557 256.402 229.131C258.055 228.624 257.919 227.957 255.992 227.131C258.879 225.091 261.832 223.121 264.852 221.221C266.845 219.961 268.249 218.631 269.062 217.231C270.582 214.604 271.348 211.654 271.362 208.381C271.762 208.814 272.452 209.177 273.432 209.471C275.172 209.984 275.655 209.564 274.882 208.211C274.709 207.904 274.615 207.594 274.602 207.281C274.302 201.747 272.099 197.121 267.992 193.401C266.145 189.727 263.122 187.914 258.922 187.961C258.591 187.961 258.279 187.859 258.032 187.671L257.182 187.011C256.382 186.724 255.895 187.127 255.722 188.221C254.962 186.061 254.758 183.611 255.112 180.871L257.332 182.621C257.453 182.714 257.598 182.777 257.756 182.804C257.914 182.832 258.08 182.824 258.242 182.781C265.002 180.974 267.765 176.464 266.532 169.251C265.432 162.851 261.622 159.591 255.102 159.471C254.889 159.468 254.684 159.395 254.517 159.263C254.351 159.131 254.233 158.947 254.182 158.741C253.389 155.414 252.318 152.191 250.972 149.071C249.758 146.244 249.135 144.791 249.102 144.711C244.155 132.644 238.492 120.911 232.112 109.511C231.352 108.157 230.412 108.021 229.292 109.101C220.845 117.301 211.059 123.507 199.932 127.721C194.079 129.941 186.712 131.824 177.832 133.371C177.772 133.377 175.332 133.687 170.512 134.301C167.705 134.654 164.409 135.274 160.622 136.161C152.509 138.054 148.279 143.071 147.932 151.211C147.792 154.551 147.592 157.891 147.332 161.231C147.212 162.797 146.745 163.114 145.932 162.181C145.685 161.894 145.429 161.704 145.162 161.611C142.582 160.671 140.148 160.624 137.862 161.471C135.762 162.251 134.092 163.737 132.852 165.931C131.705 167.971 131.075 170.234 130.962 172.721C130.715 178.381 133.489 181.931 139.282 183.371C139.431 183.407 139.588 183.406 139.737 183.365C139.885 183.325 140.021 183.248 140.132 183.141C141.532 181.794 143.142 180.791 144.962 180.131C145.097 180.081 145.245 180.081 145.378 180.131C145.51 180.181 145.619 180.277 145.682 180.401C146.269 181.487 146.422 182.677 146.142 183.971C144.795 184.197 143.809 184.804 143.182 185.791C142.815 184.324 142.305 183.981 141.652 184.761C141.559 184.872 141.44 184.96 141.304 185.018C141.169 185.075 141.021 185.1 140.872 185.091C139.925 185.024 139.485 185.461 139.552 186.401C139.571 186.772 139.512 187.103 139.382 187.351C136.629 192.624 134.669 198.174 133.502 204.001C133.429 204.361 133.249 204.757 132.962 205.191C132.415 206.024 132.572 206.517 133.432 206.671C133.57 206.697 133.694 206.765 133.787 206.864C133.879 206.964 133.934 207.089 133.942 207.221C134.002 208.467 134.395 209.554 135.122 210.481C135.902 215.201 137.735 219.384 140.622 223.031C142.262 225.104 144.435 226.167 147.142 226.221C148.875 229.961 151.292 230.461 154.392 227.721C156.278 232.761 158.395 237.074 160.742 240.661C163.135 244.301 166.602 246.737 171.142 247.971C171.668 251.011 171.762 254.147 171.422 257.381C168.002 255.874 164.609 254.384 161.242 252.911C158.922 251.891 157.182 252.201 156.022 253.841C152.082 259.401 148.782 265.201 146.122 271.241C146.039 271.428 146 271.632 146.009 271.839C146.019 272.045 146.075 272.25 146.175 272.438C146.274 272.626 146.415 272.793 146.587 272.928C146.759 273.063 146.959 273.163 147.172 273.221L153.962 275.051C154.097 275.085 154.217 275.169 154.304 275.29C154.391 275.411 154.439 275.562 154.442 275.721C154.815 294.034 154.828 312.527 154.482 331.201C154.482 331.296 154.459 331.39 154.414 331.475C154.37 331.559 154.306 331.631 154.228 331.685C154.149 331.738 154.06 331.771 153.966 331.781C153.873 331.791 153.779 331.777 153.692 331.741L135.452 324.121C135.315 324.065 135.199 323.966 135.117 323.838C135.035 323.71 134.991 323.557 134.992 323.401C134.872 309.307 134.852 300.831 134.932 297.971C135.019 294.817 133.615 293.771 130.722 294.831C122.975 297.651 115.269 300.594 107.602 303.661C107.448 303.723 107.278 303.737 107.115 303.704C106.952 303.67 106.801 303.589 106.682 303.471C100.515 297.264 94.6885 290.714 89.2018 283.821C91.1485 282.114 93.1552 280.484 95.2218 278.931C98.3618 276.571 100.275 274.857 100.962 273.791C103.109 270.464 102.195 267.181 98.2218 263.941C96.8485 262.821 95.5452 261.624 94.3118 260.351C88.9452 254.831 87.6752 248.911 90.5018 242.591C91.4618 240.444 93.0518 238.271 95.2718 236.071C97.2052 234.151 99.2752 232.384 101.482 230.771C104.095 228.871 105.642 227.501 106.122 226.661C107.209 224.754 107.312 222.774 106.432 220.721C106.085 219.914 104.699 218.547 102.272 216.621C97.1185 212.521 94.5052 207.304 94.4318 200.971C94.3852 196.684 95.9052 192.787 98.9918 189.281C100.219 187.894 103.219 185.561 107.992 182.281C110.452 180.594 112.499 179.037 114.132 177.611C116.219 175.791 117.765 173.777 118.772 171.571C120.705 167.351 121.005 162.894 119.672 158.201C118.905 155.487 118.515 154.111 118.502 154.071C116.635 145.397 116.932 136.761 119.392 128.161C124.472 110.374 134.485 96.8274 149.432 87.5207C154.485 84.374 160.559 81.664 167.652 79.3907C180.425 75.2907 193.535 73.1607 206.982 73.0007C214.855 72.9074 221.208 73.804 226.042 75.6907C232.742 78.3107 238.609 82.6307 243.642 88.6507C243.723 88.7509 243.826 88.8317 243.944 88.887C244.061 88.9424 244.191 88.971 244.322 88.9707C245.235 88.9574 246.189 88.9607 247.182 88.9807C256.102 89.1341 263.555 92.4307 269.542 98.8707C276.422 106.271 280.262 115.051 281.062 125.211C281.475 130.517 281.095 135.771 279.922 140.971C279.295 143.744 278.682 146.517 278.082 149.291C277.289 152.931 276.909 155.744 276.942 157.731C277.075 165.844 280.769 172.211 288.022 176.831C292.669 179.797 297.338 182.717 302.032 185.591C305.338 187.624 307.732 190.274 309.212 193.541C310.592 196.574 310.999 199.934 310.432 203.621C309.512 209.707 306.282 214.844 300.742 219.031C299.242 220.171 298.568 221.647 298.722 223.461C298.828 224.741 299.515 226.031 300.782 227.331C302.215 228.811 303.758 230.164 305.412 231.391C309.092 234.124 311.125 235.684 311.512 236.071C313.399 237.997 314.872 240.131 315.932 242.471C316.952 244.724 317.342 247.067 317.102 249.501C316.888 251.621 316.098 253.777 314.732 255.971C312.878 258.951 310.455 261.457 307.462 263.491C305.469 264.851 304.172 266.577 303.572 268.671C303.012 270.617 303.322 272.564 304.502 274.511C306.189 277.297 308.735 279.377 312.142 280.751ZM131.112 131.671C130.392 132.651 130.558 132.834 131.612 132.221C138.065 128.427 144.902 125.364 152.122 123.031C154.169 122.371 156.002 121.331 157.622 119.911C162.235 115.837 166.898 111.831 171.612 107.891C174.218 105.711 176.432 104.161 178.252 103.241C180.679 102.014 183.239 101.091 185.932 100.471C188.112 99.9707 189.509 99.3674 190.122 98.6607C190.662 98.034 190.432 97.8107 189.432 97.9907C188.685 98.1174 187.952 98.3074 187.232 98.5607C186.398 98.8474 185.679 99.0507 185.072 99.1707C178.585 100.424 172.959 103.361 168.192 107.981C162.039 113.927 158.432 117.487 157.372 118.661C155.785 120.401 154.452 121.401 153.372 121.661C147.199 123.134 141.255 125.244 135.542 127.991C133.755 128.851 132.278 130.077 131.112 131.671ZM253.772 109.081C257.912 116.314 261.422 123.834 264.302 131.641C264.449 132.034 264.628 132.347 264.842 132.581C265.508 133.301 265.932 133.204 266.112 132.291C266.178 131.957 266.139 131.584 265.992 131.171C263.398 123.704 259.979 116.354 255.732 109.121C255.578 108.859 255.363 108.639 255.105 108.48C254.847 108.321 254.554 108.229 254.252 108.211C253.572 108.164 253.412 108.454 253.772 109.081ZM244.542 112.891C249.528 123.357 253.999 134.041 257.952 144.941C258.065 145.261 258.118 145.251 258.112 144.911C258.059 141.931 257.395 138.804 256.122 135.531C252.735 126.851 249.259 119.181 245.692 112.521C245.552 112.261 245.398 112.037 245.232 111.851C244.392 110.931 244.075 111.031 244.282 112.151C244.328 112.377 244.415 112.624 244.542 112.891ZM171.992 130.661C171.365 130.534 170.738 130.467 170.112 130.461C164.745 130.387 159.482 130.934 154.322 132.101C147.909 133.547 143.108 135.581 139.922 138.201C134.835 142.387 132.462 148.391 132.802 156.211C132.882 158.037 133.212 158.241 133.792 156.821C133.885 156.601 133.932 156.354 133.932 156.081C133.919 149.661 135.995 144.474 140.162 140.521C142.409 138.394 145.535 136.664 149.542 135.331C152.995 134.184 156.532 133.387 160.152 132.941C162.019 132.714 163.972 132.401 166.012 132.001C167.965 131.621 169.939 131.361 171.932 131.221C173.352 131.121 173.372 130.934 171.992 130.661ZM128.322 212.301C123.782 218.261 119.685 224.511 116.032 231.051C111.905 238.437 111.642 245.974 115.242 253.661C117.442 258.354 119.069 262.681 120.122 266.641C120.502 268.074 120.812 270.491 121.052 273.891C121.225 276.337 121.585 278.764 122.132 281.171C122.212 281.517 122.302 281.521 122.402 281.181C122.922 279.334 122.932 276.931 122.432 273.971C121.099 266.064 119.129 259.517 116.522 254.331C113.555 248.431 112.902 242.547 114.562 236.681C115.209 234.401 116.862 231.334 119.522 227.481C123.089 222.321 126.475 217.041 129.682 211.641C129.719 211.577 129.744 211.506 129.755 211.434C129.766 211.362 129.763 211.29 129.745 211.225C129.728 211.159 129.697 211.101 129.655 211.056C129.613 211.01 129.56 210.977 129.502 210.961C129.215 210.881 128.978 211.044 128.792 211.451C128.592 211.864 128.435 212.147 128.322 212.301ZM274.622 238.411C272.989 243.997 272.455 249.274 273.022 254.241C273.269 256.394 273.485 258.551 273.672 260.711C273.905 263.431 273.665 265.554 272.952 267.081C271.779 269.561 269.802 271.397 267.022 272.591C265.602 273.197 265.532 273.564 266.812 273.691C267.052 273.717 267.295 273.684 267.542 273.591C273.882 271.224 276.512 266.684 275.432 259.971C274.118 251.837 274.169 244.414 275.582 237.701C275.675 237.247 275.555 237.144 275.222 237.391C274.962 237.577 274.762 237.917 274.622 238.411ZM132.572 276.761C132.605 276.101 132.579 275.424 132.492 274.731L128.422 241.271C128.383 240.926 128.253 240.621 128.052 240.401C127.272 239.561 126.948 239.914 127.082 241.461C128.142 253.674 129.555 265.847 131.322 277.981C131.429 278.707 131.598 279.167 131.832 279.361C132.218 279.694 132.465 278.827 132.572 276.761ZM112.362 269.271C112.409 269.478 112.401 269.716 112.337 269.97C112.273 270.223 112.155 270.486 111.992 270.741C111.132 272.081 111.095 272.451 111.882 271.851C112.042 271.724 112.165 271.567 112.252 271.381C113.012 269.687 113.009 267.864 112.242 265.911C112.122 265.597 111.989 265.407 111.842 265.341C111.569 265.227 111.489 265.414 111.602 265.901L112.362 269.271ZM103.422 281.181C102.128 283.014 100.932 284.911 99.8318 286.871C99.7718 286.984 99.7352 287.101 99.7218 287.221C99.6752 287.821 99.8652 287.784 100.292 287.111C101.692 284.924 103.048 282.711 104.362 280.471C104.608 280.051 104.532 279.944 104.132 280.151C103.959 280.244 103.825 280.387 103.732 280.581C103.558 280.941 103.455 281.141 103.422 281.181Z" fill="#FD9148"/>
<path d="M131.112 131.671C132.279 130.077 133.755 128.851 135.542 127.991C141.255 125.244 147.199 123.134 153.372 121.661C154.452 121.401 155.785 120.401 157.372 118.661C158.432 117.487 162.039 113.927 168.192 107.981C172.959 103.361 178.585 100.424 185.072 99.1707C185.679 99.0507 186.398 98.8474 187.232 98.5607C187.952 98.3074 188.685 98.1174 189.432 97.9907C190.432 97.8107 190.662 98.034 190.122 98.6607C189.509 99.3674 188.112 99.9707 185.932 100.471C183.239 101.091 180.679 102.014 178.252 103.241C176.432 104.161 174.219 105.711 171.612 107.891C166.899 111.831 162.235 115.837 157.622 119.911C156.002 121.331 154.169 122.371 152.122 123.031C144.902 125.364 138.065 128.427 131.612 132.221C130.559 132.834 130.392 132.651 131.112 131.671Z" fill="#FAA575"/>
<path d="M253.772 109.081C253.412 108.454 253.572 108.164 254.252 108.211C254.554 108.229 254.847 108.321 255.105 108.48C255.363 108.639 255.578 108.859 255.732 109.121C259.979 116.354 263.399 123.704 265.992 131.171C266.139 131.584 266.179 131.957 266.112 132.291C265.932 133.204 265.509 133.301 264.842 132.581C264.629 132.347 264.449 132.034 264.302 131.641C261.422 123.834 257.912 116.314 253.772 109.081Z" fill="#F6CDAA"/>
<path d="M255.112 180.871C253.665 184.851 252.225 188.804 250.792 192.731C248.979 197.691 247.285 201.534 245.712 204.261C242.225 210.301 237.882 215.717 232.682 220.511C227.795 224.184 223.775 226.817 220.622 228.411C202.335 237.617 185.832 235.251 171.112 221.311C167.299 217.891 164.175 214.674 161.742 211.661C157.195 206.014 153.695 199.431 151.242 191.911C149.769 187.384 148.999 183.351 148.932 179.811C148.932 179.544 148.899 179.324 148.832 179.151C148.565 178.464 148.265 178.571 147.932 179.471C147.465 180.724 147.619 183.974 148.392 189.221L146.642 190.221L146.142 183.971C146.422 182.677 146.269 181.487 145.682 180.401C145.619 180.277 145.51 180.181 145.378 180.131C145.245 180.081 145.097 180.081 144.962 180.131C143.142 180.791 141.532 181.794 140.132 183.141C140.021 183.248 139.885 183.325 139.737 183.365C139.588 183.406 139.431 183.407 139.282 183.371C133.489 181.931 130.715 178.381 130.962 172.721C131.075 170.234 131.705 167.971 132.852 165.931C134.092 163.737 135.762 162.251 137.862 161.471C140.149 160.624 142.582 160.671 145.162 161.611C145.429 161.704 145.685 161.894 145.932 162.181C146.745 163.114 147.212 162.797 147.332 161.231C147.592 157.891 147.792 154.551 147.932 151.211C148.279 143.071 152.509 138.054 160.622 136.161C164.409 135.274 167.705 134.654 170.512 134.301C175.332 133.687 177.772 133.377 177.832 133.371C186.712 131.824 194.079 129.941 199.932 127.721C211.059 123.507 220.845 117.301 229.292 109.101C230.412 108.021 231.352 108.157 232.112 109.511C238.492 120.911 244.155 132.644 249.102 144.711C249.135 144.791 249.759 146.244 250.972 149.071C252.319 152.191 253.389 155.414 254.182 158.741C254.233 158.947 254.351 159.131 254.517 159.263C254.684 159.395 254.889 159.468 255.102 159.471C261.622 159.591 265.432 162.851 266.532 169.251C267.765 176.464 265.002 180.974 258.242 182.781C258.08 182.824 257.914 182.832 257.756 182.804C257.598 182.777 257.453 182.714 257.332 182.621L255.112 180.871ZM218.342 144.461C219.602 144.881 221.299 145.134 223.432 145.221C230.472 145.507 237.079 147.321 243.252 150.661C244.645 151.414 245.065 151.051 244.512 149.571C243.345 146.464 240.892 144.177 237.152 142.711C232.019 140.697 226.719 139.417 221.252 138.871C219.725 138.724 218.565 138.921 217.772 139.461C216.379 140.421 216.315 141.887 217.582 143.861C217.763 144.145 218.031 144.357 218.342 144.461ZM181.752 139.621C173.659 139.021 166.342 141.101 159.802 145.861C157.735 147.367 156.292 149.277 155.472 151.591C155.125 152.591 155.439 152.887 156.412 152.481C157.599 151.981 158.729 151.394 159.802 150.721C161.522 149.647 162.612 149.004 163.072 148.791C166.265 147.284 169.635 146.357 173.182 146.011C175.422 145.791 177.659 145.564 179.892 145.331C181.339 145.184 182.362 144.757 182.962 144.051C183.962 142.871 183.835 141.531 182.582 140.031C182.376 139.793 182.078 139.646 181.752 139.621ZM214.122 144.851C209.469 145.291 206.255 147.837 204.482 152.491C202.442 162.197 202.509 171.441 204.682 180.221C205.342 182.894 204.745 184.894 202.892 186.221L197.042 188.401C196.582 188.574 196.585 188.744 197.052 188.911C199.879 189.964 202.722 190.621 205.582 190.881C208.895 191.181 211.669 190.634 213.902 189.241C218.069 186.627 218.662 182.537 215.682 176.971C213.795 173.444 212.699 170.277 212.392 167.471C212.605 166.911 213.052 166.694 213.732 166.821C217.885 164.147 221.645 160.977 225.012 157.311C224.465 161.284 226.025 163.344 229.692 163.491C232.345 163.591 233.592 162.417 233.432 159.971C233.325 158.344 233.352 157.201 233.512 156.541C237.005 157.694 239.999 159.401 242.492 161.661C242.992 162.107 243.485 162.274 243.972 162.161C244.03 162.147 244.084 162.119 244.128 162.078C244.173 162.036 244.206 161.983 244.227 161.923C244.247 161.863 244.254 161.797 244.246 161.73C244.238 161.664 244.216 161.599 244.182 161.541C243.109 159.781 241.775 158.244 240.182 156.931C241.429 156.144 241.822 155.094 241.362 153.781C241.042 152.874 240.755 151.954 240.502 151.021C240.458 150.866 240.385 150.723 240.286 150.601C240.188 150.479 240.068 150.38 239.932 150.311C235.945 148.317 232.759 147.224 230.372 147.031C227.139 146.771 223.512 146.467 219.492 146.121C218.979 146.074 218.499 145.927 218.052 145.681C216.712 144.934 215.402 144.657 214.122 144.851ZM166.932 159.261C166.745 160.941 167.135 162.254 168.102 163.201C168.989 164.061 170.142 164.324 171.562 163.991C174.555 163.297 175.749 161.041 175.142 157.221C177.202 157.654 179.099 158.454 180.832 159.621C181.092 159.794 181.302 160.044 181.462 160.371C182.122 161.724 182.582 161.774 182.842 160.521C182.915 160.167 182.915 159.797 182.842 159.411C182.169 155.684 179.782 153.621 175.682 153.221C167.169 152.394 161.479 155.881 158.612 163.681C158.205 164.794 158.485 165.021 159.452 164.361L166.932 159.261ZM254.992 177.661C256.339 179.061 257.902 179.164 259.682 177.971C261.169 176.971 262.222 175.787 262.842 174.421C263.469 173.021 263.529 171.537 263.022 169.971C262.242 167.504 260.379 165.927 257.432 165.241C256.019 164.907 254.899 165.337 254.072 166.531C251.339 170.471 251.645 174.181 254.992 177.661ZM140.101 177.799C140.73 177.911 141.376 177.888 142.002 177.732C142.629 177.576 143.224 177.289 143.754 176.888C144.284 176.487 144.738 175.98 145.09 175.396C145.442 174.812 145.686 174.162 145.807 173.483C146.051 172.112 145.781 170.708 145.056 169.579C144.332 168.449 143.212 167.688 141.943 167.462C141.314 167.35 140.668 167.373 140.041 167.529C139.415 167.686 138.819 167.972 138.29 168.373C137.76 168.774 137.306 169.281 136.954 169.865C136.602 170.45 136.358 171.1 136.237 171.778C135.993 173.149 136.263 174.554 136.988 175.683C137.712 176.812 138.832 177.573 140.101 177.799ZM226.672 190.471C230.312 193.484 234.399 194.317 238.932 192.971C244.759 191.237 248.105 187.311 248.972 181.191C249.212 179.491 248.635 177.481 247.242 175.161C244.175 170.041 239.825 167.767 234.192 168.341C227.759 169.001 223.909 172.474 222.642 178.761C221.682 183.547 223.025 187.451 226.672 190.471ZM179.7 181.045C179.379 177.767 177.71 174.756 175.062 172.675C172.414 170.595 169.003 169.614 165.58 169.95C163.885 170.116 162.238 170.6 160.732 171.375C159.227 172.15 157.894 173.2 156.807 174.465C155.721 175.731 154.904 177.187 154.403 178.75C153.901 180.313 153.725 181.953 153.884 183.576C154.205 186.855 155.873 189.865 158.522 191.946C161.17 194.027 164.58 195.007 168.004 194.671C169.699 194.505 171.346 194.021 172.851 193.246C174.357 192.471 175.69 191.421 176.776 190.156C177.862 188.891 178.68 187.435 179.181 185.872C179.683 184.308 179.859 182.668 179.7 181.045ZM185.162 199.931C187.875 204.257 191.319 207.381 195.492 209.301C199.632 211.207 204.015 211.711 208.642 210.811C215.255 209.531 220.225 205.531 223.552 198.811C210.432 198.784 197.635 199.157 185.162 199.931Z" fill="#FDBEAF"/>
<path d="M244.282 112.151C244.075 111.031 244.392 110.931 245.232 111.851C245.399 112.037 245.552 112.261 245.692 112.521C249.259 119.181 252.735 126.851 256.122 135.531C257.395 138.804 258.059 141.931 258.112 144.911C258.119 145.251 258.065 145.261 257.952 144.941C253.999 134.041 249.529 123.357 244.542 112.891C244.415 112.624 244.329 112.377 244.282 112.151Z" fill="#F6C197"/>
<path d="M171.991 130.661C173.371 130.934 173.351 131.121 171.931 131.221C169.938 131.361 167.965 131.621 166.011 132.001C163.971 132.401 162.018 132.714 160.151 132.941C156.531 133.387 152.995 134.184 149.541 135.331C145.535 136.664 142.408 138.394 140.162 140.521C135.995 144.474 133.918 149.661 133.931 156.081C133.931 156.354 133.885 156.601 133.791 156.821C133.211 158.241 132.881 158.037 132.801 156.211C132.461 148.391 134.835 142.387 139.921 138.201C143.108 135.581 147.908 133.547 154.322 132.101C159.482 130.934 164.745 130.387 170.111 130.461C170.738 130.467 171.365 130.534 171.991 130.661Z" fill="#F6C197"/>
<path d="M217.582 143.861C216.315 141.887 216.378 140.421 217.772 139.461C218.565 138.921 219.725 138.724 221.252 138.871C226.718 139.417 232.018 140.697 237.151 142.711C240.891 144.177 243.345 146.464 244.512 149.571C245.065 151.051 244.645 151.414 243.252 150.661C237.078 147.321 230.471 145.507 223.431 145.221C221.298 145.134 219.601 144.881 218.341 144.461C218.031 144.357 217.763 144.145 217.582 143.861Z" fill="#221824"/>
<path d="M182.582 140.031C183.835 141.531 183.962 142.871 182.962 144.051C182.362 144.757 181.338 145.184 179.892 145.331C177.658 145.564 175.422 145.791 173.182 146.011C169.635 146.357 166.265 147.284 163.072 148.791C162.612 149.004 161.522 149.647 159.802 150.721C158.728 151.394 157.598 151.981 156.412 152.481C155.438 152.887 155.125 152.591 155.472 151.591C156.292 149.277 157.735 147.367 159.802 145.861C166.342 141.101 173.658 139.021 181.752 139.621C182.078 139.646 182.376 139.793 182.582 140.031Z" fill="#18111A"/>
<path d="M240.182 156.931C235.362 153.937 230.092 152.591 224.372 152.891C222.045 153.011 220.128 154.184 218.622 156.411C216.175 160.017 214.545 163.487 213.732 166.821C213.052 166.694 212.605 166.911 212.392 167.471C211.838 165.717 211.725 163.964 212.052 162.211C212.418 160.244 212.602 159.237 212.602 159.191C213.128 154.517 213.635 149.737 214.122 144.851C215.402 144.657 216.712 144.934 218.052 145.681C218.498 145.927 218.978 146.074 219.492 146.121C223.512 146.467 227.138 146.771 230.372 147.031C232.758 147.224 235.945 148.317 239.932 150.311C240.067 150.38 240.188 150.479 240.286 150.601C240.384 150.724 240.457 150.866 240.502 151.021C240.755 151.954 241.042 152.874 241.362 153.781C241.822 155.094 241.428 156.144 240.182 156.931Z" fill="#FCAE9E"/>
<path d="M214.122 144.851C213.635 149.737 213.128 154.517 212.602 159.191C212.602 159.237 212.418 160.244 212.052 162.211C211.725 163.964 211.838 165.717 212.392 167.471C212.698 170.277 213.795 173.444 215.682 176.971C218.662 182.537 218.068 186.627 213.902 189.241C211.668 190.634 208.895 191.181 205.582 190.881C202.722 190.621 199.878 189.964 197.052 188.911C196.585 188.744 196.582 188.574 197.042 188.401L202.892 186.221C204.258 186.447 205.245 186.101 205.852 185.181C206.198 184.654 206.375 183.767 206.382 182.521C206.455 172.441 205.822 162.431 204.482 152.491C206.255 147.837 209.468 145.291 214.122 144.851Z" fill="#F98D7D"/>
<path d="M204.482 152.491C205.822 162.431 206.455 172.441 206.382 182.521C206.375 183.767 206.198 184.654 205.852 185.181C205.245 186.101 204.258 186.447 202.892 186.221C204.745 184.894 205.342 182.894 204.682 180.221C202.508 171.441 202.442 162.197 204.482 152.491Z" fill="#EB8075"/>
<path d="M240.181 156.931C241.775 158.244 243.108 159.781 244.181 161.541C244.216 161.599 244.238 161.664 244.246 161.73C244.253 161.797 244.247 161.863 244.226 161.923C244.206 161.983 244.172 162.036 244.128 162.078C244.084 162.119 244.03 162.147 243.971 162.161C243.485 162.274 242.991 162.107 242.491 161.661C239.998 159.401 237.005 157.694 233.511 156.541C230.478 154.034 227.645 154.291 225.011 157.311C221.645 160.977 217.885 164.147 213.731 166.821C214.545 163.487 216.175 160.017 218.621 156.411C220.128 154.184 222.045 153.011 224.371 152.891C230.091 152.591 235.361 153.937 240.181 156.931Z" fill="#DF6B57"/>
<path d="M86.597 157.286C85.3057 160.404 85.9713 163.641 88.0837 164.516C90.1961 165.391 92.9554 163.573 94.2468 160.455C95.5381 157.337 94.8725 154.101 92.7601 153.226C90.6477 152.351 87.8884 154.169 86.597 157.286Z" fill="#8C87A7"/>
<path d="M175.142 157.221C174.615 156.261 173.692 155.907 172.372 156.161C169.898 156.621 168.085 157.654 166.932 159.261L159.452 164.361C158.485 165.021 158.205 164.794 158.612 163.681C161.478 155.881 167.168 152.394 175.682 153.221C179.782 153.621 182.168 155.684 182.842 159.411C182.915 159.797 182.915 160.167 182.842 160.521C182.582 161.774 182.122 161.724 181.462 160.371C181.302 160.044 181.092 159.794 180.832 159.621C179.098 158.454 177.202 157.654 175.142 157.221Z" fill="#C54E3A"/>
<path d="M233.512 156.541C233.352 157.201 233.325 158.344 233.432 159.971C233.592 162.417 232.345 163.591 229.692 163.491C226.025 163.344 224.465 161.284 225.012 157.311C227.645 154.291 230.478 154.034 233.512 156.541Z" fill="#7F3228"/>
<path d="M175.142 157.221C175.748 161.041 174.555 163.297 171.562 163.991C170.142 164.324 168.988 164.061 168.102 163.201C167.135 162.254 166.745 160.941 166.932 159.261C168.085 157.654 169.898 156.621 172.372 156.161C173.692 155.907 174.615 156.261 175.142 157.221Z" fill="#67332A"/>
<path d="M300.821 165.819C299.667 168.563 300.523 171.541 302.733 172.47C304.942 173.398 307.669 171.927 308.822 169.183C309.976 166.438 309.12 163.461 306.91 162.532C304.701 161.603 301.974 163.075 300.821 165.819Z" fill="#8C87A7"/>
<path d="M254.992 177.661C251.645 174.181 251.338 170.471 254.072 166.531C254.898 165.337 256.018 164.907 257.432 165.241C260.378 165.927 262.242 167.504 263.022 169.971C263.528 171.537 263.468 173.021 262.842 174.421C262.222 175.787 261.168 176.971 259.682 177.971C257.902 179.164 256.338 179.061 254.992 177.661Z" fill="#F58477"/>
<path d="M136.237 171.778C135.729 174.633 137.459 177.329 140.101 177.799C142.744 178.27 145.298 176.338 145.806 173.483C146.315 170.628 144.585 167.933 141.942 167.462C139.3 166.991 136.745 168.924 136.237 171.778Z" fill="#FB9684"/>
<path d="M226.672 190.471C223.025 187.451 221.682 183.547 222.642 178.761C223.909 172.474 227.759 169.001 234.192 168.341C239.825 167.767 244.175 170.041 247.242 175.161C248.635 177.481 249.212 179.491 248.972 181.191C248.105 187.311 244.759 191.237 238.932 192.971C234.399 194.317 230.312 193.484 226.672 190.471Z" fill="#FA8D78"/>
<path d="M168.004 194.671C175.133 193.972 180.369 187.872 179.7 181.045C179.031 174.218 172.709 169.251 165.58 169.95C158.451 170.649 153.214 176.75 153.884 183.576C154.553 190.403 160.875 195.37 168.004 194.671Z" fill="#FA8D78"/>
<path d="M171.112 221.311C170.425 222.477 170.389 223.254 171.002 223.641L171.142 247.971C166.602 246.737 163.135 244.301 160.742 240.661C158.395 237.074 156.279 232.761 154.392 227.721C155.472 223.647 155.499 219.561 154.472 215.461C152.279 206.754 150.252 198.007 148.392 189.221C147.619 183.974 147.465 180.724 147.932 179.471C148.265 178.571 148.565 178.464 148.832 179.151C148.899 179.324 148.932 179.544 148.932 179.811C148.999 183.351 149.769 187.384 151.242 191.911C153.695 199.431 157.195 206.014 161.742 211.661C164.175 214.674 167.299 217.891 171.112 221.311Z" fill="#C8582F"/>
<path d="M255.112 180.871C254.758 183.611 254.962 186.061 255.722 188.221C251.282 199.267 248.268 209.851 246.682 219.971C245.942 224.691 247.922 228.161 252.622 230.381C248.648 238.827 242.265 244.691 233.472 247.971L233.142 222.441C233.395 221.641 233.242 220.997 232.682 220.511C237.882 215.717 242.225 210.301 245.712 204.261C247.285 201.534 248.978 197.691 250.792 192.731C252.225 188.804 253.665 184.851 255.112 180.871Z" fill="#C55733"/>
<path d="M146.142 183.971L146.642 190.221C148.595 200.214 150.192 207.714 151.432 212.721C152.365 216.507 152.865 220.141 152.932 223.621C152.952 224.754 152.772 225.614 152.392 226.201C151.672 227.334 150.602 227.424 149.182 226.471C148.435 225.971 147.755 225.887 147.142 226.221C144.435 226.167 142.262 225.104 140.622 223.031C137.735 219.384 135.902 215.201 135.122 210.481C136.055 201.714 138.742 193.484 143.182 185.791C143.808 184.804 144.795 184.197 146.142 183.971Z" fill="#C8582F"/>
<path d="M143.182 185.791C138.742 193.484 136.055 201.714 135.122 210.481C134.395 209.554 134.002 208.467 133.942 207.221C133.934 207.089 133.879 206.964 133.787 206.864C133.694 206.765 133.569 206.697 133.432 206.671C132.572 206.517 132.415 206.024 132.962 205.191C133.248 204.757 133.428 204.361 133.502 204.001C134.668 198.174 136.628 192.624 139.382 187.351C139.512 187.103 139.571 186.772 139.552 186.401C139.485 185.461 139.925 185.024 140.872 185.091C141.021 185.1 141.169 185.075 141.304 185.018C141.44 184.96 141.559 184.872 141.652 184.761C142.305 183.981 142.815 184.324 143.182 185.791Z" fill="#FAA575"/>
<path d="M257.182 187.011C254.022 197.324 251.315 207.754 249.062 218.301C248.548 220.687 248.505 222.494 248.932 223.721C250.118 227.141 252.472 228.277 255.992 227.131C257.918 227.957 258.055 228.624 256.402 229.131C255.015 229.557 253.755 229.974 252.622 230.381C247.922 228.161 245.942 224.691 246.682 219.971C248.268 209.851 251.282 199.267 255.722 188.221C255.895 187.127 256.382 186.724 257.182 187.011Z" fill="#F4EEE2"/>
<path d="M257.182 187.011L258.032 187.671C258.278 187.859 258.591 187.961 258.922 187.961C263.122 187.914 266.145 189.727 267.992 193.401C270.305 198.294 271.428 203.287 271.362 208.381C271.348 211.654 270.582 214.604 269.062 217.231C268.248 218.631 266.845 219.961 264.852 221.221C261.832 223.121 258.878 225.091 255.992 227.131C252.472 228.277 250.118 227.141 248.932 223.721C248.505 222.494 248.548 220.687 249.062 218.301C251.315 207.754 254.022 197.324 257.182 187.011Z" fill="#C55733"/>
<path d="M148.392 189.221C150.252 198.007 152.278 206.754 154.472 215.461C155.498 219.561 155.472 223.647 154.392 227.721C151.292 230.461 148.875 229.961 147.142 226.221C147.755 225.887 148.435 225.971 149.182 226.471C150.602 227.424 151.672 227.334 152.392 226.201C152.772 225.614 152.952 224.754 152.932 223.621C152.865 220.141 152.365 216.507 151.432 212.721C150.192 207.714 148.595 200.214 146.642 190.221L148.392 189.221Z" fill="#F4EEE2"/>
<path d="M267.992 193.401C272.098 197.121 274.302 201.747 274.602 207.281C274.615 207.594 274.708 207.904 274.882 208.211C275.655 209.564 275.172 209.984 273.432 209.471C272.452 209.177 271.762 208.814 271.362 208.381C271.428 203.287 270.305 198.294 267.992 193.401Z" fill="#FAA65C"/>
<path d="M223.552 198.811C220.765 201.764 217.818 204.241 214.712 206.241C209.245 209.767 203.422 210.407 197.242 208.161C193.862 206.927 189.835 204.184 185.162 199.931C197.635 199.157 210.432 198.784 223.552 198.811Z" fill="#FDFDFD"/>
<path d="M223.552 198.811C220.225 205.531 215.255 209.531 208.642 210.811C204.015 211.711 199.632 211.207 195.492 209.301C191.318 207.381 187.875 204.257 185.162 199.931C189.835 204.184 193.862 206.927 197.242 208.161C203.422 210.407 209.245 209.767 214.712 206.241C217.818 204.241 220.765 201.764 223.552 198.811Z" fill="#E97066"/>
<path d="M128.792 211.451C128.978 211.044 129.215 210.881 129.502 210.961C129.56 210.977 129.612 211.01 129.655 211.056C129.697 211.101 129.728 211.159 129.745 211.225C129.762 211.29 129.766 211.362 129.755 211.434C129.744 211.506 129.719 211.577 129.682 211.641C126.475 217.041 123.088 222.321 119.522 227.481C116.862 231.334 115.208 234.401 114.562 236.681C112.902 242.547 113.555 248.431 116.522 254.331C119.128 259.517 121.098 266.064 122.432 273.971C122.932 276.931 122.922 279.334 122.402 281.181C122.302 281.521 122.212 281.517 122.132 281.171C121.585 278.764 121.225 276.337 121.052 273.891C120.812 270.491 120.502 268.074 120.122 266.641C119.068 262.681 117.442 258.354 115.242 253.661C111.642 245.974 111.905 238.437 116.032 231.051C119.685 224.511 123.782 218.261 128.322 212.301C128.435 212.147 128.592 211.864 128.792 211.451Z" fill="#F07239"/>
<path d="M232.682 220.511C233.242 220.997 233.395 221.641 233.142 222.441C232.415 224.327 231.442 226.014 230.222 227.501C227.929 230.281 225.502 232.941 222.942 235.481C218.995 239.414 214.495 242.211 209.442 243.871C204.202 245.597 199.149 245.901 194.282 244.781C189.042 243.574 184.492 240.824 180.632 236.531C178.625 234.297 176.639 232.044 174.672 229.771C173.872 228.844 173.195 227.861 172.642 226.821C172.082 225.774 171.535 224.714 171.002 223.641C170.389 223.254 170.425 222.477 171.112 221.311C185.832 235.251 202.335 237.617 220.622 228.411C223.775 226.817 227.795 224.184 232.682 220.511Z" fill="#F4867C"/>
<path d="M233.142 222.441L233.472 247.971C233.025 250.384 233.345 252.647 234.432 254.761L219.482 262.041C218.162 262.681 217.462 263.691 217.382 265.071C216.875 274.437 214.959 283.801 211.632 293.161C209.719 298.567 207.082 303.587 203.722 308.221C202.129 304.261 200.969 301.574 200.242 300.161C197.802 295.401 196.012 290.411 194.872 285.191C194.405 283.064 194.342 280.491 194.682 277.471C195.129 273.477 193.982 269.791 191.242 266.411C189.789 264.611 187.589 263.714 184.642 263.721L171.422 257.381C171.762 254.147 171.669 251.011 171.142 247.971L171.002 223.641C171.535 224.714 172.082 225.774 172.642 226.821C173.195 227.861 173.872 228.844 174.672 229.771C176.639 232.044 178.625 234.297 180.632 236.531C184.492 240.824 189.042 243.574 194.282 244.781C199.149 245.901 204.202 245.597 209.442 243.871C214.495 242.211 218.995 239.414 222.942 235.481C225.502 232.941 227.929 230.281 230.222 227.501C231.442 226.014 232.415 224.327 233.142 222.441Z" fill="#FDBCAB"/>
<path d="M274.622 238.411C274.762 237.917 274.962 237.577 275.222 237.391C275.555 237.144 275.675 237.247 275.582 237.701C274.168 244.414 274.118 251.837 275.432 259.971C276.512 266.684 273.882 271.224 267.542 273.591C267.295 273.684 267.052 273.717 266.812 273.691C265.532 273.564 265.602 273.197 267.022 272.591C269.802 271.397 271.778 269.561 272.952 267.081C273.665 265.554 273.905 263.431 273.672 260.711C273.485 258.551 273.268 256.394 273.022 254.241C272.455 249.274 272.988 243.997 274.622 238.411Z" fill="#F5B486"/>
<path d="M132.572 276.761C132.465 278.827 132.219 279.694 131.832 279.361C131.599 279.167 131.429 278.707 131.322 277.981C129.555 265.847 128.142 253.674 127.082 241.461C126.949 239.914 127.272 239.561 128.052 240.401C128.253 240.621 128.383 240.926 128.422 241.271L132.492 274.731C132.579 275.424 132.605 276.101 132.572 276.761Z" fill="#F5B486"/>
<path d="M203.722 308.221L203.392 308.721C202.445 309.387 201.315 309.601 200.002 309.361C195.755 302.127 192.668 295.644 190.742 289.911C188.402 282.944 186.368 274.214 184.642 263.721C187.588 263.714 189.788 264.611 191.242 266.411C193.982 269.791 195.128 273.477 194.682 277.471C194.342 280.491 194.405 283.064 194.872 285.191C196.012 290.411 197.802 295.401 200.242 300.161C200.968 301.574 202.128 304.261 203.722 308.221Z" fill="#F58477"/>
<path d="M112.362 269.271L111.602 265.901C111.488 265.414 111.568 265.227 111.842 265.341C111.988 265.407 112.122 265.597 112.242 265.911C113.008 267.864 113.012 269.687 112.252 271.381C112.165 271.567 112.042 271.724 111.882 271.851C111.095 272.451 111.132 272.081 111.992 270.741C112.155 270.486 112.273 270.223 112.337 269.97C112.401 269.716 112.409 269.478 112.362 269.271Z" fill="#E27136"/>
<path d="M103.732 280.581C103.825 280.387 103.958 280.244 104.132 280.151C104.532 279.944 104.608 280.051 104.362 280.471C103.048 282.711 101.692 284.924 100.292 287.111C99.8651 287.784 99.6751 287.821 99.7217 287.221C99.7351 287.101 99.7717 286.984 99.8317 286.871C100.932 284.911 102.128 283.014 103.422 281.181C103.455 281.141 103.558 280.941 103.732 280.581Z" fill="#F07239"/>
<path d="M203.392 308.721C203.912 310.067 204.175 311.817 204.182 313.971C204.215 321.871 204.195 329.767 204.122 337.661C204.122 337.815 204.077 337.965 203.992 338.089C203.908 338.213 203.789 338.304 203.652 338.351C203.185 338.504 202.695 338.564 202.182 338.531C201.842 338.511 201.518 338.551 201.212 338.651C199.925 339.071 199.308 338.637 199.362 337.351C199.395 336.557 199.412 336.134 199.412 336.081C199.158 327.201 199.355 318.294 200.002 309.361C201.315 309.601 202.445 309.387 203.392 308.721Z" fill="#F88B44"/>
</svg>
