<svg width="400" height="400" viewBox="0 0 400 400" fill="none" xmlns="http://www.w3.org/2000/svg">
<rect width="400" height="400" rx="32" fill="#C6B1BF"/>
<path d="M87.2314 281.821C101.825 302.774 120.708 318.584 143.881 329.251C157.061 335.317 169.911 338.891 182.431 339.971C192.111 340.804 201.195 340.971 209.681 340.471C228.308 339.364 246.101 334.471 263.061 325.791C286.735 313.664 305.191 296.071 318.431 273.011" stroke="#9E919B" stroke-width="2"/>
<path d="M318.432 273.011C330.625 252.177 336.958 228.831 337.432 202.971C338.058 168.531 328.592 138.114 309.032 111.721" stroke="#B9B8CB" stroke-width="2"/>
<path d="M309.032 111.721C298.345 97.0407 284.959 85.0607 268.872 75.7807C268.192 75.3874 267.485 75.2274 266.752 75.3007" stroke="#E1D7DE" stroke-width="2"/>
<path d="M266.752 75.3007C266.385 74.634 265.632 74.0041 264.492 73.4107C246.585 64.0974 227.812 58.9841 208.172 58.0707C201.379 57.7574 194.715 57.8207 188.182 58.2607C175.355 59.1341 162.879 61.8974 150.752 66.5507C120.732 78.084 97.6753 97.7441 81.5819 125.531C69.3019 146.744 62.8353 170.057 62.1819 195.471C61.3619 227.397 69.7119 256.181 87.2319 281.821" stroke="#B9B8CB" stroke-width="2"/>
<path d="M266.752 75.3007C269.105 80.1474 270.415 84.5374 270.682 88.4707C271.009 93.3507 271.592 96.9341 272.432 99.2207C275.619 107.907 281.785 111.907 290.932 111.221C297.839 110.701 303.872 110.867 309.032 111.721" stroke="#9C91AA" stroke-width="2"/>
<path d="M318.432 273.011C317.665 273.004 316.645 272.761 315.372 272.281C309.125 269.934 294.728 264.677 272.182 256.511" stroke="#584A68" stroke-width="2"/>
<path d="M272.182 256.511C288.155 253.964 299.502 245.384 306.222 230.771C310.449 221.577 311.119 212.094 308.232 202.321C305.885 194.387 301.172 188.304 294.092 184.071C291.232 182.357 288.012 181.407 284.432 181.221C280.452 181.014 277.205 182.027 274.692 184.261C272.172 186.507 270.952 189.344 271.032 192.771C271.125 196.497 272.965 199.514 276.552 201.821C278.225 202.894 279.905 203.954 281.592 205.001C285.259 207.287 287.875 210.267 289.442 213.941C290.855 217.274 291.305 221.027 290.792 225.201C290.079 230.914 287.605 235.734 283.372 239.661C276.932 245.614 268.892 248.637 259.252 248.731" stroke="#9D91AB" stroke-width="2"/>
<path d="M259.252 248.731C256.472 247.771 252.698 246.267 247.932 244.221C247.532 244.047 247.185 244.131 246.892 244.471" stroke="#9088A8" stroke-width="2"/>
<path d="M246.892 244.471L239.722 242.471" stroke="#504864" stroke-width="2"/>
<path d="M239.722 242.471L239.822 214.651" stroke="#B897A1" stroke-width="2"/>
<path d="M239.822 214.651C243.722 210.331 246.175 206.104 247.182 201.971C249.102 194.084 249.395 185.017 248.062 174.771C248.046 174.649 248.065 174.513 248.116 174.373C248.168 174.233 248.252 174.093 248.362 173.961C248.528 173.761 248.635 173.527 248.682 173.261" stroke="#614858" stroke-width="2"/>
<path d="M248.682 173.261L251.752 173.401" stroke="#B77A85" stroke-width="2"/>
<path d="M251.752 173.401C263.085 171.214 268.395 164.321 267.682 152.721C267.189 144.667 262.939 140.181 254.932 139.261" stroke="#B5929E" stroke-width="2"/>
<path d="M254.932 139.261L251.222 138.971" stroke="#B6A4B2" stroke-width="2"/>
<path d="M251.222 138.971C251.722 136.397 251.542 133.884 250.682 131.431" stroke="#B895A0" stroke-width="2"/>
<path d="M250.682 131.431C254.989 127.404 258.079 122.601 259.952 117.021C261.872 111.321 260.682 106.537 256.382 102.671C255.242 101.651 254.925 100.421 255.432 98.9807C256.232 96.6807 256.645 94.3441 256.672 91.9707C256.699 89.2907 256.122 87.0674 254.942 85.3007C253.149 82.6207 250.405 81.2574 246.712 81.2107C246.659 81.2107 246.142 81.2507 245.162 81.3307C242.989 81.5107 241.662 80.3907 241.182 77.9707C240.475 74.3974 238.182 71.7174 234.302 69.9307C228.335 67.1841 222.655 67.5641 217.262 71.0707C216.925 71.2878 216.522 71.3768 216.124 71.3218C215.726 71.2668 215.36 71.0714 215.092 70.7707C211.165 66.3107 206.275 65.3674 200.422 67.9407C199.129 68.5141 197.805 68.5874 196.452 68.1607C193.812 67.3274 190.975 66.9174 187.942 66.9307C184.735 66.9507 181.972 67.5074 179.652 68.6007C175.405 70.6007 172.505 74.0374 170.952 78.9107C170.499 80.3374 169.529 80.9574 168.042 80.7707C165.635 80.4574 163.275 80.3074 160.962 80.3207C158.269 80.3407 155.985 80.7841 154.112 81.6507C150.252 83.4507 147.802 86.3674 146.762 90.4007C145.969 93.4541 145.765 96.6807 146.152 100.081C146.565 103.707 148.012 106.734 150.492 109.161C153.965 112.554 154.715 116.677 152.742 121.531C151.795 123.857 151.862 126.337 152.942 128.971" stroke="#614858" stroke-width="2"/>
<path d="M152.942 128.971L152.472 139.721" stroke="#B895A0" stroke-width="2"/>
<path d="M152.472 139.721L150.932 140.261" stroke="#B6A4B2" stroke-width="2"/>
<path d="M150.932 140.261C142.678 139.794 138.012 143.447 136.932 151.221C136.525 154.147 136.732 157.197 137.552 160.371C138.418 163.737 139.805 166.374 141.712 168.281C145.285 171.854 150.022 172.704 155.922 170.831" stroke="#B796A0" stroke-width="2"/>
<path d="M155.922 170.831L157.432 175.181" stroke="#B6A4B2" stroke-width="2"/>
<path d="M157.432 175.181C156.745 182.894 156.662 189.574 157.182 195.221C157.809 202.014 160.572 207.994 165.472 213.161" stroke="#614858" stroke-width="2"/>
<path d="M165.472 213.161L165.432 242.511" stroke="#B897A1" stroke-width="2"/>
<path d="M165.432 242.511L157.432 245.511" stroke="#4B455E" stroke-width="2"/>
<path d="M157.432 245.511C151.872 248.231 146.455 251.254 141.182 254.581" stroke="#7B789C" stroke-width="2"/>
<path d="M141.181 254.581C126.808 260.887 111.558 268.267 95.4315 276.721C92.2715 278.374 89.5381 280.074 87.2314 281.821" stroke="#584A68" stroke-width="2"/>
<path d="M251.752 173.401C253.892 172.421 254.695 170.754 254.162 168.401C254.116 168.189 254.125 167.969 254.188 167.76C254.251 167.552 254.366 167.363 254.522 167.211C259.589 162.297 261.809 156.967 261.182 151.221C260.755 147.301 258.532 144.994 254.512 144.301" stroke="#F99B8B" stroke-width="2"/>
<path d="M165.642 263.221C161.528 257.967 158.792 252.064 157.432 245.511" stroke="#534B63" stroke-width="2"/>
<path d="M248.682 173.261L247.932 173.181" stroke="#A45145" stroke-width="2"/>
<path d="M151.352 144.561C148.872 144.681 146.742 145.457 144.962 146.891C143.309 148.231 142.342 150.097 142.062 152.491C141.402 158.111 144.105 161.971 150.172 164.071" stroke="#F8A090" stroke-width="2"/>
<path d="M176.432 276.931L169.052 294.391" stroke="#524661" stroke-width="2"/>
<path d="M169.052 294.391C154.672 284.697 145.382 271.427 141.182 254.581" stroke="#60516D" stroke-width="2"/>
<path d="M246.892 244.471C245.678 251.071 243.262 257.187 239.642 262.821" stroke="#6C5F74" stroke-width="2"/>
<path d="M239.822 214.651L237.142 217.221" stroke="#A66E62" stroke-width="2"/>
<path d="M237.142 217.221C231.362 222.794 225.688 227.441 220.122 231.161C206.675 240.127 193.882 239.294 181.742 228.661C175.948 223.581 171.358 219.184 167.972 215.471" stroke="#A0524A" stroke-width="2"/>
<path d="M167.972 215.471L165.472 213.161" stroke="#A66E62" stroke-width="2"/>
<path d="M190.862 188.021C186.702 189.261 184.928 192.001 185.542 196.241C185.735 197.574 186.262 199.921 187.122 203.281C188.342 208.087 191.385 210.964 196.252 211.911C196.388 211.936 196.529 211.93 196.663 211.891C196.797 211.853 196.922 211.784 197.027 211.689C197.133 211.594 197.217 211.475 197.273 211.343C197.329 211.21 197.356 211.066 197.352 210.921L196.932 199.951C196.927 199.781 196.999 199.617 197.132 199.493C197.265 199.369 197.448 199.297 197.642 199.291L207.732 199.021C207.861 199.017 207.989 199.037 208.11 199.08C208.23 199.124 208.339 199.189 208.431 199.272C208.523 199.355 208.595 199.455 208.643 199.565C208.692 199.675 208.715 199.792 208.712 199.911L208.502 209.161C208.5 209.222 208.513 209.282 208.538 209.338C208.563 209.393 208.6 209.442 208.646 209.481C208.693 209.52 208.747 209.547 208.805 209.561C208.863 209.575 208.924 209.575 208.982 209.561C211.662 208.961 213.625 207.744 214.872 205.911C217.258 202.397 218.412 198.084 218.332 192.971C218.318 192.077 218.088 191.367 217.642 190.841C217.566 190.75 217.459 190.692 217.343 190.679C217.227 190.665 217.112 190.699 217.022 190.771C214.055 193.044 210.828 194.284 207.342 194.491C206.642 194.531 205.968 194.681 205.322 194.941C204.135 195.427 203.588 195.284 203.682 194.511" stroke="#A56B60" stroke-width="2"/>
<path d="M203.682 194.511C206.275 193.597 208.922 192.894 211.622 192.401C212.408 192.261 213.058 191.997 213.572 191.611C214.145 191.191 214.688 190.721 215.202 190.201C215.253 190.149 215.292 190.087 215.316 190.018C215.34 189.95 215.349 189.877 215.343 189.805C215.336 189.732 215.314 189.662 215.277 189.599C215.241 189.537 215.191 189.482 215.132 189.441C213.145 188.014 211.078 187.344 208.932 187.431" stroke="#A47B77" stroke-width="2"/>
<path d="M250.682 131.431C245.389 128.464 241.879 124.064 240.152 118.231C239.665 116.577 239.212 115.391 238.792 114.671C237.959 113.257 236.929 113.091 235.702 114.171C228.915 120.144 221.459 121.804 213.332 119.151C205.732 116.671 199.119 112.591 193.492 106.911C190.019 103.404 187.729 101.444 186.622 101.031C182.862 99.6307 179.985 100.547 177.992 103.781C176.159 106.761 174.639 110.491 173.432 114.971C172.405 118.771 169.802 122.084 165.622 124.911C162.562 126.977 158.335 128.331 152.942 128.971" stroke="#A66C60" stroke-width="2"/>
<path d="M251.222 138.971C248.095 140.764 245.248 140.501 242.682 138.181" stroke="#FBC8BA" stroke-width="2"/>
<path d="M242.682 138.181C243.715 136.281 243.635 134.604 242.442 133.151C242.254 132.917 241.969 132.745 241.632 132.661C233.539 130.647 225.309 129.641 216.942 129.641" stroke="#906966" stroke-width="2"/>
<path d="M216.942 129.641C210.088 128.601 203.205 128.431 196.292 129.131C195.905 129.171 195.328 129.177 194.562 129.151C192.928 129.091 192.535 129.651 193.382 130.831C193.469 130.954 193.587 131.056 193.728 131.127C193.869 131.199 194.028 131.237 194.192 131.241L214.502 131.471" stroke="#F9A99A" stroke-width="2"/>
<path d="M214.501 131.471C213.108 134.837 214.001 136.597 217.181 136.751C222.868 137.017 228.535 137.494 234.181 138.181" stroke="#906966" stroke-width="2"/>
<path d="M234.182 138.181L233.092 138.261C233.012 138.268 232.898 138.321 232.761 138.414C232.624 138.507 232.469 138.637 232.312 138.791C231.865 139.244 231.238 139.471 230.432 139.471C223.485 139.477 216.052 140.281 208.132 141.881" stroke="#FBC8BA" stroke-width="2"/>
<path d="M208.132 141.881C205.912 143.187 203.345 143.634 200.432 143.221C199.958 143.154 199.542 143.391 199.182 143.931" stroke="#FC9E8D" stroke-width="2"/>
<path d="M199.182 143.931C197.728 143.544 196.408 143.807 195.222 144.721" stroke="#FBC8BA" stroke-width="2"/>
<path d="M195.222 144.721C194.962 144.414 194.628 144.247 194.222 144.221" stroke="#FC9E8D" stroke-width="2"/>
<path d="M194.222 144.221C193.928 143.767 193.102 143.247 191.742 142.661C186.468 140.387 181.615 139.297 177.182 139.391C175.202 139.431 173.368 138.971 171.682 138.011" stroke="#FBC8BA" stroke-width="2"/>
<path d="M171.682 138.011L189.952 136.221C191.418 136.074 192.165 135.247 192.192 133.741C192.245 130.641 190.575 129.161 187.182 129.301C182.388 129.494 177.618 129.947 172.872 130.661C168.052 131.381 164.372 132.234 161.832 133.221C161.681 133.281 161.547 133.371 161.438 133.485C161.329 133.599 161.248 133.734 161.202 133.881C160.542 135.967 161.202 137.511 163.182 138.511" stroke="#916667" stroke-width="2"/>
<path d="M163.182 138.511C159.742 140.031 156.172 140.434 152.472 139.721" stroke="#FBC8BA" stroke-width="2"/>
<path d="M167.972 215.471C167.752 215.924 167.635 216.367 167.622 216.801C167.609 217.167 167.752 217.581 168.052 218.041C172.305 224.481 177.402 230.087 183.342 234.861C187.202 237.967 190.882 240.074 194.382 241.181C198.649 242.534 202.982 242.881 207.382 242.221C212.042 241.527 216.725 239.447 221.432 235.981C225.652 232.867 229.389 229.207 232.642 225.001C233.262 224.201 234.049 223.271 235.002 222.211C235.689 221.444 236.479 220.511 237.372 219.411C238.045 218.577 237.969 217.847 237.142 217.221" stroke="#F7A093" stroke-width="2"/>
<path d="M239.721 242.471C239.275 249.164 239.248 255.947 239.642 262.821" stroke="#956D6E" stroke-width="2"/>
<path d="M239.642 262.821C235.895 269.014 231.062 274.217 225.142 278.431" stroke="#D5AEB2" stroke-width="2"/>
<path d="M225.142 278.431C224.022 279.111 222.388 279.894 220.242 280.781C218.288 281.594 216.942 283.131 216.202 285.391" stroke="#8E6765" stroke-width="2"/>
<path d="M216.202 285.391C213.195 291.664 210.898 298.167 209.312 304.901" stroke="#FBCABC" stroke-width="2"/>
<path d="M209.312 304.901C207.045 311.567 204.255 318.317 200.942 325.151C200.728 325.597 200.518 325.597 200.312 325.151C195.638 315.291 191.345 305.217 187.432 294.931" stroke="#9D7072" stroke-width="2"/>
<path d="M187.432 294.931L184.292 282.691C184.181 282.254 183.965 281.832 183.655 281.449C183.346 281.066 182.95 280.73 182.492 280.461L176.432 276.931" stroke="#8F6566" stroke-width="2"/>
<path d="M176.432 276.931C174.892 275.077 173.262 273.304 171.542 271.611C169.062 269.164 167.095 266.367 165.642 263.221" stroke="#C09DA6" stroke-width="2"/>
<path d="M165.642 263.221L165.432 242.511" stroke="#906A68" stroke-width="2"/>
<path d="M169.052 294.391C171.245 295.951 173.575 297.294 176.042 298.421C176.095 298.441 176.625 298.724 177.632 299.271C179.118 300.084 180.172 299.707 180.792 298.141C181.092 297.381 181.248 296.984 181.262 296.951C182.282 294.744 183.198 292.491 184.012 290.191C184.132 289.864 184.288 289.841 184.482 290.121C185.082 290.974 185.445 291.947 185.572 293.041C185.712 294.261 186.332 294.891 187.432 294.931" stroke="#2F192D" stroke-width="2"/>
<path d="M209.312 304.901L211.682 300.431" stroke="#9B7D82" stroke-width="2"/>
<path d="M211.682 300.431C212.208 300.544 212.652 300.464 213.012 300.191C213.245 300.011 213.425 299.651 213.552 299.111C214.085 296.871 215.315 295.261 217.242 294.281C221.748 292.001 225.492 289.064 228.472 285.471" stroke="#2E1A2B" stroke-width="2"/>
<path d="M262.442 253.671C261.435 259.017 259.675 264.021 257.162 268.681C251.695 278.841 244.072 287.314 234.292 294.101C234.153 294.198 233.995 294.263 233.828 294.294C233.661 294.324 233.49 294.318 233.326 294.276C233.162 294.235 233.009 294.158 232.877 294.052C232.745 293.946 232.637 293.812 232.562 293.661L228.472 285.471" stroke="#756178" stroke-width="2"/>
<path d="M228.472 285.471L225.142 278.431" stroke="#65586B" stroke-width="2"/>
<path d="M272.182 256.511L262.442 253.671" stroke="#826A7C" stroke-width="2"/>
<path d="M262.442 253.671L259.252 248.731" stroke="#B9A8BC" stroke-width="2"/>
<path d="M254.932 139.261L254.902 142.411C254.899 142.53 254.858 142.661 254.782 142.796C254.706 142.931 254.596 143.066 254.462 143.191C254.102 143.517 254.118 143.887 254.512 144.301" stroke="#F8C5B8" stroke-width="2"/>
<path d="M254.512 144.301L253.602 163.781C253.595 163.918 253.559 164.052 253.498 164.174C253.436 164.296 253.349 164.403 253.244 164.489C253.138 164.575 253.015 164.638 252.884 164.673C252.752 164.707 252.615 164.713 252.482 164.691C251.982 164.604 251.492 164.651 251.012 164.831C250.612 164.977 250.265 165.284 249.972 165.751C248.545 168.004 247.865 170.481 247.932 173.181" stroke="#FAAD9F" stroke-width="2"/>
<path d="M247.932 173.181C246.945 174.907 245.945 175.837 244.932 175.971C242.332 176.304 239.748 176.734 237.182 177.261" stroke="#A47B72" stroke-width="2"/>
<path d="M237.182 177.261C234.142 176.581 231.135 176.684 228.162 177.571C227.851 177.661 227.52 177.643 227.222 177.521C225.902 176.967 224.532 176.571 223.112 176.331C219.965 175.791 217.335 174.337 215.222 171.971" stroke="#FBBEB0" stroke-width="2"/>
<path d="M215.222 171.971C212.082 167.644 210.165 162.807 209.472 157.461C209.125 154.741 208.715 152.031 208.242 149.331C208.195 149.044 208.095 148.827 207.942 148.681C207.682 148.414 207.422 148.347 207.162 148.481" stroke="#DF9383" stroke-width="2"/>
<path d="M207.162 148.481L200.932 148.261" stroke="#FAC7BA" stroke-width="2"/>
<path d="M200.932 148.261C198.125 148.354 196.222 147.174 195.222 144.721" stroke="#FAAD9F" stroke-width="2"/>
<path d="M199.182 143.931C201.848 145.531 204.612 145.774 207.472 144.661C207.643 144.593 207.791 144.492 207.898 144.371C208.004 144.25 208.065 144.115 208.072 143.981L208.132 141.881" stroke="#FAAD9F" stroke-width="2"/>
<path d="M194.222 144.221C194.408 150.781 193.655 157.211 191.962 163.511C190.982 167.164 190.252 169.451 189.772 170.371C188.585 172.637 186.698 174.307 184.112 175.381C182.092 176.214 180.032 176.924 177.932 177.511" stroke="#FAAD9F" stroke-width="2"/>
<path d="M177.931 177.511C176.691 177.604 175.731 177.364 175.051 176.791C173.965 175.864 173.158 176.064 172.631 177.391C171.645 179.851 171.761 182.371 172.981 184.951" stroke="#FAC7BA" stroke-width="2"/>
<path d="M172.982 184.951C171.095 182.784 169.768 180.391 169.002 177.771C168.963 177.635 168.884 177.512 168.773 177.415C168.661 177.318 168.523 177.251 168.372 177.221L157.432 175.181" stroke="#A47B72" stroke-width="2"/>
<path d="M155.922 170.831C155.642 167.144 153.725 164.891 150.172 164.071" stroke="#FAC9BA" stroke-width="2"/>
<path d="M150.172 164.071C151.305 162.304 151.872 161.167 151.872 160.661C151.885 155.421 151.712 150.054 151.352 144.561" stroke="#F7AEA2" stroke-width="2"/>
<path d="M151.352 144.561C152.318 143.067 152.178 141.634 150.932 140.261" stroke="#FAC9BA" stroke-width="2"/>
<path d="M203.682 194.511L201.192 195.171" stroke="#FAC6BE" stroke-width="2"/>
<path d="M201.192 195.171L191.472 190.251" stroke="#EB817B" stroke-width="2"/>
<path d="M191.472 190.251L192.182 188.761" stroke="#FAC6BE" stroke-width="2"/>
<path d="M191.472 190.251C190.645 189.124 189.868 189.067 189.142 190.081C189.083 190.163 189.04 190.256 189.018 190.355C188.995 190.453 188.993 190.555 189.011 190.654C189.029 190.753 189.066 190.848 189.121 190.931C189.176 191.015 189.248 191.086 189.332 191.141C193.065 193.567 197.018 194.911 201.192 195.171" stroke="#EC7164" stroke-width="2"/>
<path d="M215.222 171.971C215.002 172.964 215.078 173.897 215.452 174.771C215.517 174.917 215.55 175.073 215.548 175.225C215.546 175.378 215.51 175.523 215.442 175.651C214.702 177.051 214.315 178.451 214.282 179.851" stroke="#E17967" stroke-width="2"/>
<path d="M214.282 179.851C212.108 180.151 209.842 181.074 207.482 182.621C207.399 182.674 207.307 182.711 207.211 182.728C207.115 182.745 207.016 182.743 206.922 182.721C206.042 182.514 205.832 182.737 206.292 183.391C207.218 184.704 208.098 186.051 208.932 187.431" stroke="#8A3729" stroke-width="2"/>
<path d="M208.932 187.431C205.118 187.931 201.285 188.091 197.432 187.911C195.618 187.824 193.868 188.107 192.182 188.761" stroke="#DF9288" stroke-width="2"/>
<path d="M192.182 188.761L190.862 188.021" stroke="#E08271" stroke-width="2"/>
<path d="M190.862 188.021C193.575 185.981 196.682 185.037 200.182 185.191C200.332 185.197 200.479 185.157 200.598 185.077C200.718 184.998 200.804 184.882 200.842 184.751C201.128 183.751 201.075 182.754 200.682 181.761" stroke="#8A3729" stroke-width="2"/>
<path d="M207.162 148.481C207.075 157.354 208.422 166.217 211.202 175.071C211.339 175.509 211.363 175.975 211.27 176.424C211.177 176.874 210.971 177.293 210.672 177.641C208.138 180.554 204.808 181.927 200.682 181.761" stroke="#E08271" stroke-width="2"/>
<path d="M200.681 181.761C198.815 181.274 196.991 180.657 195.211 179.911C192.765 178.884 190.368 178.944 188.021 180.091C183.708 182.191 180.421 185.337 178.161 189.531C178.095 189.654 177.987 189.75 177.86 189.798C177.732 189.846 177.593 189.843 177.471 189.791C175.211 188.817 173.715 187.204 172.981 184.951" stroke="#A56B60" stroke-width="2"/>
<path d="M237.182 177.261C236.188 178.967 235.282 180.721 234.462 182.521C232.808 186.134 230.215 188.754 226.682 190.381C226.57 190.432 226.448 190.459 226.325 190.46C226.201 190.462 226.079 190.437 225.966 190.388C225.853 190.339 225.751 190.267 225.668 190.176C225.584 190.085 225.521 189.978 225.482 189.861C223.682 184.447 219.948 181.111 214.282 179.851" stroke="#A66256" stroke-width="2"/>
<path d="M200.932 148.261C199.892 158.194 196.478 167.124 190.692 175.051C189.392 176.817 187.902 178.051 186.222 178.751C183.722 179.784 181.272 180.127 178.872 179.781C176.912 179.501 176.598 178.744 177.932 177.511" stroke="#FB9D8D" stroke-width="2"/>
<path d="M216.942 129.641L214.502 131.471" stroke="#8C5858" stroke-width="2"/>
<path d="M171.682 138.011L163.182 138.511" stroke="#8F7579" stroke-width="2"/>
<path d="M242.682 138.181H234.182" stroke="#8E7878" stroke-width="2"/>
<path d="M211.682 300.431C213.642 295.597 215.148 290.584 216.202 285.391" stroke="#8C7475" stroke-width="2"/>
<path d="M314.959 144.703C314.796 144.104 314.369 143.604 313.773 143.311C313.176 143.018 312.459 142.958 311.778 143.143C311.097 143.328 310.509 143.743 310.143 144.297C309.776 144.851 309.662 145.499 309.825 146.098C309.987 146.697 310.414 147.198 311.01 147.491C311.607 147.783 312.324 147.844 313.005 147.659C313.686 147.474 314.274 147.059 314.64 146.504C315.007 145.95 315.121 145.302 314.959 144.703Z" stroke="#9088A8" stroke-width="2"/>
<path d="M314.612 164.051C314.612 162.664 314.061 161.333 313.08 160.353C312.099 159.372 310.769 158.821 309.382 158.821C307.995 158.821 306.665 159.372 305.684 160.353C304.703 161.333 304.152 162.664 304.152 164.051C304.152 165.438 304.703 166.768 305.684 167.749C306.665 168.73 307.995 169.281 309.382 169.281C310.769 169.281 312.099 168.73 313.08 167.749C314.061 166.768 314.612 165.438 314.612 164.051Z" stroke="#948DAA" stroke-width="2"/>
<path d="M322.642 179.501C322.642 179.183 322.579 178.868 322.458 178.575C322.336 178.281 322.158 178.014 321.933 177.79C321.708 177.565 321.441 177.387 321.148 177.265C320.854 177.143 320.54 177.081 320.222 177.081C319.58 177.081 318.964 177.336 318.511 177.79C318.057 178.243 317.802 178.859 317.802 179.501C317.802 180.143 318.057 180.758 318.511 181.212C318.964 181.666 319.58 181.921 320.222 181.921C320.54 181.921 320.854 181.858 321.148 181.737C321.441 181.615 321.708 181.437 321.933 181.212C322.158 180.987 322.336 180.72 322.458 180.427C322.579 180.133 322.642 179.819 322.642 179.501Z" stroke="#948DAA" stroke-width="2"/>
<path d="M114.852 217.377C116.18 217.585 117.582 216.97 118.748 215.668C119.914 214.367 120.75 212.484 121.071 210.435C121.23 209.421 121.257 208.396 121.152 207.419C121.047 206.442 120.812 205.533 120.459 204.742C120.106 203.952 119.643 203.297 119.096 202.813C118.549 202.33 117.929 202.028 117.272 201.925C115.943 201.717 114.542 202.331 113.375 203.633C112.209 204.935 111.374 206.817 111.053 208.866C110.894 209.881 110.866 210.906 110.971 211.883C111.076 212.859 111.312 213.769 111.664 214.559C112.017 215.349 112.48 216.005 113.027 216.488C113.574 216.972 114.194 217.274 114.852 217.377Z" stroke="#948BA5" stroke-width="2"/>
<path d="M262.682 226.691C260.702 226.664 259.948 227.941 260.422 230.521C260.768 232.427 261.615 233.294 262.962 233.121C263.922 233.001 264.708 232.467 265.322 231.521C266.108 230.307 266.112 229.147 265.332 228.041C264.712 227.147 263.828 226.697 262.682 226.691Z" stroke="#9088A8" stroke-width="2"/>
<path d="M274.682 230.761C274.682 230.053 274.401 229.373 273.9 228.873C273.399 228.372 272.72 228.091 272.012 228.091C271.304 228.091 270.625 228.372 270.124 228.873C269.623 229.373 269.342 230.053 269.342 230.761C269.342 231.111 269.411 231.459 269.545 231.783C269.679 232.106 269.876 232.401 270.124 232.649C270.372 232.897 270.666 233.093 270.99 233.228C271.314 233.362 271.661 233.431 272.012 233.431C272.72 233.431 273.399 233.149 273.9 232.649C274.401 232.148 274.682 231.469 274.682 230.761Z" stroke="#9088A8" stroke-width="2"/>
<path d="M168.182 143.261L161.752 143.481" stroke="#F7BEAC" stroke-width="2"/>
<path d="M161.752 143.481L156.432 143.971C156.165 143.994 155.915 144.134 155.73 144.363C155.546 144.592 155.44 144.893 155.432 145.211C155.245 153.691 156.205 162.031 158.312 170.231C158.985 172.857 160.942 174.271 164.182 174.471C171.202 174.897 177.112 174.454 181.912 173.141C184.812 172.347 186.715 170.354 187.622 167.161C189.435 160.747 190.305 154.607 190.232 148.741C190.212 147.221 189.982 146.087 189.542 145.341C188.875 144.227 187.839 143.521 186.432 143.221C180.545 141.974 174.462 141.987 168.182 143.261" stroke="#F8AB9C" stroke-width="2"/>
<path d="M161.752 143.481C162.478 148.627 162.475 153.311 161.742 157.531C161.662 158.004 161.718 158.327 161.912 158.501C161.954 158.538 162.007 158.559 162.064 158.562C162.122 158.565 162.183 158.551 162.243 158.519C162.302 158.487 162.357 158.44 162.404 158.381C162.451 158.322 162.488 158.253 162.512 158.181C164.298 152.534 167.775 148.271 172.942 145.391C173.098 145.304 173.229 145.194 173.32 145.072C173.412 144.95 173.461 144.822 173.462 144.701C173.468 144.501 173.412 144.334 173.292 144.201C173.132 144.034 172.872 143.977 172.512 144.031C171.545 144.184 170.592 144.361 169.652 144.561C168.572 144.787 168.082 144.354 168.182 143.261" stroke="#F6917C" stroke-width="2"/>
<path d="M237.532 142.801C235.318 142.227 232.952 142.047 230.432 142.261" stroke="#F9C1B3" stroke-width="2"/>
<path d="M230.432 142.261C225.665 141.861 220.485 142.077 214.892 142.911C213.692 143.091 213.039 143.784 212.932 144.991C212.679 147.744 212.509 150.737 212.422 153.971C212.235 160.577 214.275 166.167 218.542 170.741C219.595 171.867 220.925 172.637 222.532 173.051C229.652 174.857 236.609 174.997 243.402 173.471C244.749 173.171 245.639 172.367 246.072 171.061C247.892 165.554 248.922 160.024 249.162 154.471C249.309 151.137 249.485 147.737 249.692 144.271C249.7 144.137 249.654 144.006 249.564 143.905C249.475 143.804 249.348 143.741 249.212 143.731L237.532 142.801" stroke="#FAAD9F" stroke-width="2"/>
<path d="M230.432 142.261C229.778 142.801 229.395 143.437 229.282 144.171C229.261 144.301 229.291 144.439 229.366 144.565C229.442 144.691 229.559 144.798 229.702 144.871C231.342 145.704 232.555 147.061 233.342 148.941" stroke="#F99786" stroke-width="2"/>
<path d="M233.342 148.941C230.255 146.681 226.952 146.011 223.432 146.931" stroke="#E06956" stroke-width="2"/>
<path d="M223.432 146.931C221.985 147.577 221.138 148.674 220.892 150.221" stroke="#B15B4E" stroke-width="2"/>
<path d="M220.892 150.221C220.572 150.494 220.335 150.841 220.182 151.261" stroke="#C56E5D" stroke-width="2"/>
<path d="M220.182 151.261C219.595 151.161 219.252 151.964 219.152 153.671C219.105 154.397 218.945 155.097 218.672 155.771C217.498 158.677 217.438 161.507 218.492 164.261C218.585 164.501 218.698 164.494 218.832 164.241L221.122 159.861C221.21 159.697 221.266 159.529 221.282 159.379C221.298 159.229 221.273 159.104 221.212 159.021L220.732 158.371C220.445 157.977 220.288 157.701 220.262 157.541C220.168 156.794 220.475 156.557 221.182 156.831C221.362 156.897 221.628 157.067 221.982 157.341C223.095 158.221 224.328 158.334 225.682 157.681" stroke="#FC9483" stroke-width="2"/>
<path d="M225.682 157.681C228.022 157.974 230.222 157.564 232.282 156.451C232.362 156.404 232.858 156.184 233.772 155.791C234.952 155.277 235.435 154.254 235.222 152.721" stroke="#F6A597" stroke-width="2"/>
<path d="M235.222 152.721C235.735 153.727 236.918 154.184 238.772 154.091" stroke="#E06956" stroke-width="2"/>
<path d="M238.772 154.091C240.172 150.244 239.758 146.481 237.532 142.801" stroke="#F99786" stroke-width="2"/>
<path d="M238.772 154.091L233.342 148.941" stroke="#DF7C6A" stroke-width="2"/>
<path d="M226.432 147.931C227.038 148.204 227.468 148.634 227.722 149.221" stroke="#AD7D73" stroke-width="2"/>
<path d="M227.722 149.221C227.715 150.047 227.568 150.441 227.282 150.401C226.992 150.357 226.697 150.415 226.444 150.564C226.191 150.713 225.996 150.945 225.892 151.221C225.052 153.454 224.105 153.901 223.052 152.561C222.398 151.734 221.678 150.954 220.892 150.221" stroke="#7C4639" stroke-width="2"/>
<path d="M225.682 157.191C222.408 156.537 220.575 154.561 220.182 151.261" stroke="#C77F6D" stroke-width="2"/>
<path d="M225.682 157.681V157.191" stroke="#F8B6A7" stroke-width="2"/>
<path d="M225.682 157.191C228.208 154.937 228.888 152.281 227.722 149.221" stroke="#C19081" stroke-width="2"/>
<path d="M235.222 152.721C232.688 150.334 230.008 148.584 227.182 147.471C226.622 147.251 226.372 147.404 226.432 147.931" stroke="#DC8B7B" stroke-width="2"/>
<path d="M226.432 147.931L223.432 146.931" stroke="#964132" stroke-width="2"/>
<path d="M175.682 147.261C174.202 147.187 173.465 147.757 173.472 148.971" stroke="#DE6653" stroke-width="2"/>
<path d="M173.472 148.971L169.212 154.051C169.173 154.094 169.148 154.146 169.137 154.202C169.127 154.259 169.132 154.318 169.152 154.373C169.172 154.429 169.207 154.479 169.252 154.519C169.298 154.559 169.353 154.587 169.412 154.601C171.818 155.227 174.262 155.511 176.742 155.451" stroke="#EF9889" stroke-width="2"/>
<path d="M176.742 155.451C178.755 156.257 180.272 156.017 181.292 154.731C182.032 153.797 182.332 152.547 182.192 150.981C181.898 147.527 179.728 146.287 175.682 147.261" stroke="#A95F55" stroke-width="2"/>
<path d="M176.742 155.451C175.402 153.471 174.978 151.477 175.472 149.471" stroke="#A17973" stroke-width="2"/>
<path d="M175.472 149.471C175.745 148.791 175.815 148.054 175.682 147.261" stroke="#90473C" stroke-width="2"/>
<path d="M175.472 149.471C175.118 148.544 174.452 148.377 173.472 148.971" stroke="#D68071" stroke-width="2"/>
<path d="M182.652 163.381C183.818 164.187 184.598 163.911 184.992 162.551C185.332 161.377 185.485 160.341 185.452 159.441C185.398 158.034 184.858 157.811 183.832 158.771C181.605 160.844 181.212 162.381 182.652 163.381Z" stroke="#F7B9AE" stroke-width="2"/>
<path d="M198.482 265.861C198.482 265.633 198.391 265.414 198.23 265.253C198.068 265.091 197.85 265.001 197.622 265.001H197.582C197.354 265.001 197.135 265.091 196.974 265.253C196.812 265.414 196.722 265.633 196.722 265.861V278.181C196.722 278.409 196.812 278.628 196.974 278.789C197.135 278.95 197.354 279.041 197.582 279.041H197.622C197.85 279.041 198.068 278.95 198.23 278.789C198.391 278.628 198.482 278.409 198.482 278.181V265.861Z" stroke="#FCA294" stroke-width="2"/>
<path d="M266.752 75.3007C269.105 80.1474 270.415 84.5374 270.682 88.4707C271.009 93.3507 271.592 96.9341 272.432 99.2207C275.619 107.907 281.785 111.907 290.932 111.221C297.839 110.701 303.872 110.867 309.032 111.721C328.592 138.114 338.059 168.531 337.432 202.971C336.959 228.831 330.625 252.177 318.432 273.011C317.665 273.004 316.645 272.761 315.372 272.281C309.125 269.934 294.729 264.677 272.182 256.511C288.155 253.964 299.502 245.384 306.222 230.771C310.449 221.577 311.119 212.094 308.232 202.321C305.885 194.387 301.172 188.304 294.092 184.071C291.232 182.357 288.012 181.407 284.432 181.221C280.452 181.014 277.205 182.027 274.692 184.261C272.172 186.507 270.952 189.344 271.032 192.771C271.125 196.497 272.965 199.514 276.552 201.821C278.225 202.894 279.905 203.954 281.592 205.001C285.259 207.287 287.875 210.267 289.442 213.941C290.855 217.274 291.305 221.027 290.792 225.201C290.079 230.914 287.605 235.734 283.372 239.661C276.932 245.614 268.892 248.637 259.252 248.731C256.472 247.771 252.699 246.267 247.932 244.221C247.532 244.047 247.185 244.131 246.892 244.471L239.722 242.471L239.822 214.651C243.722 210.331 246.175 206.104 247.182 201.971C249.102 194.084 249.395 185.017 248.062 174.771C248.046 174.649 248.065 174.513 248.117 174.373C248.168 174.233 248.252 174.093 248.362 173.961C248.529 173.761 248.635 173.527 248.682 173.261L251.752 173.401C263.085 171.214 268.395 164.321 267.682 152.721C267.189 144.667 262.939 140.181 254.932 139.261L251.222 138.971C251.722 136.397 251.542 133.884 250.682 131.431C254.989 127.404 258.079 122.601 259.952 117.021C261.872 111.321 260.682 106.537 256.382 102.671C255.242 101.651 254.925 100.421 255.432 98.9807C256.232 96.6807 256.645 94.3441 256.672 91.9707C256.699 89.2907 256.122 87.0674 254.942 85.3007C253.149 82.6207 250.405 81.2574 246.712 81.2107C246.659 81.2107 246.142 81.2507 245.162 81.3307C242.989 81.5107 241.662 80.3907 241.182 77.9707C240.475 74.3974 238.182 71.7174 234.302 69.9307C228.335 67.184 222.655 67.5641 217.262 71.0707C216.925 71.2878 216.522 71.3768 216.124 71.3218C215.726 71.2668 215.36 71.0714 215.092 70.7707C211.165 66.3107 206.275 65.3674 200.422 67.9407C199.129 68.5141 197.805 68.5874 196.452 68.1607C193.812 67.3274 190.975 66.9174 187.942 66.9307C184.735 66.9507 181.972 67.5074 179.652 68.6007C175.405 70.6007 172.505 74.0374 170.952 78.9107C170.499 80.3374 169.529 80.9574 168.042 80.7707C165.635 80.4574 163.275 80.3074 160.962 80.3207C158.269 80.3407 155.985 80.784 154.112 81.6507C150.252 83.4507 147.802 86.3674 146.762 90.4007C145.969 93.454 145.765 96.6807 146.152 100.081C146.565 103.707 148.012 106.734 150.492 109.161C153.965 112.554 154.715 116.677 152.742 121.531C151.795 123.857 151.862 126.337 152.942 128.971L152.472 139.721L150.932 140.261C142.679 139.794 138.012 143.447 136.932 151.221C136.525 154.147 136.732 157.197 137.552 160.371C138.419 163.737 139.805 166.374 141.712 168.281C145.285 171.854 150.022 172.704 155.922 170.831L157.432 175.181C156.745 182.894 156.662 189.574 157.182 195.221C157.809 202.014 160.572 207.994 165.472 213.161L165.432 242.511L157.432 245.511C151.872 248.231 146.455 251.254 141.182 254.581C126.809 260.887 111.559 268.267 95.4319 276.721C92.2719 278.374 89.5386 280.074 87.2319 281.821C69.7119 256.181 61.3619 227.397 62.1819 195.471C62.8353 170.057 69.3019 146.744 81.5819 125.531C97.6753 97.7441 120.732 78.084 150.752 66.5507C162.879 61.8974 175.355 59.1341 188.182 58.2607C194.715 57.8207 201.379 57.7574 208.172 58.0707C227.812 58.9841 246.585 64.0974 264.492 73.4107C265.632 74.0041 266.385 74.634 266.752 75.3007ZM314.959 144.703C314.796 144.104 314.37 143.604 313.773 143.311C313.177 143.018 312.459 142.958 311.778 143.143C311.098 143.328 310.509 143.743 310.143 144.297C309.777 144.851 309.662 145.499 309.825 146.098C309.988 146.697 310.414 147.198 311.011 147.491C311.607 147.783 312.325 147.844 313.005 147.659C313.686 147.474 314.274 147.059 314.641 146.504C315.007 145.95 315.122 145.302 314.959 144.703ZM314.612 164.051C314.612 162.664 314.061 161.333 313.08 160.353C312.099 159.372 310.769 158.821 309.382 158.821C307.995 158.821 306.665 159.372 305.684 160.353C304.703 161.333 304.152 162.664 304.152 164.051C304.152 165.438 304.703 166.768 305.684 167.749C306.665 168.73 307.995 169.281 309.382 169.281C310.769 169.281 312.099 168.73 313.08 167.749C314.061 166.768 314.612 165.438 314.612 164.051ZM322.642 179.501C322.642 179.183 322.579 178.868 322.458 178.575C322.336 178.281 322.158 178.014 321.933 177.79C321.708 177.565 321.442 177.387 321.148 177.265C320.854 177.143 320.54 177.081 320.222 177.081C319.58 177.081 318.965 177.336 318.511 177.79C318.057 178.243 317.802 178.859 317.802 179.501C317.802 180.143 318.057 180.758 318.511 181.212C318.965 181.666 319.58 181.921 320.222 181.921C320.54 181.921 320.854 181.858 321.148 181.737C321.442 181.615 321.708 181.437 321.933 181.212C322.158 180.987 322.336 180.72 322.458 180.427C322.579 180.133 322.642 179.819 322.642 179.501ZM114.852 217.377C116.181 217.585 117.582 216.97 118.748 215.668C119.915 214.367 120.75 212.484 121.071 210.435C121.23 209.421 121.258 208.396 121.153 207.419C121.048 206.442 120.812 205.533 120.459 204.742C120.107 203.952 119.643 203.297 119.097 202.813C118.55 202.33 117.93 202.028 117.272 201.925C115.943 201.717 114.542 202.331 113.376 203.633C112.209 204.935 111.374 206.817 111.053 208.866C110.894 209.881 110.866 210.906 110.971 211.883C111.076 212.859 111.312 213.769 111.665 214.559C112.017 215.349 112.48 216.005 113.027 216.488C113.574 216.972 114.194 217.274 114.852 217.377ZM262.682 226.691C260.702 226.664 259.949 227.941 260.422 230.521C260.769 232.427 261.615 233.294 262.962 233.121C263.922 233.001 264.709 232.467 265.322 231.521C266.109 230.307 266.112 229.147 265.332 228.041C264.712 227.147 263.829 226.697 262.682 226.691ZM274.682 230.761C274.682 230.053 274.401 229.373 273.9 228.873C273.399 228.372 272.72 228.091 272.012 228.091C271.304 228.091 270.625 228.372 270.124 228.873C269.623 229.373 269.342 230.053 269.342 230.761C269.342 231.111 269.411 231.459 269.545 231.782C269.679 232.106 269.876 232.401 270.124 232.649C270.372 232.897 270.666 233.093 270.99 233.227C271.314 233.362 271.661 233.431 272.012 233.431C272.72 233.431 273.399 233.149 273.9 232.649C274.401 232.148 274.682 231.469 274.682 230.761Z" fill="#737197"/>
<path d="M250.682 131.431C245.389 128.464 241.879 124.064 240.152 118.231C239.665 116.577 239.212 115.391 238.792 114.671C237.959 113.257 236.929 113.091 235.702 114.171C228.915 120.144 221.459 121.804 213.332 119.151C205.732 116.671 199.119 112.591 193.492 106.911C190.019 103.404 187.729 101.444 186.622 101.031C182.862 99.6307 179.985 100.547 177.992 103.781C176.159 106.761 174.639 110.491 173.432 114.971C172.405 118.771 169.802 122.084 165.622 124.911C162.562 126.977 158.335 128.331 152.942 128.971C151.862 126.337 151.795 123.857 152.742 121.531C154.715 116.677 153.965 112.554 150.492 109.161C148.012 106.734 146.565 103.707 146.152 100.081C145.765 96.6807 145.969 93.4541 146.762 90.4007C147.802 86.3674 150.252 83.4507 154.112 81.6507C155.985 80.7841 158.269 80.3407 160.962 80.3207C163.275 80.3074 165.635 80.4574 168.042 80.7707C169.529 80.9574 170.499 80.3374 170.952 78.9107C172.505 74.0374 175.405 70.6007 179.652 68.6007C181.972 67.5074 184.735 66.9507 187.942 66.9307C190.975 66.9174 193.812 67.3274 196.452 68.1607C197.805 68.5874 199.129 68.5141 200.422 67.9407C206.275 65.3674 211.165 66.3107 215.092 70.7707C215.36 71.0714 215.726 71.2668 216.124 71.3218C216.522 71.3768 216.925 71.2878 217.262 71.0707C222.655 67.5641 228.335 67.1841 234.302 69.9307C238.182 71.7174 240.475 74.3974 241.182 77.9707C241.662 80.3907 242.989 81.5107 245.162 81.3307C246.142 81.2507 246.659 81.2107 246.712 81.2107C250.405 81.2574 253.149 82.6207 254.942 85.3007C256.122 87.0674 256.699 89.2907 256.672 91.9707C256.645 94.3441 256.232 96.6807 255.432 98.9807C254.925 100.421 255.242 101.651 256.382 102.671C260.682 106.537 261.872 111.321 259.952 117.021C258.079 122.601 254.989 127.404 250.682 131.431Z" fill="#4E1F18"/>
<path d="M266.752 75.3007C267.485 75.2274 268.192 75.3874 268.872 75.7807C284.959 85.0607 298.345 97.0407 309.032 111.721C303.872 110.867 297.839 110.701 290.932 111.221C281.785 111.907 275.619 107.907 272.432 99.2207C271.592 96.9341 271.009 93.3507 270.682 88.4707C270.415 84.5374 269.105 80.1474 266.752 75.3007Z" fill="#C4B0BD"/>
<path d="M250.682 131.431C251.542 133.884 251.722 136.397 251.222 138.971C248.095 140.764 245.248 140.501 242.682 138.181C243.715 136.281 243.635 134.604 242.442 133.151C242.254 132.917 241.969 132.745 241.632 132.661C233.538 130.647 225.308 129.641 216.942 129.641C210.088 128.601 203.205 128.431 196.292 129.131C195.905 129.171 195.328 129.177 194.562 129.151C192.928 129.091 192.535 129.651 193.382 130.831C193.469 130.954 193.587 131.056 193.728 131.127C193.869 131.199 194.028 131.237 194.192 131.241L214.502 131.471C213.108 134.837 214.002 136.597 217.182 136.751C222.868 137.017 228.535 137.494 234.182 138.181L233.092 138.261C233.012 138.268 232.897 138.321 232.76 138.414C232.623 138.507 232.469 138.637 232.312 138.791C231.865 139.244 231.238 139.471 230.432 139.471C223.485 139.477 216.052 140.281 208.132 141.881C205.912 143.187 203.345 143.634 200.432 143.221C199.958 143.154 199.542 143.391 199.182 143.931C197.728 143.544 196.408 143.807 195.222 144.721C194.962 144.414 194.628 144.247 194.222 144.221C193.928 143.767 193.102 143.247 191.742 142.661C186.468 140.387 181.615 139.297 177.182 139.391C175.202 139.431 173.368 138.971 171.682 138.011L189.952 136.221C191.418 136.074 192.165 135.247 192.192 133.741C192.245 130.641 190.575 129.161 187.182 129.301C182.388 129.494 177.618 129.947 172.872 130.661C168.052 131.381 164.372 132.234 161.832 133.221C161.681 133.281 161.547 133.371 161.438 133.485C161.329 133.599 161.248 133.734 161.202 133.881C160.542 135.967 161.202 137.511 163.182 138.511C159.742 140.031 156.172 140.434 152.472 139.721L152.942 128.971C158.335 128.331 162.562 126.977 165.622 124.911C169.802 122.084 172.405 118.771 173.432 114.971C174.638 110.491 176.158 106.761 177.992 103.781C179.985 100.547 182.862 99.6307 186.622 101.031C187.728 101.444 190.018 103.404 193.492 106.911C199.118 112.591 205.732 116.671 213.332 119.151C221.458 121.804 228.915 120.144 235.702 114.171C236.928 113.091 237.958 113.257 238.792 114.671C239.212 115.391 239.665 116.577 240.152 118.231C241.878 124.064 245.388 128.464 250.682 131.431Z" fill="#FDB9A8"/>
<path d="M216.942 129.641L214.502 131.471L194.192 131.241C194.028 131.237 193.869 131.199 193.728 131.127C193.587 131.056 193.469 130.954 193.382 130.831C192.535 129.651 192.928 129.091 194.562 129.151C195.328 129.177 195.905 129.171 196.292 129.131C203.205 128.431 210.088 128.601 216.942 129.641Z" fill="#F5988B"/>
<path d="M171.682 138.011L163.182 138.511C161.202 137.511 160.542 135.967 161.202 133.881C161.248 133.734 161.329 133.599 161.438 133.485C161.547 133.371 161.681 133.281 161.832 133.221C164.372 132.234 168.052 131.381 172.872 130.661C177.618 129.947 182.388 129.494 187.182 129.301C190.575 129.161 192.245 130.641 192.192 133.741C192.165 135.247 191.418 136.074 189.952 136.221L171.682 138.011Z" fill="#241225"/>
<path d="M216.941 129.641C225.308 129.641 233.538 130.647 241.632 132.661C241.969 132.745 242.254 132.917 242.441 133.151C243.635 134.604 243.715 136.281 242.681 138.181H234.181C228.535 137.494 222.868 137.017 217.181 136.751C214.001 136.597 213.108 134.837 214.501 131.471L216.941 129.641Z" fill="#221824"/>
<path d="M171.682 138.011C173.369 138.971 175.202 139.431 177.182 139.391C181.615 139.297 186.469 140.387 191.742 142.661C193.102 143.247 193.929 143.767 194.222 144.221C194.409 150.781 193.655 157.211 191.962 163.511C190.982 167.164 190.252 169.451 189.772 170.371C188.585 172.637 186.699 174.307 184.112 175.381C182.092 176.214 180.032 176.924 177.932 177.511C176.692 177.604 175.732 177.364 175.052 176.791C173.965 175.864 173.159 176.064 172.632 177.391C171.645 179.851 171.762 182.371 172.982 184.951C171.095 182.784 169.769 180.391 169.002 177.771C168.963 177.635 168.884 177.512 168.773 177.415C168.662 177.318 168.523 177.251 168.372 177.221L157.432 175.181L155.922 170.831C155.642 167.144 153.725 164.891 150.172 164.071C151.305 162.304 151.872 161.167 151.872 160.661C151.885 155.421 151.712 150.054 151.352 144.561C152.319 143.067 152.179 141.634 150.932 140.261L152.472 139.721C156.172 140.434 159.742 140.031 163.182 138.511L171.682 138.011ZM168.182 143.261L161.752 143.481L156.432 143.971C156.165 143.994 155.915 144.134 155.73 144.363C155.546 144.592 155.439 144.893 155.432 145.211C155.245 153.691 156.205 162.031 158.312 170.231C158.985 172.857 160.942 174.271 164.182 174.471C171.202 174.897 177.112 174.454 181.912 173.141C184.812 172.347 186.715 170.354 187.622 167.161C189.435 160.747 190.305 154.607 190.232 148.741C190.212 147.221 189.982 146.087 189.542 145.341C188.875 144.227 187.839 143.521 186.432 143.221C180.545 141.974 174.462 141.987 168.182 143.261Z" fill="#F9D7CC"/>
<path d="M234.182 138.181H242.682C245.248 140.501 248.095 140.764 251.222 138.971L254.932 139.261L254.902 142.411C254.899 142.53 254.858 142.661 254.782 142.796C254.706 142.931 254.596 143.066 254.462 143.191C254.102 143.517 254.118 143.887 254.512 144.301L253.602 163.781C253.595 163.918 253.559 164.052 253.498 164.174C253.436 164.296 253.349 164.403 253.243 164.489C253.138 164.575 253.015 164.638 252.884 164.673C252.752 164.707 252.615 164.713 252.482 164.691C251.982 164.604 251.492 164.651 251.012 164.831C250.612 164.977 250.265 165.284 249.972 165.751C248.545 168.004 247.865 170.481 247.932 173.181C246.945 174.907 245.945 175.837 244.932 175.971C242.332 176.304 239.748 176.734 237.182 177.261C234.142 176.581 231.135 176.684 228.162 177.571C227.851 177.661 227.52 177.643 227.222 177.521C225.902 176.967 224.532 176.571 223.112 176.331C219.965 175.791 217.335 174.337 215.222 171.971C212.082 167.644 210.165 162.807 209.472 157.461C209.125 154.741 208.715 152.031 208.242 149.331C208.195 149.044 208.095 148.827 207.942 148.681C207.682 148.414 207.422 148.347 207.162 148.481L200.932 148.261C198.125 148.354 196.222 147.174 195.222 144.721C196.408 143.807 197.728 143.544 199.182 143.931C201.848 145.531 204.612 145.774 207.472 144.661C207.643 144.593 207.791 144.492 207.898 144.371C208.004 144.25 208.065 144.115 208.072 143.981L208.132 141.881C216.052 140.281 223.485 139.477 230.432 139.471C231.238 139.471 231.865 139.244 232.312 138.791C232.469 138.637 232.623 138.507 232.76 138.414C232.897 138.321 233.012 138.268 233.092 138.261L234.182 138.181ZM237.532 142.801C235.318 142.227 232.952 142.047 230.432 142.261C225.665 141.861 220.485 142.077 214.892 142.911C213.692 143.091 213.038 143.784 212.932 144.991C212.678 147.744 212.508 150.737 212.422 153.971C212.235 160.577 214.275 166.167 218.542 170.741C219.595 171.867 220.925 172.637 222.532 173.051C229.652 174.857 236.608 174.997 243.402 173.471C244.748 173.171 245.638 172.367 246.072 171.061C247.892 165.554 248.922 160.024 249.162 154.471C249.308 151.137 249.485 147.737 249.692 144.271C249.7 144.137 249.654 144.006 249.564 143.905C249.474 143.804 249.348 143.741 249.212 143.731L237.532 142.801Z" fill="#F9D7CC"/>
<path d="M254.932 139.261C262.939 140.181 267.189 144.667 267.682 152.721C268.395 164.321 263.085 171.214 251.752 173.401C253.892 172.421 254.695 170.754 254.162 168.401C254.116 168.189 254.125 167.969 254.188 167.76C254.251 167.552 254.366 167.363 254.522 167.211C259.589 162.297 261.809 156.967 261.182 151.221C260.755 147.301 258.532 144.994 254.512 144.301C254.119 143.887 254.102 143.517 254.462 143.191C254.597 143.066 254.706 142.931 254.782 142.796C254.858 142.661 254.899 142.53 254.902 142.411L254.932 139.261Z" fill="#F7B3A4"/>
<path d="M150.932 140.261C152.178 141.634 152.318 143.067 151.352 144.561C148.872 144.681 146.742 145.457 144.962 146.891C143.308 148.231 142.342 150.097 142.062 152.491C141.402 158.111 144.105 161.971 150.172 164.071C153.725 164.891 155.642 167.144 155.922 170.831C150.022 172.704 145.285 171.854 141.712 168.281C139.805 166.374 138.418 163.737 137.552 160.371C136.732 157.197 136.525 154.147 136.932 151.221C138.012 143.447 142.678 139.794 150.932 140.261Z" fill="#FBBBA8"/>
<path d="M208.132 141.881L208.072 143.981C208.065 144.115 208.004 144.25 207.898 144.371C207.791 144.492 207.643 144.593 207.472 144.661C204.612 145.774 201.848 145.531 199.182 143.931C199.542 143.391 199.958 143.154 200.432 143.221C203.345 143.634 205.912 143.187 208.132 141.881Z" fill="#FA8372"/>
<path d="M230.432 142.261C229.779 142.801 229.395 143.437 229.282 144.171C229.261 144.301 229.291 144.439 229.366 144.565C229.442 144.691 229.559 144.798 229.702 144.871C231.342 145.704 232.555 147.061 233.342 148.941C230.255 146.681 226.952 146.011 223.432 146.931C221.985 147.577 221.139 148.674 220.892 150.221C220.572 150.494 220.335 150.841 220.182 151.261C219.595 151.161 219.252 151.964 219.152 153.671C219.105 154.397 218.945 155.097 218.672 155.771C217.499 158.677 217.439 161.507 218.492 164.261C218.585 164.501 218.699 164.494 218.832 164.241L221.122 159.861C221.21 159.697 221.266 159.529 221.282 159.379C221.298 159.229 221.274 159.104 221.212 159.021L220.732 158.371C220.445 157.977 220.289 157.701 220.262 157.541C220.169 156.794 220.475 156.557 221.182 156.831C221.362 156.897 221.629 157.067 221.982 157.341C223.095 158.221 224.329 158.334 225.682 157.681C228.022 157.974 230.222 157.564 232.282 156.451C232.362 156.404 232.859 156.184 233.772 155.791C234.952 155.277 235.435 154.254 235.222 152.721C235.735 153.727 236.919 154.184 238.772 154.091C240.172 150.244 239.759 146.481 237.532 142.801L249.212 143.731C249.348 143.741 249.475 143.804 249.564 143.905C249.654 144.006 249.7 144.137 249.692 144.271C249.485 147.737 249.309 151.137 249.162 154.471C248.922 160.024 247.892 165.554 246.072 171.061C245.639 172.367 244.749 173.171 243.402 173.471C236.609 174.997 229.652 174.857 222.532 173.051C220.925 172.637 219.595 171.867 218.542 170.741C214.275 166.167 212.235 160.577 212.422 153.971C212.509 150.737 212.679 147.744 212.932 144.991C213.039 143.784 213.692 143.091 214.892 142.911C220.485 142.077 225.665 141.861 230.432 142.261Z" fill="#FA8372"/>
<path d="M161.752 143.481C162.479 148.627 162.475 153.311 161.742 157.531C161.662 158.004 161.719 158.327 161.912 158.501C161.955 158.538 162.007 158.559 162.065 158.562C162.122 158.565 162.184 158.551 162.243 158.519C162.302 158.487 162.358 158.44 162.405 158.381C162.451 158.322 162.488 158.253 162.512 158.181C164.299 152.534 167.775 148.271 172.942 145.391C173.098 145.304 173.229 145.194 173.321 145.072C173.413 144.95 173.461 144.822 173.462 144.701C173.469 144.501 173.412 144.334 173.292 144.201C173.132 144.034 172.872 143.977 172.512 144.031C171.545 144.184 170.592 144.361 169.652 144.561C168.572 144.787 168.082 144.354 168.182 143.261C174.462 141.987 180.545 141.974 186.432 143.221C187.839 143.521 188.875 144.227 189.542 145.341C189.982 146.087 190.212 147.221 190.232 148.741C190.305 154.607 189.435 160.747 187.622 167.161C186.715 170.354 184.812 172.347 181.912 173.141C177.112 174.454 171.202 174.897 164.182 174.471C160.942 174.271 158.985 172.857 158.312 170.231C156.205 162.031 155.245 153.691 155.432 145.211C155.44 144.893 155.546 144.592 155.73 144.363C155.915 144.134 156.165 143.994 156.432 143.971L161.752 143.481ZM175.682 147.261C174.202 147.187 173.465 147.757 173.472 148.971L169.212 154.051C169.174 154.094 169.148 154.146 169.137 154.202C169.127 154.259 169.132 154.318 169.152 154.373C169.172 154.429 169.207 154.479 169.252 154.519C169.298 154.559 169.353 154.587 169.412 154.601C171.819 155.227 174.262 155.511 176.742 155.451C178.755 156.257 180.272 156.017 181.292 154.731C182.032 153.797 182.332 152.547 182.192 150.981C181.899 147.527 179.729 146.287 175.682 147.261ZM182.652 163.381C183.819 164.187 184.599 163.911 184.992 162.551C185.332 161.377 185.485 160.341 185.452 159.441C185.399 158.034 184.859 157.811 183.832 158.771C181.605 160.844 181.212 162.381 182.652 163.381Z" fill="#F77E6B"/>
<path d="M230.432 142.261C232.952 142.047 235.318 142.227 237.532 142.801C239.758 146.481 240.172 150.244 238.772 154.091L233.342 148.941C232.555 147.061 231.342 145.704 229.702 144.871C229.559 144.798 229.442 144.691 229.366 144.565C229.291 144.439 229.261 144.301 229.282 144.171C229.395 143.437 229.778 142.801 230.432 142.261Z" fill="#F8AA9A"/>
<path d="M313.005 147.659C314.423 147.274 315.298 145.95 314.959 144.703C314.62 143.456 313.196 142.757 311.778 143.143C310.361 143.528 309.486 144.851 309.825 146.098C310.164 147.345 311.588 148.044 313.005 147.659Z" fill="#AC9FB8"/>
<path d="M168.182 143.261C168.082 144.354 168.572 144.787 169.652 144.561C170.592 144.361 171.545 144.184 172.512 144.031C172.872 143.977 173.132 144.034 173.292 144.201C173.412 144.334 173.468 144.501 173.462 144.701C173.461 144.822 173.412 144.95 173.32 145.072C173.229 145.194 173.098 145.304 172.942 145.391C167.775 148.271 164.298 152.534 162.512 158.181C162.488 158.253 162.451 158.322 162.404 158.381C162.357 158.44 162.302 158.487 162.243 158.519C162.183 158.551 162.122 158.565 162.064 158.562C162.007 158.559 161.954 158.538 161.912 158.501C161.718 158.327 161.662 158.004 161.742 157.531C162.475 153.311 162.478 148.627 161.752 143.481L168.182 143.261Z" fill="#F5A48C"/>
<path d="M251.752 173.401L248.682 173.261L247.932 173.181C247.865 170.481 248.545 168.004 249.972 165.751C250.265 165.284 250.612 164.977 251.012 164.831C251.492 164.651 251.982 164.604 252.482 164.691C252.615 164.713 252.752 164.707 252.884 164.673C253.015 164.638 253.138 164.575 253.244 164.489C253.349 164.403 253.436 164.296 253.498 164.174C253.559 164.052 253.595 163.918 253.602 163.781L254.512 144.301C258.532 144.994 260.755 147.301 261.182 151.221C261.808 156.967 259.588 162.297 254.522 167.211C254.366 167.363 254.251 167.552 254.188 167.76C254.125 167.969 254.116 168.189 254.162 168.401C254.695 170.754 253.892 172.421 251.752 173.401Z" fill="#FA8372"/>
<path d="M151.352 144.561C151.712 150.054 151.885 155.421 151.872 160.661C151.872 161.167 151.305 162.304 150.172 164.071C144.105 161.971 141.402 158.111 142.062 152.491C142.342 150.097 143.309 148.231 144.962 146.891C146.742 145.457 148.872 144.681 151.352 144.561Z" fill="#F58477"/>
<path d="M194.222 144.221C194.628 144.247 194.962 144.414 195.222 144.721C196.222 147.174 198.125 148.354 200.932 148.261C199.892 158.194 196.478 167.124 190.692 175.051C189.392 176.817 187.902 178.051 186.222 178.751C183.722 179.784 181.272 180.127 178.872 179.781C176.912 179.501 176.598 178.744 177.932 177.511C180.032 176.924 182.092 176.214 184.112 175.381C186.698 174.307 188.585 172.637 189.772 170.371C190.252 169.451 190.982 167.164 191.962 163.511C193.655 157.211 194.408 150.781 194.222 144.221Z" fill="#FA8372"/>
<path d="M233.342 148.941L238.772 154.091C236.918 154.184 235.735 153.727 235.222 152.721C232.688 150.334 230.008 148.584 227.182 147.471C226.622 147.251 226.372 147.404 226.432 147.931L223.432 146.931C226.952 146.011 230.255 146.681 233.342 148.941Z" fill="#C54E3A"/>
<path d="M176.742 155.451C175.402 153.471 174.978 151.477 175.472 149.471C175.745 148.791 175.815 148.054 175.682 147.261C179.728 146.287 181.898 147.527 182.192 150.981C182.332 152.547 182.032 153.797 181.292 154.731C180.272 156.017 178.755 156.257 176.742 155.451Z" fill="#5A403E"/>
<path d="M223.432 146.931L226.432 147.931C227.038 148.204 227.468 148.634 227.722 149.221C227.715 150.047 227.568 150.441 227.282 150.401C226.992 150.357 226.697 150.415 226.444 150.564C226.191 150.713 225.996 150.945 225.892 151.221C225.052 153.454 224.105 153.901 223.052 152.561C222.398 151.734 221.678 150.954 220.892 150.221C221.138 148.674 221.985 147.577 223.432 146.931Z" fill="#67332A"/>
<path d="M175.682 147.261C175.815 148.054 175.745 148.791 175.472 149.471C175.118 148.544 174.452 148.377 173.472 148.971C173.465 147.757 174.202 147.187 175.682 147.261Z" fill="#C54E3A"/>
<path d="M235.222 152.721C235.435 154.254 234.952 155.277 233.772 155.791C232.858 156.184 232.362 156.404 232.282 156.451C230.222 157.564 228.022 157.974 225.682 157.681V157.191C228.208 154.937 228.888 152.281 227.722 149.221C227.468 148.634 227.038 148.204 226.432 147.931C226.372 147.404 226.622 147.251 227.182 147.471C230.008 148.584 232.688 150.334 235.222 152.721Z" fill="#F2C7BB"/>
<path d="M200.931 148.261L207.161 148.481C207.075 157.354 208.421 166.217 211.201 175.071C211.339 175.509 211.362 175.975 211.27 176.424C211.177 176.874 210.971 177.293 210.671 177.641C208.138 180.554 204.808 181.927 200.681 181.761C198.815 181.274 196.991 180.657 195.211 179.911C192.765 178.884 190.368 178.944 188.021 180.091C183.708 182.191 180.421 185.337 178.161 189.531C178.095 189.654 177.987 189.75 177.86 189.798C177.732 189.846 177.593 189.843 177.471 189.791C175.211 188.817 173.715 187.204 172.981 184.951C171.761 182.371 171.645 179.851 172.631 177.391C173.158 176.064 173.965 175.864 175.051 176.791C175.731 177.364 176.691 177.604 177.931 177.511C176.598 178.744 176.911 179.501 178.871 179.781C181.271 180.127 183.721 179.784 186.221 178.751C187.901 178.051 189.391 176.817 190.691 175.051C196.478 167.124 199.891 158.194 200.931 148.261Z" fill="#FBB6A7"/>
<path d="M207.162 148.481C207.422 148.347 207.682 148.414 207.942 148.681C208.095 148.827 208.195 149.044 208.242 149.331C208.715 152.031 209.125 154.741 209.472 157.461C210.165 162.807 212.082 167.644 215.222 171.971C215.002 172.964 215.079 173.897 215.452 174.771C215.517 174.917 215.55 175.073 215.548 175.225C215.546 175.378 215.51 175.523 215.442 175.651C214.702 177.051 214.315 178.451 214.282 179.851C212.108 180.151 209.842 181.074 207.482 182.621C207.4 182.674 207.307 182.711 207.211 182.728C207.115 182.745 207.017 182.743 206.922 182.721C206.042 182.514 205.832 182.737 206.292 183.391C207.218 184.704 208.098 186.051 208.932 187.431C205.118 187.931 201.285 188.091 197.432 187.911C195.618 187.824 193.868 188.107 192.182 188.761L190.862 188.021C193.575 185.981 196.682 185.037 200.182 185.191C200.332 185.197 200.479 185.157 200.598 185.077C200.718 184.998 200.804 184.882 200.842 184.751C201.128 183.751 201.075 182.754 200.682 181.761C204.808 181.927 208.138 180.554 210.672 177.641C210.971 177.293 211.177 176.874 211.27 176.424C211.363 175.975 211.339 175.509 211.202 175.071C208.422 166.217 207.075 157.354 207.162 148.481Z" fill="#C54E3A"/>
<path d="M175.472 149.471C174.978 151.477 175.402 153.471 176.742 155.451C174.262 155.511 171.818 155.227 169.412 154.601C169.353 154.587 169.298 154.559 169.252 154.519C169.207 154.479 169.172 154.429 169.152 154.373C169.132 154.318 169.127 154.259 169.137 154.202C169.148 154.146 169.173 154.094 169.212 154.051L173.472 148.971C174.452 148.377 175.118 148.544 175.472 149.471Z" fill="#E7B1A7"/>
<path d="M227.722 149.221C228.888 152.281 228.208 154.937 225.682 157.191C222.408 156.537 220.575 154.561 220.182 151.261C220.335 150.841 220.572 150.494 220.892 150.221C221.678 150.954 222.398 151.734 223.052 152.561C224.105 153.901 225.052 153.454 225.892 151.221C225.996 150.945 226.191 150.713 226.444 150.564C226.697 150.415 226.992 150.357 227.282 150.401C227.568 150.441 227.715 150.047 227.722 149.221Z" fill="#905947"/>
<path d="M220.182 151.261C220.575 154.561 222.408 156.537 225.682 157.191V157.681C224.328 158.334 223.095 158.221 221.982 157.341C221.628 157.067 221.362 156.897 221.182 156.831C220.475 156.557 220.168 156.794 220.262 157.541C220.288 157.701 220.445 157.977 220.732 158.371L221.212 159.021C221.273 159.104 221.298 159.229 221.282 159.379C221.266 159.529 221.21 159.697 221.122 159.861L218.832 164.241C218.698 164.494 218.585 164.501 218.492 164.261C217.438 161.507 217.498 158.677 218.672 155.771C218.945 155.097 219.105 154.397 219.152 153.671C219.252 151.964 219.595 151.161 220.182 151.261Z" fill="#FDA493"/>
<path d="M182.652 163.381C181.212 162.381 181.605 160.844 183.832 158.771C184.858 157.811 185.398 158.034 185.452 159.441C185.485 160.341 185.332 161.377 184.992 162.551C184.598 163.911 183.818 164.187 182.652 163.381Z" fill="#F6F3F1"/>
<path d="M309.382 169.281C312.27 169.281 314.612 166.939 314.612 164.051C314.612 161.162 312.27 158.821 309.382 158.821C306.493 158.821 304.152 161.162 304.152 164.051C304.152 166.939 306.493 169.281 309.382 169.281Z" fill="#B5A9BC"/>
<path d="M215.222 171.971C217.335 174.337 219.965 175.791 223.112 176.331C224.532 176.571 225.902 176.967 227.222 177.521C227.52 177.643 227.851 177.661 228.162 177.571C231.135 176.684 234.142 176.581 237.182 177.261C236.188 178.967 235.282 180.721 234.462 182.521C232.808 186.134 230.215 188.754 226.682 190.381C226.57 190.432 226.448 190.459 226.325 190.46C226.201 190.462 226.079 190.437 225.966 190.388C225.853 190.339 225.751 190.267 225.668 190.176C225.584 190.085 225.521 189.978 225.482 189.861C223.682 184.447 219.948 181.111 214.282 179.851C214.315 178.451 214.702 177.051 215.442 175.651C215.51 175.523 215.546 175.378 215.548 175.225C215.55 175.073 215.517 174.917 215.452 174.771C215.078 173.897 215.002 172.964 215.222 171.971Z" fill="#FDA493"/>
<path d="M247.932 173.181L248.682 173.261C248.635 173.527 248.528 173.761 248.362 173.961C248.252 174.093 248.168 174.233 248.116 174.373C248.065 174.513 248.046 174.649 248.062 174.771C249.395 185.017 249.102 194.084 247.182 201.971C246.175 206.104 243.722 210.331 239.822 214.651L237.142 217.221C231.362 222.794 225.689 227.441 220.122 231.161C206.675 240.127 193.882 239.294 181.742 228.661C175.948 223.581 171.359 219.184 167.972 215.471L165.472 213.161C160.572 207.994 157.809 202.014 157.182 195.221C156.662 189.574 156.745 182.894 157.432 175.181L168.372 177.221C168.523 177.251 168.662 177.318 168.773 177.415C168.884 177.512 168.963 177.635 169.002 177.771C169.769 180.391 171.095 182.784 172.982 184.951C173.715 187.204 175.212 188.817 177.472 189.791C177.594 189.843 177.732 189.846 177.86 189.798C177.988 189.75 178.096 189.654 178.162 189.531C180.422 185.337 183.708 182.191 188.022 180.091C190.368 178.944 192.765 178.884 195.212 179.911C196.992 180.657 198.815 181.274 200.682 181.761C201.075 182.754 201.128 183.751 200.842 184.751C200.804 184.882 200.718 184.998 200.598 185.077C200.479 185.157 200.332 185.197 200.182 185.191C196.682 185.037 193.575 185.981 190.862 188.021C186.702 189.261 184.928 192.001 185.542 196.241C185.735 197.574 186.262 199.921 187.122 203.281C188.342 208.087 191.385 210.964 196.252 211.911C196.388 211.936 196.529 211.93 196.663 211.891C196.797 211.853 196.922 211.784 197.027 211.689C197.133 211.594 197.217 211.475 197.273 211.343C197.329 211.21 197.356 211.066 197.352 210.921L196.932 199.951C196.927 199.781 196.999 199.617 197.132 199.493C197.266 199.369 197.449 199.297 197.642 199.291L207.732 199.021C207.861 199.017 207.99 199.037 208.11 199.08C208.23 199.124 208.34 199.189 208.431 199.272C208.523 199.355 208.595 199.455 208.644 199.565C208.692 199.675 208.715 199.792 208.712 199.911L208.502 209.161C208.501 209.222 208.513 209.282 208.538 209.338C208.563 209.393 208.6 209.442 208.647 209.481C208.693 209.52 208.747 209.547 208.805 209.561C208.864 209.575 208.924 209.575 208.982 209.561C211.662 208.961 213.625 207.744 214.872 205.911C217.259 202.397 218.412 198.084 218.332 192.971C218.319 192.077 218.089 191.367 217.642 190.841C217.567 190.75 217.459 190.692 217.343 190.679C217.227 190.665 217.112 190.699 217.022 190.771C214.055 193.044 210.828 194.284 207.342 194.491C206.642 194.531 205.969 194.681 205.322 194.941C204.135 195.427 203.589 195.284 203.682 194.511C206.275 193.597 208.922 192.894 211.622 192.401C212.409 192.261 213.059 191.997 213.572 191.611C214.145 191.191 214.689 190.721 215.202 190.201C215.253 190.149 215.292 190.087 215.316 190.018C215.34 189.95 215.35 189.877 215.343 189.805C215.336 189.732 215.314 189.662 215.278 189.599C215.241 189.537 215.191 189.482 215.132 189.441C213.145 188.014 211.079 187.344 208.932 187.431C208.099 186.051 207.218 184.704 206.292 183.391C205.832 182.737 206.042 182.514 206.922 182.721C207.017 182.743 207.115 182.745 207.211 182.728C207.307 182.711 207.4 182.674 207.482 182.621C209.842 181.074 212.108 180.151 214.282 179.851C219.948 181.111 223.682 184.447 225.482 189.861C225.521 189.978 225.585 190.085 225.668 190.176C225.751 190.267 225.853 190.339 225.966 190.388C226.079 190.437 226.201 190.462 226.325 190.46C226.448 190.459 226.57 190.432 226.682 190.381C230.215 188.754 232.809 186.134 234.462 182.521C235.282 180.721 236.189 178.967 237.182 177.261C239.749 176.734 242.332 176.304 244.932 175.971C245.945 175.837 246.945 174.907 247.932 173.181Z" fill="#4E1F18"/>
<path d="M320.222 181.921C321.558 181.921 322.642 180.837 322.642 179.501C322.642 178.164 321.558 177.081 320.222 177.081C318.885 177.081 317.802 178.164 317.802 179.501C317.802 180.837 318.885 181.921 320.222 181.921Z" fill="#B5A9BC"/>
<path d="M272.182 256.511L262.442 253.671L259.252 248.731C268.892 248.637 276.932 245.614 283.372 239.661C287.605 235.734 290.079 230.914 290.792 225.201C291.305 221.027 290.855 217.274 289.442 213.941C287.875 210.267 285.259 207.287 281.592 205.001C279.905 203.954 278.225 202.894 276.552 201.821C272.965 199.514 271.125 196.497 271.032 192.771C270.952 189.344 272.172 186.507 274.692 184.261C277.205 182.027 280.452 181.014 284.432 181.221C288.012 181.407 291.232 182.357 294.092 184.071C301.172 188.304 305.885 194.387 308.232 202.321C311.119 212.094 310.449 221.577 306.222 230.771C299.502 245.384 288.155 253.964 272.182 256.511Z" fill="#C6B1BF"/>
<path d="M208.932 187.431C211.078 187.344 213.145 188.014 215.132 189.441C215.191 189.482 215.241 189.537 215.277 189.599C215.314 189.662 215.336 189.732 215.343 189.805C215.35 189.877 215.34 189.95 215.316 190.018C215.292 190.087 215.253 190.149 215.202 190.201C214.688 190.721 214.145 191.191 213.572 191.611C213.058 191.997 212.408 192.261 211.622 192.401C208.922 192.894 206.275 193.597 203.682 194.511L201.192 195.171L191.472 190.251L192.182 188.761C193.868 188.107 195.618 187.824 197.432 187.911C201.285 188.091 205.118 187.931 208.932 187.431Z" fill="#F9D6D5"/>
<path d="M190.862 188.021L192.182 188.761L191.472 190.251C190.645 189.124 189.868 189.067 189.142 190.081C189.082 190.163 189.04 190.256 189.018 190.355C188.995 190.453 188.993 190.555 189.011 190.654C189.028 190.753 189.066 190.848 189.121 190.931C189.176 191.015 189.248 191.086 189.332 191.141C193.065 193.567 197.018 194.911 201.192 195.171L203.682 194.511C203.588 195.284 204.135 195.427 205.322 194.941C205.968 194.681 206.642 194.531 207.342 194.491C210.828 194.284 214.055 193.044 217.022 190.771C217.112 190.699 217.227 190.665 217.343 190.679C217.459 190.692 217.566 190.75 217.642 190.841C218.088 191.367 218.318 192.077 218.332 192.971C218.412 198.084 217.258 202.397 214.872 205.911C213.625 207.744 211.662 208.961 208.982 209.561C208.924 209.575 208.863 209.575 208.805 209.561C208.747 209.547 208.693 209.52 208.646 209.481C208.6 209.442 208.563 209.393 208.538 209.338C208.513 209.282 208.5 209.222 208.502 209.161L208.712 199.911C208.715 199.792 208.692 199.675 208.643 199.565C208.595 199.455 208.523 199.355 208.431 199.272C208.339 199.189 208.23 199.124 208.11 199.08C207.989 199.037 207.861 199.017 207.732 199.021L197.642 199.291C197.448 199.297 197.265 199.369 197.132 199.493C196.999 199.617 196.927 199.781 196.932 199.951L197.352 210.921C197.356 211.066 197.329 211.21 197.273 211.343C197.217 211.475 197.133 211.594 197.027 211.689C196.922 211.784 196.797 211.853 196.663 211.891C196.529 211.93 196.388 211.936 196.252 211.911C191.385 210.964 188.342 208.087 187.122 203.281C186.262 199.921 185.735 197.574 185.542 196.241C184.928 192.001 186.702 189.261 190.862 188.021Z" fill="#FBB6A7"/>
<path d="M191.472 190.251L201.192 195.171C197.018 194.911 193.065 193.567 189.332 191.141C189.248 191.086 189.176 191.015 189.121 190.931C189.066 190.848 189.029 190.753 189.011 190.654C188.993 190.555 188.995 190.453 189.018 190.355C189.04 190.256 189.083 190.163 189.142 190.081C189.868 189.067 190.645 189.124 191.472 190.251Z" fill="#DC2C21"/>
<path d="M111.053 208.866C110.384 213.133 112.085 216.943 114.852 217.377C117.618 217.81 120.402 214.702 121.07 210.435C121.739 206.168 120.038 202.358 117.271 201.925C114.505 201.492 111.721 204.599 111.053 208.866Z" fill="#B4A4B3"/>
<path d="M165.472 213.161L167.972 215.471C167.752 215.924 167.635 216.367 167.622 216.801C167.608 217.167 167.752 217.581 168.052 218.041C172.305 224.481 177.402 230.087 183.342 234.861C187.202 237.967 190.882 240.074 194.382 241.181C198.648 242.534 202.982 242.881 207.382 242.221C212.042 241.527 216.725 239.447 221.432 235.981C225.652 232.867 229.388 229.207 232.642 225.001C233.262 224.201 234.048 223.271 235.002 222.211C235.688 221.444 236.478 220.511 237.372 219.411C238.045 218.577 237.968 217.847 237.142 217.221L239.822 214.651L239.722 242.471C239.275 249.164 239.248 255.947 239.642 262.821C235.895 269.014 231.062 274.217 225.142 278.431C224.022 279.111 222.388 279.894 220.242 280.781C218.288 281.594 216.942 283.131 216.202 285.391C213.195 291.664 210.898 298.167 209.312 304.901C207.045 311.567 204.255 318.317 200.942 325.151C200.728 325.597 200.518 325.597 200.312 325.151C195.638 315.291 191.345 305.217 187.432 294.931L184.292 282.691C184.181 282.254 183.965 281.832 183.655 281.449C183.346 281.066 182.95 280.729 182.492 280.461L176.432 276.931C174.892 275.077 173.262 273.304 171.542 271.611C169.062 269.164 167.095 266.367 165.642 263.221L165.432 242.511L165.472 213.161ZM198.482 265.861C198.482 265.633 198.391 265.414 198.23 265.253C198.068 265.091 197.85 265.001 197.622 265.001H197.582C197.354 265.001 197.135 265.091 196.974 265.253C196.812 265.414 196.722 265.633 196.722 265.861V278.181C196.722 278.409 196.812 278.628 196.974 278.789C197.135 278.95 197.354 279.041 197.582 279.041H197.622C197.85 279.041 198.068 278.95 198.23 278.789C198.391 278.628 198.482 278.409 198.482 278.181V265.861Z" fill="#FDBCAB"/>
<path d="M167.972 215.471C171.359 219.184 175.949 223.581 181.742 228.661C193.882 239.294 206.675 240.127 220.122 231.161C225.689 227.441 231.362 222.794 237.142 217.221C237.969 217.847 238.045 218.577 237.372 219.411C236.479 220.511 235.689 221.444 235.002 222.211C234.049 223.271 233.262 224.201 232.642 225.001C229.389 229.207 225.652 232.867 221.432 235.981C216.725 239.447 212.042 241.527 207.382 242.221C202.982 242.881 198.649 242.534 194.382 241.181C190.882 240.074 187.202 237.967 183.342 234.861C177.402 230.087 172.305 224.481 168.052 218.041C167.752 217.581 167.609 217.167 167.622 216.801C167.635 216.367 167.752 215.924 167.972 215.471Z" fill="#F1847B"/>
<path d="M265.332 228.041C266.112 229.147 266.108 230.307 265.322 231.521C264.708 232.467 263.922 233.001 262.962 233.121C261.615 233.294 260.768 232.427 260.422 230.521C259.948 227.941 260.702 226.664 262.682 226.691C263.828 226.697 264.712 227.147 265.332 228.041Z" fill="#AC9FB8"/>
<path d="M272.012 233.431C273.486 233.431 274.682 232.235 274.682 230.761C274.682 229.286 273.486 228.091 272.012 228.091C270.537 228.091 269.342 229.286 269.342 230.761C269.342 232.235 270.537 233.431 272.012 233.431Z" fill="#AC9FB8"/>
<path d="M165.432 242.511L165.642 263.221C161.528 257.967 158.792 252.064 157.432 245.511L165.432 242.511Z" fill="#221824"/>
<path d="M239.721 242.471L246.892 244.471C245.678 251.071 243.262 257.187 239.642 262.821C239.248 255.947 239.275 249.164 239.721 242.471Z" fill="#2C1E30"/>
<path d="M259.252 248.731L262.442 253.671C261.435 259.017 259.675 264.021 257.162 268.681C251.695 278.841 244.072 287.314 234.292 294.101C234.153 294.198 233.994 294.263 233.828 294.294C233.661 294.324 233.49 294.318 233.326 294.276C233.162 294.235 233.009 294.158 232.877 294.052C232.745 293.946 232.637 293.812 232.562 293.661L228.472 285.471L225.142 278.431C231.062 274.217 235.895 269.014 239.642 262.821C243.262 257.187 245.678 251.071 246.892 244.471C247.185 244.131 247.532 244.047 247.932 244.221C252.698 246.267 256.472 247.771 259.252 248.731Z" fill="#AC9FB8"/>
<path d="M157.432 245.511C158.792 252.064 161.528 257.967 165.642 263.221C167.095 266.367 169.062 269.164 171.542 271.611C173.262 273.304 174.892 275.077 176.432 276.931L169.052 294.391C154.672 284.697 145.382 271.427 141.182 254.581C146.455 251.254 151.872 248.231 157.432 245.511Z" fill="#837EA1"/>
<path d="M272.181 256.511C294.728 264.677 309.125 269.934 315.371 272.281C316.645 272.761 317.665 273.004 318.431 273.011C305.191 296.071 286.735 313.664 263.061 325.791C246.101 334.471 228.308 339.364 209.681 340.471C201.195 340.971 192.111 340.804 182.431 339.971C169.911 338.891 157.061 335.317 143.881 329.251C120.708 318.584 101.825 302.774 87.2314 281.821C89.5381 280.074 92.2715 278.374 95.4315 276.721C111.558 268.267 126.808 260.887 141.181 254.581C145.381 271.427 154.671 284.697 169.051 294.391C171.245 295.951 173.575 297.294 176.041 298.421C176.095 298.441 176.625 298.724 177.631 299.271C179.118 300.084 180.171 299.707 180.791 298.141C181.091 297.381 181.248 296.984 181.261 296.951C182.281 294.744 183.198 292.491 184.011 290.191C184.131 289.864 184.288 289.841 184.481 290.121C185.081 290.974 185.445 291.947 185.571 293.041C185.711 294.261 186.331 294.891 187.431 294.931C191.345 305.217 195.638 315.291 200.311 325.151C200.518 325.597 200.728 325.597 200.941 325.151C204.255 318.317 207.045 311.567 209.311 304.901L211.681 300.431C212.208 300.544 212.651 300.464 213.011 300.191C213.245 300.011 213.425 299.651 213.551 299.111C214.085 296.871 215.315 295.261 217.241 294.281C221.748 292.001 225.491 289.064 228.471 285.471L232.561 293.661C232.637 293.812 232.745 293.946 232.877 294.052C233.009 294.158 233.162 294.235 233.326 294.276C233.49 294.318 233.661 294.324 233.828 294.294C233.994 294.263 234.153 294.198 234.291 294.101C244.071 287.314 251.695 278.841 257.161 268.681C259.675 264.021 261.435 259.017 262.441 253.671L272.181 256.511Z" fill="#3D2338"/>
<path d="M197.622 265.001H197.582C197.107 265.001 196.722 265.386 196.722 265.861V278.181C196.722 278.656 197.107 279.041 197.582 279.041H197.622C198.097 279.041 198.482 278.656 198.482 278.181V265.861C198.482 265.386 198.097 265.001 197.622 265.001Z" fill="#FB887C"/>
<path d="M176.432 276.931L182.492 280.461C182.95 280.73 183.346 281.066 183.655 281.449C183.965 281.832 184.181 282.254 184.292 282.691L187.432 294.931C186.332 294.891 185.712 294.261 185.572 293.041C185.445 291.947 185.082 290.974 184.482 290.121C184.288 289.841 184.132 289.864 184.012 290.191C183.198 292.491 182.282 294.744 181.262 296.951C181.248 296.984 181.092 297.381 180.792 298.141C180.172 299.707 179.118 300.084 177.632 299.271C176.625 298.724 176.095 298.441 176.042 298.421C173.575 297.294 171.245 295.951 169.052 294.391L176.432 276.931Z" fill="#200E21"/>
<path d="M225.142 278.431L228.472 285.471C225.492 289.064 221.748 292.001 217.242 294.281C215.315 295.261 214.085 296.871 213.552 299.111C213.425 299.651 213.245 300.011 213.012 300.191C212.652 300.464 212.208 300.544 211.682 300.431C213.642 295.597 215.148 290.584 216.202 285.391C216.942 283.131 218.288 281.594 220.242 280.781C222.388 279.894 224.022 279.111 225.142 278.431Z" fill="#1E111E"/>
<path d="M216.202 285.391C215.148 290.584 213.642 295.597 211.682 300.431L209.312 304.901C210.898 298.167 213.195 291.664 216.202 285.391Z" fill="#F9D7CC"/>
</svg>
