<svg width="400" height="400" viewBox="0 0 400 400" fill="none" xmlns="http://www.w3.org/2000/svg">
<rect width="400" height="400" rx="32" fill="#959E74"/>
<path d="M96.9917 292.191C112.065 309.744 130.348 322.841 151.842 331.481" stroke="#D6D6BC" stroke-width="2"/>
<path d="M151.842 331.481C153.022 333.007 154.552 333.657 156.432 333.431" stroke="#B19490" stroke-width="2"/>
<path d="M156.432 333.431C158.278 334.504 160.278 335.114 162.432 335.261" stroke="#F4ECE9" stroke-width="2"/>
<path d="M162.432 335.261C164.525 336.607 166.798 337.211 169.252 337.071C169.398 337.062 169.541 337.012 169.668 336.926C169.794 336.841 169.899 336.721 169.972 336.581C170.645 335.267 171.432 334.031 172.332 332.871C172.972 332.044 173.635 331.614 174.322 331.581C175.108 331.547 175.942 331.837 176.822 332.451" stroke="#B19490" stroke-width="2"/>
<path d="M176.822 332.451C174.348 332.577 172.608 333.727 171.602 335.901C171.537 336.039 171.507 336.191 171.516 336.344C171.525 336.497 171.571 336.648 171.652 336.784C171.733 336.92 171.845 337.037 171.98 337.127C172.116 337.217 172.27 337.276 172.432 337.301L181.922 338.731" stroke="#F0E6E3" stroke-width="2"/>
<path d="M181.922 338.731C184.355 340.444 186.705 340.524 188.972 338.971" stroke="#B19490" stroke-width="2"/>
<path d="M188.972 338.971C193.625 340.197 198.348 340.447 203.142 339.721" stroke="#F4ECE9" stroke-width="2"/>
<path d="M203.142 339.721C205.202 340.494 207.232 340.477 209.232 339.671C209.377 339.611 209.502 339.513 209.591 339.388C209.679 339.264 209.728 339.119 209.732 338.971L209.782 334.021C209.781 333.881 209.826 333.747 209.908 333.639C209.99 333.532 210.104 333.458 210.232 333.431L223.372 330.481" stroke="#B19490" stroke-width="2"/>
<path d="M223.372 330.481C224.738 332.554 225.652 334.767 226.112 337.121C226.153 337.334 226.27 337.523 226.436 337.648C226.603 337.774 226.806 337.825 227.002 337.791L232.642 336.811C232.779 336.789 232.904 336.711 232.991 336.591C233.078 336.47 233.121 336.317 233.112 336.161C233.045 335.121 232.722 334.141 232.142 333.221" stroke="#888382" stroke-width="2"/>
<path d="M232.142 333.221C232.815 332.854 233.308 333.041 233.622 333.781C234.302 335.407 235.155 336.054 236.182 335.721L243.682 333.261" stroke="#FCEBE5" stroke-width="2"/>
<path d="M243.682 333.261C246.075 333.307 247.965 332.454 249.352 330.701" stroke="#8E868F" stroke-width="2"/>
<path d="M249.352 330.701C249.378 329.667 249.825 329.461 250.692 330.081C250.828 330.181 250.988 330.244 251.157 330.264C251.325 330.283 251.496 330.258 251.652 330.191C254.105 329.164 256.382 328.217 258.482 327.351C260.455 326.537 260.468 325.227 258.522 323.421" stroke="#F4ECE9" stroke-width="2"/>
<path d="M258.521 323.421C259.961 323.241 261.071 323.717 261.851 324.851C261.94 324.98 262.061 325.081 262.198 325.14C262.336 325.199 262.483 325.213 262.621 325.181C264.121 324.841 265.871 324.084 267.871 322.911C285.685 312.411 300.261 298.991 311.601 282.651C311.855 282.291 311.951 281.897 311.891 281.471" stroke="#8E868F" stroke-width="2"/>
<path d="M311.892 281.471L313.232 280.681C313.565 280.487 313.805 280.277 313.952 280.051C328.992 256.544 336.819 231.101 337.432 203.721C338.039 176.401 331.542 150.991 317.942 127.491C307.175 108.897 293.069 93.6607 275.622 81.7807C248.909 63.594 219.182 55.9374 186.442 58.8107C170.549 60.204 155.982 64.0274 142.742 70.2807C114.922 83.4207 93.6753 103.447 79.0019 130.361C75.8286 136.181 73.0919 142.251 70.7919 148.571C61.3652 174.457 59.3286 200.757 64.6819 227.471C69.4553 251.271 80.2253 272.844 96.9919 292.191" stroke="#FEF3F0" stroke-width="2"/>
<path d="M311.892 281.471C310.285 279.677 308.622 277.937 306.902 276.251C304.888 274.277 302.878 273.204 300.872 273.031C299.152 272.884 297.435 272.727 295.722 272.561C294.428 272.434 293.532 272.101 293.032 271.561C292.238 270.707 292.192 269.577 292.892 268.171C293.825 266.297 294.795 264.447 295.802 262.621C301.115 252.974 299.588 244.747 291.222 237.941C288.655 235.847 285.882 234.101 282.902 232.701C280.542 231.587 279.065 230.697 278.472 230.031C277.132 228.531 276.722 226.697 277.242 224.531C278.522 219.231 279.505 214.621 280.192 210.701C280.965 206.301 281.272 201.621 281.112 196.661C280.338 173.101 274.198 150.944 262.692 130.191C255.478 117.177 245.412 107.251 232.492 100.411C222.185 94.9507 211.192 92.2274 199.512 92.2407C195.292 92.2474 191.448 92.7374 187.982 93.7107C183.948 94.844 180.368 96.4507 177.242 98.5307C175.448 99.7307 173.878 100.674 172.532 101.361C171.358 101.961 169.678 102.334 167.492 102.481C159.005 103.067 152.505 106.834 147.992 113.781C142.625 122.047 139.938 131.694 139.932 142.721C139.925 153.607 140.845 163.317 142.692 171.851" stroke="#8D7B81" stroke-width="2"/>
<path d="M142.692 171.851C137.618 172.044 134.095 174.064 132.122 177.911C130.548 180.971 129.902 184.491 130.182 188.471C130.722 196.017 134.402 201.017 141.222 203.471" stroke="#DEA594" stroke-width="2"/>
<path d="M141.222 203.471C141.235 203.951 141.075 204.227 140.742 204.301C140.571 204.337 140.416 204.396 140.292 204.471C140.168 204.546 140.078 204.635 140.032 204.731C136.612 211.891 133.962 219.311 132.082 226.991C131.282 230.257 131.132 232.931 131.632 235.011C132.378 238.137 134.072 240.421 136.712 241.861C139.925 243.614 143.465 243.837 147.332 242.531C152.478 240.791 155.328 236.694 155.882 230.241" stroke="#F8D8CE" stroke-width="2"/>
<path d="M155.882 230.241L162.232 239.011C162.622 239.55 162.846 240.12 162.872 240.641C163.158 246.781 163.148 252.471 162.842 257.711C162.442 264.537 158.748 268.431 151.762 269.391" stroke="#DEA594" stroke-width="2"/>
<path d="M151.762 269.391C150.995 268.457 149.788 268.484 148.142 269.471" stroke="#FCF1ED" stroke-width="2"/>
<path d="M148.142 269.471C140.002 271.891 132.325 274.931 125.112 278.591" stroke="#C9C3AB" stroke-width="2"/>
<path d="M125.112 278.591C115.525 282.684 106.152 287.217 96.9917 292.191" stroke="#D6CBAD" stroke-width="2"/>
<path d="M152.202 299.801C148.335 293.961 146.085 287.517 145.452 280.471C145.092 276.471 145.989 272.804 148.142 269.471" stroke="#C8CCB7" stroke-width="2"/>
<path d="M258.521 323.421C255.068 325.714 251.248 327.164 247.061 327.771C246.301 327.884 246.275 328.091 246.981 328.391C247.895 328.771 248.685 329.541 249.351 330.701" stroke="#83737A" stroke-width="2"/>
<path d="M243.682 333.261C242.402 332.194 241.488 330.847 240.942 329.221C240.482 327.854 239.562 327.007 238.182 326.681" stroke="#8B7276" stroke-width="2"/>
<path d="M238.182 326.681L234.932 324.761" stroke="#170A13" stroke-width="2"/>
<path d="M234.932 324.761L231.182 321.511" stroke="#4E2024" stroke-width="2"/>
<path d="M231.182 321.511C226.842 315.811 225.838 309.851 228.172 303.631C228.792 301.991 230.052 299.887 231.952 297.321C234.372 294.054 235.802 292.041 236.242 291.281C238.215 287.907 238.092 284.824 235.872 282.031C233.625 279.211 231.895 276.347 230.682 273.441C229.535 270.681 228.992 267.451 229.052 263.751C229.158 257.991 230.132 252.434 231.972 247.081C232.292 246.161 232.812 245.367 233.532 244.701C238.085 240.501 241.902 236.071 244.982 231.411" stroke="#6E3733" stroke-width="2"/>
<path d="M244.981 231.411C246.888 235.624 250.371 237.894 255.431 238.221C260.118 238.527 263.515 237.007 265.621 233.661C267.901 230.021 268.235 225.771 266.621 220.911C264.361 214.084 261.631 207.451 258.431 201.011" stroke="#8A8089" stroke-width="2"/>
<path d="M258.432 201.011C263.685 199.084 266.915 195.551 268.122 190.411C268.722 187.857 268.878 185.131 268.592 182.231C268.292 179.197 267.445 176.661 266.052 174.621C262.978 170.101 258.242 168.364 251.842 169.411C251.748 169.426 251.652 169.419 251.561 169.393C251.47 169.366 251.386 169.319 251.315 169.256C251.244 169.193 251.188 169.115 251.151 169.027C251.115 168.94 251.097 168.845 251.102 168.751C251.282 165.371 251.225 162.111 250.932 158.971C250.745 156.984 250.078 155.471 248.932 154.431" stroke="#6E3733" stroke-width="2"/>
<path d="M248.932 154.431C247.045 152.604 245.108 150.827 243.122 149.101C243.082 149.061 242.198 148.231 240.472 146.611C237.585 143.897 234.142 142.164 230.142 141.411C227.968 141.004 226.418 139.921 225.492 138.161C223.612 134.574 220.918 131.997 217.412 130.431C214.725 129.237 211.928 128.527 209.022 128.301C206.608 128.114 205.382 128.017 205.342 128.011C201.882 127.624 198.418 127.287 194.952 127.001C186.838 126.341 179.772 123.234 173.752 117.681C173.602 117.542 173.427 117.433 173.237 117.362C173.046 117.291 172.845 117.258 172.644 117.265C172.444 117.273 172.248 117.32 172.069 117.406C171.89 117.491 171.731 117.611 171.602 117.761L167.182 122.931" stroke="#632E2D" stroke-width="2"/>
<path d="M167.182 122.931C164.169 126.104 161.669 128.951 159.682 131.471C157.262 134.544 155.845 138.127 155.432 142.221C155.145 145.067 155.062 149.067 155.182 154.221C155.215 155.501 154.795 156.914 153.922 158.461C152.755 160.547 152.072 161.824 151.872 162.291C150.439 165.624 148.915 169.301 147.302 173.321C147.197 173.583 146.996 173.796 146.74 173.917C146.484 174.037 146.191 174.057 145.922 173.971C144.775 173.604 143.699 172.897 142.692 171.851" stroke="#6E3733" stroke-width="2"/>
<path d="M258.432 201.011C257.572 200.751 256.975 200.987 256.642 201.721" stroke="#DAAA9C" stroke-width="2"/>
<path d="M256.641 201.721C255.775 200.781 254.851 200.534 253.871 200.981C253.741 201.038 253.628 201.137 253.544 201.267C253.459 201.397 253.407 201.554 253.391 201.721C252.631 211.034 250.245 219.861 246.231 228.201" stroke="#6B3632" stroke-width="2"/>
<path d="M246.231 228.201C245.511 229.087 245.095 230.157 244.981 231.411" stroke="#DAAA9C" stroke-width="2"/>
<path d="M231.182 321.511L230.682 321.931" stroke="#9F4A37" stroke-width="2"/>
<path d="M230.682 321.931C224.828 325.164 219.015 327.281 213.242 328.281C199.842 330.607 186.462 329.507 173.102 324.981" stroke="#914634" stroke-width="2"/>
<path d="M173.102 324.981C170.222 321.841 165.812 317.191 159.872 311.031C156.792 307.844 154.235 304.101 152.202 299.801" stroke="#AA805D" stroke-width="2"/>
<path d="M152.202 299.801C151.675 289.887 151.528 279.751 151.762 269.391" stroke="#DCADA0" stroke-width="2"/>
<path d="M155.882 230.241C155.615 229.407 155.078 228.594 154.271 227.801" stroke="#D89481" stroke-width="2"/>
<path d="M154.272 227.801C150.832 221.061 148.792 213.721 148.152 205.781C148.038 204.334 147.212 203.814 145.672 204.221C145.507 204.265 145.333 204.266 145.168 204.222C145.003 204.178 144.853 204.091 144.732 203.97C144.611 203.85 144.524 203.699 144.48 203.534C144.436 203.369 144.437 203.195 144.482 203.031C145.248 200.184 145.932 197.254 146.532 194.241C146.652 193.627 146.452 193.274 145.932 193.181" stroke="#DEA594" stroke-width="2"/>
<path d="M145.932 193.181C147.265 191.821 148.015 189.834 148.182 187.221C148.462 182.721 146.918 180.117 143.552 179.411C141.612 179.004 139.975 179.367 138.642 180.501C137.228 181.694 136.492 183.434 136.432 185.721C136.332 189.561 137.875 191.971 141.062 192.951C141.515 193.091 142.275 193.174 143.342 193.201C144.115 193.214 144.882 193.304 145.642 193.471" stroke="#AF513E" stroke-width="2"/>
<path d="M145.642 193.471C144.942 196.937 143.692 200.187 141.892 203.221" stroke="#DEA594" stroke-width="2"/>
<path d="M141.892 203.221C141.698 203.394 141.475 203.477 141.222 203.471" stroke="#D89481" stroke-width="2"/>
<path d="M173.102 324.981L176.562 326.931C176.669 326.99 176.76 327.061 176.826 327.135C176.891 327.21 176.928 327.284 176.932 327.351L176.942 327.671C176.946 327.733 176.934 327.796 176.906 327.854C176.879 327.912 176.837 327.965 176.783 328.008C176.729 328.052 176.664 328.085 176.593 328.106C176.522 328.128 176.447 328.136 176.372 328.131C170.645 327.817 165.682 325.731 161.482 321.871C161.365 321.763 161.224 321.689 161.077 321.657C160.93 321.626 160.783 321.637 160.652 321.691C159.572 322.124 158.928 322.967 158.722 324.221" stroke="#7C644B" stroke-width="2"/>
<path d="M158.722 324.221C142.742 312.607 131.538 297.397 125.112 278.591" stroke="#A2A677" stroke-width="2"/>
<path d="M158.722 324.221L151.842 331.481" stroke="#896C4D" stroke-width="2"/>
<path d="M238.182 326.681C236.362 328.414 234.252 329.614 231.852 330.281C231.702 330.321 231.569 330.404 231.474 330.515C231.378 330.627 231.325 330.762 231.322 330.901C231.288 331.754 231.562 332.527 232.142 333.221" stroke="#856F69" stroke-width="2"/>
<path d="M234.932 324.761C233.285 326.474 231.368 327.807 229.182 328.761" stroke="#481D17" stroke-width="2"/>
<path d="M248.932 154.431C247.145 155.784 245.512 155.924 244.032 154.851C242.965 154.084 242.395 153.681 242.322 153.641C237.508 150.967 232.455 148.874 227.162 147.361C226.85 147.27 226.577 147.084 226.382 146.831C224.068 143.811 222.772 141.837 222.492 140.911C221.232 136.751 218.438 134.221 214.112 133.321C209.205 132.307 204.272 131.461 199.312 130.781C193.265 129.947 188.922 129.051 186.282 128.091C181.502 126.357 177.038 123.941 172.892 120.841C172.779 120.755 172.641 120.708 172.499 120.708C172.356 120.708 172.217 120.755 172.102 120.841C170.622 121.954 168.982 122.651 167.182 122.931" stroke="#B45840" stroke-width="2"/>
<path d="M145.932 193.181C145.778 193.221 145.682 193.317 145.642 193.471" stroke="#CE948B" stroke-width="2"/>
<path d="M230.682 321.931C231.375 322.537 231.405 323.017 230.772 323.371C230.042 323.788 229.453 324.419 229.082 325.181C228.042 327.341 228.075 328.534 229.182 328.761" stroke="#712E25" stroke-width="2"/>
<path d="M229.182 328.761L230.532 333.191C230.551 333.253 230.556 333.32 230.546 333.386C230.536 333.452 230.511 333.516 230.474 333.574C230.436 333.632 230.387 333.683 230.328 333.724C230.269 333.764 230.202 333.794 230.132 333.811C228.052 334.291 227.098 333.337 227.272 330.951C227.392 329.371 226.782 328.784 225.442 329.191L223.102 329.901C223.029 329.922 222.957 329.954 222.893 329.994C222.829 330.034 222.775 330.08 222.736 330.129C222.697 330.178 222.674 330.228 222.67 330.273C222.666 330.319 222.68 330.359 222.712 330.391C222.798 330.477 223.018 330.507 223.372 330.481" stroke="#3A1914" stroke-width="2"/>
<path d="M203.142 339.721L203.052 334.411C203.05 334.341 203.035 334.272 203.007 334.209C202.978 334.145 202.938 334.087 202.887 334.039C202.835 333.99 202.775 333.953 202.709 333.927C202.643 333.902 202.573 333.889 202.502 333.891L191.372 334.121C191.224 334.124 191.079 334.174 190.956 334.265C190.833 334.356 190.737 334.483 190.682 334.631L188.972 338.971" stroke="#A6827B" stroke-width="2"/>
<path d="M181.922 338.731L183.792 335.011C183.89 334.816 183.948 334.602 183.962 334.386C183.976 334.169 183.946 333.955 183.872 333.757C183.799 333.559 183.685 333.383 183.538 333.24C183.391 333.098 183.215 332.992 183.022 332.931C181.095 332.344 179.028 332.184 176.822 332.451" stroke="#A27C74" stroke-width="2"/>
<path d="M162.432 335.261C163.972 334.027 165.082 332.504 165.762 330.691C165.788 330.621 165.801 330.547 165.801 330.474C165.8 330.4 165.786 330.329 165.758 330.265C165.731 330.201 165.691 330.145 165.642 330.101C165.592 330.057 165.534 330.027 165.472 330.011L162.002 329.081C161.877 329.047 161.732 329.056 161.579 329.106C161.427 329.157 161.273 329.248 161.132 329.371L156.432 333.431" stroke="#A6827B" stroke-width="2"/>
<path d="M154.272 227.801C153.279 234.661 149.832 238.751 143.932 240.071C142.005 240.504 140.242 240.261 138.642 239.341C134.415 236.901 133.262 232.777 135.182 226.971C139.089 215.157 141.592 207.791 142.692 204.871C142.735 204.759 142.733 204.632 142.686 204.508C142.639 204.385 142.549 204.273 142.432 204.191C142.112 203.964 141.932 203.641 141.892 203.221" stroke="#F8D8CE" stroke-width="2"/>
<path d="M256.641 201.721C259.848 208.347 262.491 215.191 264.571 222.251C265.445 225.231 265.648 227.721 265.181 229.721C264.595 232.227 263.491 233.874 261.871 234.661C253.911 238.514 248.698 236.361 246.231 228.201" stroke="#877F87" stroke-width="2"/>
<path d="M221.752 332.471L211.962 334.631C211.813 334.666 211.671 334.735 211.543 334.835C211.416 334.935 211.307 335.063 211.222 335.211C210.562 336.364 210.565 337.541 211.232 338.741C211.309 338.876 211.423 338.984 211.559 339.05C211.695 339.116 211.846 339.138 211.992 339.111L223.632 337.041C223.779 337.013 223.916 336.94 224.023 336.829C224.13 336.718 224.203 336.576 224.232 336.421C224.545 334.774 224.032 333.521 222.692 332.661C222.391 332.475 222.053 332.406 221.752 332.471Z" stroke="#F0E6E3" stroke-width="2"/>
<path d="M100.026 156.836C100.47 157.003 100.951 157.059 101.442 156.999C101.933 156.939 102.424 156.764 102.888 156.486C103.351 156.207 103.778 155.83 104.144 155.376C104.509 154.921 104.807 154.398 105.019 153.837C105.447 152.703 105.502 151.481 105.172 150.44C104.842 149.399 104.153 148.624 103.257 148.286C102.814 148.118 102.333 148.063 101.842 148.123C101.351 148.183 100.86 148.357 100.396 148.636C99.9327 148.914 99.5058 149.291 99.1401 149.746C98.7744 150.2 98.477 150.723 98.2649 151.285C97.8365 152.418 97.7814 153.64 98.1118 154.681C98.4421 155.722 99.1309 156.497 100.026 156.836Z" stroke="#FCC19D" stroke-width="2"/>
<path d="M89.7019 178.944C90.5231 179.339 91.4436 179.507 92.4109 179.439C93.3782 179.371 94.3732 179.068 95.3393 178.546C96.3054 178.025 97.2235 177.296 98.0413 176.401C98.8591 175.506 99.5605 174.463 100.105 173.33C100.65 172.198 101.028 170.999 101.218 169.801C101.407 168.604 101.404 167.431 101.208 166.351C101.013 165.271 100.629 164.304 100.079 163.505C99.5291 162.707 98.8233 162.093 98.0021 161.697C97.1809 161.302 96.2603 161.134 95.2931 161.202C94.3258 161.27 93.3307 161.574 92.3647 162.095C91.3986 162.616 90.4805 163.345 89.6627 164.24C88.8449 165.135 88.1435 166.179 87.5985 167.311C87.0535 168.443 86.6756 169.643 86.4863 170.84C86.2971 172.038 86.3002 173.21 86.4955 174.29C86.6908 175.37 87.0745 176.337 87.6247 177.136C88.1748 177.934 88.8807 178.549 89.7019 178.944Z" stroke="#FCC19D" stroke-width="2"/>
<path d="M312.576 176.02C312.288 175.659 311.909 175.378 311.461 175.191C311.013 175.004 310.504 174.915 309.963 174.93C309.422 174.944 308.86 175.062 308.309 175.276C307.758 175.49 307.229 175.797 306.752 176.178C305.788 176.947 305.094 177.974 304.823 179.032C304.553 180.091 304.727 181.094 305.307 181.822C305.595 182.182 305.974 182.464 306.422 182.651C306.87 182.838 307.379 182.926 307.92 182.912C308.461 182.897 309.023 182.779 309.574 182.565C310.125 182.351 310.654 182.045 311.131 181.664C312.095 180.894 312.789 179.867 313.06 178.809C313.33 177.751 313.156 176.747 312.576 176.02Z" stroke="#FCC2A3" stroke-width="2"/>
<path d="M89.5918 241.721C92.1051 242.414 94.0718 241.934 95.4918 240.281C98.3185 236.994 100.382 232.904 101.682 228.011" stroke="#F7D3C9" stroke-width="2"/>
<path d="M101.682 228.011C103.142 224.224 103.915 220.294 104.002 216.221C104.042 214.387 103.785 212.907 103.232 211.781C102.478 210.227 101.412 209.971 100.032 211.011C97.7452 212.724 95.8785 214.794 94.4318 217.221C91.1251 222.781 89.1251 228.781 88.4318 235.221C88.1385 237.974 88.5252 240.141 89.5918 241.721" stroke="#F8D8CE" stroke-width="2"/>
<path d="M101.682 228.011C101.542 227.117 101.102 226.571 100.362 226.371C100.21 226.326 100.07 226.256 99.9518 226.163C99.8332 226.07 99.7379 225.957 99.6718 225.831C99.2851 225.111 98.8451 225.197 98.3518 226.091C95.4985 231.264 92.5785 236.474 89.5918 241.721" stroke="#F1C2B6" stroke-width="2"/>
<path d="M240.092 118.321C236.912 115.061 233.525 112.861 229.932 111.721C223.165 109.581 215.689 108.741 207.502 109.201C207.349 109.207 207.139 109.191 206.872 109.151C206.585 109.104 206.369 109.131 206.222 109.231C205.815 109.511 205.905 109.654 206.492 109.661C211.319 109.701 216.132 109.964 220.932 110.451C229.259 111.284 236.155 114.811 241.622 121.031C246.515 126.604 252.092 134.407 258.352 144.441C258.405 144.524 258.471 144.593 258.542 144.639C258.613 144.685 258.686 144.706 258.752 144.701C258.879 144.687 258.945 144.597 258.952 144.431C258.952 144.317 258.909 144.191 258.822 144.051C255.775 139.377 252.705 134.721 249.612 130.081C246.799 125.867 243.625 121.947 240.092 118.321Z" stroke="#504661" stroke-width="2"/>
<path d="M235.492 130.411C231.572 126.217 227.365 123.174 222.872 121.281C216.158 118.454 209.275 116.137 202.222 114.331C200.968 114.011 200.648 114.137 201.262 114.711C201.402 114.837 201.575 114.937 201.782 115.011C207.075 116.797 210.958 118.034 213.432 118.721C222.432 121.214 230.212 125.741 236.772 132.301C237.078 132.614 237.125 132.581 236.912 132.201C236.645 131.727 236.172 131.131 235.492 130.411Z" stroke="#322139" stroke-width="2"/>
<path d="M148.072 130.851C145.878 139.031 145.308 147.321 146.362 155.721C146.374 155.812 146.399 155.902 146.436 155.984C146.473 156.066 146.52 156.137 146.574 156.191C146.627 156.246 146.686 156.282 146.745 156.298C146.803 156.313 146.861 156.308 146.912 156.281C147.118 156.174 147.198 155.814 147.152 155.201C146.492 146.961 147.015 138.804 148.722 130.731C148.922 129.771 148.758 129.691 148.232 130.491C148.158 130.597 148.105 130.717 148.072 130.851Z" stroke="#45364A" stroke-width="2"/>
<path d="M266.952 161.561C266.299 157.947 264.869 154.684 262.662 151.771C262.502 151.557 262.305 151.411 262.072 151.331C261.099 150.977 260.949 151.294 261.622 152.281C262.349 153.354 263.909 156.494 266.302 161.701C266.555 162.254 266.762 162.351 266.922 161.991C266.975 161.871 266.985 161.727 266.952 161.561Z" stroke="#372A40" stroke-width="2"/>
<path d="M274.762 232.641C272.175 238.294 270.648 241.821 270.181 243.221C268.908 247.041 268.935 251.001 270.262 255.101C270.275 255.134 271.045 256.784 272.572 260.051C275.078 265.417 274.405 270.591 270.551 275.571C270.511 275.622 270.486 275.68 270.479 275.738C270.471 275.796 270.483 275.849 270.512 275.891C270.585 275.991 270.678 275.974 270.791 275.841C275.151 270.781 276.108 265.341 273.661 259.521C272.315 256.321 271.638 254.707 271.632 254.681C270.272 249.941 270.548 245.194 272.462 240.441C273.508 237.841 274.558 235.244 275.611 232.651C276.325 230.891 276.128 230.741 275.022 232.201C274.922 232.334 274.835 232.481 274.762 232.641Z" stroke="#322139" stroke-width="2"/>
<path d="M254.622 308.781C255.775 309.601 257.178 310.877 258.832 312.611C259.178 312.971 259.402 312.964 259.502 312.591C259.568 312.357 259.442 312.087 259.122 311.781C257.042 309.781 254.971 307.767 252.911 305.741C250.825 303.694 250.351 301.291 251.491 298.531C251.845 297.684 252.898 295.974 254.651 293.401C256.145 291.201 257.085 289.431 257.471 288.091C258.238 285.437 258.225 282.797 257.432 280.171C257.378 279.984 256.338 277.971 254.312 274.131C251.185 268.191 251.372 262.117 254.872 255.911C258.638 249.224 261.615 243.504 263.801 238.751C263.908 238.524 263.945 238.324 263.911 238.151C263.831 237.751 263.525 237.877 262.991 238.531C262.278 239.404 260.815 242.034 258.601 246.421C258.055 247.501 256.785 249.757 254.791 253.191C253.385 255.604 252.285 257.967 251.491 260.281C250.145 264.234 250.388 268.207 252.221 272.201C253.008 273.927 253.852 275.627 254.752 277.301C255.872 279.414 256.508 281.171 256.661 282.571C257.128 286.951 255.738 291.104 252.491 295.031C248.231 300.191 248.942 304.774 254.622 308.781Z" stroke="#2D182C" stroke-width="2"/>
<path d="M160.312 157.601C159.565 158.407 159.185 159.721 159.172 161.541C159.165 162.407 159.532 162.617 160.272 162.171C167.299 157.924 174.792 155.187 182.752 153.961C184.339 153.714 185.412 153.407 185.972 153.041C187.252 152.214 187.615 150.981 187.062 149.341C186.569 147.894 185.562 147.267 184.042 147.461C179.582 148.021 175.272 149.037 171.112 150.511C166.912 151.997 163.312 154.361 160.312 157.601Z" stroke="#6E3932" stroke-width="2"/>
<path d="M222.502 154.721L216.382 155.631C216.294 155.646 216.194 155.626 216.092 155.573C215.99 155.52 215.889 155.436 215.802 155.331C215.722 155.224 215.625 155.141 215.512 155.081C215.338 154.987 215.112 154.981 214.832 155.061C212.678 155.641 211.165 156.941 210.292 158.961" stroke="#B45840" stroke-width="2"/>
<path d="M210.292 158.961C208.185 161.634 207.065 164.221 206.932 166.721C206.572 173.534 207.048 181.704 208.362 191.231C208.708 193.771 209.538 196.237 210.852 198.631" stroke="#934A38" stroke-width="2"/>
<path d="M210.852 198.631C207.792 201.557 204.468 203.534 200.882 204.561C199.902 204.847 199.898 205.144 200.872 205.451C207.052 207.437 212.095 206.217 216.002 201.791C217.175 200.464 217.568 199.114 217.182 197.741L214.952 189.811C214.518 188.271 214.358 187.061 214.472 186.181C214.738 184.154 215.498 183.661 216.752 184.701C216.958 184.874 217.175 185.121 217.402 185.441C219.735 188.781 220.135 188.551 218.602 184.751C216.922 180.577 217.465 176.607 220.232 172.841" stroke="#B45840" stroke-width="2"/>
<path d="M220.231 172.841C221.458 171.441 223.108 170.414 225.181 169.761" stroke="#914634" stroke-width="2"/>
<path d="M225.182 169.761C224.695 175.681 227.265 177.584 232.892 175.471" stroke="#834438" stroke-width="2"/>
<path d="M232.892 175.471L238.762 174.611C239.556 174.496 240.351 174.69 240.972 175.151C242.292 176.131 243.125 176.321 243.472 175.721" stroke="#CF9380" stroke-width="2"/>
<path d="M243.472 175.721C245.199 176.761 245.685 176.711 244.932 175.571C244.739 175.291 244.585 175.044 244.472 174.831C243.212 172.504 241.555 170.371 239.502 168.431" stroke="#834438" stroke-width="2"/>
<path d="M239.502 168.431C241.302 166.971 242.362 165.214 242.682 163.161C242.706 163.01 242.686 162.855 242.626 162.714C242.566 162.572 242.468 162.45 242.342 162.361C239.749 160.481 237.259 159.204 234.872 158.531C230.065 157.184 226.409 155.971 223.902 154.891" stroke="#B45840" stroke-width="2"/>
<path d="M223.902 154.891C231.402 155.804 238.258 158.204 244.472 162.091C245.278 162.597 245.662 162.374 245.622 161.421C245.488 158.547 244.212 156.351 241.792 154.831C235.478 150.857 228.612 148.367 221.192 147.361C218.178 146.954 216.425 148.157 215.932 150.971C215.565 153.064 216.315 154.064 218.182 153.971C219.588 153.897 221.028 154.147 222.502 154.721" stroke="#703B31" stroke-width="2"/>
<path d="M223.902 154.891C223.562 154.277 223.095 154.221 222.502 154.721" stroke="#66322B" stroke-width="2"/>
<path d="M239.502 168.431C236.175 166.251 232.402 165.361 228.182 165.761" stroke="#793B31" stroke-width="2"/>
<path d="M228.182 165.761C226.315 165.507 224.168 166.097 221.742 167.531C219.868 168.644 218.965 170.291 219.032 172.471C219.038 172.704 219.438 172.827 220.232 172.841" stroke="#863C2D" stroke-width="2"/>
<path d="M210.852 198.631C210.245 195.344 209.832 192.037 209.612 188.711C209.419 185.797 209.109 182.487 208.682 178.781C208.255 175.167 208.089 171.397 208.182 167.471C208.255 164.351 208.959 161.514 210.292 158.961" stroke="#884132" stroke-width="2"/>
<path d="M228.182 165.761C226.822 166.814 225.822 168.147 225.182 169.761" stroke="#562925" stroke-width="2"/>
<path d="M243.472 175.721L235.322 169.641C234.355 168.914 233.912 169.151 233.992 170.351C234.098 171.871 233.732 173.577 232.892 175.471" stroke="#947671" stroke-width="2"/>
<path d="M167.432 167.181C164.632 168.887 162.642 171.277 161.462 174.351C160.775 176.144 161.265 176.421 162.932 175.181" stroke="#6B3930" stroke-width="2"/>
<path d="M162.932 175.181C164.178 175.601 165.455 175.607 166.762 175.201C167.022 175.119 167.302 175.097 167.584 175.137C167.865 175.177 168.14 175.277 168.392 175.431L171.182 177.181C171.23 177.209 171.284 177.225 171.341 177.226C171.397 177.227 171.452 177.213 171.502 177.186C171.552 177.159 171.595 177.12 171.626 177.072C171.658 177.023 171.677 176.968 171.682 176.911L171.722 176.221" stroke="#CA8570" stroke-width="2"/>
<path d="M171.722 176.221C177.675 176.161 179.648 173.047 177.642 166.881" stroke="#6B3930" stroke-width="2"/>
<path d="M177.642 166.881C180.422 167.327 182.962 168.257 185.262 169.671C185.928 170.077 186.115 169.917 185.822 169.191C184.082 164.904 180.765 163.061 175.872 163.661C172.718 164.041 169.905 165.214 167.432 167.181" stroke="#A84F3C" stroke-width="2"/>
<path d="M177.642 166.881C175.175 166.034 172.745 166.194 170.352 167.361C169.778 167.647 169.298 167.771 168.912 167.731C168.385 167.671 167.892 167.487 167.432 167.181" stroke="#552726" stroke-width="2"/>
<path d="M171.722 176.221C170.388 174.674 169.708 172.804 169.682 170.611C169.668 169.797 169.368 169.644 168.782 170.151L162.932 175.181" stroke="#775D5A" stroke-width="2"/>
<path d="M253.072 176.441C252.437 177.121 252.056 177.996 251.992 178.921C251.592 184.581 252.552 189.584 254.872 193.931C254.95 194.077 255.06 194.203 255.195 194.299C255.329 194.396 255.484 194.46 255.648 194.487C255.811 194.514 255.978 194.503 256.137 194.455C256.295 194.408 256.441 194.324 256.562 194.211C261.715 189.364 262.805 184.031 259.832 178.211C259.125 176.837 258.275 175.917 257.282 175.451C255.762 174.744 254.358 175.074 253.072 176.441Z" stroke="#B6533F" stroke-width="2"/>
<path d="M224.121 184.161C221.081 187.994 220.161 192.817 221.361 198.631C221.781 200.671 222.825 202.431 224.491 203.911C227.118 206.231 230.045 207.774 233.272 208.541C236.505 209.314 239.621 208.687 242.621 206.661C246.555 203.994 248.708 200.427 249.082 195.961C249.782 187.554 246.311 181.601 238.671 178.101C237.438 177.534 236.155 177.371 234.822 177.611C230.548 178.364 226.981 180.547 224.121 184.161Z" stroke="#B6533F" stroke-width="2"/>
<path d="M157.422 207.051C160.069 209.784 163.072 211.007 166.432 210.721C170.619 210.367 174.029 208.387 176.662 204.781" stroke="#C25840" stroke-width="2"/>
<path d="M176.662 204.781C178.628 202.334 179.878 199.661 180.412 196.761C180.932 193.901 180.562 191.111 179.302 188.391C178.015 185.624 176.142 183.357 173.682 181.591C171.268 179.857 168.588 179.051 165.642 179.171C162.255 179.311 159.265 180.421 156.672 182.501C154.185 184.494 152.578 187.007 151.852 190.041C151.145 193.014 151.255 196.157 152.182 199.471C153.142 202.924 154.888 205.451 157.422 207.051" stroke="#B8543F" stroke-width="2"/>
<path d="M176.662 204.781C170.615 208.027 164.202 208.784 157.422 207.051" stroke="#BC4A39" stroke-width="2"/>
<path d="M221.891 219.451C223.731 217.197 225.218 214.554 226.351 211.521C226.731 210.501 226.388 210.104 225.321 210.331C215.341 212.484 205.461 213.344 195.681 212.911C191.955 212.744 188.225 212.621 184.491 212.541C184.433 212.539 184.375 212.55 184.322 212.575C184.269 212.6 184.222 212.637 184.185 212.684C184.148 212.73 184.123 212.785 184.11 212.843C184.097 212.902 184.098 212.962 184.111 213.021C185.618 218.847 188.985 222.824 194.211 224.951C195.611 225.524 197.805 225.947 200.791 226.221C202.951 226.421 205.181 226.701 207.481 227.061C208.321 227.187 209.148 227.141 209.961 226.921C214.968 225.547 218.945 223.057 221.891 219.451Z" stroke="#DEAFA2" stroke-width="2"/>
<path d="M209.162 230.871C209.277 230.755 209.355 230.61 209.389 230.449C209.424 230.288 209.413 230.116 209.359 229.947C209.305 229.778 209.208 229.618 209.078 229.481C208.947 229.344 208.787 229.234 208.612 229.161L206.552 228.301C206.197 228.152 205.869 228.099 205.632 228.151C203.638 228.611 201.632 228.587 199.612 228.081C199.285 228.001 198.992 227.967 198.732 227.981C197.185 228.034 197.092 228.401 198.452 229.081C198.752 229.234 199.012 229.391 199.232 229.551C201.045 230.877 202.592 231.787 203.872 232.281C205.725 233.001 207.488 232.531 209.162 230.871Z" stroke="#9F4A37" stroke-width="2"/>
<path d="M178.872 257.281C189.218 266.307 200.718 268.184 213.372 262.911C217.412 261.224 221.462 258.244 225.522 253.971C225.588 253.904 226.428 253.144 228.042 251.691C229.355 250.504 230.255 249.031 230.742 247.271C230.835 246.937 230.745 246.874 230.472 247.081C220.705 254.474 209.952 257.827 198.212 257.141C192.445 256.807 186.895 255.464 181.562 253.111C176.328 250.811 171.432 247.701 166.872 243.781C166.678 243.614 166.548 243.601 166.482 243.741C166.455 243.795 166.448 243.862 166.462 243.934C166.476 244.007 166.511 244.082 166.562 244.151C169.815 248.584 173.918 252.961 178.872 257.281Z" stroke="#AF513E" stroke-width="2"/>
<path d="M196.861 319.071C197.688 319.224 198.068 318.851 198.002 317.951C197.955 317.371 197.931 317.044 197.931 316.971C197.991 309.891 197.991 302.811 197.931 295.731C197.931 295.374 197.833 295.048 197.651 294.801C196.958 293.867 196.438 293.951 196.091 295.051C195.991 295.391 195.925 295.844 195.891 296.411C195.545 303.284 195.578 310.511 195.991 318.091C196.006 318.329 196.099 318.556 196.257 318.734C196.415 318.912 196.628 319.03 196.861 319.071Z" stroke="#AF513E" stroke-width="2"/>
<path d="M311.892 281.471C310.285 279.677 308.622 277.937 306.902 276.251C304.889 274.277 302.879 273.204 300.872 273.031C299.152 272.884 297.435 272.727 295.722 272.561C294.429 272.434 293.532 272.101 293.032 271.561C292.239 270.707 292.192 269.577 292.892 268.171C293.825 266.297 294.795 264.447 295.802 262.621C301.115 252.974 299.589 244.747 291.222 237.941C288.655 235.847 285.882 234.101 282.902 232.701C280.542 231.587 279.065 230.697 278.472 230.031C277.132 228.531 276.722 226.697 277.242 224.531C278.522 219.231 279.505 214.621 280.192 210.701C280.965 206.301 281.272 201.621 281.112 196.661C280.339 173.101 274.199 150.944 262.692 130.191C255.479 117.177 245.412 107.251 232.492 100.411C222.185 94.9507 211.192 92.2274 199.512 92.2407C195.292 92.2474 191.449 92.7374 187.982 93.7107C183.949 94.844 180.369 96.4507 177.242 98.5307C175.449 99.7307 173.879 100.674 172.532 101.361C171.359 101.961 169.679 102.334 167.492 102.481C159.005 103.067 152.505 106.834 147.992 113.781C142.625 122.047 139.939 131.694 139.932 142.721C139.925 153.607 140.845 163.317 142.692 171.851C137.619 172.044 134.095 174.064 132.122 177.911C130.549 180.971 129.902 184.491 130.182 188.471C130.722 196.017 134.402 201.017 141.222 203.471C141.235 203.951 141.075 204.227 140.742 204.301C140.571 204.337 140.416 204.396 140.292 204.471C140.168 204.546 140.079 204.635 140.032 204.731C136.612 211.891 133.962 219.311 132.082 226.991C131.282 230.257 131.132 232.931 131.632 235.011C132.379 238.137 134.072 240.421 136.712 241.861C139.925 243.614 143.465 243.837 147.332 242.531C152.479 240.791 155.329 236.694 155.882 230.241L162.232 239.011C162.622 239.55 162.846 240.12 162.872 240.641C163.159 246.781 163.149 252.471 162.842 257.711C162.442 264.537 158.749 268.431 151.762 269.391C150.995 268.457 149.789 268.484 148.142 269.471C140.002 271.891 132.325 274.931 125.112 278.591C115.525 282.684 106.152 287.217 96.9919 292.191C80.2253 272.844 69.4553 251.271 64.6819 227.471C59.3286 200.757 61.3652 174.457 70.7919 148.571C73.0919 142.251 75.8286 136.181 79.0019 130.361C93.6753 103.447 114.922 83.4207 142.742 70.2807C155.982 64.0274 170.549 60.204 186.442 58.8107C219.182 55.9374 248.909 63.594 275.622 81.7807C293.069 93.6607 307.175 108.897 317.942 127.491C331.542 150.991 338.039 176.401 337.432 203.721C336.819 231.101 328.992 256.544 313.952 280.051C313.805 280.277 313.565 280.487 313.232 280.681L311.892 281.471ZM100.027 156.836C100.47 157.003 100.951 157.059 101.442 156.999C101.933 156.939 102.424 156.764 102.888 156.486C103.351 156.207 103.778 155.83 104.144 155.376C104.509 154.921 104.807 154.398 105.019 153.837C105.447 152.703 105.502 151.481 105.172 150.44C104.842 149.399 104.153 148.624 103.257 148.286C102.814 148.118 102.333 148.063 101.842 148.123C101.351 148.183 100.86 148.357 100.396 148.636C99.9327 148.914 99.5058 149.291 99.1401 149.746C98.7744 150.2 98.4771 150.723 98.2649 151.285C97.8365 152.418 97.7814 153.64 98.1118 154.681C98.4422 155.722 99.1309 156.497 100.027 156.836ZM89.7018 178.944C90.523 179.339 91.4436 179.508 92.4108 179.439C93.3781 179.371 94.3732 179.068 95.3392 178.546C96.3053 178.025 97.2234 177.296 98.0412 176.401C98.859 175.506 99.5604 174.463 100.105 173.33C100.65 172.198 101.028 170.999 101.218 169.801C101.407 168.604 101.404 167.431 101.208 166.351C101.013 165.271 100.629 164.304 100.079 163.506C99.5291 162.707 98.8232 162.093 98.002 161.697C97.1808 161.302 96.2603 161.134 95.293 161.202C94.3257 161.27 93.3307 161.574 92.3646 162.095C91.3985 162.616 90.4804 163.345 89.6626 164.24C88.8448 165.135 88.1434 166.179 87.5984 167.311C87.0534 168.444 86.6755 169.643 86.4863 170.84C86.297 172.038 86.3001 173.21 86.4955 174.29C86.6908 175.37 87.0745 176.337 87.6246 177.136C88.1748 177.934 88.8806 178.549 89.7018 178.944ZM312.576 176.02C312.288 175.659 311.91 175.378 311.461 175.191C311.013 175.004 310.504 174.915 309.963 174.93C309.422 174.944 308.86 175.062 308.309 175.276C307.759 175.49 307.229 175.797 306.752 176.178C305.788 176.947 305.095 177.974 304.824 179.032C304.553 180.091 304.727 181.094 305.308 181.822C305.595 182.182 305.974 182.464 306.422 182.651C306.871 182.838 307.38 182.926 307.921 182.912C308.461 182.897 309.023 182.779 309.574 182.565C310.125 182.351 310.655 182.045 311.132 181.664C312.096 180.894 312.789 179.868 313.06 178.809C313.331 177.751 313.157 176.747 312.576 176.02ZM89.5919 241.721C92.1053 242.414 94.0719 241.934 95.4919 240.281C98.3186 236.994 100.382 232.904 101.682 228.011C103.142 224.224 103.915 220.294 104.002 216.221C104.042 214.387 103.785 212.907 103.232 211.781C102.479 210.227 101.412 209.971 100.032 211.011C97.7453 212.724 95.8786 214.794 94.4319 217.221C91.1253 222.781 89.1252 228.781 88.4319 235.221C88.1386 237.974 88.5253 240.141 89.5919 241.721Z" fill="#FDE8E1"/>
<path d="M311.892 281.471C311.952 281.897 311.855 282.291 311.602 282.651C300.262 298.991 285.685 312.411 267.872 322.911C265.872 324.084 264.122 324.841 262.622 325.181C262.484 325.213 262.336 325.199 262.199 325.14C262.061 325.081 261.94 324.98 261.852 324.851C261.072 323.717 259.962 323.241 258.522 323.421C255.068 325.714 251.248 327.164 247.062 327.771C246.302 327.884 246.275 328.091 246.982 328.391C247.895 328.771 248.685 329.541 249.352 330.701C247.965 332.454 246.075 333.307 243.682 333.261C242.402 332.194 241.488 330.847 240.942 329.221C240.482 327.854 239.562 327.007 238.182 326.681L234.932 324.761L231.182 321.511C226.842 315.811 225.838 309.851 228.172 303.631C228.792 301.991 230.052 299.887 231.952 297.321C234.372 294.054 235.802 292.041 236.242 291.281C238.215 287.907 238.092 284.824 235.872 282.031C233.625 279.211 231.895 276.347 230.682 273.441C229.535 270.681 228.992 267.451 229.052 263.751C229.158 257.991 230.132 252.434 231.972 247.081C232.292 246.161 232.812 245.367 233.532 244.701C238.085 240.501 241.902 236.071 244.982 231.411C246.888 235.624 250.372 237.894 255.432 238.221C260.118 238.527 263.515 237.007 265.622 233.661C267.902 230.021 268.235 225.771 266.622 220.911C264.362 214.084 261.632 207.451 258.432 201.011C263.685 199.084 266.915 195.551 268.122 190.411C268.722 187.857 268.878 185.131 268.592 182.231C268.292 179.197 267.445 176.661 266.052 174.621C262.978 170.101 258.242 168.364 251.842 169.411C251.748 169.426 251.652 169.42 251.561 169.393C251.47 169.366 251.386 169.319 251.315 169.256C251.244 169.193 251.188 169.115 251.151 169.028C251.115 168.94 251.098 168.846 251.102 168.751C251.282 165.371 251.225 162.111 250.932 158.971C250.745 156.984 250.078 155.471 248.932 154.431C247.045 152.604 245.108 150.827 243.122 149.101C243.082 149.061 242.198 148.231 240.472 146.611C237.585 143.897 234.142 142.164 230.142 141.411C227.968 141.004 226.418 139.921 225.492 138.161C223.612 134.574 220.918 131.997 217.412 130.431C214.725 129.237 211.928 128.527 209.022 128.301C206.608 128.114 205.382 128.017 205.342 128.011C201.882 127.624 198.418 127.287 194.952 127.001C186.838 126.341 179.772 123.234 173.752 117.681C173.602 117.542 173.427 117.434 173.237 117.362C173.047 117.291 172.845 117.258 172.644 117.265C172.444 117.273 172.248 117.32 172.069 117.406C171.89 117.491 171.731 117.611 171.602 117.761L167.182 122.931C164.168 126.104 161.668 128.951 159.682 131.471C157.262 134.544 155.845 138.127 155.432 142.221C155.145 145.067 155.062 149.067 155.182 154.221C155.215 155.501 154.795 156.914 153.922 158.461C152.755 160.547 152.072 161.824 151.872 162.291C150.438 165.624 148.915 169.301 147.302 173.321C147.196 173.583 146.995 173.796 146.739 173.917C146.483 174.038 146.191 174.057 145.922 173.971C144.775 173.604 143.698 172.897 142.692 171.851C140.845 163.317 139.925 153.607 139.932 142.721C139.938 131.694 142.625 122.047 147.992 113.781C152.505 106.834 159.005 103.067 167.492 102.481C169.678 102.334 171.358 101.961 172.532 101.361C173.878 100.674 175.448 99.7307 177.242 98.5307C180.368 96.4507 183.948 94.844 187.982 93.7107C191.448 92.7374 195.292 92.2474 199.512 92.2407C211.192 92.2274 222.185 94.9507 232.492 100.411C245.412 107.251 255.478 117.177 262.692 130.191C274.198 150.944 280.338 173.101 281.112 196.661C281.272 201.621 280.965 206.301 280.192 210.701C279.505 214.621 278.522 219.231 277.242 224.531C276.722 226.697 277.132 228.531 278.472 230.031C279.065 230.697 280.542 231.587 282.902 232.701C285.882 234.101 288.655 235.847 291.222 237.941C299.588 244.747 301.115 252.974 295.802 262.621C294.795 264.447 293.825 266.297 292.892 268.171C292.192 269.577 292.238 270.707 293.032 271.561C293.532 272.101 294.428 272.434 295.722 272.561C297.435 272.727 299.152 272.884 300.872 273.031C302.878 273.204 304.888 274.277 306.902 276.251C308.622 277.937 310.285 279.677 311.892 281.471ZM240.092 118.321C236.912 115.061 233.525 112.861 229.932 111.721C223.165 109.581 215.688 108.741 207.502 109.201C207.348 109.207 207.138 109.191 206.872 109.151C206.585 109.104 206.368 109.131 206.222 109.231C205.815 109.511 205.905 109.654 206.492 109.661C211.318 109.701 216.132 109.964 220.932 110.451C229.258 111.284 236.155 114.811 241.622 121.031C246.515 126.604 252.092 134.407 258.352 144.441C258.405 144.524 258.471 144.593 258.542 144.639C258.612 144.685 258.685 144.706 258.752 144.701C258.878 144.687 258.945 144.597 258.952 144.431C258.952 144.317 258.908 144.191 258.822 144.051C255.775 139.377 252.705 134.721 249.612 130.081C246.798 125.867 243.625 121.947 240.092 118.321ZM235.492 130.411C231.572 126.217 227.365 123.174 222.872 121.281C216.158 118.454 209.275 116.137 202.222 114.331C200.968 114.011 200.648 114.137 201.262 114.711C201.402 114.837 201.575 114.937 201.782 115.011C207.075 116.797 210.958 118.034 213.432 118.721C222.432 121.214 230.212 125.741 236.772 132.301C237.078 132.614 237.125 132.581 236.912 132.201C236.645 131.727 236.172 131.131 235.492 130.411ZM148.072 130.851C145.878 139.031 145.308 147.321 146.362 155.721C146.374 155.812 146.399 155.902 146.436 155.984C146.473 156.066 146.52 156.137 146.574 156.191C146.627 156.246 146.686 156.282 146.744 156.298C146.803 156.313 146.86 156.308 146.912 156.281C147.118 156.174 147.198 155.814 147.152 155.201C146.492 146.961 147.015 138.804 148.722 130.731C148.922 129.771 148.758 129.691 148.232 130.491C148.158 130.597 148.105 130.717 148.072 130.851ZM266.952 161.561C266.298 157.947 264.868 154.684 262.662 151.771C262.502 151.557 262.305 151.411 262.072 151.331C261.098 150.977 260.948 151.294 261.622 152.281C262.348 153.354 263.908 156.494 266.302 161.701C266.555 162.254 266.762 162.351 266.922 161.991C266.975 161.871 266.985 161.727 266.952 161.561ZM274.762 232.641C272.175 238.294 270.648 241.821 270.182 243.221C268.908 247.041 268.935 251.001 270.262 255.101C270.275 255.134 271.045 256.784 272.572 260.051C275.078 265.417 274.405 270.591 270.552 275.571C270.512 275.622 270.486 275.68 270.479 275.738C270.472 275.796 270.483 275.849 270.512 275.891C270.585 275.991 270.678 275.974 270.792 275.841C275.152 270.781 276.108 265.341 273.662 259.521C272.315 256.321 271.638 254.707 271.632 254.681C270.272 249.941 270.548 245.194 272.462 240.441C273.508 237.841 274.558 235.244 275.612 232.651C276.325 230.891 276.128 230.741 275.022 232.201C274.922 232.334 274.835 232.481 274.762 232.641ZM254.622 308.781C255.775 309.601 257.178 310.877 258.832 312.611C259.178 312.971 259.402 312.964 259.502 312.591C259.568 312.357 259.442 312.087 259.122 311.781C257.042 309.781 254.972 307.767 252.912 305.741C250.825 303.694 250.352 301.291 251.492 298.531C251.845 297.684 252.898 295.974 254.652 293.401C256.145 291.201 257.085 289.431 257.472 288.091C258.238 285.437 258.225 282.797 257.432 280.171C257.378 279.984 256.338 277.971 254.312 274.131C251.185 268.191 251.372 262.117 254.872 255.911C258.638 249.224 261.615 243.504 263.802 238.751C263.908 238.524 263.945 238.324 263.912 238.151C263.832 237.751 263.525 237.877 262.992 238.531C262.278 239.404 260.815 242.034 258.602 246.421C258.055 247.501 256.785 249.757 254.792 253.191C253.385 255.604 252.285 257.967 251.492 260.281C250.145 264.234 250.388 268.207 252.222 272.201C253.008 273.927 253.852 275.627 254.752 277.301C255.872 279.414 256.508 281.171 256.662 282.571C257.128 286.951 255.738 291.104 252.492 295.031C248.232 300.191 248.942 304.774 254.622 308.781Z" fill="#1D0D20"/>
<path d="M240.092 118.321C243.625 121.947 246.799 125.867 249.612 130.081C252.705 134.721 255.775 139.377 258.822 144.051C258.909 144.191 258.952 144.317 258.952 144.431C258.945 144.597 258.879 144.687 258.752 144.701C258.686 144.706 258.613 144.685 258.542 144.639C258.471 144.593 258.405 144.524 258.352 144.441C252.092 134.407 246.515 126.604 241.622 121.031C236.155 114.811 229.259 111.284 220.932 110.451C216.132 109.964 211.319 109.701 206.492 109.661C205.905 109.654 205.815 109.511 206.222 109.231C206.369 109.131 206.585 109.104 206.872 109.151C207.139 109.191 207.349 109.207 207.502 109.201C215.689 108.741 223.165 109.581 229.932 111.721C233.525 112.861 236.912 115.061 240.092 118.321Z" fill="#837EA1"/>
<path d="M235.492 130.411C236.172 131.131 236.645 131.727 236.912 132.201C237.125 132.581 237.078 132.614 236.772 132.301C230.212 125.741 222.432 121.214 213.432 118.721C210.958 118.034 207.075 116.797 201.782 115.011C201.575 114.937 201.402 114.837 201.262 114.711C200.648 114.137 200.968 114.011 202.222 114.331C209.275 116.137 216.158 118.454 222.872 121.281C227.365 123.174 231.572 126.217 235.492 130.411Z" fill="#473552"/>
<path d="M248.932 154.431C247.145 155.784 245.512 155.924 244.032 154.851C242.965 154.084 242.395 153.681 242.322 153.641C237.508 150.967 232.455 148.874 227.162 147.361C226.85 147.27 226.577 147.084 226.382 146.831C224.068 143.811 222.772 141.837 222.492 140.911C221.232 136.751 218.438 134.221 214.112 133.321C209.205 132.307 204.272 131.461 199.312 130.781C193.265 129.947 188.922 129.051 186.282 128.091C181.502 126.357 177.038 123.941 172.892 120.841C172.779 120.755 172.641 120.708 172.499 120.708C172.356 120.708 172.217 120.755 172.102 120.841C170.622 121.954 168.982 122.651 167.182 122.931L171.602 117.761C171.731 117.611 171.89 117.491 172.069 117.406C172.248 117.32 172.444 117.273 172.644 117.265C172.845 117.258 173.046 117.291 173.237 117.362C173.427 117.433 173.602 117.542 173.752 117.681C179.772 123.234 186.838 126.341 194.952 127.001C198.418 127.287 201.882 127.624 205.342 128.011C205.382 128.017 206.608 128.114 209.022 128.301C211.928 128.527 214.725 129.237 217.412 130.431C220.918 131.997 223.612 134.574 225.492 138.161C226.418 139.921 227.968 141.004 230.142 141.411C234.142 142.164 237.585 143.897 240.472 146.611C242.198 148.231 243.082 149.061 243.122 149.101C245.108 150.827 247.045 152.604 248.932 154.431Z" fill="#A94E39"/>
<path d="M248.932 154.431C250.078 155.471 250.745 156.984 250.932 158.971C251.225 162.111 251.282 165.371 251.102 168.751C251.097 168.845 251.114 168.94 251.151 169.027C251.188 169.115 251.244 169.193 251.315 169.256C251.386 169.319 251.47 169.366 251.561 169.393C251.652 169.419 251.748 169.426 251.842 169.411C258.242 168.364 262.978 170.101 266.052 174.621C267.445 176.661 268.292 179.197 268.592 182.231C268.878 185.131 268.722 187.857 268.122 190.411C266.915 195.551 263.685 199.084 258.432 201.011C257.572 200.751 256.975 200.987 256.642 201.721C255.775 200.781 254.852 200.534 253.872 200.981C253.742 201.038 253.628 201.137 253.544 201.267C253.459 201.397 253.407 201.554 253.392 201.721C252.632 211.034 250.245 219.861 246.232 228.201C245.512 229.087 245.095 230.157 244.982 231.411C241.902 236.071 238.085 240.501 233.532 244.701C232.812 245.367 232.292 246.161 231.972 247.081C230.132 252.434 229.158 257.991 229.052 263.751C228.992 267.451 229.535 270.681 230.682 273.441C231.895 276.347 233.625 279.211 235.872 282.031C238.092 284.824 238.215 287.907 236.242 291.281C235.802 292.041 234.372 294.054 231.952 297.321C230.052 299.887 228.792 301.991 228.172 303.631C225.838 309.851 226.842 315.811 231.182 321.511L230.682 321.931C224.828 325.164 219.015 327.281 213.242 328.281C199.842 330.607 186.462 329.507 173.102 324.981C170.222 321.841 165.812 317.191 159.872 311.031C156.792 307.844 154.235 304.101 152.202 299.801C151.675 289.887 151.528 279.751 151.762 269.391C158.748 268.431 162.442 264.537 162.842 257.711C163.148 252.471 163.158 246.781 162.872 240.641C162.845 240.12 162.622 239.55 162.232 239.011L155.882 230.241C155.615 229.407 155.078 228.594 154.272 227.801C150.832 221.061 148.792 213.721 148.152 205.781C148.038 204.334 147.212 203.814 145.672 204.221C145.507 204.265 145.333 204.266 145.168 204.222C145.003 204.178 144.853 204.091 144.732 203.97C144.611 203.85 144.524 203.699 144.481 203.534C144.437 203.369 144.437 203.195 144.482 203.031C145.248 200.184 145.932 197.254 146.532 194.241C146.652 193.627 146.452 193.274 145.932 193.181C147.265 191.821 148.015 189.834 148.182 187.221C148.462 182.721 146.918 180.117 143.552 179.411C141.612 179.004 139.975 179.367 138.642 180.501C137.228 181.694 136.492 183.434 136.432 185.721C136.332 189.561 137.875 191.971 141.062 192.951C141.515 193.091 142.275 193.174 143.342 193.201C144.115 193.214 144.882 193.304 145.642 193.471C144.942 196.937 143.692 200.187 141.892 203.221C141.698 203.394 141.475 203.477 141.222 203.471C134.402 201.017 130.722 196.017 130.182 188.471C129.902 184.491 130.548 180.971 132.122 177.911C134.095 174.064 137.618 172.044 142.692 171.851C143.698 172.897 144.775 173.604 145.922 173.971C146.191 174.057 146.483 174.037 146.739 173.917C146.995 173.796 147.196 173.583 147.302 173.321C148.915 169.301 150.438 165.624 151.872 162.291C152.072 161.824 152.755 160.547 153.922 158.461C154.795 156.914 155.215 155.501 155.182 154.221C155.062 149.067 155.145 145.067 155.432 142.221C155.845 138.127 157.262 134.544 159.682 131.471C161.668 128.951 164.168 126.104 167.182 122.931C168.982 122.651 170.622 121.954 172.102 120.841C172.217 120.755 172.356 120.708 172.499 120.708C172.641 120.708 172.779 120.755 172.892 120.841C177.038 123.941 181.502 126.357 186.282 128.091C188.922 129.051 193.265 129.947 199.312 130.781C204.272 131.461 209.205 132.307 214.112 133.321C218.438 134.221 221.232 136.751 222.492 140.911C222.772 141.837 224.068 143.811 226.382 146.831C226.577 147.084 226.85 147.27 227.162 147.361C232.455 148.874 237.508 150.967 242.322 153.641C242.395 153.681 242.965 154.084 244.032 154.851C245.512 155.924 247.145 155.784 248.932 154.431ZM160.312 157.601C159.565 158.407 159.185 159.721 159.172 161.541C159.165 162.407 159.532 162.617 160.272 162.171C167.298 157.924 174.792 155.187 182.752 153.961C184.338 153.714 185.412 153.407 185.972 153.041C187.252 152.214 187.615 150.981 187.062 149.341C186.568 147.894 185.562 147.267 184.042 147.461C179.582 148.021 175.272 149.037 171.112 150.511C166.912 151.997 163.312 154.361 160.312 157.601ZM222.502 154.721L216.382 155.631C216.295 155.646 216.194 155.626 216.092 155.573C215.99 155.52 215.889 155.436 215.802 155.331C215.722 155.224 215.625 155.141 215.512 155.081C215.338 154.987 215.112 154.981 214.832 155.061C212.678 155.641 211.165 156.941 210.292 158.961C208.185 161.634 207.065 164.221 206.932 166.721C206.572 173.534 207.048 181.704 208.362 191.231C208.708 193.771 209.538 196.237 210.852 198.631C207.792 201.557 204.468 203.534 200.882 204.561C199.902 204.847 199.898 205.144 200.872 205.451C207.052 207.437 212.095 206.217 216.002 201.791C217.175 200.464 217.568 199.114 217.182 197.741L214.952 189.811C214.518 188.271 214.358 187.061 214.472 186.181C214.738 184.154 215.498 183.661 216.752 184.701C216.958 184.874 217.175 185.121 217.402 185.441C219.735 188.781 220.135 188.551 218.602 184.751C216.922 180.577 217.465 176.607 220.232 172.841C221.458 171.441 223.108 170.414 225.182 169.761C224.695 175.681 227.265 177.584 232.892 175.471L238.762 174.611C239.556 174.496 240.351 174.69 240.972 175.151C242.292 176.131 243.125 176.321 243.472 175.721C245.198 176.761 245.685 176.711 244.932 175.571C244.738 175.291 244.585 175.044 244.472 174.831C243.212 172.504 241.555 170.371 239.502 168.431C241.302 166.971 242.362 165.214 242.682 163.161C242.705 163.01 242.686 162.855 242.626 162.714C242.566 162.572 242.467 162.45 242.342 162.361C239.748 160.481 237.258 159.204 234.872 158.531C230.065 157.184 226.408 155.971 223.902 154.891C231.402 155.804 238.258 158.204 244.472 162.091C245.278 162.597 245.662 162.374 245.622 161.421C245.488 158.547 244.212 156.351 241.792 154.831C235.478 150.857 228.612 148.367 221.192 147.361C218.178 146.954 216.425 148.157 215.932 150.971C215.565 153.064 216.315 154.064 218.182 153.971C219.588 153.897 221.028 154.147 222.502 154.721ZM167.432 167.181C164.632 168.887 162.642 171.277 161.462 174.351C160.775 176.144 161.265 176.421 162.932 175.181C164.178 175.601 165.455 175.607 166.762 175.201C167.022 175.119 167.302 175.097 167.584 175.137C167.865 175.177 168.14 175.277 168.392 175.431L171.182 177.181C171.23 177.209 171.284 177.225 171.341 177.226C171.397 177.227 171.452 177.213 171.502 177.186C171.552 177.159 171.595 177.12 171.626 177.072C171.658 177.023 171.677 176.968 171.682 176.911L171.722 176.221C177.675 176.161 179.648 173.047 177.642 166.881C180.422 167.327 182.962 168.257 185.262 169.671C185.928 170.077 186.115 169.917 185.822 169.191C184.082 164.904 180.765 163.061 175.872 163.661C172.718 164.041 169.905 165.214 167.432 167.181ZM253.072 176.441C252.437 177.121 252.056 177.996 251.992 178.921C251.592 184.581 252.552 189.584 254.872 193.931C254.95 194.077 255.06 194.203 255.195 194.299C255.329 194.396 255.484 194.46 255.648 194.487C255.811 194.514 255.978 194.503 256.137 194.455C256.295 194.407 256.441 194.324 256.562 194.211C261.715 189.364 262.805 184.031 259.832 178.211C259.125 176.837 258.275 175.917 257.282 175.451C255.762 174.744 254.358 175.074 253.072 176.441ZM224.122 184.161C221.082 187.994 220.162 192.817 221.362 198.631C221.782 200.671 222.825 202.431 224.492 203.911C227.118 206.231 230.045 207.774 233.272 208.541C236.505 209.314 239.622 208.687 242.622 206.661C246.555 203.994 248.708 200.427 249.082 195.961C249.782 187.554 246.312 181.601 238.672 178.101C237.438 177.534 236.155 177.371 234.822 177.611C230.548 178.364 226.982 180.547 224.122 184.161ZM157.422 207.051C160.068 209.784 163.072 211.007 166.432 210.721C170.618 210.367 174.028 208.387 176.662 204.781C178.628 202.334 179.878 199.661 180.412 196.761C180.932 193.901 180.562 191.111 179.302 188.391C178.015 185.624 176.142 183.357 173.682 181.591C171.268 179.857 168.588 179.051 165.642 179.171C162.255 179.311 159.265 180.421 156.672 182.501C154.185 184.494 152.578 187.007 151.852 190.041C151.145 193.014 151.255 196.157 152.182 199.471C153.142 202.924 154.888 205.451 157.422 207.051ZM221.892 219.451C223.732 217.197 225.218 214.554 226.352 211.521C226.732 210.501 226.388 210.104 225.322 210.331C215.342 212.484 205.462 213.344 195.682 212.911C191.955 212.744 188.225 212.621 184.492 212.541C184.433 212.539 184.375 212.55 184.322 212.575C184.269 212.6 184.222 212.637 184.185 212.684C184.148 212.73 184.123 212.785 184.11 212.843C184.097 212.902 184.098 212.962 184.112 213.021C185.618 218.847 188.985 222.824 194.212 224.951C195.612 225.524 197.805 225.947 200.792 226.221C202.952 226.421 205.182 226.701 207.482 227.061C208.322 227.187 209.148 227.141 209.962 226.921C214.968 225.547 218.945 223.057 221.892 219.451ZM209.162 230.871C209.277 230.755 209.355 230.61 209.389 230.449C209.424 230.288 209.413 230.116 209.359 229.947C209.305 229.778 209.208 229.618 209.078 229.481C208.948 229.344 208.787 229.234 208.612 229.161L206.552 228.301C206.197 228.152 205.869 228.099 205.632 228.151C203.638 228.611 201.632 228.587 199.612 228.081C199.285 228.001 198.992 227.967 198.732 227.981C197.185 228.034 197.092 228.401 198.452 229.081C198.752 229.234 199.012 229.391 199.232 229.551C201.045 230.877 202.592 231.787 203.872 232.281C205.725 233.001 207.488 232.531 209.162 230.871ZM178.872 257.281C189.218 266.307 200.718 268.184 213.372 262.911C217.412 261.224 221.462 258.244 225.522 253.971C225.588 253.904 226.428 253.144 228.042 251.691C229.355 250.504 230.255 249.031 230.742 247.271C230.835 246.937 230.745 246.874 230.472 247.081C220.705 254.474 209.952 257.827 198.212 257.141C192.445 256.807 186.895 255.464 181.562 253.111C176.328 250.811 171.432 247.701 166.872 243.781C166.678 243.614 166.548 243.601 166.482 243.741C166.455 243.795 166.448 243.862 166.462 243.934C166.477 244.007 166.511 244.082 166.562 244.151C169.815 248.584 173.918 252.961 178.872 257.281ZM196.862 319.071C197.688 319.224 198.068 318.851 198.002 317.951C197.955 317.371 197.932 317.044 197.932 316.971C197.992 309.891 197.992 302.811 197.932 295.731C197.932 295.374 197.833 295.048 197.652 294.801C196.958 293.867 196.438 293.951 196.092 295.051C195.992 295.391 195.925 295.844 195.892 296.411C195.545 303.284 195.578 310.511 195.992 318.091C196.006 318.329 196.1 318.556 196.257 318.734C196.415 318.912 196.628 319.03 196.862 319.071Z" fill="#BE6146"/>
<path d="M148.232 130.491C148.758 129.691 148.922 129.771 148.722 130.731C147.015 138.804 146.492 146.961 147.152 155.201C147.198 155.814 147.118 156.174 146.912 156.281C146.861 156.308 146.803 156.313 146.745 156.298C146.686 156.282 146.627 156.246 146.574 156.191C146.52 156.137 146.473 156.066 146.436 155.984C146.399 155.902 146.374 155.812 146.362 155.721C145.308 147.321 145.878 139.031 148.072 130.851C148.105 130.717 148.158 130.597 148.232 130.491Z" fill="#6D5E73"/>
<path d="M160.312 157.601C163.312 154.361 166.912 151.997 171.112 150.511C175.272 149.037 179.582 148.021 184.042 147.461C185.562 147.267 186.569 147.894 187.062 149.341C187.615 150.981 187.252 152.214 185.972 153.041C185.412 153.407 184.339 153.714 182.752 153.961C174.792 155.187 167.299 157.924 160.272 162.171C159.532 162.617 159.165 162.407 159.172 161.541C159.185 159.721 159.565 158.407 160.312 157.601Z" fill="#1E111E"/>
<path d="M223.902 154.891C223.562 154.277 223.095 154.221 222.502 154.721C221.028 154.147 219.588 153.897 218.182 153.971C216.315 154.064 215.565 153.064 215.932 150.971C216.425 148.157 218.178 146.954 221.192 147.361C228.612 148.367 235.478 150.857 241.792 154.831C244.212 156.351 245.488 158.547 245.622 161.421C245.662 162.374 245.278 162.597 244.472 162.091C238.258 158.204 231.402 155.804 223.902 154.891Z" fill="#22151C"/>
<path d="M98.2645 151.285C97.3724 153.646 98.161 156.131 100.026 156.836C101.891 157.54 104.126 156.198 105.018 153.837C105.911 151.476 105.122 148.99 103.257 148.286C101.392 147.581 99.1567 148.924 98.2645 151.285Z" fill="#FA9A59"/>
<path d="M266.922 161.991C266.762 162.351 266.555 162.254 266.302 161.701C263.909 156.494 262.349 153.354 261.622 152.281C260.949 151.294 261.099 150.977 262.072 151.331C262.305 151.411 262.502 151.557 262.662 151.771C264.869 154.684 266.299 157.947 266.952 161.561C266.985 161.727 266.975 161.871 266.922 161.991Z" fill="#51475F"/>
<path d="M222.502 154.721C223.095 154.221 223.562 154.277 223.902 154.891C226.408 155.971 230.065 157.184 234.872 158.531C237.258 159.204 239.748 160.481 242.342 162.361C242.467 162.45 242.566 162.572 242.626 162.714C242.686 162.855 242.705 163.01 242.682 163.161C242.362 165.214 241.302 166.971 239.502 168.431C236.175 166.251 232.402 165.361 228.182 165.761C226.315 165.507 224.168 166.097 221.742 167.531C219.868 168.644 218.965 170.291 219.032 172.471C219.038 172.704 219.438 172.827 220.232 172.841C217.465 176.607 216.922 180.577 218.602 184.751C220.135 188.551 219.735 188.781 217.402 185.441C217.175 185.121 216.958 184.874 216.752 184.701C215.498 183.661 214.738 184.154 214.472 186.181C214.358 187.061 214.518 188.271 214.952 189.811L217.182 197.741C217.568 199.114 217.175 200.464 216.002 201.791C212.095 206.217 207.052 207.437 200.872 205.451C199.898 205.144 199.902 204.847 200.882 204.561C204.468 203.534 207.792 201.557 210.852 198.631C210.245 195.344 209.832 192.037 209.612 188.711C209.418 185.797 209.108 182.487 208.682 178.781C208.255 175.167 208.088 171.397 208.182 167.471C208.255 164.351 208.958 161.514 210.292 158.961C211.165 156.941 212.678 155.641 214.832 155.061C215.112 154.981 215.338 154.987 215.512 155.081C215.625 155.141 215.722 155.224 215.802 155.331C215.889 155.436 215.99 155.52 216.092 155.573C216.194 155.626 216.294 155.646 216.382 155.631L222.502 154.721Z" fill="#A94E39"/>
<path d="M210.292 158.961C208.958 161.514 208.255 164.351 208.182 167.471C208.088 171.397 208.255 175.167 208.682 178.781C209.108 182.487 209.418 185.797 209.612 188.711C209.832 192.037 210.245 195.344 210.852 198.631C209.538 196.237 208.708 193.771 208.362 191.231C207.048 181.704 206.572 173.534 206.932 166.721C207.065 164.221 208.185 161.634 210.292 158.961Z" fill="#67332A"/>
<path d="M87.5983 167.311C85.3063 172.074 86.248 177.282 89.7017 178.944C93.1554 180.606 97.8132 178.093 100.105 173.33C102.397 168.568 101.456 163.36 98.0019 161.697C94.5482 160.035 89.8904 162.549 87.5983 167.311Z" fill="#FA9A59"/>
<path d="M177.642 166.881C175.175 166.034 172.745 166.194 170.352 167.361C169.778 167.647 169.298 167.771 168.912 167.731C168.385 167.671 167.892 167.487 167.432 167.181C169.905 165.214 172.718 164.041 175.872 163.661C180.765 163.061 184.082 164.904 185.822 169.191C186.115 169.917 185.928 170.077 185.262 169.671C182.962 168.257 180.422 167.327 177.642 166.881Z" fill="#913C32"/>
<path d="M228.182 165.761C226.822 166.814 225.822 168.147 225.182 169.761C223.108 170.414 221.458 171.441 220.232 172.841C219.438 172.827 219.038 172.704 219.032 172.471C218.965 170.291 219.868 168.644 221.742 167.531C224.168 166.097 226.315 165.507 228.182 165.761Z" fill="#632A21"/>
<path d="M228.182 165.761C232.402 165.361 236.175 166.251 239.502 168.431C241.555 170.371 243.212 172.504 244.472 174.831C244.585 175.044 244.738 175.291 244.932 175.571C245.685 176.711 245.198 176.761 243.472 175.721L235.322 169.641C234.355 168.914 233.912 169.151 233.992 170.351C234.098 171.871 233.732 173.577 232.892 175.471C227.265 177.584 224.695 175.681 225.182 169.761C225.822 168.147 226.822 166.814 228.182 165.761Z" fill="#482729"/>
<path d="M177.642 166.881C179.648 173.047 177.675 176.161 171.722 176.221C170.388 174.674 169.708 172.804 169.682 170.611C169.668 169.797 169.368 169.644 168.782 170.151L162.932 175.181C161.265 176.421 160.775 176.144 161.462 174.351C162.642 171.277 164.632 168.887 167.432 167.181C167.892 167.487 168.385 167.671 168.912 167.731C169.298 167.771 169.778 167.647 170.352 167.361C172.745 166.194 175.175 166.034 177.642 166.881Z" fill="#18111A"/>
<path d="M243.472 175.721C243.125 176.321 242.292 176.131 240.972 175.151C240.351 174.69 239.556 174.496 238.762 174.611L232.892 175.471C233.732 173.577 234.098 171.871 233.992 170.351C233.912 169.151 234.355 168.914 235.322 169.641L243.472 175.721Z" fill="#E0C4B9"/>
<path d="M171.722 176.221L171.682 176.911C171.677 176.968 171.658 177.023 171.626 177.072C171.595 177.12 171.552 177.159 171.502 177.186C171.452 177.213 171.397 177.227 171.341 177.226C171.284 177.225 171.23 177.209 171.182 177.181L168.392 175.431C168.14 175.277 167.865 175.177 167.584 175.137C167.302 175.097 167.022 175.119 166.762 175.201C165.455 175.607 164.178 175.601 162.932 175.181L168.782 170.151C169.368 169.644 169.668 169.797 169.682 170.611C169.708 172.804 170.388 174.674 171.722 176.221Z" fill="#D5A89A"/>
<path d="M311.131 181.664C313.138 180.062 313.785 177.535 312.576 176.02C311.366 174.505 308.759 174.575 306.752 176.178C304.745 177.78 304.098 180.307 305.307 181.822C306.517 183.337 309.124 183.266 311.131 181.664Z" fill="#FB9C65"/>
<path d="M253.072 176.441C254.358 175.074 255.762 174.744 257.282 175.451C258.275 175.917 259.125 176.837 259.832 178.211C262.805 184.031 261.715 189.364 256.562 194.211C256.441 194.324 256.295 194.408 256.137 194.455C255.978 194.503 255.811 194.514 255.648 194.487C255.484 194.46 255.329 194.396 255.195 194.299C255.06 194.203 254.95 194.077 254.872 193.931C252.552 189.584 251.592 184.581 251.992 178.921C252.056 177.996 252.437 177.121 253.072 176.441Z" fill="#AE4538"/>
<path d="M224.121 184.161C226.981 180.547 230.548 178.364 234.822 177.611C236.155 177.371 237.438 177.534 238.671 178.101C246.311 181.601 249.782 187.554 249.082 195.961C248.708 200.427 246.555 203.994 242.621 206.661C239.621 208.687 236.505 209.314 233.272 208.541C230.045 207.774 227.118 206.231 224.491 203.911C222.825 202.431 221.781 200.671 221.361 198.631C220.161 192.817 221.081 187.994 224.121 184.161Z" fill="#AE4538"/>
<path d="M176.662 204.781C170.615 208.027 164.202 208.784 157.422 207.051C154.888 205.451 153.142 202.924 152.182 199.471C151.255 196.157 151.145 193.014 151.852 190.041C152.578 187.007 154.185 184.494 156.672 182.501C159.265 180.421 162.255 179.311 165.642 179.171C168.588 179.051 171.268 179.857 173.682 181.591C176.142 183.357 178.015 185.624 179.302 188.391C180.562 191.111 180.932 193.901 180.412 196.761C179.878 199.661 178.628 202.334 176.662 204.781Z" fill="#B24638"/>
<path d="M145.932 193.181C145.778 193.221 145.682 193.317 145.642 193.471C144.882 193.304 144.115 193.214 143.342 193.201C142.275 193.174 141.515 193.091 141.062 192.951C137.875 191.971 136.332 189.561 136.432 185.721C136.492 183.434 137.228 181.694 138.642 180.501C139.975 179.367 141.612 179.004 143.552 179.411C146.918 180.117 148.462 182.721 148.182 187.221C148.015 189.834 147.265 191.821 145.932 193.181Z" fill="#9F4035"/>
<path d="M145.932 193.181C146.452 193.274 146.652 193.627 146.532 194.241C145.932 197.254 145.248 200.184 144.482 203.031C144.437 203.195 144.437 203.369 144.481 203.534C144.525 203.699 144.611 203.85 144.732 203.97C144.853 204.091 145.003 204.178 145.168 204.222C145.333 204.266 145.507 204.265 145.672 204.221C147.212 203.814 148.039 204.334 148.152 205.781C148.792 213.721 150.832 221.061 154.272 227.801C153.278 234.661 149.832 238.751 143.932 240.071C142.005 240.504 140.242 240.261 138.642 239.341C134.415 236.901 133.262 232.777 135.182 226.971C139.089 215.157 141.592 207.791 142.692 204.871C142.735 204.759 142.733 204.632 142.686 204.508C142.639 204.385 142.549 204.273 142.432 204.191C142.112 203.964 141.932 203.641 141.892 203.221C143.692 200.187 144.942 196.937 145.642 193.471C145.682 193.317 145.779 193.221 145.932 193.181Z" fill="#FDE8E1"/>
<path d="M256.641 201.721C259.848 208.347 262.491 215.191 264.571 222.251C265.445 225.231 265.648 227.721 265.181 229.721C264.595 232.227 263.491 233.874 261.871 234.661C253.911 238.514 248.698 236.361 246.231 228.201C250.245 219.861 252.631 211.034 253.391 201.721C253.407 201.554 253.459 201.397 253.544 201.267C253.628 201.137 253.741 201.038 253.871 200.981C254.851 200.534 255.775 200.781 256.641 201.721Z" fill="#180B1D"/>
<path d="M258.431 201.011C261.631 207.451 264.361 214.084 266.621 220.911C268.235 225.771 267.901 230.021 265.621 233.661C263.515 237.007 260.118 238.527 255.431 238.221C250.371 237.894 246.888 235.624 244.981 231.411C245.095 230.157 245.511 229.087 246.231 228.201C248.698 236.361 253.911 238.514 261.871 234.661C263.491 233.874 264.595 232.227 265.181 229.721C265.648 227.721 265.445 225.231 264.571 222.251C262.491 215.191 259.848 208.347 256.641 201.721C256.975 200.987 257.571 200.751 258.431 201.011Z" fill="#F6F3F1"/>
<path d="M141.892 203.221C141.932 203.641 142.112 203.964 142.432 204.191C142.549 204.273 142.639 204.385 142.686 204.508C142.733 204.632 142.735 204.759 142.692 204.871C141.592 207.791 139.088 215.157 135.182 226.971C133.262 232.777 134.415 236.901 138.642 239.341C140.242 240.261 142.005 240.504 143.932 240.071C149.832 238.751 153.278 234.661 154.272 227.801C155.078 228.594 155.615 229.407 155.882 230.241C155.328 236.694 152.478 240.791 147.332 242.531C143.465 243.837 139.925 243.614 136.712 241.861C134.072 240.421 132.378 238.137 131.632 235.011C131.132 232.931 131.282 230.257 132.082 226.991C133.962 219.311 136.612 211.891 140.032 204.731C140.078 204.635 140.168 204.546 140.292 204.471C140.416 204.396 140.571 204.337 140.742 204.301C141.075 204.227 141.235 203.951 141.222 203.471C141.475 203.477 141.698 203.394 141.892 203.221Z" fill="#F2C7BB"/>
<path d="M176.662 204.781C174.029 208.387 170.619 210.367 166.432 210.721C163.072 211.007 160.069 209.784 157.422 207.051C164.202 208.784 170.615 208.027 176.662 204.781Z" fill="#C54E3A"/>
<path d="M221.891 219.451C218.945 223.057 214.968 225.547 209.961 226.921C209.148 227.141 208.321 227.187 207.481 227.061C205.181 226.701 202.951 226.421 200.791 226.221C197.805 225.947 195.611 225.524 194.211 224.951C188.985 222.824 185.618 218.847 184.111 213.021C184.098 212.962 184.097 212.902 184.11 212.843C184.123 212.785 184.148 212.73 184.185 212.684C184.222 212.637 184.269 212.6 184.322 212.575C184.375 212.55 184.433 212.539 184.491 212.541C188.225 212.621 191.955 212.744 195.681 212.911C205.461 213.344 215.341 212.484 225.321 210.331C226.388 210.104 226.731 210.501 226.351 211.521C225.218 214.554 223.731 217.197 221.891 219.451Z" fill="#FDFDFD"/>
<path d="M101.682 228.011C101.542 227.117 101.102 226.571 100.362 226.371C100.21 226.326 100.07 226.256 99.9518 226.163C99.8332 226.07 99.738 225.957 99.6718 225.831C99.2851 225.111 98.8452 225.197 98.3518 226.091C95.4985 231.264 92.5785 236.474 89.5918 241.721C88.5252 240.141 88.1385 237.974 88.4318 235.221C89.1251 228.781 91.1251 222.781 94.4318 217.221C95.8785 214.794 97.7452 212.724 100.032 211.011C101.412 209.971 102.478 210.227 103.232 211.781C103.785 212.907 104.042 214.387 104.002 216.221C103.915 220.294 103.142 224.224 101.682 228.011Z" fill="#F2C7BB"/>
<path d="M101.682 228.011C100.382 232.904 98.3185 236.994 95.4918 240.281C94.0718 241.934 92.1051 242.414 89.5918 241.721C92.5785 236.474 95.4985 231.264 98.3518 226.091C98.8451 225.197 99.2851 225.111 99.6718 225.831C99.7379 225.957 99.8332 226.07 99.9518 226.163C100.07 226.256 100.21 226.326 100.362 226.371C101.102 226.571 101.542 227.117 101.682 228.011Z" fill="#F0BDB1"/>
<path d="M209.162 230.871C207.488 232.531 205.725 233.001 203.872 232.281C202.592 231.787 201.045 230.877 199.232 229.551C199.012 229.391 198.752 229.234 198.452 229.081C197.092 228.401 197.185 228.034 198.732 227.981C198.992 227.967 199.285 228.001 199.612 228.081C201.632 228.587 203.638 228.611 205.632 228.151C205.869 228.099 206.197 228.152 206.552 228.301L208.612 229.161C208.787 229.234 208.947 229.344 209.078 229.481C209.208 229.618 209.305 229.778 209.359 229.947C209.413 230.116 209.424 230.288 209.389 230.449C209.355 230.61 209.277 230.755 209.162 230.871Z" fill="#7F3228"/>
<path d="M275.022 232.201C276.128 230.741 276.325 230.891 275.611 232.651C274.558 235.244 273.508 237.841 272.462 240.441C270.548 245.194 270.272 249.941 271.632 254.681C271.638 254.707 272.315 256.321 273.661 259.521C276.108 265.341 275.151 270.781 270.791 275.841C270.678 275.974 270.585 275.991 270.512 275.891C270.483 275.849 270.471 275.796 270.479 275.738C270.486 275.68 270.511 275.622 270.551 275.571C274.405 270.591 275.078 265.417 272.572 260.051C271.045 256.784 270.275 255.134 270.262 255.101C268.935 251.001 268.908 247.041 270.181 243.221C270.648 241.821 272.175 238.294 274.762 232.641C274.835 232.481 274.922 232.334 275.022 232.201Z" fill="#473552"/>
<path d="M254.622 308.781C248.942 304.774 248.231 300.191 252.491 295.031C255.738 291.104 257.128 286.951 256.661 282.571C256.508 281.171 255.872 279.414 254.752 277.301C253.852 275.627 253.008 273.927 252.221 272.201C250.388 268.207 250.145 264.234 251.491 260.281C252.285 257.967 253.385 255.604 254.791 253.191C256.785 249.757 258.055 247.501 258.601 246.421C260.815 242.034 262.278 239.404 262.991 238.531C263.525 237.877 263.831 237.751 263.911 238.151C263.945 238.324 263.908 238.524 263.801 238.751C261.615 243.504 258.638 249.224 254.872 255.911C251.372 262.117 251.185 268.191 254.312 274.131C256.338 277.971 257.378 279.984 257.432 280.171C258.225 282.797 258.238 285.437 257.471 288.091C257.085 289.431 256.145 291.201 254.651 293.401C252.898 295.974 251.845 297.684 251.491 298.531C250.351 301.291 250.825 303.694 252.911 305.741C254.971 307.767 257.042 309.781 259.122 311.781C259.442 312.087 259.568 312.357 259.502 312.591C259.402 312.964 259.178 312.971 258.832 312.611C257.178 310.877 255.775 309.601 254.622 308.781Z" fill="#3D2338"/>
<path d="M178.872 257.281C173.918 252.961 169.815 248.584 166.562 244.151C166.511 244.082 166.476 244.007 166.462 243.934C166.448 243.862 166.455 243.795 166.482 243.741C166.548 243.601 166.678 243.614 166.872 243.781C171.432 247.701 176.328 250.811 181.562 253.111C186.895 255.464 192.445 256.807 198.212 257.141C209.952 257.827 220.705 254.474 230.472 247.081C230.745 246.874 230.835 246.937 230.742 247.271C230.255 249.031 229.355 250.504 228.042 251.691C226.428 253.144 225.588 253.904 225.522 253.971C221.462 258.244 217.412 261.224 213.372 262.911C200.718 268.184 189.218 266.307 178.872 257.281Z" fill="#9F4035"/>
<path d="M151.762 269.391C151.529 279.751 151.675 289.887 152.202 299.801C148.335 293.961 146.085 287.517 145.452 280.471C145.092 276.471 145.989 272.804 148.142 269.471C149.789 268.484 150.995 268.457 151.762 269.391Z" fill="#FAF9F9"/>
<path d="M148.142 269.471C145.988 272.804 145.092 276.471 145.452 280.471C146.085 287.517 148.335 293.961 152.202 299.801C154.235 304.101 156.792 307.844 159.872 311.031C165.812 317.191 170.222 321.841 173.102 324.981L176.562 326.931C176.669 326.99 176.76 327.061 176.826 327.135C176.891 327.21 176.928 327.284 176.932 327.351L176.942 327.671C176.946 327.733 176.934 327.796 176.906 327.854C176.879 327.912 176.837 327.965 176.783 328.008C176.729 328.052 176.664 328.085 176.594 328.107C176.523 328.128 176.447 328.136 176.372 328.131C170.645 327.817 165.682 325.731 161.482 321.871C161.365 321.763 161.225 321.689 161.078 321.657C160.931 321.626 160.783 321.637 160.652 321.691C159.572 322.124 158.928 322.967 158.722 324.221C142.742 312.607 131.538 297.397 125.112 278.591C132.325 274.931 140.002 271.891 148.142 269.471Z" fill="#959E74"/>
<path d="M125.112 278.591C131.538 297.397 142.742 312.607 158.722 324.221L151.842 331.481C130.348 322.841 112.065 309.744 96.9917 292.191C106.152 287.217 115.525 282.684 125.112 278.591Z" fill="#AEAD79"/>
<path d="M196.861 319.071C196.628 319.03 196.415 318.912 196.257 318.734C196.099 318.556 196.006 318.329 195.991 318.091C195.578 310.511 195.545 303.284 195.891 296.411C195.925 295.844 195.991 295.391 196.091 295.051C196.438 293.951 196.958 293.867 197.651 294.801C197.833 295.048 197.931 295.374 197.931 295.731C197.991 302.811 197.991 309.891 197.931 316.971C197.931 317.044 197.955 317.371 198.002 317.951C198.068 318.851 197.688 319.224 196.861 319.071Z" fill="#9F4035"/>
<path d="M173.102 324.981C186.462 329.507 199.842 330.607 213.242 328.281C219.015 327.281 224.828 325.164 230.682 321.931C231.375 322.537 231.405 323.017 230.772 323.371C230.042 323.788 229.453 324.419 229.082 325.181C228.042 327.341 228.075 328.534 229.182 328.761L230.532 333.191C230.551 333.253 230.556 333.32 230.546 333.386C230.536 333.452 230.512 333.516 230.474 333.574C230.437 333.632 230.387 333.683 230.328 333.724C230.269 333.764 230.202 333.794 230.132 333.811C228.052 334.291 227.098 333.337 227.272 330.951C227.392 329.371 226.782 328.784 225.442 329.191L223.102 329.901C223.029 329.922 222.957 329.954 222.893 329.994C222.829 330.034 222.775 330.08 222.736 330.129C222.697 330.178 222.674 330.228 222.67 330.273C222.666 330.319 222.68 330.359 222.712 330.391C222.798 330.477 223.018 330.507 223.372 330.481L210.232 333.431C210.104 333.458 209.99 333.532 209.908 333.639C209.826 333.747 209.782 333.881 209.782 334.021L209.732 338.971C209.729 339.119 209.68 339.264 209.591 339.388C209.502 339.513 209.377 339.611 209.232 339.671C207.232 340.477 205.202 340.494 203.142 339.721L203.052 334.411C203.051 334.341 203.035 334.272 203.007 334.209C202.979 334.145 202.938 334.087 202.887 334.039C202.836 333.99 202.775 333.952 202.709 333.927C202.643 333.902 202.573 333.889 202.502 333.891L191.372 334.121C191.224 334.124 191.079 334.174 190.956 334.265C190.833 334.356 190.737 334.483 190.682 334.631L188.972 338.971C186.705 340.524 184.355 340.444 181.922 338.731L183.792 335.011C183.89 334.816 183.948 334.602 183.962 334.386C183.976 334.169 183.946 333.955 183.872 333.757C183.799 333.559 183.685 333.383 183.538 333.24C183.391 333.098 183.215 332.992 183.022 332.931C181.095 332.344 179.028 332.184 176.822 332.451C175.942 331.837 175.108 331.547 174.322 331.581C173.635 331.614 172.972 332.044 172.332 332.871C171.432 334.031 170.645 335.267 169.972 336.581C169.899 336.721 169.794 336.84 169.668 336.926C169.541 337.012 169.398 337.062 169.252 337.071C166.798 337.211 164.525 336.607 162.432 335.261C163.972 334.027 165.082 332.504 165.762 330.691C165.788 330.621 165.801 330.547 165.801 330.474C165.8 330.4 165.786 330.329 165.758 330.265C165.731 330.201 165.691 330.145 165.642 330.101C165.593 330.057 165.535 330.026 165.472 330.011L162.002 329.081C161.877 329.047 161.732 329.056 161.58 329.106C161.427 329.157 161.273 329.248 161.132 329.371L156.432 333.431C154.552 333.657 153.022 333.007 151.842 331.481L158.722 324.221C158.928 322.967 159.572 322.124 160.652 321.691C160.783 321.637 160.931 321.626 161.078 321.657C161.225 321.689 161.365 321.763 161.482 321.871C165.682 325.731 170.645 327.817 176.372 328.131C176.447 328.136 176.523 328.128 176.594 328.106C176.664 328.085 176.729 328.052 176.783 328.008C176.837 327.965 176.879 327.912 176.906 327.854C176.934 327.796 176.946 327.733 176.942 327.671L176.932 327.351C176.928 327.284 176.891 327.21 176.826 327.135C176.76 327.061 176.669 326.99 176.562 326.931L173.102 324.981Z" fill="#632A21"/>
<path d="M231.182 321.511L234.932 324.761C233.285 326.474 231.369 327.807 229.182 328.761C228.075 328.534 228.042 327.341 229.082 325.181C229.453 324.419 230.042 323.788 230.772 323.371C231.405 323.017 231.375 322.537 230.682 321.931L231.182 321.511Z" fill="#7F3228"/>
<path d="M258.521 323.421C260.468 325.227 260.455 326.537 258.481 327.351C256.381 328.217 254.105 329.164 251.651 330.191C251.496 330.258 251.325 330.283 251.157 330.264C250.988 330.244 250.828 330.181 250.691 330.081C249.825 329.461 249.378 329.667 249.351 330.701C248.685 329.541 247.895 328.771 246.981 328.391C246.275 328.091 246.301 327.884 247.061 327.771C251.248 327.164 255.068 325.714 258.521 323.421Z" fill="#E9D9D4"/>
<path d="M234.932 324.761L238.182 326.681C236.362 328.414 234.252 329.614 231.852 330.281C231.702 330.321 231.57 330.404 231.474 330.515C231.379 330.627 231.325 330.762 231.322 330.901C231.288 331.754 231.562 332.527 232.142 333.221C232.722 334.141 233.045 335.121 233.112 336.161C233.121 336.317 233.078 336.47 232.991 336.591C232.904 336.711 232.78 336.789 232.642 336.811L227.002 337.791C226.806 337.825 226.603 337.774 226.437 337.648C226.27 337.523 226.154 337.334 226.112 337.121C225.652 334.767 224.738 332.554 223.372 330.481C223.018 330.507 222.798 330.477 222.712 330.391C222.68 330.359 222.666 330.319 222.67 330.273C222.674 330.228 222.697 330.178 222.736 330.129C222.775 330.08 222.829 330.034 222.893 329.994C222.957 329.954 223.029 329.922 223.102 329.901L225.442 329.191C226.782 328.784 227.392 329.371 227.272 330.951C227.098 333.337 228.052 334.291 230.132 333.811C230.202 333.794 230.269 333.764 230.328 333.724C230.387 333.683 230.436 333.632 230.474 333.574C230.511 333.516 230.536 333.452 230.546 333.386C230.556 333.32 230.551 333.253 230.532 333.191L229.182 328.761C231.368 327.807 233.285 326.474 234.932 324.761Z" fill="#110706"/>
<path d="M238.182 326.681C239.562 327.007 240.482 327.854 240.942 329.221C241.488 330.847 242.402 332.194 243.682 333.261L236.182 335.721C235.155 336.054 234.302 335.407 233.622 333.781C233.308 333.041 232.815 332.854 232.142 333.221C231.562 332.527 231.288 331.754 231.322 330.901C231.325 330.762 231.378 330.627 231.474 330.515C231.569 330.404 231.702 330.321 231.852 330.281C234.252 329.614 236.362 328.414 238.182 326.681Z" fill="#F9D7CC"/>
<path d="M162.432 335.261C160.278 335.114 158.278 334.504 156.432 333.431L161.132 329.371C161.273 329.248 161.427 329.157 161.579 329.106C161.732 329.056 161.877 329.047 162.002 329.081L165.472 330.011C165.534 330.027 165.592 330.057 165.642 330.101C165.691 330.145 165.731 330.201 165.758 330.265C165.786 330.329 165.8 330.4 165.801 330.474C165.801 330.547 165.788 330.621 165.762 330.691C165.082 332.504 163.972 334.027 162.432 335.261Z" fill="#E9D9D4"/>
<path d="M176.822 332.451C179.028 332.184 181.095 332.344 183.022 332.931C183.215 332.992 183.391 333.098 183.538 333.24C183.685 333.383 183.799 333.559 183.872 333.757C183.945 333.955 183.976 334.169 183.962 334.386C183.948 334.602 183.89 334.816 183.792 335.011L181.922 338.731L172.432 337.301C172.27 337.276 172.116 337.217 171.98 337.127C171.845 337.037 171.733 336.92 171.652 336.784C171.571 336.648 171.525 336.497 171.516 336.344C171.507 336.191 171.537 336.039 171.602 335.901C172.608 333.727 174.348 332.577 176.822 332.451Z" fill="#E1CDC7"/>
<path d="M222.692 332.661C224.032 333.521 224.545 334.774 224.232 336.421C224.203 336.576 224.13 336.718 224.023 336.829C223.916 336.94 223.779 337.013 223.632 337.041L211.992 339.111C211.846 339.138 211.695 339.116 211.559 339.05C211.423 338.984 211.309 338.876 211.232 338.741C210.565 337.541 210.562 336.364 211.222 335.211C211.307 335.063 211.416 334.935 211.543 334.835C211.671 334.735 211.813 334.666 211.962 334.631L221.752 332.471C222.053 332.406 222.391 332.475 222.692 332.661Z" fill="#E1CDC7"/>
<path d="M203.142 339.721C198.348 340.447 193.625 340.197 188.972 338.971L190.682 334.631C190.737 334.483 190.833 334.356 190.956 334.265C191.079 334.174 191.224 334.124 191.372 334.121L202.502 333.891C202.573 333.889 202.643 333.902 202.709 333.927C202.775 333.953 202.835 333.99 202.887 334.039C202.938 334.087 202.978 334.145 203.007 334.209C203.035 334.272 203.05 334.341 203.052 334.411L203.142 339.721Z" fill="#E9D9D4"/>
</svg>
