<svg width="400" height="400" viewBox="0 0 400 400" fill="none" xmlns="http://www.w3.org/2000/svg">
<rect width="400" height="400" rx="32" fill="#FFC69E"/>
<path d="M95.8618 105.721C80.1685 123.534 69.7951 143.721 64.7418 166.281C58.9351 192.207 60.0818 218.104 68.1818 243.971C74.0351 262.671 84.1385 279.761 98.4918 295.241" stroke="#E3D8DF" stroke-width="2"/>
<path d="M98.4917 295.241C110.145 308.154 123.778 318.231 139.392 325.471" stroke="#FDC8A2" stroke-width="2"/>
<path d="M139.392 325.471C144.778 328.411 150.432 330.801 156.352 332.641" stroke="#918892" stroke-width="2"/>
<path d="M156.352 332.641C189.058 343.621 221.252 342.467 252.932 329.181" stroke="#FDC8A4" stroke-width="2"/>
<path d="M252.932 329.181C258.738 326.941 264.238 324.107 269.432 320.681" stroke="#918892" stroke-width="2"/>
<path d="M269.432 320.681C283.845 311.914 296.405 300.931 307.112 287.731" stroke="#FDC8A2" stroke-width="2"/>
<path d="M307.112 287.731C326.732 262.271 336.938 233.601 337.732 201.721C337.905 194.967 337.618 188.311 336.872 181.751C334.445 160.451 327.695 141.127 316.622 123.781C301.575 100.214 281.095 82.6274 255.182 71.0207C248.968 68.2407 242.705 65.9873 236.392 64.2607C227.812 61.914 219.408 60.484 211.182 59.9707C165.355 57.1107 126.915 72.3607 95.8618 105.721" stroke="#B9B8CB" stroke-width="2"/>
<path d="M307.112 287.731C301.372 283.277 294.125 278.377 285.372 273.031C278.685 268.951 272.328 265.961 266.302 264.061" stroke="#B8816F" stroke-width="2"/>
<path d="M266.302 264.061C261.235 261.881 256.072 260.417 250.812 259.671" stroke="#4C425F" stroke-width="2"/>
<path d="M250.812 259.671C247.458 259.097 244.538 258.157 242.052 256.851" stroke="#B8B7CB" stroke-width="2"/>
<path d="M242.052 256.851C239.945 256.064 238.132 255.137 236.612 254.071C234.718 252.737 233.658 251.204 233.432 249.471C233.105 246.991 232.618 240.514 231.972 230.041" stroke="#B897A2" stroke-width="2"/>
<path d="M231.972 230.041C231.972 229.261 232.208 228.417 232.682 227.511" stroke="#B47C8A" stroke-width="2"/>
<path d="M232.682 227.511C237.415 228.277 241.978 228.161 246.372 227.161C252.532 225.754 257.195 222.261 260.362 216.681C261.722 214.294 261.898 211.807 260.892 209.221" stroke="#463E5B" stroke-width="2"/>
<path d="M260.892 209.221C262.832 207.641 264.928 206.891 267.182 206.971C268.375 207.011 269.882 207.197 271.702 207.531C273.822 207.911 275.322 208.107 276.202 208.121C282.622 208.207 287.115 205.157 289.682 198.971C290.028 198.137 290.402 196.531 290.802 194.151C291.142 192.151 291.572 190.577 292.092 189.431C293.252 186.891 294.815 184.604 296.782 182.571C298.468 180.837 300.075 179.031 301.602 177.151C305.482 172.377 306.248 167.481 303.902 162.461C303.062 160.661 301.745 159.124 299.952 157.851C298.265 156.657 296.448 155.671 294.502 154.891C292.315 154.004 290.605 152.967 289.372 151.781C287.485 149.967 287.192 147.977 288.492 145.811C289.218 144.597 289.592 143.971 289.612 143.931C290.832 141.517 291.522 140.031 291.682 139.471C293.042 134.697 292.458 130.691 289.932 127.451C288.265 125.311 285.455 123.414 281.502 121.761C278.322 120.427 274.995 119.494 271.522 118.961C267.935 118.407 265.758 117.891 264.992 117.411C261.405 115.164 260.385 112.017 261.932 107.971C262.672 106.031 263.072 104.204 263.132 102.491" stroke="#4A405D" stroke-width="2"/>
<path d="M263.132 102.491C263.765 99.0774 262.595 96.0074 259.622 93.2807C255.088 89.1274 249.938 86.8341 244.172 86.4007C232.798 85.5474 224.132 89.8774 218.172 99.3907C217.838 99.9307 217.595 99.8907 217.442 99.2707C216.442 95.1774 214.755 91.4174 212.382 87.9907C209.788 84.2374 206.555 81.9807 202.682 81.2207C198.535 80.4074 194.295 80.5408 189.962 81.6208C186.155 82.5674 182.665 83.924 179.492 85.6907C176.072 87.5907 173.175 90.0707 170.802 93.1307C169.862 94.3507 169.572 95.7074 169.932 97.2007C170.785 100.794 169.515 103.157 166.122 104.291C164.362 104.877 162.548 105.171 160.682 105.171C156.588 105.164 152.505 105.337 148.432 105.691C144.205 106.057 140.435 107.297 137.122 109.411C130.275 113.764 128.235 119.684 131.002 127.171C131.148 127.577 131.548 128.371 132.202 129.551C132.642 130.344 132.992 131.171 133.252 132.031C133.652 133.351 133.528 134.604 132.882 135.791C131.582 138.151 129.622 139.531 127.002 139.931C126.775 139.964 124.742 139.807 120.902 139.461C117.282 139.134 114.065 139.927 111.252 141.841C108.965 143.387 106.975 145.807 105.282 149.101C103.622 152.334 102.672 155.541 102.432 158.721C101.418 172.234 106.595 181.921 117.962 187.781C119.515 188.581 122.078 189.494 125.652 190.521C128.685 191.394 131.258 192.314 133.372 193.281C134.592 193.841 135.578 194.734 136.332 195.961C136.825 196.747 137.158 197.981 137.332 199.661C137.925 205.341 139.885 210.514 143.212 215.181C145.692 218.667 148.682 220.931 152.182 221.971C158.742 223.924 166.075 224.661 174.182 224.181" stroke="#4C415E" stroke-width="2"/>
<path d="M174.182 224.181L178.222 228.221" stroke="#B898A4" stroke-width="2"/>
<path d="M178.222 228.221C178.355 231.507 178.342 236.424 178.182 242.971C178.088 246.891 176.505 249.737 173.432 251.511" stroke="#B897A2" stroke-width="2"/>
<path d="M173.432 251.511C167.292 251.284 163.292 251.354 161.432 251.721C153.918 253.207 148.335 253.957 144.682 253.971C140.002 253.984 136.335 253.651 133.682 252.971C120.915 249.697 110.435 243.844 102.242 235.411C86.6085 219.317 80.2451 199.514 83.1518 176.001C84.6051 164.194 87.6818 152.831 92.3818 141.911C94.3551 137.324 95.8718 133.427 96.9318 130.221C99.5518 122.287 99.1951 114.121 95.8618 105.721" stroke="#9D92AC" stroke-width="2"/>
<path d="M266.302 264.061L269.432 320.681" stroke="#905236" stroke-width="2"/>
<path d="M252.932 329.181C253.459 317.947 253.199 306.694 252.152 295.421" stroke="#905237" stroke-width="2"/>
<path d="M256.432 207.431C252.092 207.784 250.258 210.131 250.932 214.471C251.345 217.137 252.712 218.631 255.032 218.951C256.365 219.137 257.538 218.811 258.552 217.971C259.558 217.137 260.268 216.041 260.682 214.681C261.322 212.581 260.822 210.857 259.182 209.511" stroke="#89828B" stroke-width="2"/>
<path d="M232.682 227.511L231.692 226.991" stroke="#86494D" stroke-width="2"/>
<path d="M260.892 209.221C260.272 209.101 259.702 209.197 259.182 209.511" stroke="#1C0D1F" stroke-width="2"/>
<path d="M259.182 209.511L256.432 207.431" stroke="#8D848D" stroke-width="2"/>
<path d="M256.432 207.431C257.292 206.677 257.222 206.191 256.222 205.971" stroke="#1C0D1F" stroke-width="2"/>
<path d="M256.222 205.971L252.752 194.841C252.664 194.55 252.686 194.236 252.814 193.957C252.943 193.677 253.169 193.451 253.452 193.321C258.045 191.201 260.522 187.417 260.882 181.971C261.202 177.164 259.762 173.344 256.562 170.511C254.848 168.991 252.962 168.157 250.902 168.011C248.895 167.864 246.762 168.217 244.502 169.071C244.42 169.101 244.334 169.114 244.248 169.109C244.162 169.104 244.078 169.082 244.003 169.043C243.928 169.004 243.863 168.95 243.813 168.884C243.762 168.818 243.728 168.742 243.712 168.661L242.992 164.901" stroke="#8E6768" stroke-width="2"/>
<path d="M242.992 164.901C243.352 163.694 243.105 162.697 242.252 161.911C242.025 161.697 241.385 161.381 240.332 160.961C239.805 160.754 239.152 160.444 238.372 160.031C234.145 157.811 229.332 156.887 223.932 157.261" stroke="#8F6061" stroke-width="2"/>
<path d="M223.932 157.261C220.712 157.421 219.435 156.047 220.102 153.141C220.455 151.614 221.345 150.954 222.772 151.161L234.132 152.791C234.412 152.831 234.452 152.764 234.252 152.591C232.052 150.657 230.312 148.404 229.032 145.831C228.372 144.511 227.982 142.824 227.862 140.771C227.728 138.557 227.565 136.811 227.372 135.531C226.392 129.057 223.122 124.144 217.562 120.791C215.602 119.604 213.538 119.394 211.372 120.161C210.352 120.514 208.602 121.431 206.122 122.911C200.442 126.284 193.865 128.164 186.392 128.551" stroke="#8E6768" stroke-width="2"/>
<path d="M239.142 121.471C240.695 125.417 243.312 128.064 246.992 129.411C250.498 130.691 255.382 132.174 261.642 133.861C265.855 134.994 269.015 136.967 271.122 139.781C273.668 143.194 273.672 146.577 271.132 149.931C270.418 150.884 269.695 151.827 268.962 152.761C268.088 153.881 267.478 154.884 267.132 155.771C265.418 160.144 266.268 163.957 269.682 167.211C270.322 167.817 270.908 168.404 271.442 168.971C272.015 169.577 272.628 170.141 273.282 170.661C273.708 171.001 273.928 170.967 273.942 170.561C273.948 170.327 273.758 170.067 273.372 169.781C271.832 168.654 270.502 167.214 269.382 165.461C268.195 163.601 267.568 161.801 267.502 160.061C267.415 157.841 268.075 155.757 269.482 153.811C270.648 152.204 271.778 150.571 272.872 148.911C274.045 147.131 274.142 144.974 273.162 142.441C271.648 138.501 268.955 135.674 265.082 133.961C263.328 133.181 261.522 132.541 259.662 132.041C255.395 130.894 251.172 129.601 246.992 128.161C244.945 127.454 243.158 125.557 241.632 122.471" stroke="#392B40" stroke-width="2"/>
<path d="M263.132 102.491C262.112 103.804 261.498 105.234 261.292 106.781C261.252 107.114 261.138 107.414 260.952 107.681C259.845 109.274 259.469 111.037 259.822 112.971C259.855 113.148 259.851 113.322 259.81 113.474C259.77 113.626 259.694 113.75 259.592 113.831C259.025 114.284 258.742 113.644 258.742 111.911C258.742 111.331 258.612 111.301 258.352 111.821C257.339 113.821 257.142 116.154 257.762 118.821C257.859 119.235 257.805 119.67 257.612 120.051C256.338 122.577 254.805 124.591 253.012 126.091C252.878 126.203 252.729 126.287 252.577 126.335C252.424 126.384 252.272 126.396 252.132 126.371L249.682 125.921C249.633 125.911 249.582 125.911 249.533 125.922C249.485 125.933 249.439 125.955 249.399 125.985C249.359 126.015 249.326 126.054 249.303 126.098C249.279 126.142 249.265 126.191 249.262 126.241C249.242 126.614 249.082 126.731 248.782 126.591C248.469 126.444 248.269 126.354 248.182 126.321C247.269 125.987 246.609 125.104 246.202 123.671C246.138 123.442 246.027 123.229 245.874 123.046C245.722 122.864 245.532 122.715 245.317 122.611C245.103 122.507 244.868 122.45 244.63 122.443C244.391 122.436 244.153 122.479 243.932 122.571C243.545 122.731 242.779 122.697 241.632 122.471" stroke="#231023" stroke-width="2"/>
<path d="M241.632 122.471C238.152 117.084 233.388 113.187 227.342 110.781C227.228 110.741 227.122 110.727 227.022 110.741C226.562 110.807 226.585 110.964 227.092 111.211C232.018 113.591 236.035 117.011 239.142 121.471" stroke="#3B2C42" stroke-width="2"/>
<path d="M239.142 121.471C237.655 122.084 236.142 122.227 234.602 121.901C234.267 121.83 233.939 121.873 233.682 122.021C232.008 122.981 230.602 124.244 229.462 125.811C229.377 125.931 229.256 126.02 229.121 126.06C228.985 126.1 228.844 126.09 228.722 126.031C228.022 125.677 227.478 125.161 227.092 124.481C227.02 124.356 226.915 124.254 226.787 124.189C226.659 124.123 226.515 124.096 226.372 124.111C224.785 124.277 223.412 123.454 222.252 121.641C221.784 120.903 221.044 120.379 220.192 120.181C219.005 119.907 217.725 119.451 216.352 118.811C214.632 118.011 212.935 118.034 211.262 118.881C209.242 119.907 207.238 120.964 205.252 122.051C202.832 123.377 200.848 124.314 199.302 124.861C196.828 125.747 194.685 126.264 192.872 126.411C190.118 126.631 187.958 127.344 186.392 128.551" stroke="#231023" stroke-width="2"/>
<path d="M186.392 128.551C184.005 129.397 181.955 130.727 180.242 132.541C179.382 133.447 179.112 134.504 179.432 135.711C179.792 137.084 180.198 138.444 180.652 139.791C181.285 141.651 181.642 143.011 181.722 143.871C182.195 148.651 179.932 152.101 174.932 154.221C169.845 156.381 166.525 157.757 164.972 158.351C164.817 158.411 164.678 158.5 164.563 158.612C164.447 158.723 164.358 158.856 164.302 159.001C163.235 161.681 162.848 164.564 163.142 167.651C163.155 167.797 163.136 167.945 163.084 168.083C163.032 168.221 162.95 168.345 162.843 168.446C162.736 168.547 162.607 168.623 162.466 168.667C162.326 168.711 162.177 168.723 162.032 168.701C153.212 167.301 148.275 170.974 147.222 179.721C146.482 185.894 148.622 190.777 153.642 194.371C153.841 194.512 153.986 194.723 154.055 194.972C154.123 195.221 154.112 195.495 154.022 195.751L150.632 205.651C150.6 205.745 150.592 205.845 150.61 205.944C150.628 206.042 150.67 206.135 150.734 206.216C150.798 206.296 150.881 206.361 150.976 206.405C151.071 206.45 151.176 206.472 151.282 206.471C152.375 206.457 153.048 205.884 153.302 204.751C153.988 201.677 154.908 198.677 156.062 195.751C156.114 195.613 156.204 195.491 156.323 195.397C156.442 195.302 156.587 195.238 156.742 195.211L161.142 194.431C161.225 194.416 161.311 194.418 161.393 194.436C161.475 194.454 161.552 194.488 161.62 194.535C161.687 194.583 161.743 194.644 161.785 194.714C161.827 194.783 161.853 194.861 161.862 194.941C163.248 206.054 167.355 215.801 174.182 224.181" stroke="#91686A" stroke-width="2"/>
<path d="M250.812 259.671C252.098 271.657 252.545 283.574 252.152 295.421" stroke="#918891" stroke-width="2"/>
<path d="M252.152 295.421C248.612 300.001 245.268 303.414 242.122 305.661C234.748 310.914 226.508 314.161 217.402 315.401C211.068 316.267 204.418 316.291 197.452 315.471C190.178 314.611 183.275 312.674 176.742 309.661C168.602 305.901 162.038 299.954 157.052 291.821" stroke="#FDC7A3" stroke-width="2"/>
<path d="M157.052 291.821L158.242 259.131" stroke="#918891" stroke-width="2"/>
<path d="M173.432 251.511L170.392 253.721" stroke="#E2B7B6" stroke-width="2"/>
<path d="M170.392 253.721C166.025 254.934 161.975 256.737 158.242 259.131" stroke="#E2D8DF" stroke-width="2"/>
<path d="M158.242 259.131C152.768 260.417 147.715 262.571 143.082 265.591" stroke="#766273" stroke-width="2"/>
<path d="M143.082 265.591C142.395 265.391 141.782 265.454 141.242 265.781C127.575 274.187 113.325 284.007 98.4917 295.241" stroke="#E2A283" stroke-width="2"/>
<path d="M242.052 256.851C244.305 265.251 244.718 273.667 243.292 282.101C242.872 284.587 242.242 286.597 241.402 288.131C240.375 290.017 239.025 291.684 237.352 293.131C233.065 296.831 228.195 299.467 222.742 301.041C213.675 303.654 204.468 304.234 195.122 302.781C188.768 301.794 183.288 299.484 178.682 295.851C175.448 293.297 173.088 290.331 171.602 286.951C170.095 283.537 169.288 279.711 169.182 275.471C168.968 266.944 169.372 259.694 170.392 253.721" stroke="#FDDDD4" stroke-width="2"/>
<path d="M231.972 230.041C227.178 237.507 221.478 243.047 214.872 246.661C209.785 249.441 204.655 250.091 199.482 248.611C195.648 247.517 191.715 244.937 187.682 240.871C184.162 237.331 181.245 233.531 178.932 229.471C178.618 228.924 178.785 228.661 179.432 228.681" stroke="#F9A194" stroke-width="2"/>
<path d="M223.932 157.261C223.492 158.374 222.655 158.817 221.422 158.591C221.283 158.565 221.144 158.505 221.013 158.414C220.883 158.323 220.763 158.203 220.662 158.061C219.582 156.527 218.255 155.914 216.682 156.221C214.309 156.687 212.165 158.314 210.252 161.101" stroke="#FDB8A8" stroke-width="2"/>
<path d="M210.252 161.101C207.965 170.667 208.865 179.947 212.952 188.941" stroke="#EE9583" stroke-width="2"/>
<path d="M212.952 188.941C211.705 191.994 209.512 193.954 206.372 194.821C204.498 195.334 204.508 195.801 206.402 196.221C207.862 196.554 209.575 196.724 211.542 196.731C213.555 196.737 215.235 196.461 216.582 195.901C220.728 194.187 221.908 190.814 220.122 185.781C219.535 184.141 219.408 182.577 219.742 181.091C220.142 179.277 220.345 178.344 220.352 178.291C220.632 175.937 220.908 173.581 221.182 171.221C221.235 170.767 221.555 170.601 222.142 170.721" stroke="#FBA696" stroke-width="2"/>
<path d="M222.142 170.721C222.082 174.747 223.908 176.811 227.622 176.911C227.78 176.914 227.937 176.882 228.081 176.818C228.225 176.754 228.351 176.66 228.452 176.541C229.765 174.967 230.188 173.111 229.722 170.971" stroke="#A8786F" stroke-width="2"/>
<path d="M229.722 170.971L232.932 170.681" stroke="#F4A092" stroke-width="2"/>
<path d="M232.932 170.681L237.802 175.151C238.255 175.571 238.335 175.517 238.042 174.991L236.642 172.471" stroke="#A8786F" stroke-width="2"/>
<path d="M236.642 172.471C237.528 168.884 239.645 166.361 242.992 164.901" stroke="#FDB8A8" stroke-width="2"/>
<path d="M256.222 205.971C255.949 206.664 255.449 206.501 254.722 205.481C254.382 205.001 254.092 204.387 253.852 203.641L251.042 194.991C250.995 194.844 250.913 194.709 250.802 194.597C250.691 194.484 250.554 194.396 250.402 194.341C248.142 193.474 246.819 194.101 246.432 196.221C244.252 208.227 239.339 218.484 231.692 226.991" stroke="#8A6566" stroke-width="2"/>
<path d="M231.692 226.991C231.032 227.424 230.382 227.941 229.742 228.541C228.955 229.274 228.328 229.804 227.862 230.131C211.455 241.631 195.312 241.147 179.432 228.681" stroke="#F8A396" stroke-width="2"/>
<path d="M179.432 228.681C179.092 228.394 178.688 228.241 178.222 228.221" stroke="#FDBEAD" stroke-width="2"/>
<path d="M236.642 172.471C233.115 167.444 228.378 165.791 222.432 167.511" stroke="#A87168" stroke-width="2"/>
<path d="M222.432 167.511C218.985 168.831 216.848 171.177 216.022 174.551C215.802 175.444 215.428 176.851 214.902 178.771C214.502 180.217 214.402 181.707 214.602 183.241C214.626 183.411 214.614 183.577 214.569 183.723C214.523 183.869 214.445 183.989 214.342 184.071C213.948 184.377 213.478 184.441 212.932 184.261" stroke="#FB9F8F" stroke-width="2"/>
<path d="M212.932 184.261C210.885 176.767 209.992 169.047 210.252 161.101" stroke="#EE8E7C" stroke-width="2"/>
<path d="M157.052 291.821L156.352 332.641" stroke="#905237" stroke-width="2"/>
<path d="M139.392 325.471L143.082 265.591" stroke="#905236" stroke-width="2"/>
<path d="M232.932 170.681C231.325 168.727 230.255 168.824 229.722 170.971" stroke="#9F5852" stroke-width="2"/>
<path d="M222.142 170.721C222.775 169.641 222.872 168.571 222.432 167.511" stroke="#A65F56" stroke-width="2"/>
<path d="M212.932 184.261C213.052 185.441 213.322 186.587 213.742 187.701C214.162 188.794 213.898 189.207 212.952 188.941" stroke="#EC7C6A" stroke-width="2"/>
<path d="M315.102 195.291C315.102 194.968 315.038 194.648 314.914 194.349C314.791 194.051 314.61 193.78 314.381 193.551C314.153 193.323 313.881 193.142 313.583 193.018C313.285 192.894 312.965 192.831 312.642 192.831C311.989 192.831 311.364 193.09 310.902 193.551C310.441 194.013 310.182 194.638 310.182 195.291C310.182 195.943 310.441 196.569 310.902 197.03C311.364 197.492 311.989 197.751 312.642 197.751C312.965 197.751 313.285 197.687 313.583 197.563C313.881 197.44 314.153 197.259 314.381 197.03C314.61 196.802 314.791 196.531 314.914 196.232C315.038 195.934 315.102 195.614 315.102 195.291Z" stroke="#948DAA" stroke-width="2"/>
<path d="M307.672 206.571C307.672 206.198 307.598 205.828 307.456 205.484C307.313 205.139 307.104 204.826 306.84 204.562C306.576 204.299 306.263 204.09 305.919 203.947C305.574 203.804 305.205 203.731 304.832 203.731C304.078 203.731 303.356 204.03 302.824 204.562C302.291 205.095 301.992 205.817 301.992 206.571C301.992 207.324 302.291 208.046 302.824 208.579C303.356 209.111 304.078 209.411 304.832 209.411C305.205 209.411 305.574 209.337 305.919 209.195C306.263 209.052 306.576 208.843 306.84 208.579C307.104 208.315 307.313 208.002 307.456 207.658C307.598 207.313 307.672 206.944 307.672 206.571Z" stroke="#948DAA" stroke-width="2"/>
<path d="M131.402 217.091C131.402 216.409 131.131 215.755 130.649 215.273C130.167 214.791 129.513 214.521 128.832 214.521C128.15 214.521 127.496 214.791 127.014 215.273C126.532 215.755 126.262 216.409 126.262 217.091C126.262 217.428 126.328 217.762 126.457 218.074C126.587 218.386 126.776 218.669 127.014 218.908C127.253 219.147 127.536 219.336 127.848 219.465C128.16 219.594 128.494 219.661 128.832 219.661C129.169 219.661 129.503 219.594 129.815 219.465C130.127 219.336 130.41 219.147 130.649 218.908C130.888 218.669 131.077 218.386 131.206 218.074C131.335 217.762 131.402 217.428 131.402 217.091Z" stroke="#9088A8" stroke-width="2"/>
<path d="M298.841 219.211C298.841 218.439 298.535 217.699 297.989 217.153C297.443 216.607 296.703 216.301 295.931 216.301C295.16 216.301 294.42 216.607 293.874 217.153C293.328 217.699 293.021 218.439 293.021 219.211C293.021 219.982 293.328 220.723 293.874 221.268C294.42 221.814 295.16 222.121 295.931 222.121C296.703 222.121 297.443 221.814 297.989 221.268C298.535 220.723 298.841 219.982 298.841 219.211Z" stroke="#948BA6" stroke-width="2"/>
<path d="M118.688 226.176C118.624 225.888 118.492 225.617 118.301 225.38C118.109 225.143 117.861 224.944 117.571 224.794C117.281 224.644 116.955 224.547 116.611 224.508C116.266 224.468 115.911 224.487 115.565 224.564C115.219 224.641 114.888 224.774 114.593 224.955C114.298 225.136 114.043 225.362 113.843 225.621C113.644 225.879 113.503 226.164 113.43 226.46C113.357 226.756 113.352 227.057 113.416 227.345C113.48 227.634 113.611 227.904 113.803 228.141C113.994 228.378 114.242 228.578 114.532 228.727C114.822 228.877 115.149 228.974 115.493 229.014C115.837 229.053 116.193 229.034 116.539 228.957C116.885 228.881 117.215 228.748 117.51 228.567C117.806 228.385 118.06 228.159 118.26 227.901C118.46 227.643 118.6 227.357 118.673 227.061C118.747 226.766 118.752 226.465 118.688 226.176Z" stroke="#9088A8" stroke-width="2"/>
<path d="M140.964 228.534C140.911 227.751 140.524 227.022 139.89 226.509C139.255 225.996 138.424 225.74 137.58 225.798C136.736 225.855 135.948 226.221 135.389 226.816C134.83 227.411 134.546 228.185 134.599 228.968C134.653 229.751 135.039 230.479 135.674 230.992C136.308 231.505 137.139 231.761 137.983 231.704C138.827 231.646 139.615 231.28 140.175 230.685C140.734 230.091 141.018 229.317 140.964 228.534Z" stroke="#948BA6" stroke-width="2"/>
<path d="M288.306 228.319C288.062 228.045 287.758 227.83 287.412 227.685C287.066 227.539 286.685 227.468 286.289 227.473C285.894 227.479 285.492 227.561 285.107 227.716C284.722 227.872 284.361 228.096 284.046 228.378C283.408 228.946 282.992 229.71 282.889 230.502C282.786 231.295 283.005 232.05 283.497 232.603C283.741 232.876 284.045 233.092 284.391 233.237C284.737 233.382 285.118 233.454 285.514 233.448C285.909 233.443 286.311 233.36 286.696 233.205C287.081 233.05 287.442 232.825 287.757 232.544C288.395 231.976 288.811 231.211 288.914 230.419C289.017 229.627 288.798 228.871 288.306 228.319Z" stroke="#948DAA" stroke-width="2"/>
<path d="M278.06 239.998C278.026 239.582 277.903 239.177 277.699 238.807C277.494 238.436 277.212 238.108 276.869 237.84C276.525 237.572 276.127 237.369 275.697 237.244C275.266 237.119 274.813 237.074 274.361 237.111C273.449 237.186 272.602 237.592 272.006 238.24C271.41 238.887 271.114 239.723 271.183 240.563C271.217 240.98 271.34 241.384 271.545 241.755C271.749 242.125 272.031 242.454 272.375 242.722C272.718 242.99 273.116 243.192 273.547 243.317C273.977 243.442 274.431 243.487 274.882 243.45C275.794 243.375 276.641 242.969 277.237 242.322C277.833 241.674 278.129 240.839 278.06 239.998Z" stroke="#9088A8" stroke-width="2"/>
<path d="M265.048 246.374C264.985 245.728 264.627 245.137 264.054 244.731C263.481 244.326 262.74 244.139 261.993 244.212C261.623 244.249 261.263 244.348 260.933 244.504C260.603 244.66 260.311 244.87 260.071 245.122C259.832 245.374 259.651 245.663 259.538 245.973C259.426 246.282 259.384 246.607 259.415 246.927C259.479 247.574 259.836 248.165 260.409 248.57C260.982 248.976 261.724 249.162 262.471 249.089C262.841 249.053 263.201 248.954 263.531 248.798C263.86 248.642 264.153 248.432 264.393 248.18C264.632 247.927 264.813 247.638 264.926 247.329C265.038 247.019 265.08 246.695 265.048 246.374Z" stroke="#988EAA" stroke-width="2"/>
<path d="M194.812 99.3207C195.965 101.047 196.778 102.907 197.252 104.901C197.345 105.281 197.495 105.584 197.702 105.811C198.422 106.611 198.825 106.437 198.912 105.291C198.938 104.944 198.902 104.571 198.802 104.171C197.895 100.664 196.085 97.8674 193.372 95.7807C192.638 95.2207 191.835 95.0774 190.962 95.3507C190.628 95.4574 190.622 95.5974 190.942 95.7707C192.515 96.6307 193.805 97.814 194.812 99.3207Z" stroke="#1F0E21" stroke-width="2"/>
<path d="M238.131 105.261C241.505 107.434 244.762 109.767 247.902 112.261C248.095 112.414 248.258 112.484 248.392 112.471C248.685 112.431 248.701 112.244 248.441 111.911C246.008 108.751 243.055 106.207 239.581 104.281C239.261 104.107 238.928 104.017 238.581 104.011C236.928 103.971 236.778 104.387 238.131 105.261Z" stroke="#3B2C42" stroke-width="2"/>
<path d="M191.992 116.341C183.658 116.181 175.378 116.767 167.152 118.101C158.218 119.547 153.622 124.471 153.362 132.871C153.308 134.617 153.698 136.441 154.532 138.341C155.118 139.674 155.898 141.404 156.872 143.531C158.298 146.651 157.672 149.401 154.992 151.781C153.665 152.961 151.042 154.921 147.122 157.661C146.628 158.001 146.368 158.357 146.342 158.731C146.315 159.144 146.458 159.184 146.772 158.851C148.065 157.497 149.555 156.391 151.242 155.531C153.955 154.137 156.132 152.161 157.772 149.601C159.105 147.521 159.308 145.317 158.382 142.991C157.675 141.211 157.022 139.414 156.422 137.601C154.322 131.227 155.442 126.214 159.782 122.561C161.542 121.081 164.048 120.031 167.302 119.411C171.055 118.697 174.845 118.231 178.672 118.011C183.178 117.757 187.682 117.417 192.182 116.991C192.368 116.977 192.525 116.927 192.652 116.841C193.112 116.527 192.892 116.361 191.992 116.341Z" stroke="#36233B" stroke-width="2"/>
<path d="M109.059 163.398C109.264 163.431 109.484 163.356 109.707 163.179C109.929 163.001 110.15 162.724 110.356 162.363C110.563 162.002 110.751 161.564 110.91 161.075C111.068 160.585 111.195 160.054 111.282 159.511C111.458 158.413 111.462 157.335 111.294 156.512C111.125 155.689 110.798 155.19 110.385 155.123C110.18 155.091 109.96 155.165 109.737 155.343C109.515 155.52 109.294 155.798 109.087 156.158C108.881 156.519 108.693 156.957 108.534 157.447C108.375 157.936 108.249 158.467 108.162 159.011C107.986 160.108 107.982 161.187 108.15 162.009C108.318 162.832 108.645 163.332 109.059 163.398Z" stroke="#49384C" stroke-width="2"/>
<path d="M151.671 219.065C153.001 219.165 154.323 218.657 155.344 217.655C156.365 216.652 157.003 215.236 157.117 213.718C157.232 212.2 156.813 210.704 155.953 209.56C155.093 208.416 153.862 207.717 152.532 207.617C151.202 207.517 149.881 208.024 148.859 209.027C147.838 210.029 147.2 211.446 147.086 212.964C146.972 214.482 147.391 215.977 148.251 217.121C149.111 218.266 150.341 218.965 151.671 219.065Z" stroke="#90858F" stroke-width="2"/>
<path d="M183.662 149.051C184.162 149.344 184.695 149.394 185.262 149.201C196.848 145.181 208.742 143.997 220.942 145.651C221.104 145.672 221.265 145.657 221.411 145.606C221.556 145.556 221.68 145.471 221.772 145.361C222.212 144.834 222.082 144.541 221.382 144.481C220.948 144.441 220.655 144.404 220.502 144.371C207.908 141.564 195.642 142.827 183.702 148.161C183.108 148.427 183.095 148.724 183.662 149.051Z" stroke="#F2B8AB" stroke-width="2"/>
<path d="M189.402 153.401C182.482 153.181 175.978 154.944 169.892 158.691C168.025 159.837 167.452 161.827 168.172 164.661C168.192 164.737 168.231 164.808 168.285 164.866C168.339 164.925 168.406 164.969 168.481 164.994C168.555 165.02 168.634 165.027 168.711 165.014C168.788 165.001 168.861 164.969 168.922 164.921C174.535 160.534 181.042 158.301 188.442 158.221C188.488 158.221 188.815 158.247 189.422 158.301C190.975 158.434 191.458 157.207 190.872 154.621C190.797 154.283 190.611 153.98 190.345 153.759C190.079 153.539 189.747 153.412 189.402 153.401Z" stroke="#8F6C6A" stroke-width="2"/>
<path d="M178.682 172.011C177.649 174.524 177.862 176.351 179.322 177.491C180.609 178.497 182.085 178.751 183.752 178.251C185.725 177.651 186.512 175.927 186.112 173.081" stroke="#99746D" stroke-width="2"/>
<path d="M186.112 173.081C187.498 173.954 188.425 175.251 188.892 176.971" stroke="#DD907B" stroke-width="2"/>
<path d="M188.892 176.971C188.938 177.571 189.105 178.101 189.392 178.561C189.422 178.613 189.465 178.656 189.517 178.687C189.568 178.718 189.626 178.735 189.686 178.737C189.745 178.739 189.803 178.726 189.855 178.698C189.907 178.671 189.951 178.63 189.982 178.581C190.508 177.774 190.478 176.904 189.892 175.971" stroke="#C77E71" stroke-width="2"/>
<path d="M189.892 175.971L187.652 171.521C187.405 171.034 187.535 170.831 188.042 170.911C191.288 171.437 193.375 172.471 194.302 174.011C194.975 175.117 195.268 175.027 195.182 173.741C195.035 171.461 194.278 169.617 192.912 168.211C191.778 167.044 190.072 166.367 187.792 166.181C184.545 165.921 181.592 166.184 178.932 166.971C174.738 168.211 171.888 171.004 170.382 175.351C170.228 175.791 170.162 176.221 170.182 176.641C170.242 178.247 170.888 178.171 172.122 176.411C173.428 174.531 175.615 173.064 178.682 172.011" stroke="#DD907B" stroke-width="2"/>
<path d="M189.892 175.971C189.065 175.777 188.732 176.111 188.892 176.971" stroke="#A84F3C" stroke-width="2"/>
<path d="M186.112 173.081C185.498 170.261 183.662 169.181 180.602 169.841C179.475 170.081 178.835 170.804 178.682 172.011" stroke="#7A4539" stroke-width="2"/>
<path d="M155.372 187.031C159.158 188.811 161.668 188.117 162.902 184.951C163.522 183.357 163.648 181.724 163.282 180.051C162.788 177.777 161.788 176.307 160.282 175.641C158.822 174.994 157.308 175.177 155.742 176.191C154.075 177.264 153.092 178.934 152.792 181.201C152.398 184.101 153.258 186.044 155.372 187.031Z" stroke="#FBA696" stroke-width="2"/>
<path d="M250.272 176.121C247.819 174.481 246.232 175.021 245.512 177.741C245.052 179.454 244.832 181.197 244.852 182.971C244.905 186.711 246.609 187.811 249.962 186.271C252.195 185.251 253.225 183.481 253.052 180.961C252.905 178.881 251.979 177.267 250.272 176.121Z" stroke="#FCAB9A" stroke-width="2"/>
<path d="M227.072 195.661C232.199 199.094 236.859 199.344 241.052 196.411C242.832 195.157 243.922 193.644 244.322 191.871C244.855 189.471 243.955 187.524 241.622 186.031C239.609 184.751 237.269 183.947 234.602 183.621C231.782 183.281 229.475 183.781 227.682 185.121C225.222 186.961 224.422 189.627 225.282 193.121C225.549 194.201 226.145 195.047 227.072 195.661Z" stroke="#FCA496" stroke-width="2"/>
<path d="M169.192 199.911C172.318 202.084 175.355 202.667 178.302 201.661C181.035 200.727 183.085 198.861 184.452 196.061C185.912 193.067 185.258 190.534 182.492 188.461C180.558 187.014 178.365 186.371 175.912 186.531C172.898 186.724 170.172 187.887 167.732 190.021C165.652 191.841 165.205 194.031 166.392 196.591C167.025 197.944 167.958 199.051 169.192 199.911Z" stroke="#FBA393" stroke-width="2"/>
<path d="M198.812 214.151C205.045 217.271 211.148 216.857 217.122 212.911C220.235 210.851 222.622 208.387 224.282 205.521" stroke="#F4A092" stroke-width="2"/>
<path d="M224.282 205.521C226.475 202.201 225.925 200.931 222.632 201.711C221.385 202.004 220.749 202.154 220.722 202.161C210.162 204.234 199.765 204.941 189.532 204.281C188.312 204.201 188.025 204.677 188.672 205.711C191.112 209.611 194.492 212.424 198.812 214.151" stroke="#FDDED6" stroke-width="2"/>
<path d="M224.282 205.521C217.908 214.007 209.418 216.884 198.812 214.151" stroke="#F4BFB9" stroke-width="2"/>
<path d="M202.281 271.494C202.282 271.359 202.229 271.229 202.133 271.133C202.038 271.037 201.908 270.983 201.773 270.982L200.973 270.979C200.906 270.979 200.84 270.992 200.778 271.018C200.716 271.043 200.66 271.08 200.612 271.128C200.564 271.175 200.527 271.231 200.501 271.293C200.475 271.354 200.462 271.421 200.461 271.488L200.402 288.408C200.402 288.543 200.455 288.673 200.55 288.769C200.646 288.865 200.775 288.919 200.911 288.919L201.711 288.922C201.778 288.922 201.844 288.909 201.906 288.884C201.968 288.858 202.024 288.821 202.072 288.774C202.119 288.727 202.157 288.671 202.183 288.609C202.209 288.547 202.222 288.481 202.222 288.414L202.281 271.494Z" stroke="#FCA998" stroke-width="2"/>
<path d="M307.112 287.731C301.372 283.277 294.125 278.377 285.372 273.031C278.685 268.951 272.328 265.961 266.302 264.061C261.235 261.881 256.072 260.417 250.812 259.671C247.458 259.097 244.538 258.157 242.052 256.851C239.945 256.064 238.132 255.137 236.612 254.071C234.718 252.737 233.658 251.204 233.432 249.471C233.105 246.991 232.618 240.514 231.972 230.041C231.972 229.261 232.208 228.417 232.682 227.511C237.415 228.277 241.978 228.161 246.372 227.161C252.532 225.754 257.195 222.261 260.362 216.681C261.722 214.294 261.898 211.807 260.892 209.221C262.832 207.641 264.928 206.891 267.182 206.971C268.375 207.011 269.882 207.197 271.702 207.531C273.822 207.911 275.322 208.107 276.202 208.121C282.622 208.207 287.115 205.157 289.682 198.971C290.028 198.137 290.402 196.531 290.802 194.151C291.142 192.151 291.572 190.577 292.092 189.431C293.252 186.891 294.815 184.604 296.782 182.571C298.468 180.837 300.075 179.031 301.602 177.151C305.482 172.377 306.248 167.481 303.902 162.461C303.062 160.661 301.745 159.124 299.952 157.851C298.265 156.657 296.448 155.671 294.502 154.891C292.315 154.004 290.605 152.967 289.372 151.781C287.485 149.967 287.192 147.977 288.492 145.811C289.218 144.597 289.592 143.971 289.612 143.931C290.832 141.517 291.522 140.031 291.682 139.471C293.042 134.697 292.458 130.691 289.932 127.451C288.265 125.311 285.455 123.414 281.502 121.761C278.322 120.427 274.995 119.494 271.522 118.961C267.935 118.407 265.758 117.891 264.992 117.411C261.405 115.164 260.385 112.017 261.932 107.971C262.672 106.031 263.072 104.204 263.132 102.491C263.765 99.0774 262.595 96.0074 259.622 93.2807C255.088 89.1274 249.938 86.834 244.172 86.4007C232.798 85.5474 224.132 89.8774 218.172 99.3907C217.838 99.9307 217.595 99.8907 217.442 99.2707C216.442 95.1774 214.755 91.4174 212.382 87.9907C209.788 84.2374 206.555 81.9807 202.682 81.2207C198.535 80.4074 194.295 80.5407 189.962 81.6207C186.155 82.5674 182.665 83.924 179.492 85.6907C176.072 87.5907 173.175 90.0707 170.802 93.1307C169.862 94.3507 169.572 95.7074 169.932 97.2007C170.785 100.794 169.515 103.157 166.122 104.291C164.362 104.877 162.548 105.171 160.682 105.171C156.588 105.164 152.505 105.337 148.432 105.691C144.205 106.057 140.435 107.297 137.122 109.411C130.275 113.764 128.235 119.684 131.002 127.171C131.148 127.577 131.548 128.371 132.202 129.551C132.642 130.344 132.992 131.171 133.252 132.031C133.652 133.351 133.528 134.604 132.882 135.791C131.582 138.151 129.622 139.531 127.002 139.931C126.775 139.964 124.742 139.807 120.902 139.461C117.282 139.134 114.065 139.927 111.252 141.841C108.965 143.387 106.975 145.807 105.282 149.101C103.622 152.334 102.672 155.541 102.432 158.721C101.418 172.234 106.595 181.921 117.962 187.781C119.515 188.581 122.078 189.494 125.652 190.521C128.685 191.394 131.258 192.314 133.372 193.281C134.592 193.841 135.578 194.734 136.332 195.961C136.825 196.747 137.158 197.981 137.332 199.661C137.925 205.341 139.885 210.514 143.212 215.181C145.692 218.667 148.682 220.931 152.182 221.971C158.742 223.924 166.075 224.661 174.182 224.181L178.222 228.221C178.355 231.507 178.342 236.424 178.182 242.971C178.088 246.891 176.505 249.737 173.432 251.511C167.292 251.284 163.292 251.354 161.432 251.721C153.918 253.207 148.335 253.957 144.682 253.971C140.002 253.984 136.335 253.651 133.682 252.971C120.915 249.697 110.435 243.844 102.242 235.411C86.6085 219.317 80.2451 199.514 83.1518 176.001C84.6051 164.194 87.6818 152.831 92.3818 141.911C94.3551 137.324 95.8718 133.427 96.9318 130.221C99.5518 122.287 99.1951 114.121 95.8618 105.721C126.915 72.3607 165.355 57.1107 211.182 59.9707C219.408 60.484 227.812 61.914 236.392 64.2607C242.705 65.9873 248.968 68.2407 255.182 71.0207C281.095 82.6274 301.575 100.214 316.622 123.781C327.695 141.127 334.445 160.451 336.872 181.751C337.618 188.311 337.905 194.967 337.732 201.721C336.938 233.601 326.732 262.271 307.112 287.731ZM315.102 195.291C315.102 194.968 315.038 194.648 314.915 194.349C314.791 194.051 314.61 193.78 314.381 193.551C314.153 193.323 313.882 193.142 313.583 193.018C313.285 192.894 312.965 192.831 312.642 192.831C311.989 192.831 311.364 193.09 310.902 193.551C310.441 194.013 310.182 194.638 310.182 195.291C310.182 195.943 310.441 196.569 310.902 197.03C311.364 197.492 311.989 197.751 312.642 197.751C312.965 197.751 313.285 197.687 313.583 197.563C313.882 197.44 314.153 197.259 314.381 197.03C314.61 196.802 314.791 196.531 314.915 196.232C315.038 195.934 315.102 195.614 315.102 195.291ZM307.672 206.571C307.672 206.198 307.598 205.828 307.456 205.484C307.313 205.139 307.104 204.826 306.84 204.562C306.576 204.299 306.263 204.09 305.919 203.947C305.574 203.804 305.205 203.731 304.832 203.731C304.079 203.731 303.356 204.03 302.824 204.562C302.291 205.095 301.992 205.817 301.992 206.571C301.992 207.324 302.291 208.046 302.824 208.579C303.356 209.111 304.079 209.411 304.832 209.411C305.205 209.411 305.574 209.337 305.919 209.195C306.263 209.052 306.576 208.843 306.84 208.579C307.104 208.315 307.313 208.002 307.456 207.658C307.598 207.313 307.672 206.944 307.672 206.571ZM131.402 217.091C131.402 216.409 131.131 215.755 130.649 215.273C130.167 214.791 129.513 214.521 128.832 214.521C128.15 214.521 127.497 214.791 127.015 215.273C126.533 215.755 126.262 216.409 126.262 217.091C126.262 217.428 126.328 217.762 126.457 218.074C126.587 218.386 126.776 218.669 127.015 218.908C127.253 219.147 127.537 219.336 127.848 219.465C128.16 219.594 128.494 219.661 128.832 219.661C129.169 219.661 129.504 219.594 129.815 219.465C130.127 219.336 130.41 219.147 130.649 218.908C130.888 218.669 131.077 218.386 131.206 218.074C131.335 217.762 131.402 217.428 131.402 217.091ZM298.842 219.211C298.842 218.439 298.535 217.699 297.989 217.153C297.444 216.607 296.704 216.301 295.932 216.301C295.16 216.301 294.42 216.607 293.874 217.153C293.328 217.699 293.022 218.439 293.022 219.211C293.022 219.982 293.328 220.723 293.874 221.268C294.42 221.814 295.16 222.121 295.932 222.121C296.704 222.121 297.444 221.814 297.989 221.268C298.535 220.723 298.842 219.982 298.842 219.211ZM118.688 226.176C118.624 225.888 118.492 225.617 118.301 225.38C118.109 225.143 117.861 224.944 117.571 224.794C117.281 224.644 116.955 224.547 116.611 224.508C116.266 224.468 115.911 224.487 115.565 224.564C115.219 224.641 114.888 224.774 114.593 224.955C114.298 225.136 114.043 225.362 113.844 225.621C113.644 225.879 113.503 226.164 113.43 226.46C113.357 226.756 113.352 227.057 113.416 227.345C113.48 227.634 113.611 227.904 113.803 228.141C113.994 228.378 114.242 228.578 114.532 228.727C114.822 228.877 115.149 228.974 115.493 229.014C115.837 229.053 116.193 229.034 116.539 228.957C116.885 228.881 117.215 228.748 117.511 228.567C117.806 228.385 118.061 228.159 118.26 227.901C118.46 227.643 118.6 227.357 118.674 227.061C118.747 226.766 118.752 226.465 118.688 226.176ZM140.964 228.534C140.911 227.75 140.524 227.022 139.89 226.509C139.255 225.996 138.425 225.74 137.581 225.798C136.736 225.855 135.948 226.221 135.389 226.816C134.83 227.41 134.546 228.184 134.599 228.968C134.653 229.751 135.039 230.479 135.674 230.992C136.308 231.505 137.139 231.761 137.983 231.704C138.827 231.646 139.615 231.28 140.175 230.685C140.734 230.091 141.018 229.317 140.964 228.534ZM288.306 228.319C288.062 228.045 287.759 227.83 287.413 227.685C287.067 227.539 286.685 227.468 286.289 227.473C285.894 227.479 285.492 227.561 285.107 227.716C284.722 227.872 284.362 228.096 284.046 228.378C283.408 228.946 282.992 229.71 282.889 230.502C282.787 231.295 283.005 232.05 283.498 232.603C283.741 232.876 284.045 233.092 284.391 233.237C284.737 233.382 285.119 233.454 285.514 233.448C285.91 233.443 286.312 233.36 286.696 233.205C287.081 233.05 287.442 232.825 287.758 232.544C288.395 231.976 288.811 231.211 288.914 230.419C289.017 229.627 288.798 228.871 288.306 228.319ZM278.06 239.998C278.026 239.582 277.903 239.177 277.699 238.807C277.494 238.436 277.212 238.108 276.869 237.84C276.525 237.572 276.127 237.369 275.697 237.244C275.267 237.119 274.813 237.074 274.361 237.111C273.449 237.186 272.602 237.592 272.006 238.24C271.41 238.887 271.114 239.723 271.183 240.563C271.218 240.98 271.34 241.384 271.545 241.755C271.749 242.125 272.031 242.454 272.375 242.722C272.718 242.99 273.116 243.192 273.547 243.317C273.977 243.442 274.431 243.487 274.882 243.45C275.794 243.375 276.641 242.969 277.237 242.322C277.833 241.674 278.129 240.839 278.06 239.998ZM265.048 246.375C264.985 245.728 264.627 245.137 264.054 244.731C263.481 244.326 262.74 244.139 261.993 244.212C261.623 244.249 261.263 244.348 260.933 244.504C260.603 244.66 260.31 244.87 260.071 245.122C259.832 245.374 259.651 245.663 259.538 245.973C259.426 246.282 259.384 246.607 259.415 246.927C259.479 247.574 259.836 248.165 260.409 248.57C260.982 248.976 261.724 249.162 262.471 249.089C262.841 249.053 263.201 248.954 263.531 248.798C263.86 248.642 264.153 248.432 264.392 248.18C264.632 247.928 264.813 247.638 264.925 247.329C265.038 247.019 265.08 246.695 265.048 246.375Z" fill="#737198"/>
<path d="M263.132 102.491C262.112 103.804 261.498 105.234 261.292 106.781C261.252 107.114 261.138 107.414 260.952 107.681C259.845 109.274 259.468 111.037 259.822 112.971C259.855 113.148 259.851 113.322 259.81 113.474C259.769 113.626 259.694 113.75 259.592 113.831C259.025 114.284 258.742 113.644 258.742 111.911C258.742 111.331 258.612 111.301 258.352 111.821C257.338 113.821 257.142 116.154 257.762 118.821C257.858 119.235 257.805 119.67 257.612 120.051C256.338 122.577 254.805 124.591 253.012 126.091C252.877 126.203 252.729 126.287 252.576 126.335C252.424 126.384 252.272 126.396 252.132 126.371L249.682 125.921C249.633 125.911 249.582 125.911 249.533 125.922C249.484 125.933 249.438 125.955 249.399 125.985C249.359 126.015 249.326 126.054 249.302 126.098C249.279 126.142 249.265 126.191 249.262 126.241C249.242 126.614 249.082 126.731 248.782 126.591C248.468 126.444 248.268 126.354 248.182 126.321C247.268 125.987 246.608 125.104 246.202 123.671C246.138 123.442 246.026 123.229 245.874 123.046C245.721 122.864 245.532 122.715 245.317 122.611C245.103 122.507 244.868 122.45 244.629 122.443C244.39 122.436 244.153 122.48 243.932 122.571C243.545 122.731 242.778 122.697 241.632 122.471C238.152 117.084 233.388 113.187 227.342 110.781C227.228 110.741 227.122 110.727 227.022 110.741C226.562 110.807 226.585 110.964 227.092 111.211C232.018 113.591 236.035 117.011 239.142 121.471C237.655 122.084 236.142 122.227 234.602 121.901C234.267 121.83 233.939 121.873 233.682 122.021C232.008 122.981 230.602 124.244 229.462 125.811C229.377 125.931 229.256 126.02 229.12 126.06C228.985 126.1 228.843 126.09 228.722 126.031C228.022 125.677 227.478 125.161 227.092 124.481C227.02 124.356 226.914 124.254 226.787 124.189C226.659 124.123 226.515 124.096 226.372 124.111C224.785 124.277 223.412 123.454 222.252 121.641C221.784 120.903 221.044 120.379 220.192 120.181C219.005 119.907 217.725 119.451 216.352 118.811C214.632 118.011 212.935 118.034 211.262 118.881C209.242 119.907 207.238 120.964 205.252 122.051C202.832 123.377 200.848 124.314 199.302 124.861C196.828 125.747 194.685 126.264 192.872 126.411C190.118 126.631 187.958 127.344 186.392 128.551C184.005 129.397 181.955 130.727 180.242 132.541C179.382 133.447 179.112 134.504 179.432 135.711C179.792 137.084 180.198 138.444 180.652 139.791C181.285 141.651 181.642 143.011 181.722 143.871C182.195 148.651 179.932 152.101 174.932 154.221C169.845 156.381 166.525 157.757 164.972 158.351C164.817 158.411 164.678 158.5 164.563 158.612C164.447 158.723 164.358 158.856 164.302 159.001C163.235 161.681 162.848 164.564 163.142 167.651C163.155 167.797 163.136 167.945 163.084 168.083C163.032 168.221 162.949 168.345 162.842 168.446C162.735 168.547 162.607 168.623 162.466 168.667C162.326 168.711 162.177 168.723 162.032 168.701C153.212 167.301 148.275 170.974 147.222 179.721C146.482 185.894 148.622 190.777 153.642 194.371C153.841 194.512 153.986 194.723 154.055 194.972C154.123 195.221 154.112 195.495 154.022 195.751L150.632 205.651C150.599 205.745 150.592 205.845 150.61 205.944C150.628 206.042 150.67 206.135 150.734 206.216C150.798 206.296 150.881 206.361 150.976 206.405C151.071 206.45 151.176 206.472 151.282 206.471C152.375 206.457 153.048 205.884 153.302 204.751C153.988 201.677 154.908 198.677 156.062 195.751C156.114 195.613 156.204 195.491 156.323 195.397C156.442 195.302 156.586 195.238 156.742 195.211L161.142 194.431C161.225 194.416 161.31 194.418 161.393 194.436C161.475 194.454 161.552 194.488 161.62 194.535C161.687 194.583 161.743 194.644 161.785 194.714C161.827 194.783 161.853 194.861 161.862 194.941C163.248 206.054 167.355 215.801 174.182 224.181C166.075 224.661 158.742 223.924 152.182 221.971C148.682 220.931 145.692 218.667 143.212 215.181C139.885 210.514 137.925 205.341 137.332 199.661C137.158 197.981 136.825 196.747 136.332 195.961C135.578 194.734 134.592 193.841 133.372 193.281C131.258 192.314 128.685 191.394 125.652 190.521C122.078 189.494 119.515 188.581 117.962 187.781C106.595 181.921 101.418 172.234 102.432 158.721C102.672 155.541 103.622 152.334 105.282 149.101C106.975 145.807 108.965 143.387 111.252 141.841C114.065 139.927 117.282 139.134 120.902 139.461C124.742 139.807 126.775 139.964 127.002 139.931C129.622 139.531 131.582 138.151 132.882 135.791C133.528 134.604 133.652 133.351 133.252 132.031C132.992 131.171 132.642 130.344 132.202 129.551C131.548 128.371 131.148 127.577 131.002 127.171C128.235 119.684 130.275 113.764 137.122 109.411C140.435 107.297 144.205 106.057 148.432 105.691C152.505 105.337 156.588 105.164 160.682 105.171C162.548 105.171 164.362 104.877 166.122 104.291C169.515 103.157 170.785 100.794 169.932 97.2007C169.572 95.7074 169.862 94.3507 170.802 93.1307C173.175 90.0707 176.072 87.5907 179.492 85.6907C182.665 83.924 186.155 82.5674 189.962 81.6208C194.295 80.5408 198.535 80.4074 202.682 81.2207C206.555 81.9807 209.788 84.2374 212.382 87.9907C214.755 91.4174 216.442 95.1774 217.442 99.2707C217.595 99.8907 217.838 99.9307 218.172 99.3907C224.132 89.8774 232.798 85.5474 244.172 86.4007C249.938 86.8341 255.088 89.1274 259.622 93.2807C262.595 96.0074 263.765 99.0774 263.132 102.491ZM194.812 99.3207C195.965 101.047 196.778 102.907 197.252 104.901C197.345 105.281 197.495 105.584 197.702 105.811C198.422 106.611 198.825 106.437 198.912 105.291C198.938 104.944 198.902 104.571 198.802 104.171C197.895 100.664 196.085 97.8674 193.372 95.7807C192.638 95.2207 191.835 95.0774 190.962 95.3507C190.628 95.4574 190.622 95.5974 190.942 95.7707C192.515 96.6307 193.805 97.814 194.812 99.3207ZM238.132 105.261C241.505 107.434 244.762 109.767 247.902 112.261C248.095 112.414 248.258 112.484 248.392 112.471C248.685 112.431 248.702 112.244 248.442 111.911C246.008 108.751 243.055 106.207 239.582 104.281C239.262 104.107 238.928 104.017 238.582 104.011C236.928 103.971 236.778 104.387 238.132 105.261ZM191.992 116.341C183.658 116.181 175.378 116.767 167.152 118.101C158.218 119.547 153.622 124.471 153.362 132.871C153.308 134.617 153.698 136.441 154.532 138.341C155.118 139.674 155.898 141.404 156.872 143.531C158.298 146.651 157.672 149.401 154.992 151.781C153.665 152.961 151.042 154.921 147.122 157.661C146.628 158.001 146.368 158.357 146.342 158.731C146.315 159.144 146.458 159.184 146.772 158.851C148.065 157.497 149.555 156.391 151.242 155.531C153.955 154.137 156.132 152.161 157.772 149.601C159.105 147.521 159.308 145.317 158.382 142.991C157.675 141.211 157.022 139.414 156.422 137.601C154.322 131.227 155.442 126.214 159.782 122.561C161.542 121.081 164.048 120.031 167.302 119.411C171.055 118.697 174.845 118.231 178.672 118.011C183.178 117.757 187.682 117.417 192.182 116.991C192.368 116.977 192.525 116.927 192.652 116.841C193.112 116.527 192.892 116.361 191.992 116.341ZM109.059 163.398C109.264 163.431 109.484 163.356 109.706 163.179C109.929 163.001 110.15 162.724 110.356 162.363C110.563 162.002 110.75 161.564 110.909 161.075C111.068 160.585 111.195 160.054 111.282 159.511C111.457 158.413 111.462 157.335 111.293 156.512C111.125 155.689 110.798 155.19 110.384 155.123C110.179 155.091 109.959 155.165 109.737 155.343C109.514 155.52 109.293 155.798 109.087 156.159C108.881 156.52 108.693 156.957 108.534 157.447C108.375 157.936 108.248 158.468 108.161 159.011C107.986 160.108 107.981 161.187 108.15 162.009C108.318 162.832 108.645 163.332 109.059 163.398ZM151.671 219.065C153.001 219.165 154.323 218.657 155.344 217.655C156.365 216.652 157.003 215.236 157.117 213.718C157.231 212.2 156.812 210.704 155.953 209.56C155.093 208.416 153.862 207.717 152.532 207.617C151.202 207.517 149.881 208.024 148.859 209.027C147.838 210.029 147.2 211.446 147.086 212.964C146.972 214.482 147.391 215.977 148.251 217.121C149.11 218.266 150.341 218.965 151.671 219.065Z" fill="#251124"/>
<path d="M194.812 99.3207C193.805 97.814 192.515 96.6307 190.942 95.7707C190.622 95.5974 190.628 95.4574 190.962 95.3507C191.835 95.0774 192.638 95.2207 193.372 95.7807C196.085 97.8674 197.895 100.664 198.802 104.171C198.902 104.571 198.938 104.944 198.912 105.291C198.825 106.437 198.422 106.611 197.702 105.811C197.495 105.584 197.345 105.281 197.252 104.901C196.778 102.907 195.965 101.047 194.812 99.3207Z" fill="#180B1D"/>
<path d="M263.132 102.491C263.072 104.204 262.672 106.031 261.932 107.971C260.385 112.017 261.405 115.164 264.992 117.411C265.758 117.891 267.935 118.407 271.522 118.961C274.995 119.494 278.322 120.427 281.502 121.761C285.455 123.414 288.265 125.311 289.932 127.451C292.458 130.691 293.042 134.697 291.682 139.471C291.522 140.031 290.832 141.517 289.612 143.931C289.592 143.971 289.218 144.597 288.492 145.811C287.192 147.977 287.485 149.967 289.372 151.781C290.605 152.967 292.315 154.004 294.502 154.891C296.448 155.671 298.265 156.657 299.952 157.851C301.745 159.124 303.062 160.661 303.902 162.461C306.248 167.481 305.482 172.377 301.602 177.151C300.075 179.031 298.468 180.837 296.782 182.571C294.815 184.604 293.252 186.891 292.092 189.431C291.572 190.577 291.142 192.151 290.802 194.151C290.402 196.531 290.028 198.137 289.682 198.971C287.115 205.157 282.622 208.207 276.202 208.121C275.322 208.107 273.822 207.911 271.702 207.531C269.882 207.197 268.375 207.011 267.182 206.971C264.928 206.891 262.832 207.641 260.892 209.221C260.272 209.101 259.702 209.197 259.182 209.511L256.432 207.431C257.292 206.677 257.222 206.191 256.222 205.971L252.752 194.841C252.663 194.55 252.686 194.236 252.814 193.957C252.943 193.677 253.169 193.451 253.452 193.321C258.045 191.201 260.522 187.417 260.882 181.971C261.202 177.164 259.762 173.344 256.562 170.511C254.848 168.991 252.962 168.157 250.902 168.011C248.895 167.864 246.762 168.217 244.502 169.071C244.42 169.101 244.334 169.114 244.248 169.109C244.161 169.104 244.078 169.082 244.003 169.043C243.928 169.004 243.863 168.95 243.813 168.884C243.762 168.818 243.728 168.742 243.712 168.661L242.992 164.901C243.352 163.694 243.105 162.697 242.252 161.911C242.025 161.697 241.385 161.381 240.332 160.961C239.805 160.754 239.152 160.444 238.372 160.031C234.145 157.811 229.332 156.887 223.932 157.261C220.712 157.421 219.435 156.047 220.102 153.141C220.455 151.614 221.345 150.954 222.772 151.161L234.132 152.791C234.412 152.831 234.452 152.764 234.252 152.591C232.052 150.657 230.312 148.404 229.032 145.831C228.372 144.511 227.982 142.824 227.862 140.771C227.728 138.557 227.565 136.811 227.372 135.531C226.392 129.057 223.122 124.144 217.562 120.791C215.602 119.604 213.538 119.394 211.372 120.161C210.352 120.514 208.602 121.431 206.122 122.911C200.442 126.284 193.865 128.164 186.392 128.551C187.958 127.344 190.118 126.631 192.872 126.411C194.685 126.264 196.828 125.747 199.302 124.861C200.848 124.314 202.832 123.377 205.252 122.051C207.238 120.964 209.242 119.907 211.262 118.881C212.935 118.034 214.632 118.011 216.352 118.811C217.725 119.451 219.005 119.907 220.192 120.181C221.044 120.379 221.784 120.903 222.252 121.641C223.412 123.454 224.785 124.277 226.372 124.111C226.515 124.096 226.659 124.123 226.787 124.189C226.915 124.254 227.02 124.356 227.092 124.481C227.478 125.161 228.022 125.677 228.722 126.031C228.844 126.09 228.985 126.1 229.121 126.06C229.256 126.02 229.377 125.931 229.462 125.811C230.602 124.244 232.008 122.981 233.682 122.021C233.939 121.873 234.267 121.83 234.602 121.901C236.142 122.227 237.655 122.084 239.142 121.471C240.695 125.417 243.312 128.064 246.992 129.411C250.498 130.691 255.382 132.174 261.642 133.861C265.855 134.994 269.015 136.967 271.122 139.781C273.668 143.194 273.672 146.577 271.132 149.931C270.418 150.884 269.695 151.827 268.962 152.761C268.088 153.881 267.478 154.884 267.132 155.771C265.418 160.144 266.268 163.957 269.682 167.211C270.322 167.817 270.908 168.404 271.442 168.971C272.015 169.577 272.628 170.141 273.282 170.661C273.708 171.001 273.928 170.967 273.942 170.561C273.948 170.327 273.758 170.067 273.372 169.781C271.832 168.654 270.502 167.214 269.382 165.461C268.195 163.601 267.568 161.801 267.502 160.061C267.415 157.841 268.075 155.757 269.482 153.811C270.648 152.204 271.778 150.571 272.872 148.911C274.045 147.131 274.142 144.974 273.162 142.441C271.648 138.501 268.955 135.674 265.082 133.961C263.328 133.181 261.522 132.541 259.662 132.041C255.395 130.894 251.172 129.601 246.992 128.161C244.945 127.454 243.158 125.557 241.632 122.471C242.778 122.697 243.545 122.731 243.932 122.571C244.153 122.479 244.39 122.436 244.629 122.443C244.868 122.45 245.103 122.507 245.317 122.611C245.532 122.715 245.722 122.864 245.874 123.046C246.026 123.229 246.138 123.442 246.202 123.671C246.608 125.104 247.268 125.987 248.182 126.321C248.268 126.354 248.468 126.444 248.782 126.591C249.082 126.731 249.242 126.614 249.262 126.241C249.265 126.191 249.279 126.142 249.302 126.098C249.326 126.054 249.359 126.015 249.399 125.985C249.439 125.955 249.484 125.933 249.533 125.922C249.582 125.911 249.633 125.911 249.682 125.921L252.132 126.371C252.272 126.396 252.424 126.384 252.576 126.335C252.729 126.287 252.877 126.203 253.012 126.091C254.805 124.591 256.338 122.577 257.612 120.051C257.805 119.67 257.858 119.235 257.762 118.821C257.142 116.154 257.338 113.821 258.352 111.821C258.612 111.301 258.742 111.331 258.742 111.911C258.742 113.644 259.025 114.284 259.592 113.831C259.694 113.75 259.769 113.626 259.81 113.474C259.851 113.322 259.855 113.148 259.822 112.971C259.468 111.037 259.845 109.274 260.952 107.681C261.138 107.414 261.252 107.114 261.292 106.781C261.498 105.234 262.112 103.804 263.132 102.491Z" fill="#200E21"/>
<path d="M238.131 105.261C236.778 104.387 236.928 103.971 238.581 104.011C238.928 104.017 239.261 104.107 239.581 104.281C243.055 106.207 246.008 108.751 248.441 111.911C248.701 112.244 248.685 112.431 248.392 112.471C248.258 112.484 248.095 112.414 247.902 112.261C244.762 109.767 241.505 107.434 238.131 105.261Z" fill="#51475F"/>
<path d="M95.8618 105.721C99.1951 114.121 99.5518 122.287 96.9318 130.221C95.8718 133.427 94.3551 137.324 92.3818 141.911C87.6818 152.831 84.6051 164.194 83.1518 176.001C80.2451 199.514 86.6085 219.317 102.242 235.411C110.435 243.844 120.915 249.697 133.682 252.971C136.335 253.651 140.002 253.984 144.682 253.971C148.335 253.957 153.918 253.207 161.432 251.721C163.292 251.354 167.292 251.284 173.432 251.511L170.392 253.721C166.025 254.934 161.975 256.737 158.242 259.131C152.768 260.417 147.715 262.571 143.082 265.591C142.395 265.391 141.782 265.454 141.242 265.781C127.575 274.187 113.325 284.007 98.4918 295.241C84.1385 279.761 74.0351 262.671 68.1818 243.971C60.0818 218.104 58.9351 192.207 64.7418 166.281C69.7951 143.721 80.1685 123.534 95.8618 105.721Z" fill="#C7B2C0"/>
<path d="M241.632 122.471C243.158 125.557 244.945 127.454 246.992 128.161C251.172 129.601 255.395 130.894 259.662 132.041C261.522 132.541 263.328 133.181 265.082 133.961C268.955 135.674 271.648 138.501 273.162 142.441C274.142 144.974 274.045 147.131 272.872 148.911C271.778 150.571 270.648 152.204 269.482 153.811C268.075 155.757 267.415 157.841 267.502 160.061C267.568 161.801 268.195 163.601 269.382 165.461C270.502 167.214 271.832 168.654 273.372 169.781C273.758 170.067 273.948 170.327 273.942 170.561C273.928 170.967 273.708 171.001 273.282 170.661C272.628 170.141 272.015 169.577 271.442 168.971C270.908 168.404 270.322 167.817 269.682 167.211C266.268 163.957 265.418 160.144 267.132 155.771C267.478 154.884 268.088 153.881 268.962 152.761C269.695 151.827 270.418 150.884 271.132 149.931C273.672 146.577 273.668 143.194 271.122 139.781C269.015 136.967 265.855 134.994 261.642 133.861C255.382 132.174 250.498 130.691 246.992 129.411C243.312 128.064 240.695 125.417 239.142 121.471C236.035 117.011 232.018 113.591 227.092 111.211C226.585 110.964 226.562 110.807 227.022 110.741C227.122 110.727 227.228 110.741 227.342 110.781C233.388 113.187 238.152 117.084 241.632 122.471Z" fill="#51475F"/>
<path d="M191.992 116.341C192.892 116.361 193.112 116.527 192.652 116.841C192.525 116.927 192.368 116.977 192.182 116.991C187.682 117.417 183.178 117.757 178.672 118.011C174.845 118.231 171.055 118.697 167.302 119.411C164.048 120.031 161.542 121.081 159.782 122.561C155.442 126.214 154.322 131.227 156.422 137.601C157.022 139.414 157.675 141.211 158.382 142.991C159.308 145.317 159.105 147.521 157.772 149.601C156.132 152.161 153.955 154.137 151.242 155.531C149.555 156.391 148.065 157.497 146.772 158.851C146.458 159.184 146.315 159.144 146.342 158.731C146.368 158.357 146.628 158.001 147.122 157.661C151.042 154.921 153.665 152.961 154.992 151.781C157.672 149.401 158.298 146.651 156.872 143.531C155.898 141.404 155.118 139.674 154.532 138.341C153.698 136.441 153.308 134.617 153.362 132.871C153.622 124.471 158.218 119.547 167.152 118.101C175.378 116.767 183.658 116.181 191.992 116.341Z" fill="#473552"/>
<path d="M223.932 157.261C223.492 158.374 222.655 158.817 221.422 158.591C221.282 158.565 221.143 158.505 221.013 158.414C220.882 158.323 220.763 158.203 220.662 158.061C219.582 156.527 218.255 155.914 216.682 156.221C214.308 156.687 212.165 158.314 210.252 161.101C207.965 170.667 208.865 179.947 212.952 188.941C211.705 191.994 209.512 193.954 206.372 194.821C204.498 195.334 204.508 195.801 206.402 196.221C207.862 196.554 209.575 196.724 211.542 196.731C213.555 196.737 215.235 196.461 216.582 195.901C220.728 194.187 221.908 190.814 220.122 185.781C219.535 184.141 219.408 182.577 219.742 181.091C220.142 179.277 220.345 178.344 220.352 178.291C220.632 175.937 220.908 173.581 221.182 171.221C221.235 170.767 221.555 170.601 222.142 170.721C222.082 174.747 223.908 176.811 227.622 176.911C227.781 176.914 227.938 176.882 228.081 176.818C228.225 176.754 228.351 176.66 228.452 176.541C229.765 174.967 230.188 173.111 229.722 170.971L232.932 170.681L237.802 175.151C238.255 175.571 238.335 175.517 238.042 174.991L236.642 172.471C237.528 168.884 239.645 166.361 242.992 164.901L243.712 168.661C243.728 168.742 243.762 168.818 243.813 168.884C243.863 168.95 243.928 169.004 244.003 169.043C244.078 169.082 244.162 169.104 244.248 169.109C244.334 169.114 244.42 169.101 244.502 169.071C246.762 168.217 248.895 167.864 250.902 168.011C252.962 168.157 254.848 168.991 256.562 170.511C259.762 173.344 261.202 177.164 260.882 181.971C260.522 187.417 258.045 191.201 253.452 193.321C253.169 193.451 252.943 193.677 252.814 193.957C252.686 194.236 252.664 194.55 252.752 194.841L256.222 205.971C255.948 206.664 255.448 206.501 254.722 205.481C254.382 205.001 254.092 204.387 253.852 203.641L251.042 194.991C250.995 194.844 250.913 194.709 250.802 194.597C250.691 194.484 250.554 194.396 250.402 194.341C248.142 193.474 246.818 194.101 246.432 196.221C244.252 208.227 239.338 218.484 231.692 226.991C231.032 227.424 230.382 227.941 229.742 228.541C228.955 229.274 228.328 229.804 227.862 230.131C211.455 241.631 195.312 241.147 179.432 228.681C179.092 228.394 178.688 228.241 178.222 228.221L174.182 224.181C167.355 215.801 163.248 206.054 161.862 194.941C161.853 194.861 161.827 194.783 161.785 194.714C161.743 194.644 161.687 194.583 161.62 194.535C161.552 194.488 161.475 194.454 161.393 194.436C161.311 194.418 161.225 194.416 161.142 194.431L156.742 195.211C156.587 195.238 156.442 195.302 156.323 195.397C156.204 195.491 156.114 195.613 156.062 195.751C154.908 198.677 153.988 201.677 153.302 204.751C153.048 205.884 152.375 206.457 151.282 206.471C151.176 206.472 151.071 206.45 150.976 206.405C150.881 206.361 150.798 206.296 150.734 206.216C150.67 206.135 150.628 206.042 150.61 205.944C150.592 205.845 150.6 205.745 150.632 205.651L154.022 195.751C154.112 195.495 154.123 195.221 154.055 194.972C153.986 194.723 153.841 194.512 153.642 194.371C148.622 190.777 146.482 185.894 147.222 179.721C148.275 170.974 153.212 167.301 162.032 168.701C162.177 168.723 162.326 168.711 162.466 168.667C162.607 168.623 162.736 168.547 162.843 168.446C162.95 168.345 163.032 168.221 163.084 168.083C163.136 167.945 163.156 167.797 163.142 167.651C162.848 164.564 163.235 161.681 164.302 159.001C164.358 158.856 164.447 158.723 164.563 158.612C164.678 158.5 164.817 158.411 164.972 158.351C166.525 157.757 169.845 156.381 174.932 154.221C179.932 152.101 182.195 148.651 181.722 143.871C181.642 143.011 181.285 141.651 180.652 139.791C180.198 138.444 179.792 137.084 179.432 135.711C179.112 134.504 179.382 133.447 180.242 132.541C181.955 130.727 184.005 129.397 186.392 128.551C193.865 128.164 200.442 126.284 206.122 122.911C208.602 121.431 210.352 120.514 211.372 120.161C213.538 119.394 215.602 119.604 217.562 120.791C223.122 124.144 226.392 129.057 227.372 135.531C227.565 136.811 227.728 138.557 227.862 140.771C227.982 142.824 228.372 144.511 229.032 145.831C230.312 148.404 232.052 150.657 234.252 152.591C234.452 152.764 234.412 152.831 234.132 152.791L222.772 151.161C221.345 150.954 220.455 151.614 220.102 153.141C219.435 156.047 220.712 157.421 223.932 157.261ZM183.662 149.051C184.162 149.344 184.695 149.394 185.262 149.201C196.848 145.181 208.742 143.997 220.942 145.651C221.104 145.672 221.265 145.657 221.411 145.606C221.556 145.556 221.68 145.471 221.772 145.361C222.212 144.834 222.082 144.541 221.382 144.481C220.948 144.441 220.655 144.404 220.502 144.371C207.908 141.564 195.642 142.827 183.702 148.161C183.108 148.427 183.095 148.724 183.662 149.051ZM189.402 153.401C182.482 153.181 175.978 154.944 169.892 158.691C168.025 159.837 167.452 161.827 168.172 164.661C168.192 164.737 168.231 164.808 168.285 164.866C168.339 164.925 168.406 164.969 168.481 164.994C168.555 165.02 168.634 165.027 168.711 165.014C168.788 165.001 168.861 164.969 168.922 164.921C174.535 160.534 181.042 158.301 188.442 158.221C188.488 158.221 188.815 158.247 189.422 158.301C190.975 158.434 191.458 157.207 190.872 154.621C190.797 154.283 190.611 153.98 190.345 153.759C190.079 153.539 189.747 153.412 189.402 153.401ZM178.682 172.011C177.648 174.524 177.862 176.351 179.322 177.491C180.608 178.497 182.085 178.751 183.752 178.251C185.725 177.651 186.512 175.927 186.112 173.081C187.498 173.954 188.425 175.251 188.892 176.971C188.938 177.571 189.105 178.101 189.392 178.561C189.422 178.613 189.465 178.656 189.517 178.687C189.568 178.718 189.627 178.735 189.686 178.737C189.745 178.739 189.804 178.726 189.855 178.698C189.907 178.671 189.951 178.63 189.982 178.581C190.508 177.774 190.478 176.904 189.892 175.971L187.652 171.521C187.405 171.034 187.535 170.831 188.042 170.911C191.288 171.437 193.375 172.471 194.302 174.011C194.975 175.117 195.268 175.027 195.182 173.741C195.035 171.461 194.278 169.617 192.912 168.211C191.778 167.044 190.072 166.367 187.792 166.181C184.545 165.921 181.592 166.184 178.932 166.971C174.738 168.211 171.888 171.004 170.382 175.351C170.228 175.791 170.162 176.221 170.182 176.641C170.242 178.247 170.888 178.171 172.122 176.411C173.428 174.531 175.615 173.064 178.682 172.011ZM155.372 187.031C159.158 188.811 161.668 188.117 162.902 184.951C163.522 183.357 163.648 181.724 163.282 180.051C162.788 177.777 161.788 176.307 160.282 175.641C158.822 174.994 157.308 175.177 155.742 176.191C154.075 177.264 153.092 178.934 152.792 181.201C152.398 184.101 153.258 186.044 155.372 187.031ZM250.272 176.121C247.818 174.481 246.232 175.021 245.512 177.741C245.052 179.454 244.832 181.197 244.852 182.971C244.905 186.711 246.608 187.811 249.962 186.271C252.195 185.251 253.225 183.481 253.052 180.961C252.905 178.881 251.978 177.267 250.272 176.121ZM227.072 195.661C232.198 199.094 236.858 199.344 241.052 196.411C242.832 195.157 243.922 193.644 244.322 191.871C244.855 189.471 243.955 187.524 241.622 186.031C239.608 184.751 237.268 183.947 234.602 183.621C231.782 183.281 229.475 183.781 227.682 185.121C225.222 186.961 224.422 189.627 225.282 193.121C225.548 194.201 226.145 195.047 227.072 195.661ZM169.192 199.911C172.318 202.084 175.355 202.667 178.302 201.661C181.035 200.727 183.085 198.861 184.452 196.061C185.912 193.067 185.258 190.534 182.492 188.461C180.558 187.014 178.365 186.371 175.912 186.531C172.898 186.724 170.172 187.887 167.732 190.021C165.652 191.841 165.205 194.031 166.392 196.591C167.025 197.944 167.958 199.051 169.192 199.911ZM198.812 214.151C205.045 217.271 211.148 216.857 217.122 212.911C220.235 210.851 222.622 208.387 224.282 205.521C226.475 202.201 225.925 200.931 222.632 201.711C221.385 202.004 220.748 202.154 220.722 202.161C210.162 204.234 199.765 204.941 189.532 204.281C188.312 204.201 188.025 204.677 188.672 205.711C191.112 209.611 194.492 212.424 198.812 214.151Z" fill="#FCBFAF"/>
<path d="M183.662 149.051C183.095 148.724 183.108 148.427 183.702 148.161C195.642 142.827 207.908 141.564 220.502 144.371C220.655 144.404 220.948 144.441 221.382 144.481C222.082 144.541 222.212 144.834 221.772 145.361C221.68 145.471 221.556 145.556 221.411 145.606C221.265 145.657 221.104 145.672 220.942 145.651C208.742 143.997 196.848 145.181 185.262 149.201C184.695 149.394 184.162 149.344 183.662 149.051Z" fill="#E7B1A7"/>
<path d="M189.402 153.401C189.747 153.412 190.079 153.539 190.345 153.759C190.611 153.98 190.797 154.283 190.872 154.621C191.458 157.207 190.975 158.434 189.422 158.301C188.815 158.247 188.488 158.221 188.442 158.221C181.042 158.301 174.535 160.534 168.922 164.921C168.861 164.969 168.788 165.001 168.711 165.014C168.634 165.027 168.555 165.02 168.481 164.994C168.406 164.969 168.339 164.925 168.285 164.866C168.231 164.808 168.192 164.737 168.172 164.661C167.452 161.827 168.025 159.837 169.892 158.691C175.978 154.944 182.482 153.181 189.402 153.401Z" fill="#221824"/>
<path d="M108.161 159.011C107.795 161.296 108.197 163.26 109.059 163.398C109.92 163.536 110.916 161.796 111.282 159.511C111.648 157.226 111.246 155.261 110.384 155.123C109.523 154.985 108.527 156.726 108.161 159.011Z" fill="#6D5E73"/>
<path d="M223.932 157.261C229.332 156.887 234.145 157.811 238.372 160.031C239.152 160.444 239.805 160.754 240.332 160.961C241.385 161.381 242.025 161.697 242.252 161.911C243.105 162.697 243.352 163.694 242.992 164.901C239.645 166.361 237.529 168.884 236.642 172.471C233.115 167.444 228.379 165.791 222.432 167.511C218.985 168.831 216.849 171.177 216.022 174.551C215.802 175.444 215.429 176.851 214.902 178.771C214.502 180.217 214.402 181.707 214.602 183.241C214.626 183.411 214.615 183.577 214.569 183.723C214.523 183.869 214.445 183.989 214.342 184.071C213.949 184.377 213.479 184.441 212.932 184.261C210.885 176.767 209.992 169.047 210.252 161.101C212.165 158.314 214.309 156.687 216.682 156.221C218.255 155.914 219.582 156.527 220.662 158.061C220.763 158.203 220.883 158.323 221.013 158.414C221.144 158.505 221.283 158.565 221.422 158.591C222.655 158.817 223.492 158.374 223.932 157.261Z" fill="#FDB1A1"/>
<path d="M210.252 161.101C209.992 169.047 210.885 176.767 212.932 184.261C213.052 185.441 213.322 186.587 213.742 187.701C214.162 188.794 213.898 189.207 212.952 188.941C208.865 179.947 207.965 170.667 210.252 161.101Z" fill="#DF6B57"/>
<path d="M189.892 175.971C189.065 175.777 188.732 176.111 188.892 176.971C188.425 175.251 187.498 173.954 186.112 173.081C185.498 170.261 183.662 169.181 180.602 169.841C179.475 170.081 178.835 170.804 178.682 172.011C175.615 173.064 173.428 174.531 172.122 176.411C170.888 178.171 170.242 178.247 170.182 176.641C170.162 176.221 170.228 175.791 170.382 175.351C171.888 171.004 174.738 168.211 178.932 166.971C181.592 166.184 184.545 165.921 187.792 166.181C190.072 166.367 191.778 167.044 192.912 168.211C194.278 169.617 195.035 171.461 195.182 173.741C195.268 175.027 194.975 175.117 194.302 174.011C193.375 172.471 191.288 171.437 188.042 170.911C187.535 170.831 187.405 171.034 187.652 171.521L189.892 175.971Z" fill="#BE6146"/>
<path d="M236.642 172.471L238.042 174.991C238.335 175.517 238.255 175.571 237.802 175.151L232.932 170.681C231.325 168.727 230.255 168.824 229.722 170.971C230.188 173.111 229.765 174.967 228.452 176.541C228.351 176.66 228.225 176.754 228.081 176.818C227.937 176.882 227.78 176.914 227.622 176.911C223.908 176.811 222.082 174.747 222.142 170.721C222.775 169.641 222.872 168.571 222.432 167.511C228.378 165.791 233.115 167.444 236.642 172.471Z" fill="#53302E"/>
<path d="M222.432 167.511C222.872 168.571 222.775 169.641 222.142 170.721C221.555 170.601 221.235 170.767 221.182 171.221C220.908 173.581 220.632 175.937 220.352 178.291C220.345 178.344 220.142 179.277 219.742 181.091C219.408 182.577 219.535 184.141 220.122 185.781C221.908 190.814 220.728 194.187 216.582 195.901C215.235 196.461 213.555 196.737 211.542 196.731C209.575 196.724 207.862 196.554 206.402 196.221C204.508 195.801 204.498 195.334 206.372 194.821C209.512 193.954 211.705 191.994 212.952 188.941C213.898 189.207 214.162 188.794 213.742 187.701C213.322 186.587 213.052 185.441 212.932 184.261C213.478 184.441 213.948 184.377 214.342 184.071C214.445 183.989 214.523 183.869 214.569 183.723C214.614 183.577 214.626 183.411 214.602 183.241C214.402 181.707 214.502 180.217 214.902 178.771C215.428 176.851 215.802 175.444 216.022 174.551C216.848 171.177 218.985 168.831 222.432 167.511Z" fill="#F98D7D"/>
<path d="M232.932 170.681L229.722 170.971C230.255 168.824 231.325 168.727 232.932 170.681Z" fill="#EB8075"/>
<path d="M186.112 173.081C186.512 175.927 185.725 177.651 183.752 178.251C182.085 178.751 180.609 178.497 179.322 177.491C177.862 176.351 177.649 174.524 178.682 172.011C178.835 170.804 179.475 170.081 180.602 169.841C183.662 169.181 185.499 170.261 186.112 173.081Z" fill="#36292B"/>
<path d="M155.372 187.031C153.258 186.044 152.398 184.101 152.792 181.201C153.092 178.934 154.075 177.264 155.742 176.191C157.308 175.177 158.822 174.994 160.282 175.641C161.788 176.307 162.788 177.777 163.282 180.051C163.648 181.724 163.522 183.357 162.902 184.951C161.668 188.117 159.158 188.811 155.372 187.031Z" fill="#F98D7D"/>
<path d="M250.272 176.121C251.979 177.267 252.905 178.881 253.052 180.961C253.225 183.481 252.195 185.251 249.962 186.271C246.609 187.811 244.905 186.711 244.852 182.971C244.832 181.197 245.052 179.454 245.512 177.741C246.232 175.021 247.819 174.481 250.272 176.121Z" fill="#FB9684"/>
<path d="M189.892 175.971C190.479 176.904 190.509 177.774 189.982 178.581C189.951 178.63 189.907 178.671 189.856 178.698C189.804 178.726 189.745 178.739 189.686 178.737C189.627 178.735 189.569 178.718 189.517 178.687C189.465 178.656 189.422 178.613 189.392 178.561C189.105 178.101 188.939 177.571 188.892 176.971C188.732 176.111 189.065 175.777 189.892 175.971Z" fill="#913C32"/>
<path d="M227.072 195.661C226.145 195.047 225.549 194.201 225.282 193.121C224.422 189.627 225.222 186.961 227.682 185.121C229.475 183.781 231.782 183.281 234.602 183.621C237.269 183.947 239.609 184.751 241.622 186.031C243.955 187.524 244.855 189.471 244.322 191.871C243.922 193.644 242.832 195.157 241.052 196.411C236.859 199.344 232.199 199.094 227.072 195.661Z" fill="#FB887C"/>
<path d="M169.192 199.911C167.958 199.051 167.025 197.944 166.392 196.591C165.205 194.031 165.652 191.841 167.732 190.021C170.172 187.887 172.898 186.724 175.912 186.531C178.365 186.371 180.558 187.014 182.492 188.461C185.258 190.534 185.912 193.067 184.452 196.061C183.085 198.861 181.035 200.727 178.302 201.661C175.355 202.667 172.318 202.084 169.192 199.911Z" fill="#FA8777"/>
<path d="M312.642 197.751C314 197.751 315.102 196.649 315.102 195.291C315.102 193.932 314 192.831 312.642 192.831C311.283 192.831 310.182 193.932 310.182 195.291C310.182 196.649 311.283 197.751 312.642 197.751Z" fill="#B5A9BC"/>
<path d="M256.222 205.971C257.222 206.191 257.292 206.677 256.432 207.431C252.092 207.784 250.259 210.131 250.932 214.471C251.345 217.137 252.712 218.631 255.032 218.951C256.365 219.137 257.539 218.811 258.552 217.971C259.559 217.137 260.269 216.041 260.682 214.681C261.322 212.581 260.822 210.857 259.182 209.511C259.702 209.197 260.272 209.101 260.892 209.221C261.899 211.807 261.722 214.294 260.362 216.681C257.195 222.261 252.532 225.754 246.372 227.161C241.979 228.161 237.415 228.277 232.682 227.511L231.692 226.991C239.339 218.484 244.252 208.227 246.432 196.221C246.819 194.101 248.142 193.474 250.402 194.341C250.554 194.396 250.691 194.484 250.802 194.597C250.913 194.709 250.995 194.844 251.042 194.991L253.852 203.641C254.092 204.387 254.382 205.001 254.722 205.481C255.449 206.501 255.949 206.664 256.222 205.971Z" fill="#180B1D"/>
<path d="M224.282 205.521C217.909 214.007 209.419 216.884 198.812 214.151C194.492 212.424 191.112 209.611 188.672 205.711C188.025 204.677 188.312 204.201 189.532 204.281C199.765 204.941 210.162 204.234 220.722 202.161C220.749 202.154 221.385 202.004 222.632 201.711C225.925 200.931 226.475 202.201 224.282 205.521Z" fill="#FDFDFD"/>
<path d="M304.832 209.411C306.4 209.411 307.672 208.139 307.672 206.571C307.672 205.002 306.4 203.731 304.832 203.731C303.263 203.731 301.992 205.002 301.992 206.571C301.992 208.139 303.263 209.411 304.832 209.411Z" fill="#B5A9BC"/>
<path d="M224.282 205.521C222.622 208.387 220.235 210.851 217.122 212.911C211.148 216.857 205.045 217.271 198.812 214.151C209.418 216.884 217.908 214.007 224.282 205.521Z" fill="#EB8075"/>
<path d="M147.086 212.964C146.848 216.125 148.901 218.856 151.671 219.065C154.441 219.273 156.88 216.879 157.117 213.718C157.355 210.557 155.302 207.825 152.532 207.617C149.762 207.409 147.323 209.802 147.086 212.964Z" fill="#FAF9F9"/>
<path d="M256.432 207.431L259.182 209.511C260.822 210.857 261.322 212.581 260.682 214.681C260.268 216.041 259.558 217.137 258.552 217.971C257.538 218.811 256.365 219.137 255.032 218.951C252.712 218.631 251.345 217.137 250.932 214.471C250.258 210.131 252.092 207.784 256.432 207.431Z" fill="#FAF9F9"/>
<path d="M128.832 219.661C130.251 219.661 131.402 218.51 131.402 217.091C131.402 215.671 130.251 214.521 128.832 214.521C127.412 214.521 126.262 215.671 126.262 217.091C126.262 218.51 127.412 219.661 128.832 219.661Z" fill="#AC9FB8"/>
<path d="M295.931 222.121C297.539 222.121 298.841 220.818 298.841 219.211C298.841 217.604 297.539 216.301 295.931 216.301C294.324 216.301 293.021 217.604 293.021 219.211C293.021 220.818 294.324 222.121 295.931 222.121Z" fill="#B4A4B3"/>
<path d="M116.539 228.957C117.995 228.635 118.957 227.39 118.688 226.176C118.419 224.963 117.021 224.241 115.565 224.564C114.109 224.887 113.147 226.132 113.416 227.345C113.685 228.558 115.083 229.28 116.539 228.957Z" fill="#AC9FB8"/>
<path d="M137.983 231.704C139.741 231.584 141.076 230.165 140.965 228.534C140.853 226.903 139.338 225.678 137.581 225.798C135.823 225.917 134.488 227.337 134.599 228.968C134.71 230.599 136.226 231.824 137.983 231.704Z" fill="#B4A4B3"/>
<path d="M231.692 226.991L232.682 227.511C232.208 228.417 231.972 229.261 231.972 230.041C227.178 237.507 221.478 243.047 214.872 246.661C209.785 249.441 204.655 250.091 199.482 248.611C195.648 247.517 191.715 244.937 187.682 240.871C184.162 237.331 181.245 233.531 178.932 229.471C178.618 228.924 178.785 228.661 179.432 228.681C195.312 241.147 211.455 241.631 227.862 230.131C228.328 229.804 228.955 229.274 229.742 228.541C230.382 227.941 231.032 227.424 231.692 226.991Z" fill="#F4867C"/>
<path d="M287.758 232.544C289.086 231.361 289.331 229.469 288.306 228.319C287.281 227.168 285.374 227.195 284.046 228.378C282.718 229.561 282.473 231.452 283.498 232.603C284.523 233.753 286.43 233.727 287.758 232.544Z" fill="#B5A9BC"/>
<path d="M178.222 228.221C178.688 228.241 179.092 228.394 179.432 228.681C178.785 228.661 178.618 228.924 178.932 229.471C181.245 233.531 184.162 237.331 187.682 240.871C191.715 244.937 195.648 247.517 199.482 248.611C204.655 250.091 209.785 249.441 214.872 246.661C221.478 243.047 227.178 237.507 231.972 230.041C232.618 240.514 233.105 246.991 233.432 249.471C233.658 251.204 234.718 252.737 236.612 254.071C238.132 255.137 239.945 256.064 242.052 256.851C244.305 265.251 244.718 273.667 243.292 282.101C242.872 284.587 242.242 286.597 241.402 288.131C240.375 290.017 239.025 291.684 237.352 293.131C233.065 296.831 228.195 299.467 222.742 301.041C213.675 303.654 204.468 304.234 195.122 302.781C188.768 301.794 183.288 299.484 178.682 295.851C175.448 293.297 173.088 290.331 171.602 286.951C170.095 283.537 169.288 279.711 169.182 275.471C168.968 266.944 169.372 259.694 170.392 253.721L173.432 251.511C176.505 249.737 178.088 246.891 178.182 242.971C178.342 236.424 178.355 231.507 178.222 228.221ZM202.281 271.494C202.282 271.359 202.228 271.229 202.133 271.133C202.038 271.037 201.908 270.983 201.773 270.982L200.973 270.979C200.906 270.979 200.84 270.992 200.778 271.018C200.716 271.043 200.659 271.08 200.612 271.128C200.564 271.175 200.527 271.231 200.501 271.293C200.475 271.354 200.462 271.421 200.461 271.488L200.402 288.408C200.402 288.543 200.455 288.673 200.55 288.769C200.646 288.865 200.775 288.919 200.911 288.919L201.711 288.922C201.777 288.922 201.844 288.909 201.906 288.884C201.968 288.858 202.024 288.821 202.072 288.774C202.119 288.727 202.157 288.671 202.183 288.609C202.209 288.547 202.222 288.481 202.222 288.414L202.281 271.494Z" fill="#FDBCAB"/>
<path d="M274.882 243.45C276.781 243.294 278.204 241.748 278.06 239.998C277.916 238.248 276.26 236.955 274.361 237.111C272.462 237.268 271.04 238.813 271.183 240.563C271.327 242.314 272.983 243.606 274.882 243.45Z" fill="#AC9FB8"/>
<path d="M262.471 249.089C264.026 248.936 265.18 247.721 265.048 246.375C264.916 245.028 263.548 244.06 261.993 244.212C260.437 244.365 259.283 245.58 259.415 246.927C259.547 248.273 260.915 249.241 262.471 249.089Z" fill="#BDABBB"/>
<path d="M170.392 253.721C169.372 259.694 168.968 266.944 169.182 275.471C169.288 279.711 170.095 283.537 171.602 286.951C173.088 290.331 175.448 293.297 178.682 295.851C183.288 299.484 188.768 301.794 195.122 302.781C204.468 304.234 213.675 303.654 222.742 301.041C228.195 299.467 233.065 296.831 237.352 293.131C239.025 291.684 240.375 290.017 241.402 288.131C242.242 286.597 242.872 284.587 243.292 282.101C244.718 273.667 244.305 265.251 242.052 256.851C244.538 258.157 247.458 259.097 250.812 259.671C252.098 271.657 252.545 283.574 252.152 295.421C248.612 300.001 245.268 303.414 242.122 305.661C234.748 310.914 226.508 314.161 217.402 315.401C211.068 316.267 204.418 316.291 197.452 315.471C190.178 314.611 183.275 312.674 176.742 309.661C168.602 305.901 162.038 299.954 157.052 291.821L158.242 259.131C161.975 256.737 166.025 254.934 170.392 253.721Z" fill="#FDFDFD"/>
<path d="M158.242 259.131L157.052 291.821L156.352 332.641C150.432 330.801 144.778 328.411 139.392 325.471L143.082 265.591C147.715 262.571 152.768 260.417 158.242 259.131Z" fill="#241225"/>
<path d="M266.302 264.061L269.432 320.681C264.238 324.107 258.738 326.941 252.932 329.181C253.458 317.947 253.198 306.694 252.152 295.421C252.545 283.574 252.098 271.657 250.812 259.671C256.072 260.417 261.235 261.881 266.302 264.061Z" fill="#241225"/>
<path d="M307.112 287.731C296.405 300.931 283.845 311.914 269.432 320.681L266.302 264.061C272.328 265.961 278.685 268.951 285.372 273.031C294.125 278.377 301.372 283.277 307.112 287.731Z" fill="#FC9146"/>
<path d="M143.082 265.591L139.392 325.471C123.778 318.231 110.145 308.154 98.4917 295.241C113.325 284.007 127.575 274.187 141.242 265.781C141.782 265.454 142.395 265.391 143.082 265.591Z" fill="#FC9146"/>
<path d="M201.773 270.982L200.973 270.979C200.691 270.978 200.462 271.206 200.461 271.488L200.402 288.407C200.401 288.689 200.629 288.918 200.91 288.919L201.71 288.922C201.992 288.923 202.221 288.696 202.222 288.414L202.281 271.494C202.282 271.212 202.055 270.983 201.773 270.982Z" fill="#FB9684"/>
<path d="M157.052 291.821C162.038 299.954 168.602 305.901 176.742 309.661C183.275 312.674 190.178 314.611 197.452 315.471C204.418 316.291 211.068 316.267 217.402 315.401C226.508 314.161 234.748 310.914 242.122 305.661C245.268 303.414 248.612 300.001 252.152 295.421C253.198 306.694 253.458 317.947 252.932 329.181C221.252 342.467 189.058 343.621 156.352 332.641L157.052 291.821Z" fill="#FC9149"/>
</svg>
