<svg width="400" height="400" viewBox="0 0 400 400" fill="none" xmlns="http://www.w3.org/2000/svg">
<rect width="400" height="400" rx="32" fill="#FB9550"/>
<path d="M101.652 299.311C126.885 324.984 157.232 338.794 192.692 340.741C199.485 341.107 206.145 341.004 212.672 340.431C239.252 338.084 263.255 328.514 284.682 311.721C292.075 305.927 298.562 299.811 304.142 293.371" stroke="#F2ACA9" stroke-width="2"/>
<path d="M304.142 293.371C323.148 270.757 334.208 244.711 337.322 215.231C338.728 201.944 338.348 189.274 336.182 177.221C329.588 140.494 312.052 110.614 283.572 87.5806C278.278 83.3006 272.805 79.5173 267.152 76.2306C240.338 60.6306 211.385 54.984 180.292 59.2906C173.565 60.2173 167.055 61.6206 160.762 63.5006C142.668 68.9006 126.455 77.6206 112.122 89.6606C94.1017 104.794 80.5851 123.537 71.5717 145.891C59.9917 174.617 57.9251 204.081 65.3717 234.281C71.4517 258.961 83.5451 280.637 101.652 299.311" stroke="#FEF3F0" stroke-width="2"/>
<path d="M304.142 293.371C299.975 291.691 296.435 289.934 293.522 288.101C292.628 287.541 291.658 287.211 290.612 287.111C288.545 286.911 287.072 286.351 286.192 285.431C285.745 284.957 285.508 284.711 285.482 284.691C283.442 282.977 281.092 282.294 278.432 282.641C278.277 282.662 278.121 282.647 277.975 282.597C277.828 282.546 277.697 282.462 277.592 282.351C276.285 280.984 274.815 280.024 273.182 279.471C267.202 277.451 261.908 275.507 257.302 273.641" stroke="#F1A19B" stroke-width="2"/>
<path d="M257.302 273.641L253.972 270.721" stroke="#DDA493" stroke-width="2"/>
<path d="M253.972 270.721C258.418 272.547 262.955 272.811 267.582 271.511C270.268 270.751 272.348 269.207 273.822 266.881C274.248 266.207 274.295 265.741 273.962 265.481C273.862 265.404 273.723 265.375 273.569 265.398C273.414 265.422 273.253 265.497 273.112 265.611C271.178 267.164 269.035 267.701 266.682 267.221C264.195 266.714 262.772 265.407 262.412 263.301C262.172 261.907 262.462 260.237 263.282 258.291C264.702 254.917 266.982 251.957 270.122 249.411C273.608 246.577 277.012 243.301 280.332 239.581C284.112 235.347 286.682 231.434 288.042 227.841C290.622 221.001 290.678 213.811 288.212 206.271" stroke="#8B7A7F" stroke-width="2"/>
<path d="M288.212 206.271C293.712 204.624 297.589 201.311 299.842 196.331C301.049 193.651 301.325 190.857 300.672 187.951C300.399 186.711 299.975 186.657 299.402 187.791C297.775 190.997 295.342 192.921 292.102 193.561C288.642 194.247 285.272 193.947 281.992 192.661C278.345 191.227 274.732 188.401 271.152 184.181" stroke="#8B7A7F" stroke-width="2"/>
<path d="M271.152 184.181C268.205 180.054 266.215 175.901 265.182 171.721C263.435 164.661 262.208 156.574 261.502 147.461C260.942 140.194 259.918 134.114 258.432 129.221C256.078 121.474 250.982 115.807 243.142 112.221" stroke="#AE8880" stroke-width="2"/>
<path d="M243.142 112.221C246.795 110.494 250.642 109.511 254.682 109.271C258.955 109.017 260.868 106.741 260.422 102.441C260.215 100.427 259.612 98.5373 258.612 96.7706C257.578 94.9373 256.155 94.554 254.342 95.6206C249.068 98.7273 244.432 102.691 240.432 107.511" stroke="#F1A19B" stroke-width="2"/>
<path d="M240.432 107.511C232.638 95.0107 221.972 86.914 208.432 83.2207C199.958 80.9073 191.158 80.4607 182.032 81.8807C176.052 82.8073 171.055 84.114 167.042 85.8006C162.002 87.9206 157.695 90.9573 154.122 94.9107C150.948 98.4173 149.732 102.771 150.472 107.971" stroke="#AE8880" stroke-width="2"/>
<path d="M150.472 107.971C147.458 111.871 145.215 115.641 143.742 119.281C140.208 128.021 138.702 137.427 139.222 147.501" stroke="#DDA493" stroke-width="2"/>
<path d="M139.222 147.501C135.489 149.701 135.099 152.397 138.052 155.591" stroke="#8B7D7E" stroke-width="2"/>
<path d="M138.052 155.591C137.572 162.851 137.795 170.144 138.722 177.471" stroke="#DDA493" stroke-width="2"/>
<path d="M138.722 177.471C136.675 180.031 135.578 182.934 135.432 186.181" stroke="#D6948B" stroke-width="2"/>
<path d="M135.432 186.181C135.085 189.341 135.648 192.541 137.122 195.781C140.568 203.381 144.132 212.361 147.812 222.721" stroke="#DDA493" stroke-width="2"/>
<path d="M147.812 222.721C147.345 226.421 146.072 230.441 143.992 234.781C141.965 239.021 141.085 243.477 141.352 248.151C141.605 252.711 143.045 256.837 145.672 260.531C149.005 265.211 153.555 268.661 159.322 270.881" stroke="#8B7A80" stroke-width="2"/>
<path d="M159.322 270.881C156.215 273.414 152.835 275.264 149.182 276.431" stroke="#DDA493" stroke-width="2"/>
<path d="M149.182 276.431C142.242 278.857 135.565 281.847 129.152 285.401C128.465 285.781 127.199 286.234 125.352 286.761C123.879 287.181 122.485 287.947 121.172 289.061C120.652 289.501 120.082 289.861 119.462 290.141C113.009 293.067 107.072 296.124 101.652 299.311" stroke="#F1A19B" stroke-width="2"/>
<path d="M201.142 144.721C197.508 144.041 193.978 143.864 190.552 144.191C189.292 144.304 188.615 144.991 188.522 146.251C188.388 148.031 188.732 149.437 189.552 150.471" stroke="#6A382F" stroke-width="2"/>
<path d="M189.552 150.471C188.185 151.731 186.375 152.377 184.122 152.411C181.548 152.444 179.652 153.617 178.432 155.931" stroke="#BC5F44" stroke-width="2"/>
<path d="M178.432 155.931C176.618 158.151 175.618 159.997 175.432 161.471C175.132 163.844 175.305 166.797 175.952 170.331C176.618 173.924 177.095 176.184 177.382 177.111C178.095 179.364 179.268 181.407 180.902 183.241C182.208 184.701 183.342 186.074 184.302 187.361C185.035 188.341 185.072 189.341 184.412 190.361C183.198 192.254 181.688 193.614 179.882 194.441C175.622 196.387 171.138 197.221 166.432 196.941C162.692 196.721 159.478 195.347 156.792 192.821C156.678 192.713 156.539 192.64 156.394 192.613C156.249 192.587 156.105 192.607 155.982 192.671C155.082 193.131 154.758 193.794 155.012 194.661C155.178 195.234 155.618 195.811 156.332 196.391C158.212 197.911 160.312 198.861 162.632 199.241C163.305 199.354 165.542 199.554 169.342 199.841C172.982 200.121 176.595 199.761 180.182 198.761" stroke="#A74E3B" stroke-width="2"/>
<path d="M180.182 198.761L180.222 199.471" stroke="#BC5F44" stroke-width="2"/>
<path d="M180.222 199.471C177.468 200.357 175.892 201.961 175.492 204.281C175.172 206.154 176.069 207.454 178.182 208.181" stroke="#6B3632" stroke-width="2"/>
<path d="M178.182 208.181C175.768 208.881 173.352 208.881 170.932 208.181" stroke="#BE6246" stroke-width="2"/>
<path d="M170.932 208.181C171.312 206.741 171.332 205.357 170.992 204.031C170.652 202.731 169.825 201.761 168.512 201.121C166.265 200.027 164.008 199.914 161.742 200.781C156.395 202.834 152.478 206.751 149.992 212.531C148.825 215.251 148.098 218.647 147.812 222.721" stroke="#6B3632" stroke-width="2"/>
<path d="M135.432 186.181C137.898 189.141 140.418 191.051 142.992 191.911C145.552 192.764 147.845 192.264 149.872 190.411C152.678 187.837 153.928 184.764 153.622 181.191C153.508 179.937 153.068 178.957 152.302 178.251C151.455 177.477 150.415 176.971 149.182 176.731C145.615 176.037 142.128 176.284 138.722 177.471" stroke="#B5503D" stroke-width="2"/>
<path d="M138.052 155.591L155.432 152.141C155.737 152.081 156.018 151.94 156.241 151.734C156.464 151.529 156.62 151.267 156.692 150.981C157.745 146.814 156.242 144.871 152.182 145.151C147.995 145.437 143.675 146.221 139.222 147.501" stroke="#6A382F" stroke-width="2"/>
<path d="M170.932 208.181C168.705 209.294 166.372 210.107 163.932 210.621C162.012 211.027 160.755 211.474 160.162 211.961C159.008 212.901 158.432 214.237 158.432 215.971C158.425 221.351 158.785 227.347 159.512 233.961C159.932 237.807 161.355 240.967 163.782 243.441C166.002 245.707 168.915 247.151 172.522 247.771C179.442 248.951 184.558 245.997 187.872 238.911C191.838 230.417 192.288 221.571 189.222 212.371" stroke="#6D3933" stroke-width="2"/>
<path d="M189.222 212.371C187.575 211.131 186.075 210.447 184.722 210.321" stroke="#888088" stroke-width="2"/>
<path d="M184.722 210.321C182.622 209.154 180.442 208.441 178.182 208.181" stroke="#6D3933" stroke-width="2"/>
<path d="M257.302 273.641C256.435 280.081 254.775 286.244 252.322 292.131C249.735 298.357 246.328 303.647 242.102 308.001C233.355 317.014 222.215 322.171 208.682 323.471C202.315 324.084 196.178 323.804 190.272 322.631C184.325 321.444 178.705 319.211 173.412 315.931C159.392 307.237 151.315 294.071 149.182 276.431" stroke="#D15C4C" stroke-width="2"/>
<path d="M159.322 270.881C162.595 272.194 166.048 272.971 169.682 273.211C184.215 274.164 197.865 271.221 210.632 264.381C221.125 258.754 227.622 250.514 230.122 239.661C231.795 232.381 232.512 224.281 232.272 215.361C232.118 209.494 231.885 205.064 231.572 202.071C231.098 197.564 230.165 193.207 228.772 189.001C228.492 188.154 228.235 188.161 228.002 189.021C225.908 196.554 223.935 204.114 222.082 211.701C221.668 213.414 220.702 216.504 219.182 220.971C217.408 226.184 214.572 230.494 210.672 233.901C209.392 235.014 208.258 235.687 207.272 235.921C205.818 236.274 204.435 235.977 203.122 235.031C199.162 232.191 197.535 228.244 198.242 223.191C199.715 212.657 195.788 205.144 186.462 200.651C184.495 199.704 182.415 199.311 180.222 199.471" stroke="#6B3632" stroke-width="2"/>
<path d="M180.182 198.761C183.082 198.461 185.185 196.801 186.492 193.781C188.612 188.887 188.055 184.651 184.822 181.071C182.502 178.504 180.892 175.201 179.992 171.161C178.738 165.494 178.218 160.417 178.432 155.931" stroke="#A74E3B" stroke-width="2"/>
<path d="M287.432 206.181L288.212 206.271" stroke="#180B1D" stroke-width="2"/>
<path d="M253.972 270.721C250.198 268.407 247.852 265.324 246.932 261.471C242.338 242.177 237.922 222.837 233.682 203.451C233.657 203.337 233.657 203.22 233.681 203.106C233.704 202.992 233.752 202.885 233.82 202.791C233.887 202.696 233.974 202.617 234.075 202.559C234.175 202.5 234.286 202.463 234.402 202.451C238.615 201.977 241.902 199.924 244.262 196.291C246.602 192.684 247.732 188.724 247.652 184.411C247.498 176.351 243.305 171.784 235.072 170.711C234.835 170.68 234.615 170.56 234.451 170.372C234.287 170.184 234.188 169.94 234.172 169.681L233.682 161.511" stroke="#6A3531" stroke-width="2"/>
<path d="M240.432 107.511C240.692 108.031 240.962 109.081 241.242 110.661C241.408 111.574 242.042 112.094 243.142 112.221" stroke="#A2413A" stroke-width="2"/>
<path d="M271.152 184.181L273.622 188.821C273.71 188.985 273.775 189.148 273.811 189.301C273.847 189.454 273.854 189.593 273.832 189.711C273.205 193.011 273.635 195.617 275.122 197.531C277.689 200.844 281.709 203.241 287.182 204.721C287.955 204.927 288.039 205.414 287.432 206.181" stroke="#3C1A1E" stroke-width="2"/>
<path d="M287.432 206.181C282.732 207.174 278.178 206.951 273.772 205.511C271.138 204.657 268.722 203.621 266.522 202.401C263.995 201.001 261.985 199.254 260.492 197.161C259.492 195.747 259.472 194.161 260.432 192.401C260.519 192.235 260.577 192.066 260.601 191.907C260.625 191.748 260.615 191.602 260.572 191.481L258.482 185.981C258.308 185.527 258.245 185.544 258.292 186.031C258.458 187.857 258.462 189.684 258.302 191.511C258.068 194.057 257.982 195.874 258.042 196.961C258.282 201.567 258.815 206.137 259.642 210.671C260.662 216.237 261.255 220.311 261.422 222.891C261.882 230.051 261.972 237.221 261.692 244.401C261.685 244.647 261.645 244.861 261.572 245.041C261.358 245.527 261.122 245.601 260.862 245.261C260.742 245.107 260.675 244.897 260.662 244.631C260.575 242.677 260.498 238.041 260.432 230.721C260.392 226.801 259.975 222.501 259.182 217.821C258.682 214.847 257.618 210.674 255.992 205.301C252.358 193.274 249.922 182.414 248.682 172.721C247.028 159.787 245.265 146.871 243.392 133.971" stroke="#3C1A1E" stroke-width="2"/>
<path d="M243.392 133.971C242.339 130.131 241.842 126.214 241.902 122.221C241.935 119.887 241.872 117.554 241.712 115.221C241.703 115.054 241.655 114.896 241.574 114.762C241.494 114.628 241.382 114.524 241.252 114.461C240.732 114.207 240.305 114.244 239.972 114.571C239.878 114.66 239.814 114.79 239.785 114.945C239.757 115.1 239.766 115.275 239.812 115.451C240.585 118.484 240.762 121.501 240.342 124.501C239.989 126.994 239.332 129.634 238.372 132.421C237.519 134.881 236.309 137.334 234.742 139.781C229.975 147.227 224.625 153.674 218.692 159.121" stroke="#55241E" stroke-width="2"/>
<path d="M218.692 159.121L205.842 151.361" stroke="#8E4432" stroke-width="2"/>
<path d="M205.842 151.361C205.315 148.541 203.748 146.327 201.142 144.721" stroke="#3C1D1D" stroke-width="2"/>
<path d="M201.142 144.721C201.222 144.041 201.078 143.704 200.712 143.711C200.345 143.717 199.982 143.642 199.647 143.492C199.312 143.342 199.013 143.119 198.772 142.841C193.265 136.401 188.348 130.084 184.022 123.891C180.675 119.097 176.688 114.917 172.062 111.351C168.968 108.971 165.532 107.321 161.752 106.401C157.752 105.427 153.992 105.951 150.472 107.971" stroke="#8E4432" stroke-width="2"/>
<path d="M205.842 151.361L189.552 150.471" stroke="#6A382F" stroke-width="2"/>
<path d="M184.722 210.321L168.812 212.441" stroke="#DBAC9C" stroke-width="2"/>
<path d="M168.812 212.441L164.792 212.911C164.683 212.923 164.581 212.964 164.493 213.029C164.405 213.095 164.334 213.183 164.287 213.286C164.24 213.39 164.217 213.505 164.222 213.622C164.226 213.74 164.257 213.856 164.312 213.961C164.952 215.167 165.945 216.121 167.292 216.821C170.725 218.614 174.215 218.851 177.762 217.531" stroke="#8E3A2E" stroke-width="2"/>
<path d="M177.762 217.531C181.642 216.951 185.462 215.231 189.222 212.371" stroke="#DBAC9C" stroke-width="2"/>
<path d="M177.762 217.531C174.402 216.544 171.418 214.847 168.812 212.441" stroke="#A98183" stroke-width="2"/>
<path d="M243.392 133.971C241.925 141.177 240.002 147.157 237.622 151.911C235.722 155.697 234.408 158.897 233.682 161.511" stroke="#32151D" stroke-width="2"/>
<path d="M233.682 161.511C228.489 162.711 223.492 161.914 218.692 159.121" stroke="#843F30" stroke-width="2"/>
<path d="M96.6217 196.781C98.655 198.074 100.745 198.127 102.892 196.941C106.265 195.081 108.972 192.517 111.012 189.251C115.398 182.237 118.312 174.647 119.752 166.481C121.218 158.201 121.625 149.864 120.972 141.471C120.838 139.811 120.452 138.371 119.812 137.151C119.218 136.017 118.315 135.661 117.102 136.081C114.828 136.867 112.908 137.967 111.342 139.381C96.6484 152.701 90.415 169.391 92.6417 189.451C93.0284 192.897 94.355 195.341 96.6217 196.781Z" stroke="#F4D2CB" stroke-width="2"/>
<path d="M92.1619 264.391C93.2086 264.757 94.0919 264.414 94.8119 263.361C95.9919 261.634 96.8519 259.751 97.3919 257.711C99.5052 249.777 102.372 242.134 105.992 234.781C107.279 232.174 111.905 224.967 119.872 213.161C121.259 211.101 121.789 209.054 121.462 207.021C121.41 206.691 121.251 206.394 121.012 206.181C119.845 205.141 118.589 205.007 117.242 205.781C114.162 207.554 111.385 209.924 108.912 212.891C107.245 214.897 105.199 217.874 102.772 221.821C96.9919 231.234 93.0586 241.437 90.9719 252.431C90.3452 255.744 90.2852 259.167 90.7919 262.701C90.8464 263.082 91.0027 263.44 91.2441 263.738C91.4855 264.036 91.8028 264.261 92.1619 264.391Z" stroke="#FCBF9A" stroke-width="2"/>
<path d="M297.372 270.781C301.565 274.174 305.752 273.987 309.932 270.221C313.665 266.861 316.622 262.557 318.802 257.311C323.462 246.084 324.862 234.527 323.002 222.641C322.562 219.801 321.812 217.831 320.752 216.731C318.918 214.824 316.382 214.811 313.142 216.691C310.688 218.111 308.722 219.557 307.242 221.031C301.648 226.624 297.498 233.171 294.792 240.671C293.252 244.951 292.298 248.647 291.932 251.761C291.478 255.627 291.772 259.504 292.812 263.391C293.652 266.544 295.172 269.007 297.372 270.781Z" stroke="#FCBF99" stroke-width="2"/>
<path d="M107.167 280.748C107.924 281.125 108.889 281.067 110.007 280.575C111.125 280.084 112.374 279.169 113.683 277.884C114.992 276.598 116.336 274.967 117.637 273.083C118.938 271.199 120.171 269.099 121.265 266.904C122.36 264.709 123.294 262.461 124.016 260.288C124.738 258.115 125.232 256.061 125.471 254.242C125.71 252.422 125.688 250.874 125.408 249.685C125.127 248.497 124.594 247.691 123.837 247.313C123.08 246.936 122.115 246.995 120.997 247.486C119.879 247.978 118.629 248.892 117.32 250.178C116.011 251.463 114.668 253.095 113.367 254.978C112.066 256.862 110.833 258.962 109.738 261.157C108.644 263.353 107.709 265.601 106.987 267.773C106.266 269.946 105.771 272.001 105.533 273.82C105.294 275.639 105.315 277.187 105.596 278.376C105.876 279.565 106.41 280.371 107.167 280.748Z" stroke="#F7D3C9" stroke-width="2"/>
<path d="M228.882 116.541C231.475 118.854 231.745 118.611 229.692 115.811C225.112 109.551 220.032 103.347 214.452 97.2006C212.685 95.2606 210.682 93.6106 208.442 92.2506C207.435 91.644 207.072 91.744 207.352 92.5506C207.425 92.764 207.558 92.9806 207.752 93.2006C211.198 97.1206 214.678 101.007 218.192 104.861C218.278 104.954 219.992 106.957 223.332 110.871C225.045 112.884 226.895 114.774 228.882 116.541Z" stroke="#7B3429" stroke-width="2"/>
<path d="M186.972 97.4706C190.705 100.377 193.632 103.947 195.752 108.181C198.432 113.534 202.265 117.857 207.252 121.151C209.132 122.391 211.192 124.081 213.432 126.221C215.318 128.027 218.398 130.671 222.672 134.151C222.925 134.351 223.168 134.461 223.402 134.481C223.828 134.507 224.082 134.341 224.162 133.981C224.222 133.721 224.148 133.407 223.942 133.041C222.608 130.734 220.879 128.774 218.752 127.161C215.745 124.881 212.668 122.701 209.522 120.621C207.088 119.001 204.842 117.167 202.782 115.121C201.629 113.967 200.358 112.147 198.972 109.661C196.185 104.681 192.368 100.067 187.522 95.8206C187.085 95.4421 186.55 95.1989 185.982 95.1206C184.255 94.8806 183.725 95.0073 184.392 95.5006C185.265 96.154 186.125 96.8106 186.972 97.4706Z" stroke="#58241C" stroke-width="2"/>
<path d="M209.722 132.571C213.242 135.491 217.038 137.987 221.112 140.061C221.332 140.174 221.562 140.241 221.802 140.261C223.308 140.407 223.345 140.071 221.912 139.251C217.832 136.911 213.948 134.274 210.262 131.341C209.991 131.135 209.671 131.032 209.362 131.051C208.228 131.124 208.102 131.454 208.982 132.041C209.322 132.267 209.568 132.444 209.722 132.571Z" stroke="#57241C" stroke-width="2"/>
<path d="M206.082 139.011C211.262 143.424 216.392 146.364 221.472 147.831C221.685 147.891 221.872 147.907 222.032 147.881C222.418 147.807 222.512 147.607 222.312 147.281C222.218 147.134 222.058 147.004 221.832 146.891C216.585 144.337 211.488 141.507 206.542 138.401C206.008 138.067 205.742 138.027 205.742 138.281C205.742 138.419 205.772 138.555 205.831 138.681C205.889 138.807 205.975 138.92 206.082 139.011Z" stroke="#55241E" stroke-width="2"/>
<path d="M254.718 165.09C254.714 165.053 254.703 165.018 254.685 164.986C254.667 164.954 254.643 164.925 254.614 164.903C254.585 164.88 254.552 164.863 254.516 164.853C254.481 164.843 254.444 164.84 254.408 164.844L254.11 164.879C254.036 164.888 253.969 164.925 253.923 164.984C253.877 165.042 253.856 165.116 253.864 165.19L255.885 182.392C255.889 182.428 255.901 182.463 255.919 182.496C255.937 182.528 255.961 182.556 255.989 182.579C256.018 182.601 256.051 182.618 256.087 182.628C256.122 182.638 256.159 182.641 256.196 182.637L256.494 182.602C256.567 182.593 256.635 182.556 256.681 182.497C256.727 182.439 256.748 182.365 256.739 182.291L254.718 165.09Z" stroke="#784133" stroke-width="2"/>
<path d="M175.112 132.591C179.192 132.731 183.222 133.274 187.202 134.221C188.488 134.534 188.638 134.247 187.652 133.361C185.585 131.521 183.158 130.334 180.372 129.801C178.678 129.474 176.045 129.341 172.472 129.401C166.818 129.501 161.325 130.454 155.992 132.261C153.112 133.234 150.555 134.467 148.322 135.961C145.775 137.667 143.625 139.567 141.872 141.661C141.492 142.114 141.508 142.364 141.922 142.411C142.04 142.426 142.173 142.407 142.309 142.355C142.446 142.303 142.583 142.22 142.712 142.111C146.625 138.791 150.885 136.431 155.492 135.031C161.658 133.164 168.198 132.351 175.112 132.591Z" stroke="#B3573F" stroke-width="2"/>
<path d="M141.502 169.041C140.035 169.627 139.885 170.394 141.052 171.341" stroke="#733A30" stroke-width="2"/>
<path d="M141.052 171.341L149.942 171.381" stroke="#D79380" stroke-width="2"/>
<path d="M149.942 171.381C154.155 173.207 156.582 171.904 157.222 167.471" stroke="#733A30" stroke-width="2"/>
<path d="M157.221 167.471C158.768 166.904 159.168 167.484 158.421 169.211C157.755 170.751 158.031 171.401 159.251 171.161C159.402 171.133 159.544 171.066 159.664 170.965C159.785 170.863 159.88 170.731 159.941 170.581C161.228 167.527 161.295 164.451 160.141 161.351C159.728 160.231 158.945 159.504 157.791 159.171C149.991 156.944 144.308 159.231 140.741 166.031C140.381 166.724 140.635 167.727 141.501 169.041" stroke="#A74E3B" stroke-width="2"/>
<path d="M157.222 167.471C157.489 166.077 157.275 164.941 156.582 164.061C156.035 163.361 155.109 162.914 153.802 162.721C148.495 161.941 144.395 164.047 141.502 169.041" stroke="#5E2927" stroke-width="2"/>
<path d="M149.942 171.381C149.035 169.047 148.532 166.737 148.432 164.451C148.405 163.777 148.168 163.677 147.722 164.151L141.052 171.341" stroke="#8E6E6C" stroke-width="2"/>
<path d="M105.721 163.771C104.461 168.977 102.991 174.251 101.311 179.591C101.024 180.513 100.996 181.496 101.231 182.431C101.591 183.837 102.108 184.091 102.781 183.191C102.988 182.911 103.148 182.524 103.261 182.031C104.395 177.164 105.808 171.954 107.501 166.401C107.775 165.507 107.845 164.597 107.711 163.671C107.431 161.764 106.921 161.407 106.181 162.601C105.988 162.901 105.835 163.291 105.721 163.771Z" stroke="#E9B7AE" stroke-width="2"/>
<path d="M197.722 162.721C195.668 164.067 194.225 165.901 193.392 168.221" stroke="#784033" stroke-width="2"/>
<path d="M193.392 168.221C192.638 168.874 192.475 169.861 192.902 171.181" stroke="#9F4236" stroke-width="2"/>
<path d="M192.902 171.181C195.482 172.154 197.992 171.987 200.432 170.681" stroke="#DDA493" stroke-width="2"/>
<path d="M200.432 170.681C202.718 170.961 204.802 170.461 206.682 169.181" stroke="#784033" stroke-width="2"/>
<path d="M206.682 169.181C208.982 169.081 210.745 168.094 211.972 166.221" stroke="#CE927F" stroke-width="2"/>
<path d="M211.972 166.221C213.232 166.814 214.419 167.527 215.532 168.361C215.652 168.447 215.765 168.491 215.872 168.491C216.072 168.484 216.179 168.387 216.192 168.201C216.205 168.081 216.155 167.937 216.042 167.771C213.709 164.411 211.275 161.957 208.742 160.411C203.515 157.204 197.965 156.867 192.092 159.401C191.519 159.647 191.012 159.991 190.572 160.431C188.179 162.844 188.645 163.521 191.972 162.461C192.219 162.381 192.795 162.111 193.702 161.651C194.395 161.297 195.139 161.084 195.932 161.011C197.325 160.877 197.922 161.447 197.722 162.721" stroke="#924937" stroke-width="2"/>
<path d="M211.972 166.221C210.612 164.827 209.028 163.827 207.222 163.221" stroke="#A47C72" stroke-width="2"/>
<path d="M207.222 163.221C206.802 162.267 205.358 161.787 202.892 161.781C202.512 161.781 202.128 161.751 201.742 161.691C200.322 161.477 198.982 161.821 197.722 162.721" stroke="#4D2A26" stroke-width="2"/>
<path d="M207.222 163.221L206.682 169.181" stroke="#8A726E" stroke-width="2"/>
<path d="M200.432 170.681L200.182 164.701C200.115 163.187 199.428 162.824 198.122 163.611C196.235 164.744 194.825 166.364 193.892 168.471" stroke="#988482" stroke-width="2"/>
<path d="M193.892 168.471C193.625 168.524 193.458 168.441 193.392 168.221" stroke="#5B2325" stroke-width="2"/>
<path d="M192.902 171.181L193.892 168.471" stroke="#C08785" stroke-width="2"/>
<path d="M201.872 189.031C204.525 191.091 207.358 191.801 210.372 191.161C212.952 190.607 215.212 189.274 217.152 187.161C219.092 185.041 220.078 182.824 220.112 180.511C220.152 178.117 219.078 176.347 216.892 175.201C215.445 174.441 213.582 174.074 211.302 174.101C208.875 174.134 206.585 174.507 204.432 175.221C201.918 176.054 200.172 177.607 199.192 179.881C198.472 181.567 198.342 183.197 198.802 184.771C199.275 186.397 200.298 187.817 201.872 189.031Z" stroke="#AE503D" stroke-width="2"/>
<path d="M233.412 193.161C234.132 193.287 234.932 193.147 235.812 192.741C236.499 192.427 237.139 191.957 237.732 191.331C240.019 188.917 240.965 185.957 240.572 182.451C240.192 179.084 238.645 177.007 235.932 176.221C233.545 175.527 231.695 176.021 230.382 177.701C229.429 178.934 228.929 180.541 228.882 182.521C228.822 185.401 229.652 188.457 231.372 191.691C231.574 192.076 231.863 192.409 232.217 192.664C232.571 192.919 232.98 193.089 233.412 193.161Z" stroke="#AE503D" stroke-width="2"/>
<path d="M190.072 289.911C189.352 297.884 189.472 305.404 190.432 312.471C190.565 313.451 190.868 313.741 191.342 313.341C191.455 313.243 191.547 313.115 191.613 312.965C191.678 312.816 191.715 312.647 191.722 312.471L192.372 290.021C192.378 289.857 192.348 289.698 192.286 289.555C192.223 289.412 192.129 289.291 192.012 289.201C191.512 288.821 191.012 288.787 190.512 289.101C190.391 289.172 190.288 289.283 190.212 289.424C190.135 289.566 190.087 289.733 190.072 289.911Z" stroke="#AE503D" stroke-width="2"/>
<path d="M167.642 225.861C173.375 227.581 178.565 226.661 183.212 223.101C184.212 222.341 184.998 221.737 185.572 221.291C186.358 220.677 187.092 220.007 187.772 219.281C187.88 219.167 187.948 219.023 187.962 218.876C187.977 218.729 187.938 218.588 187.852 218.481C187.452 217.974 186.978 217.971 186.432 218.471C183.125 221.477 179.375 222.954 175.182 222.901C172.135 222.867 169.068 222.457 165.982 221.671C165.791 221.623 165.592 221.625 165.402 221.677C165.212 221.728 165.039 221.827 164.899 221.964C164.759 222.102 164.656 222.273 164.6 222.461C164.545 222.65 164.538 222.849 164.582 223.041C164.755 223.761 165.142 224.384 165.742 224.911C166.182 225.297 166.815 225.614 167.642 225.861Z" stroke="#B0533E" stroke-width="2"/>
<path d="M271.142 284.671C267.528 289.724 264.152 294.931 261.012 300.291C260.692 300.837 260.748 301.147 261.182 301.221C261.313 301.242 261.462 301.225 261.617 301.169C261.773 301.114 261.932 301.022 262.082 300.901C264.515 298.901 266.382 296.257 267.682 292.971C268.962 289.744 270.915 286.521 273.542 283.301C273.592 283.239 273.633 283.169 273.659 283.095C273.685 283.021 273.697 282.946 273.693 282.875C273.689 282.805 273.67 282.74 273.636 282.688C273.603 282.635 273.557 282.595 273.502 282.571C273.288 282.477 273.072 282.557 272.852 282.811C272.598 283.117 272.408 283.324 272.282 283.431C271.848 283.791 271.468 284.204 271.142 284.671Z" stroke="#CF4644" stroke-width="2"/>
<path d="M278.122 288.911C273.342 296.304 269.695 302.314 267.182 306.941C267.042 307.201 266.988 307.447 267.022 307.681C267.135 308.327 267.502 308.321 268.122 307.661C269.968 305.721 271.482 303.567 272.662 301.201C273.949 298.607 275.025 296.597 275.892 295.171C277.078 293.204 278.095 291.147 278.942 289.001C279.115 288.554 279.015 288.377 278.642 288.471C278.448 288.524 278.275 288.671 278.122 288.911Z" stroke="#CF4644" stroke-width="2"/>
<path d="M285.207 294.553C285.295 294.596 285.404 294.596 285.528 294.551C285.652 294.506 285.788 294.417 285.929 294.29C286.07 294.163 286.213 294 286.349 293.81C286.485 293.62 286.612 293.408 286.723 293.184C286.834 292.961 286.927 292.731 286.996 292.507C287.064 292.284 287.108 292.072 287.124 291.883C287.14 291.694 287.128 291.532 287.089 291.406C287.05 291.28 286.985 291.193 286.896 291.149C286.808 291.105 286.699 291.106 286.575 291.151C286.451 291.196 286.315 291.284 286.174 291.411C286.033 291.539 285.89 291.702 285.754 291.891C285.618 292.081 285.491 292.294 285.38 292.517C285.269 292.741 285.176 292.971 285.108 293.194C285.039 293.417 284.995 293.629 284.979 293.818C284.963 294.007 284.975 294.169 285.014 294.295C285.053 294.421 285.119 294.509 285.207 294.553Z" stroke="#CF4644" stroke-width="2"/>
<path d="M148.122 307.531C149.228 308.257 149.602 308.051 149.242 306.911C148.788 305.464 146.645 302.431 142.812 297.811C141.992 296.831 141.475 296.784 141.262 297.671C141.188 297.997 141.238 298.354 141.412 298.741C143.332 302.927 145.568 305.857 148.122 307.531Z" stroke="#DA514D" stroke-width="2"/>
<path d="M144.332 317.251C145.079 317.324 145.209 316.597 144.722 315.071C144.435 314.171 143.982 313.367 143.362 312.661C138.615 307.254 133.832 302.567 129.012 298.601C128.742 298.382 128.429 298.265 128.132 298.271C126.812 298.304 126.642 298.974 127.622 300.281C130.655 304.361 135.805 309.774 143.072 316.521C143.559 316.974 143.979 317.217 144.332 317.251Z" stroke="#DA514D" stroke-width="2"/>
<path d="M155.061 326.239C155.289 326.248 155.518 326.202 155.733 326.102C155.949 326.003 156.147 325.852 156.317 325.658C156.487 325.465 156.625 325.232 156.723 324.974C156.821 324.716 156.878 324.437 156.89 324.154C156.902 323.87 156.869 323.588 156.792 323.322C156.716 323.057 156.598 322.813 156.445 322.606C156.292 322.399 156.107 322.232 155.9 322.115C155.694 321.997 155.47 321.932 155.242 321.923C155.014 321.913 154.785 321.959 154.57 322.059C154.354 322.159 154.156 322.309 153.986 322.503C153.816 322.697 153.678 322.929 153.58 323.187C153.482 323.446 153.425 323.724 153.413 324.008C153.401 324.291 153.434 324.574 153.511 324.839C153.587 325.105 153.705 325.348 153.858 325.555C154.011 325.762 154.196 325.929 154.403 326.047C154.609 326.164 154.833 326.229 155.061 326.239Z" stroke="#CA4F46" stroke-width="2"/>
<path d="M304.142 293.371C299.975 291.691 296.435 289.934 293.522 288.101C292.628 287.541 291.658 287.211 290.612 287.111C288.545 286.911 287.072 286.351 286.192 285.431C285.745 284.957 285.508 284.711 285.482 284.691C283.442 282.977 281.092 282.294 278.432 282.641C278.277 282.662 278.121 282.647 277.974 282.597C277.828 282.546 277.697 282.462 277.592 282.351C276.285 280.984 274.815 280.024 273.182 279.471C267.202 277.451 261.908 275.507 257.302 273.641L253.972 270.721C258.418 272.547 262.955 272.811 267.582 271.511C270.268 270.751 272.348 269.207 273.822 266.881C274.248 266.207 274.295 265.741 273.962 265.481C273.862 265.404 273.723 265.375 273.569 265.398C273.414 265.422 273.253 265.497 273.112 265.611C271.178 267.164 269.035 267.701 266.682 267.221C264.195 266.714 262.772 265.407 262.412 263.301C262.172 261.907 262.462 260.237 263.282 258.291C264.702 254.917 266.982 251.957 270.122 249.411C273.608 246.577 277.012 243.301 280.332 239.581C284.112 235.347 286.682 231.434 288.042 227.841C290.622 221.001 290.678 213.811 288.212 206.271C293.712 204.624 297.588 201.311 299.842 196.331C301.048 193.651 301.325 190.857 300.672 187.951C300.398 186.711 299.975 186.657 299.402 187.791C297.775 190.997 295.342 192.921 292.102 193.561C288.642 194.247 285.272 193.947 281.992 192.661C278.345 191.227 274.732 188.401 271.152 184.181C268.205 180.054 266.215 175.901 265.182 171.721C263.435 164.661 262.208 156.574 261.502 147.461C260.942 140.194 259.918 134.114 258.432 129.221C256.078 121.474 250.982 115.807 243.142 112.221C246.795 110.494 250.642 109.511 254.682 109.271C258.955 109.017 260.868 106.741 260.422 102.441C260.215 100.427 259.612 98.5373 258.612 96.7706C257.578 94.9373 256.155 94.554 254.342 95.6206C249.068 98.7273 244.432 102.691 240.432 107.511C232.638 95.0106 221.972 86.914 208.432 83.2206C199.958 80.9073 191.158 80.4606 182.032 81.8806C176.052 82.8073 171.055 84.114 167.042 85.8006C162.002 87.9206 157.695 90.9573 154.122 94.9106C150.948 98.4173 149.732 102.771 150.472 107.971C147.458 111.871 145.215 115.641 143.742 119.281C140.208 128.021 138.702 137.427 139.222 147.501C135.488 149.701 135.098 152.397 138.052 155.591C137.572 162.851 137.795 170.144 138.722 177.471C136.675 180.031 135.578 182.934 135.432 186.181C135.085 189.341 135.648 192.541 137.122 195.781C140.568 203.381 144.132 212.361 147.812 222.721C147.345 226.421 146.072 230.441 143.992 234.781C141.965 239.021 141.085 243.477 141.352 248.151C141.605 252.711 143.045 256.837 145.672 260.531C149.005 265.211 153.555 268.661 159.322 270.881C156.215 273.414 152.835 275.264 149.182 276.431C142.242 278.857 135.565 281.847 129.152 285.401C128.465 285.781 127.198 286.234 125.352 286.761C123.878 287.181 122.485 287.947 121.172 289.061C120.652 289.501 120.082 289.861 119.462 290.141C113.008 293.067 107.072 296.124 101.652 299.311C83.5451 280.637 71.4517 258.961 65.3717 234.281C57.9251 204.081 59.9917 174.617 71.5717 145.891C80.5851 123.537 94.1017 104.794 112.122 89.6606C126.455 77.6206 142.668 68.9006 160.762 63.5006C167.055 61.6206 173.565 60.2173 180.292 59.2906C211.385 54.984 240.338 60.6306 267.152 76.2306C272.805 79.5173 278.278 83.3006 283.572 87.5806C312.052 110.614 329.588 140.494 336.182 177.221C338.348 189.274 338.728 201.944 337.322 215.231C334.208 244.711 323.148 270.757 304.142 293.371ZM96.6217 196.781C98.6551 198.074 100.745 198.127 102.892 196.941C106.265 195.081 108.972 192.517 111.012 189.251C115.398 182.237 118.312 174.647 119.752 166.481C121.218 158.201 121.625 149.864 120.972 141.471C120.838 139.811 120.452 138.371 119.812 137.151C119.218 136.017 118.315 135.661 117.102 136.081C114.828 136.867 112.908 137.967 111.342 139.381C96.6484 152.701 90.4151 169.391 92.6417 189.451C93.0284 192.897 94.3551 195.341 96.6217 196.781ZM92.1617 264.391C93.2084 264.757 94.0917 264.414 94.8117 263.361C95.9917 261.634 96.8517 259.751 97.3917 257.711C99.5051 249.777 102.372 242.134 105.992 234.781C107.278 232.174 111.905 224.967 119.872 213.161C121.258 211.101 121.788 209.054 121.462 207.021C121.41 206.691 121.251 206.394 121.012 206.181C119.845 205.141 118.588 205.007 117.242 205.781C114.162 207.554 111.385 209.924 108.912 212.891C107.245 214.897 105.198 217.874 102.772 221.821C96.9917 231.234 93.0584 241.437 90.9717 252.431C90.3451 255.744 90.2851 259.167 90.7917 262.701C90.8462 263.082 91.0026 263.44 91.2439 263.738C91.4853 264.036 91.8026 264.261 92.1617 264.391ZM297.372 270.781C301.565 274.174 305.752 273.987 309.932 270.221C313.665 266.861 316.622 262.557 318.802 257.311C323.462 246.084 324.862 234.527 323.002 222.641C322.562 219.801 321.812 217.831 320.752 216.731C318.918 214.824 316.382 214.811 313.142 216.691C310.688 218.111 308.722 219.557 307.242 221.031C301.648 226.624 297.498 233.171 294.792 240.671C293.252 244.951 292.298 248.647 291.932 251.761C291.478 255.627 291.772 259.504 292.812 263.391C293.652 266.544 295.172 269.007 297.372 270.781ZM107.167 280.748C107.924 281.125 108.889 281.067 110.007 280.575C111.125 280.084 112.374 279.169 113.683 277.884C114.992 276.598 116.336 274.967 117.637 273.083C118.938 271.199 120.171 269.099 121.265 266.904C122.36 264.709 123.294 262.461 124.016 260.288C124.738 258.115 125.232 256.061 125.471 254.242C125.71 252.422 125.688 250.874 125.408 249.685C125.127 248.497 124.594 247.691 123.837 247.313C123.08 246.936 122.115 246.995 120.997 247.486C119.879 247.978 118.629 248.892 117.32 250.178C116.011 251.463 114.668 253.095 113.367 254.978C112.066 256.862 110.833 258.962 109.738 261.157C108.644 263.353 107.709 265.601 106.987 267.773C106.266 269.946 105.771 272.001 105.533 273.82C105.294 275.639 105.315 277.187 105.596 278.376C105.876 279.565 106.41 280.371 107.167 280.748Z" fill="#FDE8E1"/>
<path d="M240.432 107.511C240.692 108.031 240.962 109.081 241.242 110.661C241.408 111.574 242.042 112.094 243.142 112.221C250.982 115.807 256.078 121.474 258.432 129.221C259.918 134.114 260.942 140.194 261.502 147.461C262.208 156.574 263.435 164.661 265.182 171.721C266.215 175.901 268.205 180.054 271.152 184.181L273.622 188.821C273.71 188.985 273.774 189.148 273.81 189.301C273.846 189.454 273.854 189.593 273.832 189.711C273.205 193.011 273.635 195.617 275.122 197.531C277.688 200.844 281.708 203.241 287.182 204.721C287.955 204.927 288.038 205.414 287.432 206.181C282.732 207.174 278.178 206.951 273.772 205.511C271.138 204.657 268.722 203.621 266.522 202.401C263.995 201.001 261.985 199.254 260.492 197.161C259.492 195.747 259.472 194.161 260.432 192.401C260.519 192.235 260.577 192.066 260.601 191.907C260.625 191.748 260.615 191.602 260.572 191.481L258.482 185.981C258.308 185.527 258.245 185.544 258.292 186.031C258.458 187.857 258.462 189.684 258.302 191.511C258.068 194.057 257.982 195.874 258.042 196.961C258.282 201.567 258.815 206.137 259.642 210.671C260.662 216.237 261.255 220.311 261.422 222.891C261.882 230.051 261.972 237.221 261.692 244.401C261.685 244.647 261.645 244.861 261.572 245.041C261.358 245.527 261.122 245.601 260.862 245.261C260.742 245.107 260.675 244.897 260.662 244.631C260.575 242.677 260.498 238.041 260.432 230.721C260.392 226.801 259.975 222.501 259.182 217.821C258.682 214.847 257.618 210.674 255.992 205.301C252.358 193.274 249.922 182.414 248.682 172.721C247.028 159.787 245.265 146.871 243.392 133.971C242.338 130.131 241.842 126.214 241.902 122.221C241.935 119.887 241.872 117.554 241.712 115.221C241.703 115.054 241.655 114.896 241.574 114.762C241.493 114.628 241.382 114.524 241.252 114.461C240.732 114.207 240.305 114.244 239.972 114.571C239.878 114.66 239.813 114.79 239.785 114.945C239.757 115.1 239.766 115.275 239.812 115.451C240.585 118.484 240.762 121.501 240.342 124.501C239.988 126.994 239.332 129.634 238.372 132.421C237.518 134.881 236.308 137.334 234.742 139.781C229.975 147.227 224.625 153.674 218.692 159.121L205.842 151.361C205.315 148.541 203.748 146.327 201.142 144.721C201.222 144.041 201.078 143.704 200.712 143.711C200.345 143.717 199.982 143.642 199.647 143.492C199.311 143.342 199.013 143.119 198.772 142.841C193.265 136.401 188.348 130.084 184.022 123.891C180.675 119.097 176.688 114.917 172.062 111.351C168.968 108.971 165.532 107.321 161.752 106.401C157.752 105.427 153.992 105.951 150.472 107.971C149.732 102.771 150.948 98.4173 154.122 94.9107C157.695 90.9573 162.002 87.9206 167.042 85.8006C171.055 84.114 176.052 82.8073 182.032 81.8807C191.158 80.4607 199.958 80.9073 208.432 83.2207C221.972 86.914 232.638 95.0107 240.432 107.511ZM228.882 116.541C231.475 118.854 231.745 118.611 229.692 115.811C225.112 109.551 220.032 103.347 214.452 97.2007C212.685 95.2607 210.682 93.6107 208.442 92.2507C207.435 91.644 207.072 91.744 207.352 92.5506C207.425 92.764 207.558 92.9807 207.752 93.2007C211.198 97.1207 214.678 101.007 218.192 104.861C218.278 104.954 219.992 106.957 223.332 110.871C225.045 112.884 226.895 114.774 228.882 116.541ZM186.972 97.4707C190.705 100.377 193.632 103.947 195.752 108.181C198.432 113.534 202.265 117.857 207.252 121.151C209.132 122.391 211.192 124.081 213.432 126.221C215.318 128.027 218.398 130.671 222.672 134.151C222.925 134.351 223.168 134.461 223.402 134.481C223.828 134.507 224.082 134.341 224.162 133.981C224.222 133.721 224.148 133.407 223.942 133.041C222.608 130.734 220.878 128.774 218.752 127.161C215.745 124.881 212.668 122.701 209.522 120.621C207.088 119.001 204.842 117.167 202.782 115.121C201.628 113.967 200.358 112.147 198.972 109.661C196.185 104.681 192.368 100.067 187.522 95.8207C187.084 95.4421 186.549 95.1989 185.982 95.1206C184.255 94.8806 183.725 95.0073 184.392 95.5007C185.265 96.154 186.125 96.8107 186.972 97.4707ZM209.722 132.571C213.242 135.491 217.038 137.987 221.112 140.061C221.332 140.174 221.562 140.241 221.802 140.261C223.308 140.407 223.345 140.071 221.912 139.251C217.832 136.911 213.948 134.274 210.262 131.341C209.991 131.135 209.671 131.032 209.362 131.051C208.228 131.124 208.102 131.454 208.982 132.041C209.322 132.267 209.568 132.444 209.722 132.571ZM206.082 139.011C211.262 143.424 216.392 146.364 221.472 147.831C221.685 147.891 221.872 147.907 222.032 147.881C222.418 147.807 222.512 147.607 222.312 147.281C222.218 147.134 222.058 147.004 221.832 146.891C216.585 144.337 211.488 141.507 206.542 138.401C206.008 138.067 205.742 138.027 205.742 138.281C205.742 138.419 205.772 138.555 205.831 138.681C205.889 138.807 205.975 138.92 206.082 139.011ZM254.718 165.09C254.714 165.053 254.703 165.018 254.685 164.986C254.667 164.954 254.643 164.925 254.614 164.903C254.585 164.88 254.552 164.863 254.516 164.853C254.481 164.843 254.444 164.84 254.408 164.844L254.11 164.879C254.036 164.888 253.969 164.926 253.923 164.984C253.877 165.042 253.856 165.116 253.864 165.19L255.885 182.392C255.889 182.428 255.901 182.463 255.919 182.496C255.937 182.528 255.961 182.556 255.989 182.579C256.018 182.602 256.051 182.618 256.087 182.628C256.122 182.638 256.159 182.641 256.196 182.637L256.494 182.602C256.567 182.593 256.635 182.556 256.681 182.498C256.727 182.439 256.748 182.365 256.739 182.291L254.718 165.09Z" fill="#5F281F"/>
<path d="M228.882 116.541C226.895 114.774 225.045 112.884 223.332 110.871C219.992 106.957 218.278 104.954 218.192 104.861C214.678 101.007 211.198 97.1206 207.752 93.2006C207.558 92.9806 207.425 92.764 207.352 92.5506C207.072 91.744 207.435 91.644 208.442 92.2506C210.682 93.6106 212.685 95.2606 214.452 97.2006C220.032 103.347 225.112 109.551 229.692 115.811C231.745 118.611 231.475 118.854 228.882 116.541Z" fill="#973F33"/>
<path d="M186.972 97.4706C186.125 96.8106 185.265 96.154 184.392 95.5006C183.725 95.0073 184.255 94.8806 185.982 95.1206C186.55 95.1989 187.085 95.4421 187.522 95.8206C192.368 100.067 196.185 104.681 198.972 109.661C200.358 112.147 201.628 113.967 202.782 115.121C204.842 117.167 207.088 119.001 209.522 120.621C212.668 122.701 215.745 124.881 218.752 127.161C220.879 128.774 222.608 130.734 223.942 133.041C224.148 133.407 224.222 133.721 224.162 133.981C224.082 134.341 223.828 134.507 223.402 134.481C223.168 134.461 222.925 134.351 222.672 134.151C218.398 130.671 215.318 128.027 213.432 126.221C211.192 124.081 209.132 122.391 207.252 121.151C202.265 117.857 198.432 113.534 195.752 108.181C193.632 103.947 190.705 100.377 186.972 97.4706Z" fill="#502018"/>
<path d="M243.142 112.221C242.042 112.094 241.408 111.574 241.242 110.661C240.962 109.081 240.692 108.031 240.432 107.511C244.432 102.691 249.068 98.7273 254.342 95.6206C256.155 94.554 257.578 94.9373 258.612 96.7706C259.612 98.5373 260.215 100.427 260.422 102.441C260.868 106.741 258.955 109.017 254.682 109.271C250.642 109.511 246.795 110.494 243.142 112.221Z" fill="#E55954"/>
<path d="M201.142 144.721C197.508 144.041 193.978 143.864 190.552 144.191C189.292 144.304 188.615 144.991 188.522 146.251C188.388 148.031 188.732 149.437 189.552 150.471C188.185 151.731 186.375 152.377 184.122 152.411C181.548 152.444 179.652 153.617 178.432 155.931C176.618 158.151 175.618 159.997 175.432 161.471C175.132 163.844 175.305 166.797 175.952 170.331C176.618 173.924 177.095 176.184 177.382 177.111C178.095 179.364 179.268 181.407 180.902 183.241C182.208 184.701 183.342 186.074 184.302 187.361C185.035 188.341 185.072 189.341 184.412 190.361C183.198 192.254 181.688 193.614 179.882 194.441C175.622 196.387 171.138 197.221 166.432 196.941C162.692 196.721 159.478 195.347 156.792 192.821C156.678 192.713 156.539 192.64 156.394 192.613C156.249 192.587 156.104 192.607 155.982 192.671C155.082 193.131 154.758 193.794 155.012 194.661C155.178 195.234 155.618 195.811 156.332 196.391C158.212 197.911 160.312 198.861 162.632 199.241C163.305 199.354 165.542 199.554 169.342 199.841C172.982 200.121 176.595 199.761 180.182 198.761L180.222 199.471C177.468 200.357 175.892 201.961 175.492 204.281C175.172 206.154 176.068 207.454 178.182 208.181C175.768 208.881 173.352 208.881 170.932 208.181C171.312 206.741 171.332 205.357 170.992 204.031C170.652 202.731 169.825 201.761 168.512 201.121C166.265 200.027 164.008 199.914 161.742 200.781C156.395 202.834 152.478 206.751 149.992 212.531C148.825 215.251 148.098 218.647 147.812 222.721C144.132 212.361 140.568 203.381 137.122 195.781C135.648 192.541 135.085 189.341 135.432 186.181C137.898 189.141 140.418 191.051 142.992 191.911C145.552 192.764 147.845 192.264 149.872 190.411C152.678 187.837 153.928 184.764 153.622 181.191C153.508 179.937 153.068 178.957 152.302 178.251C151.455 177.477 150.415 176.971 149.182 176.731C145.615 176.037 142.128 176.284 138.722 177.471C137.795 170.144 137.572 162.851 138.052 155.591L155.432 152.141C155.737 152.081 156.017 151.94 156.24 151.734C156.464 151.529 156.62 151.267 156.692 150.981C157.745 146.814 156.242 144.871 152.182 145.151C147.995 145.437 143.675 146.221 139.222 147.501C138.702 137.427 140.208 128.021 143.742 119.281C145.215 115.641 147.458 111.871 150.472 107.971C153.992 105.951 157.752 105.427 161.752 106.401C165.532 107.321 168.968 108.971 172.062 111.351C176.688 114.917 180.675 119.097 184.022 123.891C188.348 130.084 193.265 136.401 198.772 142.841C199.013 143.119 199.311 143.342 199.647 143.492C199.982 143.642 200.345 143.717 200.712 143.711C201.078 143.704 201.222 144.041 201.142 144.721ZM175.112 132.591C179.192 132.731 183.222 133.274 187.202 134.221C188.488 134.534 188.638 134.247 187.652 133.361C185.585 131.521 183.158 130.334 180.372 129.801C178.678 129.474 176.045 129.341 172.472 129.401C166.818 129.501 161.325 130.454 155.992 132.261C153.112 133.234 150.555 134.467 148.322 135.961C145.775 137.667 143.625 139.567 141.872 141.661C141.492 142.114 141.508 142.364 141.922 142.411C142.04 142.426 142.173 142.407 142.309 142.355C142.446 142.304 142.583 142.22 142.712 142.111C146.625 138.791 150.885 136.431 155.492 135.031C161.658 133.164 168.198 132.351 175.112 132.591ZM141.502 169.041C140.035 169.627 139.885 170.394 141.052 171.341L149.942 171.381C154.155 173.207 156.582 171.904 157.222 167.471C158.768 166.904 159.168 167.484 158.422 169.211C157.755 170.751 158.032 171.401 159.252 171.161C159.402 171.133 159.544 171.066 159.664 170.965C159.785 170.863 159.88 170.731 159.942 170.581C161.228 167.527 161.295 164.451 160.142 161.351C159.728 160.231 158.945 159.504 157.792 159.171C149.992 156.944 144.308 159.231 140.742 166.031C140.382 166.724 140.635 167.727 141.502 169.041Z" fill="#BC5F44"/>
<path d="M243.392 133.971C241.925 141.177 240.002 147.157 237.622 151.911C235.722 155.697 234.409 158.897 233.682 161.511C228.489 162.711 223.492 161.914 218.692 159.121C224.625 153.674 229.975 147.227 234.742 139.781C236.309 137.334 237.519 134.881 238.372 132.421C239.332 129.634 239.989 126.994 240.342 124.501C240.762 121.501 240.585 118.484 239.812 115.451C239.766 115.275 239.757 115.1 239.785 114.945C239.814 114.79 239.878 114.66 239.972 114.571C240.305 114.244 240.732 114.207 241.252 114.461C241.382 114.524 241.494 114.628 241.574 114.762C241.655 114.896 241.703 115.054 241.712 115.221C241.872 117.554 241.935 119.887 241.902 122.221C241.842 126.214 242.339 130.131 243.392 133.971Z" fill="#4B1F1C"/>
<path d="M175.112 132.591C168.198 132.351 161.658 133.164 155.492 135.031C150.885 136.431 146.625 138.791 142.712 142.111C142.583 142.22 142.446 142.303 142.309 142.355C142.173 142.407 142.04 142.426 141.922 142.411C141.508 142.364 141.492 142.114 141.872 141.661C143.625 139.567 145.775 137.667 148.322 135.961C150.555 134.467 153.112 133.234 155.992 132.261C161.325 130.454 166.818 129.501 172.472 129.401C176.045 129.341 178.678 129.474 180.372 129.801C183.158 130.334 185.585 131.521 187.652 133.361C188.638 134.247 188.488 134.534 187.202 134.221C183.222 133.274 179.192 132.731 175.112 132.591Z" fill="#A94E39"/>
<path d="M208.982 132.041C208.102 131.454 208.228 131.124 209.362 131.051C209.671 131.032 209.991 131.135 210.262 131.341C213.948 134.274 217.832 136.911 221.912 139.251C223.345 140.071 223.308 140.407 221.802 140.261C221.562 140.241 221.332 140.174 221.112 140.061C217.038 137.987 213.242 135.491 209.722 132.571C209.568 132.444 209.322 132.267 208.982 132.041Z" fill="#4E1F18"/>
<path d="M243.392 133.971C245.265 146.871 247.028 159.787 248.682 172.721C249.922 182.414 252.358 193.274 255.992 205.301C257.618 210.674 258.682 214.847 259.182 217.821C259.975 222.501 260.392 226.801 260.432 230.721C260.498 238.041 260.575 242.677 260.662 244.631C260.675 244.897 260.742 245.107 260.862 245.261C261.122 245.601 261.358 245.527 261.572 245.041C261.645 244.861 261.685 244.647 261.692 244.401C261.972 237.221 261.882 230.051 261.422 222.891C261.255 220.311 260.662 216.237 259.642 210.671C258.815 206.137 258.282 201.567 258.042 196.961C257.982 195.874 258.068 194.057 258.302 191.511C258.462 189.684 258.458 187.857 258.292 186.031C258.245 185.544 258.308 185.527 258.482 185.981L260.572 191.481C260.615 191.602 260.625 191.748 260.601 191.907C260.577 192.066 260.519 192.235 260.432 192.401C259.472 194.161 259.492 195.747 260.492 197.161C261.985 199.254 263.995 201.001 266.522 202.401C268.722 203.621 271.138 204.657 273.772 205.511C278.178 206.951 282.732 207.174 287.432 206.181L288.212 206.271C290.678 213.811 290.622 221.001 288.042 227.841C286.682 231.434 284.112 235.347 280.332 239.581C277.012 243.301 273.608 246.577 270.122 249.411C266.982 251.957 264.702 254.917 263.282 258.291C262.462 260.237 262.172 261.907 262.412 263.301C262.772 265.407 264.195 266.714 266.682 267.221C269.035 267.701 271.178 267.164 273.112 265.611C273.253 265.497 273.414 265.422 273.569 265.398C273.723 265.375 273.862 265.404 273.962 265.481C274.295 265.741 274.248 266.207 273.822 266.881C272.348 269.207 270.268 270.751 267.582 271.511C262.955 272.811 258.418 272.547 253.972 270.721C250.198 268.407 247.852 265.324 246.932 261.471C242.338 242.177 237.922 222.837 233.682 203.451C233.657 203.337 233.657 203.22 233.681 203.106C233.704 202.992 233.752 202.885 233.82 202.791C233.887 202.696 233.974 202.617 234.075 202.559C234.175 202.5 234.286 202.463 234.402 202.451C238.615 201.977 241.902 199.924 244.262 196.291C246.602 192.684 247.732 188.724 247.652 184.411C247.498 176.351 243.305 171.784 235.072 170.711C234.835 170.68 234.615 170.56 234.451 170.372C234.287 170.184 234.188 169.94 234.172 169.681L233.682 161.511C234.408 158.897 235.722 155.697 237.622 151.911C240.002 147.157 241.925 141.177 243.392 133.971Z" fill="#180B1D"/>
<path d="M96.6217 196.781C94.355 195.341 93.0284 192.897 92.6417 189.451C90.415 169.391 96.6484 152.701 111.342 139.381C112.908 137.967 114.828 136.867 117.102 136.081C118.315 135.661 119.218 136.017 119.812 137.151C120.452 138.371 120.838 139.811 120.972 141.471C121.625 149.864 121.218 158.201 119.752 166.481C118.312 174.647 115.398 182.237 111.012 189.251C108.972 192.517 106.265 195.081 102.892 196.941C100.745 198.127 98.655 198.074 96.6217 196.781ZM105.722 163.771C104.462 168.977 102.992 174.251 101.312 179.591C101.024 180.513 100.996 181.496 101.232 182.431C101.592 183.837 102.108 184.091 102.782 183.191C102.988 182.911 103.148 182.524 103.262 182.031C104.395 177.164 105.808 171.954 107.502 166.401C107.775 165.507 107.845 164.597 107.712 163.671C107.432 161.764 106.922 161.407 106.182 162.601C105.988 162.901 105.835 163.291 105.722 163.771Z" fill="#EBBCB5"/>
<path d="M206.082 139.011C205.975 138.92 205.889 138.807 205.831 138.681C205.772 138.555 205.742 138.419 205.742 138.281C205.742 138.027 206.008 138.067 206.542 138.401C211.488 141.507 216.585 144.337 221.832 146.891C222.058 147.004 222.218 147.134 222.312 147.281C222.512 147.607 222.418 147.807 222.032 147.881C221.872 147.907 221.685 147.891 221.472 147.831C216.392 146.364 211.262 143.424 206.082 139.011Z" fill="#4B1F1C"/>
<path d="M201.142 144.721C203.748 146.327 205.315 148.541 205.842 151.361L189.552 150.471C188.732 149.437 188.388 148.031 188.522 146.251C188.615 144.991 189.292 144.304 190.552 144.191C193.978 143.864 197.508 144.041 201.142 144.721Z" fill="#18111A"/>
<path d="M138.052 155.591C135.099 152.397 135.489 149.701 139.222 147.501C143.675 146.221 147.995 145.437 152.182 145.151C156.242 144.871 157.745 146.814 156.692 150.981C156.62 151.267 156.464 151.529 156.241 151.734C156.018 151.94 155.737 152.081 155.432 152.141L138.052 155.591Z" fill="#18111A"/>
<path d="M189.552 150.471L205.842 151.361L218.692 159.121C223.492 161.914 228.488 162.711 233.682 161.511L234.172 169.681C234.188 169.94 234.287 170.184 234.451 170.372C234.615 170.56 234.835 170.68 235.072 170.711C243.305 171.784 247.498 176.351 247.652 184.411C247.732 188.724 246.602 192.684 244.262 196.291C241.902 199.924 238.615 201.977 234.402 202.451C234.286 202.463 234.175 202.5 234.074 202.559C233.974 202.617 233.887 202.696 233.819 202.791C233.752 202.885 233.704 202.992 233.68 203.106C233.657 203.22 233.657 203.337 233.682 203.451C237.922 222.837 242.338 242.177 246.932 261.471C247.852 265.324 250.198 268.407 253.972 270.721L257.302 273.641C256.435 280.081 254.775 286.244 252.322 292.131C249.735 298.357 246.328 303.647 242.102 308.001C233.355 317.014 222.215 322.171 208.682 323.471C202.315 324.084 196.178 323.804 190.272 322.631C184.325 321.444 178.705 319.211 173.412 315.931C159.392 307.237 151.315 294.071 149.182 276.431C152.835 275.264 156.215 273.414 159.322 270.881C162.595 272.194 166.048 272.971 169.682 273.211C184.215 274.164 197.865 271.221 210.632 264.381C221.125 258.754 227.622 250.514 230.122 239.661C231.795 232.381 232.512 224.281 232.272 215.361C232.118 209.494 231.885 205.064 231.572 202.071C231.098 197.564 230.165 193.207 228.772 189.001C228.492 188.154 228.235 188.161 228.002 189.021C225.908 196.554 223.935 204.114 222.082 211.701C221.668 213.414 220.702 216.504 219.182 220.971C217.408 226.184 214.572 230.494 210.672 233.901C209.392 235.014 208.258 235.687 207.272 235.921C205.818 236.274 204.435 235.977 203.122 235.031C199.162 232.191 197.535 228.244 198.242 223.191C199.715 212.657 195.788 205.144 186.462 200.651C184.495 199.704 182.415 199.311 180.222 199.471L180.182 198.761C183.082 198.461 185.185 196.801 186.492 193.781C188.612 188.887 188.055 184.651 184.822 181.071C182.502 178.504 180.892 175.201 179.992 171.161C178.738 165.494 178.218 160.417 178.432 155.931C179.652 153.617 181.548 152.444 184.122 152.411C186.375 152.377 188.185 151.731 189.552 150.471ZM197.722 162.721C195.668 164.067 194.225 165.901 193.392 168.221C192.638 168.874 192.475 169.861 192.902 171.181C195.482 172.154 197.992 171.987 200.432 170.681C202.718 170.961 204.802 170.461 206.682 169.181C208.982 169.081 210.745 168.094 211.972 166.221C213.232 166.814 214.418 167.527 215.532 168.361C215.652 168.447 215.765 168.491 215.872 168.491C216.072 168.484 216.178 168.387 216.192 168.201C216.205 168.081 216.155 167.937 216.042 167.771C213.708 164.411 211.275 161.957 208.742 160.411C203.515 157.204 197.965 156.867 192.092 159.401C191.518 159.647 191.012 159.991 190.572 160.431C188.178 162.844 188.645 163.521 191.972 162.461C192.218 162.381 192.795 162.111 193.702 161.651C194.395 161.297 195.138 161.084 195.932 161.011C197.325 160.877 197.922 161.447 197.722 162.721ZM201.872 189.031C204.525 191.091 207.358 191.801 210.372 191.161C212.952 190.607 215.212 189.274 217.152 187.161C219.092 185.041 220.078 182.824 220.112 180.511C220.152 178.117 219.078 176.347 216.892 175.201C215.445 174.441 213.582 174.074 211.302 174.101C208.875 174.134 206.585 174.507 204.432 175.221C201.918 176.054 200.172 177.607 199.192 179.881C198.472 181.567 198.342 183.197 198.802 184.771C199.275 186.397 200.298 187.817 201.872 189.031ZM233.412 193.161C234.132 193.287 234.932 193.147 235.812 192.741C236.498 192.427 237.138 191.957 237.732 191.331C240.018 188.917 240.965 185.957 240.572 182.451C240.192 179.084 238.645 177.007 235.932 176.221C233.545 175.527 231.695 176.021 230.382 177.701C229.428 178.934 228.928 180.541 228.882 182.521C228.822 185.401 229.652 188.457 231.372 191.691C231.574 192.076 231.863 192.409 232.217 192.664C232.571 192.919 232.98 193.089 233.412 193.161ZM190.072 289.911C189.352 297.884 189.472 305.404 190.432 312.471C190.565 313.451 190.868 313.741 191.342 313.341C191.455 313.243 191.547 313.115 191.613 312.965C191.678 312.816 191.715 312.647 191.722 312.471L192.372 290.021C192.378 289.857 192.348 289.697 192.286 289.555C192.223 289.412 192.129 289.291 192.012 289.201C191.512 288.821 191.012 288.787 190.512 289.101C190.391 289.172 190.288 289.283 190.212 289.424C190.135 289.566 190.087 289.733 190.072 289.911Z" fill="#BC5F44"/>
<path d="M178.432 155.931C178.218 160.417 178.738 165.494 179.992 171.161C180.892 175.201 182.502 178.504 184.822 181.071C188.055 184.651 188.612 188.887 186.492 193.781C185.185 196.801 183.082 198.461 180.182 198.761C176.595 199.761 172.982 200.121 169.342 199.841C165.542 199.554 163.305 199.354 162.632 199.241C160.312 198.861 158.212 197.911 156.332 196.391C155.618 195.811 155.178 195.234 155.012 194.661C154.758 193.794 155.082 193.131 155.982 192.671C156.105 192.607 156.249 192.587 156.394 192.613C156.539 192.64 156.678 192.713 156.792 192.821C159.478 195.347 162.692 196.721 166.432 196.941C171.138 197.221 175.622 196.387 179.882 194.441C181.688 193.614 183.198 192.254 184.412 190.361C185.072 189.341 185.035 188.341 184.302 187.361C183.342 186.074 182.208 184.701 180.902 183.241C179.268 181.407 178.095 179.364 177.382 177.111C177.095 176.184 176.618 173.924 175.952 170.331C175.305 166.797 175.132 163.844 175.432 161.471C175.618 159.997 176.618 158.151 178.432 155.931Z" fill="#913C32"/>
<path d="M211.972 166.221C210.612 164.827 209.029 163.827 207.222 163.221C206.802 162.267 205.359 161.787 202.892 161.781C202.512 161.781 202.129 161.751 201.742 161.691C200.322 161.477 198.982 161.821 197.722 162.721C197.922 161.447 197.325 160.877 195.932 161.011C195.139 161.084 194.395 161.297 193.702 161.651C192.795 162.111 192.219 162.381 191.972 162.461C188.645 163.521 188.179 162.844 190.572 160.431C191.012 159.991 191.519 159.647 192.092 159.401C197.965 156.867 203.515 157.204 208.742 160.411C211.275 161.957 213.709 164.411 216.042 167.771C216.155 167.937 216.205 168.081 216.192 168.201C216.179 168.387 216.072 168.484 215.872 168.491C215.765 168.491 215.652 168.447 215.532 168.361C214.419 167.527 213.232 166.814 211.972 166.221Z" fill="#67332A"/>
<path d="M157.221 167.471C157.488 166.077 157.275 164.941 156.581 164.061C156.035 163.361 155.108 162.914 153.801 162.721C148.495 161.941 144.395 164.047 141.501 169.041C140.635 167.727 140.381 166.724 140.741 166.031C144.308 159.231 149.991 156.944 157.791 159.171C158.945 159.504 159.728 160.231 160.141 161.351C161.295 164.451 161.228 167.527 159.941 170.581C159.88 170.731 159.785 170.863 159.664 170.965C159.544 171.066 159.402 171.133 159.251 171.161C158.031 171.401 157.755 170.751 158.421 169.211C159.168 167.484 158.768 166.904 157.221 167.471Z" fill="#913C32"/>
<path d="M207.222 163.221L206.682 169.181C204.802 170.461 202.718 170.961 200.432 170.681L200.182 164.701C200.115 163.187 199.428 162.824 198.122 163.611C196.235 164.744 194.825 166.364 193.892 168.471C193.625 168.524 193.458 168.441 193.392 168.221C194.225 165.901 195.668 164.067 197.722 162.721C198.982 161.821 200.322 161.477 201.742 161.691C202.128 161.751 202.512 161.781 202.892 161.781C205.358 161.787 206.802 162.267 207.222 163.221Z" fill="#332022"/>
<path d="M106.181 162.601C106.921 161.407 107.431 161.764 107.711 163.671C107.845 164.597 107.775 165.507 107.501 166.401C105.808 171.954 104.395 177.164 103.261 182.031C103.148 182.524 102.988 182.911 102.781 183.191C102.108 184.091 101.591 183.837 101.231 182.431C100.996 181.496 101.024 180.513 101.311 179.591C102.991 174.251 104.461 168.977 105.721 163.771C105.835 163.291 105.988 162.901 106.181 162.601Z" fill="#E7B1A7"/>
<path d="M157.222 167.471C156.582 171.904 154.155 173.207 149.942 171.381C149.035 169.047 148.532 166.737 148.432 164.451C148.405 163.777 148.168 163.677 147.722 164.151L141.052 171.341C139.885 170.394 140.035 169.627 141.502 169.041C144.395 164.047 148.495 161.941 153.802 162.721C155.108 162.914 156.035 163.361 156.582 164.061C157.275 164.941 157.488 166.077 157.222 167.471Z" fill="#2A151C"/>
<path d="M211.972 166.221C210.745 168.094 208.982 169.081 206.682 169.181L207.222 163.221C209.028 163.827 210.612 164.827 211.972 166.221Z" fill="#E0C4B9"/>
<path d="M200.432 170.681C197.992 171.987 195.482 172.154 192.902 171.181L193.892 168.471C194.825 166.364 196.235 164.744 198.122 163.611C199.429 162.824 200.115 163.187 200.182 164.701L200.432 170.681Z" fill="#FDE8E1"/>
<path d="M149.942 171.381L141.052 171.341L147.722 164.151C148.168 163.677 148.405 163.777 148.432 164.451C148.532 166.737 149.035 169.047 149.942 171.381Z" fill="#F2C7BB"/>
<path d="M254.408 164.844L254.11 164.879C253.956 164.897 253.846 165.036 253.864 165.19L255.885 182.392C255.903 182.545 256.042 182.655 256.196 182.637L256.494 182.602C256.647 182.584 256.757 182.445 256.739 182.291L254.718 165.09C254.7 164.936 254.561 164.826 254.408 164.844Z" fill="#905947"/>
<path d="M193.392 168.221C193.458 168.441 193.625 168.524 193.892 168.471L192.902 171.181C192.475 169.861 192.638 168.874 193.392 168.221Z" fill="#822528"/>
<path d="M201.872 189.031C200.298 187.817 199.275 186.397 198.802 184.771C198.342 183.197 198.472 181.567 199.192 179.881C200.172 177.607 201.918 176.054 204.432 175.221C206.585 174.507 208.875 174.134 211.302 174.101C213.582 174.074 215.445 174.441 216.892 175.201C219.078 176.347 220.152 178.117 220.112 180.511C220.078 182.824 219.092 185.041 217.152 187.161C215.212 189.274 212.952 190.607 210.372 191.161C207.358 191.801 204.525 191.091 201.872 189.031Z" fill="#9F4035"/>
<path d="M233.412 193.161C232.98 193.089 232.571 192.919 232.217 192.664C231.863 192.409 231.574 192.076 231.372 191.691C229.652 188.457 228.822 185.401 228.882 182.521C228.929 180.541 229.429 178.934 230.382 177.701C231.695 176.021 233.545 175.527 235.932 176.221C238.645 177.007 240.192 179.084 240.572 182.451C240.965 185.957 240.019 188.917 237.732 191.331C237.139 191.957 236.499 192.427 235.812 192.741C234.932 193.147 234.132 193.287 233.412 193.161Z" fill="#9F4035"/>
<path d="M135.432 186.181C135.578 182.934 136.675 180.031 138.722 177.471C142.128 176.284 145.615 176.037 149.182 176.731C150.415 176.971 151.455 177.477 152.302 178.251C153.068 178.957 153.508 179.937 153.622 181.191C153.928 184.764 152.678 187.837 149.872 190.411C147.845 192.264 145.552 192.764 142.992 191.911C140.418 191.051 137.898 189.141 135.432 186.181Z" fill="#AE4035"/>
<path d="M271.152 184.181C274.732 188.401 278.345 191.227 281.992 192.661C285.272 193.947 288.642 194.247 292.102 193.561C295.342 192.921 297.775 190.997 299.402 187.791C299.975 186.657 300.399 186.711 300.672 187.951C301.325 190.857 301.049 193.651 299.842 196.331C297.589 201.311 293.712 204.624 288.212 206.271L287.432 206.181C288.039 205.414 287.955 204.927 287.182 204.721C281.709 203.241 277.689 200.844 275.122 197.531C273.635 195.617 273.205 193.011 273.832 189.711C273.854 189.593 273.847 189.454 273.811 189.301C273.775 189.148 273.71 188.985 273.622 188.821L271.152 184.181Z" fill="#180B1D"/>
<path d="M159.322 270.881C153.555 268.661 149.005 265.211 145.672 260.531C143.045 256.837 141.605 252.711 141.352 248.151C141.085 243.477 141.965 239.021 143.992 234.781C146.072 230.441 147.345 226.421 147.812 222.721C148.098 218.647 148.825 215.251 149.992 212.531C152.478 206.751 156.395 202.834 161.742 200.781C164.008 199.914 166.265 200.027 168.512 201.121C169.825 201.761 170.652 202.731 170.992 204.031C171.332 205.357 171.312 206.741 170.932 208.181C168.705 209.294 166.372 210.107 163.932 210.621C162.012 211.027 160.755 211.474 160.162 211.961C159.008 212.901 158.432 214.237 158.432 215.971C158.425 221.351 158.785 227.347 159.512 233.961C159.932 237.807 161.355 240.967 163.782 243.441C166.002 245.707 168.915 247.151 172.522 247.771C179.442 248.951 184.558 245.997 187.872 238.911C191.838 230.417 192.288 221.571 189.222 212.371C187.575 211.131 186.075 210.447 184.722 210.321C182.622 209.154 180.442 208.441 178.182 208.181C176.068 207.454 175.172 206.154 175.492 204.281C175.892 201.961 177.468 200.357 180.222 199.471C182.415 199.311 184.495 199.704 186.462 200.651C195.788 205.144 199.715 212.657 198.242 223.191C197.535 228.244 199.162 232.191 203.122 235.031C204.435 235.977 205.818 236.274 207.272 235.921C208.258 235.687 209.392 235.014 210.672 233.901C214.572 230.494 217.408 226.184 219.182 220.971C220.702 216.504 221.668 213.414 222.082 211.701C223.935 204.114 225.908 196.554 228.002 189.021C228.235 188.161 228.492 188.154 228.772 189.001C230.165 193.207 231.098 197.564 231.572 202.071C231.885 205.064 232.118 209.494 232.272 215.361C232.512 224.281 231.795 232.381 230.122 239.661C227.622 250.514 221.125 258.754 210.632 264.381C197.865 271.221 184.215 274.164 169.682 273.211C166.048 272.971 162.595 272.194 159.322 270.881Z" fill="#190C1F"/>
<path d="M92.1619 264.391C91.8028 264.261 91.4855 264.036 91.2441 263.738C91.0027 263.44 90.8464 263.082 90.7919 262.701C90.2852 259.167 90.3452 255.744 90.9719 252.431C93.0586 241.437 96.9919 231.234 102.772 221.821C105.199 217.874 107.245 214.897 108.912 212.891C111.385 209.924 114.162 207.554 117.242 205.781C118.589 205.007 119.845 205.141 121.012 206.181C121.251 206.394 121.41 206.691 121.462 207.021C121.789 209.054 121.259 211.101 119.872 213.161C111.905 224.967 107.279 232.174 105.992 234.781C102.372 242.134 99.5052 249.777 97.3919 257.711C96.8519 259.751 95.9919 261.634 94.8119 263.361C94.0919 264.414 93.2086 264.757 92.1619 264.391Z" fill="#FB9652"/>
<path d="M178.182 208.181C180.442 208.441 182.622 209.154 184.722 210.321L168.812 212.441L164.792 212.911C164.683 212.923 164.581 212.964 164.493 213.029C164.405 213.095 164.335 213.183 164.287 213.286C164.24 213.39 164.218 213.505 164.222 213.622C164.226 213.74 164.257 213.856 164.312 213.961C164.952 215.167 165.945 216.121 167.292 216.821C170.725 218.614 174.215 218.851 177.762 217.531C181.642 216.951 185.462 215.231 189.222 212.371C192.288 221.571 191.838 230.417 187.872 238.911C184.558 245.997 179.442 248.951 172.522 247.771C168.915 247.151 166.002 245.707 163.782 243.441C161.355 240.967 159.932 237.807 159.512 233.961C158.785 227.347 158.425 221.351 158.432 215.971C158.432 214.237 159.008 212.901 160.162 211.961C160.755 211.474 162.012 211.027 163.932 210.621C166.372 210.107 168.705 209.294 170.932 208.181C173.352 208.881 175.768 208.881 178.182 208.181ZM167.642 225.861C173.375 227.581 178.565 226.661 183.212 223.101C184.212 222.341 184.998 221.737 185.572 221.291C186.358 220.677 187.092 220.007 187.772 219.281C187.88 219.167 187.948 219.023 187.962 218.876C187.977 218.729 187.938 218.588 187.852 218.481C187.452 217.974 186.978 217.971 186.432 218.471C183.125 221.477 179.375 222.954 175.182 222.901C172.135 222.867 169.068 222.457 165.982 221.671C165.791 221.623 165.592 221.625 165.402 221.677C165.213 221.728 165.039 221.827 164.899 221.964C164.759 222.102 164.656 222.273 164.6 222.461C164.545 222.65 164.538 222.849 164.582 223.041C164.755 223.761 165.142 224.384 165.742 224.911C166.182 225.297 166.815 225.614 167.642 225.861Z" fill="#C06547"/>
<path d="M184.722 210.321C186.075 210.447 187.575 211.131 189.222 212.371C185.462 215.231 181.642 216.951 177.762 217.531C174.402 216.544 171.418 214.847 168.812 212.441L184.722 210.321Z" fill="#F6F3F1"/>
<path d="M168.812 212.441C171.418 214.847 174.402 216.544 177.762 217.531C174.215 218.851 170.725 218.614 167.292 216.821C165.945 216.121 164.952 215.167 164.312 213.961C164.257 213.856 164.226 213.74 164.222 213.622C164.217 213.505 164.24 213.39 164.287 213.286C164.334 213.183 164.405 213.095 164.493 213.029C164.581 212.964 164.683 212.923 164.792 212.911L168.812 212.441Z" fill="#5C0F15"/>
<path d="M297.372 270.781C295.172 269.007 293.652 266.544 292.812 263.391C291.772 259.504 291.478 255.627 291.932 251.761C292.298 248.647 293.252 244.951 294.792 240.671C297.498 233.171 301.648 226.624 307.242 221.031C308.722 219.557 310.688 218.111 313.142 216.691C316.382 214.811 318.918 214.824 320.752 216.731C321.812 217.831 322.562 219.801 323.002 222.641C324.862 234.527 323.462 246.084 318.802 257.311C316.622 262.557 313.665 266.861 309.932 270.221C305.752 273.987 301.565 274.174 297.372 270.781Z" fill="#FB9550"/>
<path d="M165.742 224.911C165.142 224.384 164.755 223.761 164.582 223.041C164.538 222.849 164.545 222.65 164.6 222.461C164.656 222.273 164.759 222.102 164.899 221.964C165.039 221.827 165.212 221.728 165.402 221.677C165.592 221.625 165.791 221.623 165.982 221.671C169.068 222.457 172.135 222.867 175.182 222.901C179.375 222.954 183.125 221.477 186.432 218.471C186.978 217.971 187.452 217.974 187.852 218.481C187.938 218.588 187.977 218.729 187.962 218.876C187.948 219.023 187.88 219.167 187.772 219.281C187.092 220.007 186.358 220.677 185.572 221.291C184.998 221.737 184.212 222.341 183.212 223.101C178.565 226.661 173.375 227.581 167.642 225.861C166.815 225.614 166.182 225.297 165.742 224.911Z" fill="#9F4035"/>
<path d="M109.738 261.157C105.135 270.39 103.984 279.161 107.167 280.748C110.35 282.335 116.662 276.137 121.265 266.904C125.868 257.671 127.02 248.9 123.837 247.313C120.654 245.726 114.342 251.924 109.738 261.157Z" fill="#F0BDB1"/>
<path d="M257.302 273.641C261.909 275.507 267.202 277.451 273.182 279.471C274.815 280.024 276.285 280.984 277.592 282.351C277.697 282.462 277.828 282.546 277.975 282.597C278.121 282.647 278.277 282.662 278.432 282.641C281.092 282.294 283.442 282.977 285.482 284.691C285.509 284.711 285.745 284.957 286.192 285.431C287.072 286.351 288.545 286.911 290.612 287.111C291.659 287.211 292.629 287.541 293.522 288.101C296.435 289.934 299.975 291.691 304.142 293.371C298.562 299.811 292.075 305.927 284.682 311.721C263.255 328.514 239.252 338.084 212.672 340.431C206.145 341.004 199.485 341.107 192.692 340.741C157.232 338.794 126.885 324.984 101.652 299.311C107.072 296.124 113.009 293.067 119.462 290.141C120.082 289.861 120.652 289.501 121.172 289.061C122.485 287.947 123.879 287.181 125.352 286.761C127.199 286.234 128.465 285.781 129.152 285.401C135.565 281.847 142.242 278.857 149.182 276.431C151.315 294.071 159.392 307.237 173.412 315.931C178.705 319.211 184.325 321.444 190.272 322.631C196.179 323.804 202.315 324.084 208.682 323.471C222.215 322.171 233.355 317.014 242.102 308.001C246.329 303.647 249.735 298.357 252.322 292.131C254.775 286.244 256.435 280.081 257.302 273.641ZM271.142 284.671C267.529 289.724 264.152 294.931 261.012 300.291C260.692 300.837 260.749 301.147 261.182 301.221C261.313 301.242 261.462 301.225 261.618 301.169C261.774 301.114 261.932 301.022 262.082 300.901C264.515 298.901 266.382 296.257 267.682 292.971C268.962 289.744 270.915 286.521 273.542 283.301C273.593 283.239 273.633 283.169 273.659 283.095C273.685 283.021 273.697 282.946 273.693 282.875C273.689 282.805 273.67 282.74 273.637 282.688C273.604 282.635 273.557 282.595 273.502 282.571C273.289 282.477 273.072 282.557 272.852 282.811C272.599 283.117 272.409 283.324 272.282 283.431C271.849 283.791 271.469 284.204 271.142 284.671ZM278.122 288.911C273.342 296.304 269.695 302.314 267.182 306.941C267.042 307.201 266.989 307.447 267.022 307.681C267.135 308.327 267.502 308.321 268.122 307.661C269.969 305.721 271.482 303.567 272.662 301.201C273.949 298.607 275.025 296.597 275.892 295.171C277.079 293.204 278.095 291.147 278.942 289.001C279.115 288.554 279.015 288.377 278.642 288.471C278.449 288.524 278.275 288.671 278.122 288.911ZM285.207 294.553C285.295 294.596 285.404 294.596 285.528 294.551C285.652 294.506 285.789 294.417 285.93 294.29C286.07 294.163 286.213 294 286.349 293.81C286.485 293.62 286.613 293.408 286.724 293.184C286.835 292.961 286.927 292.731 286.996 292.507C287.065 292.284 287.108 292.072 287.124 291.883C287.14 291.694 287.129 291.532 287.089 291.406C287.05 291.28 286.985 291.193 286.897 291.149C286.808 291.105 286.699 291.106 286.575 291.151C286.451 291.196 286.315 291.284 286.174 291.411C286.033 291.539 285.891 291.702 285.754 291.891C285.618 292.081 285.491 292.294 285.38 292.517C285.269 292.741 285.177 292.971 285.108 293.194C285.039 293.417 284.995 293.629 284.979 293.818C284.963 294.007 284.975 294.169 285.014 294.295C285.053 294.421 285.119 294.509 285.207 294.553ZM148.122 307.531C149.229 308.257 149.602 308.051 149.242 306.911C148.789 305.464 146.645 302.431 142.812 297.811C141.992 296.831 141.475 296.784 141.262 297.671C141.189 297.997 141.239 298.354 141.412 298.741C143.332 302.927 145.569 305.857 148.122 307.531ZM144.332 317.251C145.079 317.324 145.209 316.597 144.722 315.071C144.435 314.171 143.982 313.367 143.362 312.661C138.615 307.254 133.832 302.567 129.012 298.601C128.742 298.382 128.429 298.265 128.132 298.271C126.812 298.304 126.642 298.974 127.622 300.281C130.655 304.361 135.805 309.774 143.072 316.521C143.559 316.974 143.979 317.217 144.332 317.251ZM155.061 326.239C155.29 326.248 155.518 326.202 155.734 326.102C155.949 326.003 156.147 325.852 156.317 325.658C156.487 325.465 156.625 325.232 156.723 324.974C156.822 324.716 156.878 324.437 156.89 324.154C156.902 323.87 156.869 323.588 156.793 323.322C156.716 323.057 156.598 322.813 156.445 322.606C156.292 322.399 156.107 322.232 155.901 322.115C155.694 321.997 155.471 321.932 155.242 321.923C155.014 321.913 154.786 321.959 154.57 322.059C154.355 322.159 154.156 322.309 153.987 322.503C153.817 322.697 153.679 322.929 153.58 323.187C153.482 323.446 153.425 323.724 153.413 324.008C153.401 324.291 153.435 324.574 153.511 324.839C153.587 325.105 153.706 325.348 153.859 325.555C154.012 325.762 154.197 325.929 154.403 326.047C154.609 326.164 154.833 326.229 155.061 326.239Z" fill="#E55954"/>
<path d="M271.142 284.671C271.468 284.204 271.848 283.791 272.282 283.431C272.408 283.324 272.598 283.117 272.852 282.811C273.072 282.557 273.288 282.477 273.502 282.571C273.557 282.595 273.603 282.635 273.636 282.688C273.67 282.74 273.689 282.805 273.693 282.875C273.697 282.946 273.685 283.021 273.659 283.095C273.633 283.169 273.592 283.239 273.542 283.301C270.915 286.521 268.962 289.744 267.682 292.971C266.382 296.257 264.515 298.901 262.082 300.901C261.932 301.022 261.773 301.114 261.617 301.169C261.462 301.225 261.313 301.242 261.182 301.221C260.748 301.147 260.692 300.837 261.012 300.291C264.152 294.931 267.528 289.724 271.142 284.671Z" fill="#B93334"/>
<path d="M278.122 288.911C278.275 288.671 278.448 288.524 278.642 288.471C279.015 288.377 279.115 288.554 278.942 289.001C278.095 291.147 277.078 293.204 275.892 295.171C275.025 296.597 273.949 298.607 272.662 301.201C271.482 303.567 269.968 305.721 268.122 307.661C267.502 308.321 267.135 308.327 267.022 307.681C266.988 307.447 267.042 307.201 267.182 306.941C269.695 302.314 273.342 296.304 278.122 288.911Z" fill="#B93334"/>
<path d="M190.512 289.101C191.012 288.787 191.512 288.821 192.012 289.201C192.129 289.291 192.223 289.412 192.286 289.555C192.348 289.698 192.378 289.857 192.372 290.021L191.722 312.471C191.715 312.647 191.678 312.816 191.613 312.965C191.547 313.115 191.455 313.243 191.342 313.341C190.868 313.741 190.565 313.451 190.432 312.471C189.472 305.404 189.352 297.884 190.072 289.911C190.087 289.733 190.135 289.566 190.212 289.424C190.288 289.283 190.391 289.172 190.512 289.101Z" fill="#9F4035"/>
<path d="M285.38 292.517C284.913 293.457 284.836 294.368 285.207 294.552C285.578 294.737 286.257 294.124 286.724 293.184C287.19 292.244 287.268 291.333 286.897 291.149C286.526 290.965 285.847 291.577 285.38 292.517Z" fill="#B93334"/>
<path d="M148.122 307.531C145.568 305.857 143.332 302.927 141.412 298.741C141.238 298.354 141.188 297.997 141.262 297.671C141.475 296.784 141.992 296.831 142.812 297.811C146.645 302.431 148.788 305.464 149.242 306.911C149.602 308.051 149.228 308.257 148.122 307.531Z" fill="#CF4945"/>
<path d="M143.072 316.521C135.805 309.774 130.655 304.361 127.622 300.281C126.642 298.974 126.812 298.304 128.132 298.271C128.429 298.265 128.742 298.382 129.012 298.601C133.832 302.567 138.615 307.254 143.362 312.661C143.982 313.367 144.435 314.171 144.722 315.071C145.209 316.597 145.079 317.324 144.332 317.251C143.979 317.217 143.559 316.974 143.072 316.521Z" fill="#CF4945"/>
<path d="M153.413 324.008C153.363 325.2 154.101 326.199 155.061 326.239C156.021 326.279 156.84 325.345 156.89 324.154C156.94 322.962 156.202 321.963 155.242 321.923C154.282 321.882 153.463 322.816 153.413 324.008Z" fill="#AE4538"/>
</svg>
