<svg width="400" height="400" viewBox="0 0 400 400" fill="none" xmlns="http://www.w3.org/2000/svg">
<rect width="400" height="400" rx="32" fill="#F2C2B6"/>
<path d="M98.9722 295.902C109.766 307.835 122.676 317.605 137.702 325.212C156.722 334.845 176.576 339.875 197.262 340.302C203.762 340.435 210.409 340.045 217.202 339.132C249.702 334.765 277.452 320.585 300.452 296.592C300.812 296.225 300.916 295.842 300.762 295.442" stroke="#ACCDCB" stroke-width="2"/>
<path d="M300.762 295.442C301.242 295.408 301.722 295.125 302.202 294.592C320.682 273.845 332.006 249.842 336.172 222.582C338.306 208.662 338.586 195.518 337.012 183.152C332.972 151.345 320.026 123.922 298.172 100.882C293.526 95.9818 288.602 91.4985 283.402 87.4318C256.816 66.6585 226.422 57.2685 192.222 59.2618C185.482 59.6551 178.876 60.4918 172.402 61.7718C144.936 67.2185 121.452 79.8251 101.952 99.5918C84.7523 117.012 72.8157 137.708 66.1423 161.682C64.3223 168.215 62.999 174.748 62.1723 181.282C60.4857 194.522 60.619 207.808 62.5723 221.142C66.799 250.002 78.9323 274.922 98.9723 295.902" stroke="#FEF3F0" stroke-width="2"/>
<path d="M300.762 295.442C289.489 289.595 282.572 285.832 280.012 284.152C277.425 282.452 274.995 281.328 272.722 280.782C272.069 280.622 271.512 280.388 271.052 280.082C270.545 279.735 270.045 279.385 269.552 279.032C268.779 278.472 267.982 278.032 267.162 277.712C262.809 275.998 258.455 274.208 254.102 272.342" stroke="#ABC2BC" stroke-width="2"/>
<path d="M254.102 272.342C247.516 272.262 242.202 270.045 238.162 265.692C236.682 264.092 235.689 262.155 235.182 259.882C234.696 257.688 234.452 255.462 234.452 253.202C234.446 250.535 234.442 249.165 234.442 249.092C234.309 245.278 234.179 241.462 234.052 237.642" stroke="#FABD9E" stroke-width="2"/>
<path d="M234.052 237.642C247.539 222.042 252.762 203.795 249.722 182.902" stroke="#A7847D" stroke-width="2"/>
<path d="M249.722 182.902C249.829 182.182 250.119 181.925 250.592 182.132C250.708 182.183 250.813 182.282 250.897 182.417C250.981 182.551 251.042 182.719 251.072 182.902C251.259 183.955 251.772 184.638 252.612 184.952C253.212 185.172 253.962 185.108 254.862 184.762C261.349 182.275 264.576 177.322 264.542 169.902C264.502 160.188 259.732 155.308 250.232 155.262" stroke="#FACEC3" stroke-width="2"/>
<path d="M250.232 155.262C250.712 146.115 250.695 137.225 250.182 128.592" stroke="#F4BAA1" stroke-width="2"/>
<path d="M250.182 128.592L248.882 121.072" stroke="#E7A494" stroke-width="2"/>
<path d="M248.882 121.072C256.362 116.258 260.646 109.615 261.732 101.142C262.186 97.6218 262.272 94.6285 261.992 92.1618C261.646 89.0951 260.596 86.2185 258.842 83.5318C257.656 81.7318 256.192 80.4585 254.452 79.7118C249.752 77.7118 244.772 77.2751 239.512 78.4018C236.919 78.9551 235.096 78.2518 234.042 76.2918C233.874 75.9743 233.645 75.7347 233.392 75.6118C231.586 74.7651 229.892 74.9785 228.312 76.2518C226.899 77.3918 225.739 77.1751 224.832 75.6018C224.259 74.6151 223.566 73.7451 222.752 72.9918C222.066 72.3585 221.126 71.7918 219.932 71.2918C215.906 69.6118 211.932 68.6485 208.012 68.4018C196.712 67.7018 185.889 70.0351 175.542 75.4018C172.142 77.1618 169.922 79.8851 168.882 83.5718C168.402 85.2851 167.676 86.8818 166.702 88.3618C165.022 90.9018 162.699 91.5718 159.732 90.3718C155.879 88.8185 152.169 89.0318 148.602 91.0118C143.489 93.8518 140.039 98.0651 138.252 103.652C136.852 108.045 137.169 112.398 139.202 116.712C141.176 120.898 144.446 122.725 149.012 122.192" stroke="#FDBD95" stroke-width="2"/>
<path d="M149.012 122.192L148.742 125.812" stroke="#E7A494" stroke-width="2"/>
<path d="M148.742 125.812L148.602 155.542" stroke="#F4BAA1" stroke-width="2"/>
<path d="M148.602 155.542C147.722 155.362 146.869 155.172 146.042 154.972C145.049 154.732 144.182 154.638 143.442 154.692C139.202 154.992 136.162 156.915 134.322 160.462C132.069 164.815 131.772 169.718 133.432 175.172C134.646 179.165 137.082 182.152 140.742 184.132C142.402 185.032 144.076 185.372 145.762 185.152C146.949 184.998 148.256 184.552 149.682 183.812" stroke="#FABFAB" stroke-width="2"/>
<path d="M149.682 183.812C149.189 190.825 149.616 197.708 150.962 204.462C153.362 216.508 158.792 226.945 167.252 235.772" stroke="#A7847D" stroke-width="2"/>
<path d="M167.252 235.772C166.686 242.445 166.529 248.988 166.782 255.402C166.956 259.622 166.179 262.935 164.452 265.342C162.972 267.395 161.159 268.748 159.012 269.402C154.119 270.888 150.536 272.068 148.262 272.942" stroke="#FABD9E" stroke-width="2"/>
<path d="M148.262 272.942C143.122 275.182 137.936 277.315 132.702 279.342C131.696 279.735 131.196 280.415 131.202 281.382C131.202 281.419 131.195 281.455 131.181 281.489C131.167 281.523 131.146 281.554 131.12 281.58C131.068 281.632 130.996 281.662 130.922 281.662C128.369 281.648 126.399 282.078 125.012 282.952C123.532 283.892 122.756 284.378 122.682 284.412C114.682 288.038 106.779 291.868 98.9722 295.902" stroke="#ABC2BC" stroke-width="2"/>
<path d="M172.512 197.112C174.006 196.965 175.069 197.482 175.702 198.662C175.722 198.702 175.822 199.218 176.002 200.212C176.129 200.892 176.632 201.302 177.512 201.442" stroke="#3D1B1A" stroke-width="2"/>
<path d="M177.512 201.442C177.906 207.888 179.989 213.715 183.762 218.922C186.436 222.615 189.602 225.025 193.262 226.152C200.749 228.458 207.116 227.155 212.362 222.242C214.216 220.502 215.842 218.205 217.242 215.352C218.556 212.678 219.542 210.008 220.202 207.342C220.929 204.395 221.629 202.082 222.302 200.402" stroke="#A36252" stroke-width="2"/>
<path d="M222.302 200.402C223.576 200.248 224.666 199.602 225.572 198.462C225.919 198.022 226.326 197.855 226.792 197.962C226.93 197.994 227.054 198.08 227.145 198.204C227.235 198.329 227.287 198.487 227.292 198.652L227.502 204.402C227.508 204.583 227.552 204.754 227.63 204.889C227.707 205.024 227.813 205.116 227.932 205.152C228.219 205.238 228.496 205.142 228.762 204.862" stroke="#391B1A" stroke-width="2"/>
<path d="M228.762 204.862C229.296 204.868 229.782 204.702 230.222 204.362C234.796 200.795 238.409 196.428 241.062 191.262C242.756 187.962 244.476 184.675 246.222 181.402" stroke="#A36A4F" stroke-width="2"/>
<path d="M234.052 237.642C232.499 238.555 231.316 239.705 230.502 241.092" stroke="#A3593A" stroke-width="2"/>
<path d="M230.502 241.092C221.749 247.378 212.336 250.565 202.262 250.652C192.636 250.732 183.516 248.025 174.902 242.532" stroke="#984638" stroke-width="2"/>
<path d="M174.902 242.532L167.252 235.772" stroke="#A3593A" stroke-width="2"/>
<path d="M174.902 242.532C176.336 244.945 178.139 247.012 180.312 248.732C181.846 249.938 184.079 251.465 187.012 253.312C194.632 258.098 202.799 259.128 211.512 256.402C219.479 253.902 225.809 248.798 230.502 241.092" stroke="#EB7E59" stroke-width="2"/>
<path d="M254.102 272.342C255.896 277.428 256.116 282.782 254.762 288.402C252.942 295.968 249.939 302.602 245.752 308.302C241.939 313.495 237.172 318.115 231.452 322.162C223.299 327.922 214.169 331.025 204.062 331.472C197.249 331.778 190.702 330.785 184.422 328.492C175.089 325.078 167.179 319.322 160.692 311.222C151.766 300.068 147.622 287.308 148.262 272.942" stroke="#A89679" stroke-width="2"/>
<path d="M249.722 182.902L248.472 178.152" stroke="#A46A5E" stroke-width="2"/>
<path d="M248.652 173.562C250.219 176.335 252.236 176.928 254.702 175.342C257.542 173.502 258.852 170.975 258.632 167.762C258.466 165.302 257.626 163.425 256.113 162.132C254.093 160.405 251.576 160.768 248.562 163.222" stroke="#F19A8D" stroke-width="2"/>
<path d="M250.182 128.592C243.969 130.205 237.162 130.225 229.762 128.652C225.149 127.672 218.079 126.652 208.552 125.592C203.639 125.045 199.266 124.718 195.432 124.612C190.079 124.452 185.689 124.548 182.262 124.902C175.776 125.575 169.279 126.095 162.772 126.462C160.539 126.595 158.202 126.562 155.762 126.362C153.449 126.168 151.109 125.985 148.742 125.812" stroke="#DE7654" stroke-width="2"/>
<path d="M250.232 155.262L248.562 163.222" stroke="#F19F82" stroke-width="2"/>
<path d="M248.562 163.222C249.136 166.408 249.166 169.855 248.652 173.562" stroke="#EB866B" stroke-width="2"/>
<path d="M248.652 173.562C247.539 174.875 247.479 176.405 248.472 178.152" stroke="#F19F82" stroke-width="2"/>
<path d="M248.472 178.152C247.492 179.065 246.742 180.148 246.222 181.402" stroke="#9E563C" stroke-width="2"/>
<path d="M246.222 181.402C245.542 181.208 245.076 181.395 244.822 181.962C242.929 186.348 240.742 190.578 238.262 194.652C236.676 197.258 234.306 199.898 231.152 202.572C231.052 202.66 230.921 202.708 230.784 202.708C230.647 202.708 230.512 202.66 230.402 202.572C229.996 202.238 229.546 202.015 229.052 201.902" stroke="#F0A073" stroke-width="2"/>
<path d="M229.052 201.902C229.092 201.002 229.062 200.108 228.962 199.222C228.862 198.348 228.499 197.572 227.872 196.892C223.979 192.732 219.109 190.388 213.262 189.862" stroke="#87503E" stroke-width="2"/>
<path d="M213.262 189.862C213.242 189.268 213.366 188.762 213.632 188.342" stroke="#CA6D4D" stroke-width="2"/>
<path d="M213.633 188.342C216.773 187.108 218.393 185.145 218.493 182.452C218.533 181.278 217.976 179.748 216.823 177.862C214.883 174.695 213.696 171.708 213.263 168.902C212.889 166.502 213.599 164.012 215.393 161.432" stroke="#DA7651" stroke-width="2"/>
<path d="M215.392 161.432C217.419 158.498 220.122 156.612 223.502 155.772" stroke="#CA6D4D" stroke-width="2"/>
<path d="M223.502 155.772C222.176 159.212 222.659 161.275 224.952 161.962C229.832 163.422 231.849 161.622 231.002 156.562C230.896 155.928 231.112 155.788 231.652 156.142C234.012 157.668 236.316 159.325 238.562 161.112C238.922 161.392 239.222 161.452 239.462 161.292C239.557 161.228 239.615 161.109 239.626 160.956C239.637 160.804 239.6 160.628 239.522 160.462L238.472 158.152" stroke="#8F5641" stroke-width="2"/>
<path d="M238.472 158.152C239.386 155.298 238.752 153.028 236.572 151.342C234.206 149.508 232.419 147.792 231.212 146.192" stroke="#DA7651" stroke-width="2"/>
<path d="M231.212 146.192C234.279 147.292 237.155 148.678 239.842 150.352C240.342 150.665 240.555 150.528 240.482 149.942C240.242 147.922 239.535 146.118 238.362 144.532C237.422 143.245 235.995 142.045 234.082 140.932C229.355 138.172 224.165 136.882 218.512 137.062C216.005 137.142 214.505 138.255 214.012 140.402C213.759 141.502 214.265 142.588 215.532 143.662" stroke="#824E3D" stroke-width="2"/>
<path d="M215.532 143.662C214.552 144.042 213.516 143.882 212.422 143.182C212.295 143.101 212.148 143.059 212.001 143.059C211.853 143.059 211.711 143.101 211.592 143.182C208.372 145.422 206.109 148.412 204.802 152.152" stroke="#DA7651" stroke-width="2"/>
<path d="M204.802 152.152C203.495 155.698 202.739 159.365 202.532 163.152C202.145 170.485 202.252 178.215 202.852 186.342C202.886 186.816 202.76 187.288 202.494 187.683C202.227 188.078 201.836 188.373 201.382 188.522C199.622 189.102 198.069 190.278 196.722 192.052" stroke="#CA6D4D" stroke-width="2"/>
<path d="M196.722 192.052C187.176 187.745 179.106 189.432 172.512 197.112" stroke="#8B503E" stroke-width="2"/>
<path d="M172.512 197.112C171.019 198.765 170.416 200.718 170.702 202.972C170.856 204.205 170.416 204.482 169.382 203.802C164.456 200.568 160.576 196.288 157.742 190.962C157.009 189.582 155.932 187.435 154.512 184.522C153.472 182.395 152.556 180.168 151.762 177.842" stroke="#9E563C" stroke-width="2"/>
<path d="M151.762 177.842C152.782 176.335 152.212 175.355 150.052 174.902" stroke="#F1916A" stroke-width="2"/>
<path d="M150.052 174.902C150.986 170.162 150.722 165.508 149.262 160.942" stroke="#EA7D60" stroke-width="2"/>
<path d="M149.262 160.942C149.529 158.982 149.309 157.182 148.602 155.542" stroke="#F1916A" stroke-width="2"/>
<path d="M248.882 121.072C244.589 122.158 240.299 122.752 236.012 122.852C229.672 123.012 223.342 122.825 217.022 122.292C200.636 120.905 184.219 120.265 167.772 120.372C165.479 120.385 163.306 120.315 161.252 120.162C159.092 119.995 156.929 119.825 154.762 119.652C152.596 119.478 150.679 120.325 149.012 122.192" stroke="#E77948" stroke-width="2"/>
<path d="M149.262 160.942C145.882 158.695 143.152 159.035 141.072 161.962C138.379 165.762 138.486 169.705 141.392 173.792C142.812 175.785 144.602 176.822 146.762 176.902C148.129 176.948 149.226 176.282 150.052 174.902" stroke="#EF826A" stroke-width="2"/>
<path d="M151.762 177.842C150.382 179.488 149.689 181.478 149.682 183.812" stroke="#A35B46" stroke-width="2"/>
<path d="M215.362 199.002C215.416 200.388 216.279 200.948 217.952 200.682C218.141 200.652 218.313 200.585 218.444 200.49C218.576 200.395 218.659 200.276 218.682 200.152C218.729 199.925 218.672 199.688 218.512 199.442" stroke="#F4B6A4" stroke-width="2"/>
<path d="M179.262 200.442C179.215 201.135 179.549 201.375 180.262 201.162C184.915 199.735 189.655 198.752 194.482 198.212C194.949 198.158 195.259 198.022 195.412 197.802C195.612 197.502 195.632 197.118 195.472 196.652" stroke="#F8B0A0" stroke-width="2"/>
<path d="M197.512 194.362C197.159 195.428 196.479 196.192 195.472 196.652" stroke="#905D54" stroke-width="2"/>
<path d="M195.472 196.652C189.986 197.585 184.582 198.848 179.262 200.442" stroke="#926868" stroke-width="2"/>
<path d="M179.262 200.442C178.562 200.555 177.979 200.888 177.512 201.442" stroke="#905D54" stroke-width="2"/>
<path d="M228.762 204.862C228.649 203.842 228.746 202.855 229.052 201.902" stroke="#8C6551" stroke-width="2"/>
<path d="M222.302 200.402L218.512 199.442" stroke="#8C5D54" stroke-width="2"/>
<path d="M218.512 199.442L215.362 199.002" stroke="#8A6E6C" stroke-width="2"/>
<path d="M215.362 199.002C210.389 198.575 205.659 197.182 201.172 194.822" stroke="#8C5D54" stroke-width="2"/>
<path d="M231.212 146.192C228.059 144.698 224.659 144.015 221.012 144.142C219.092 144.202 217.266 144.042 215.532 143.662" stroke="#71392E" stroke-width="2"/>
<path d="M238.472 158.152L235.722 155.902" stroke="#7E4032" stroke-width="2"/>
<path d="M235.722 155.902C235.136 153.902 233.819 152.715 231.772 152.342C230.332 152.082 228.886 151.892 227.432 151.772C225.066 151.578 223.616 151.498 223.082 151.532C220.509 151.678 218.462 152.945 216.942 155.332C215.762 157.198 215.246 159.232 215.392 161.432" stroke="#B9573E" stroke-width="2"/>
<path d="M213.632 188.342C213.906 186.775 213.272 186.268 211.732 186.822C210.119 187.395 208.746 187.832 207.612 188.132C206.252 188.492 205.552 187.968 205.512 186.562C205.439 183.648 205.232 180.772 204.892 177.932C204.379 173.725 204.102 170.862 204.062 169.342C203.949 165.075 204.089 160.872 204.482 156.732C204.549 156.032 204.692 155.352 204.912 154.692C205.526 152.865 205.489 152.018 204.802 152.152" stroke="#B9573E" stroke-width="2"/>
<path d="M213.262 189.862C208.369 189.488 204.339 191.142 201.172 194.822" stroke="#66322B" stroke-width="2"/>
<path d="M201.172 194.822C200.459 195.435 199.239 195.282 197.512 194.362" stroke="#CF7963" stroke-width="2"/>
<path d="M197.512 194.362C197.805 193.182 197.542 192.412 196.722 192.052" stroke="#6A322B" stroke-width="2"/>
<path d="M235.722 155.902C231.582 153.568 227.509 153.525 223.502 155.772" stroke="#6E372E" stroke-width="2"/>
<path d="M114.222 125.012C113.215 124.872 112.229 125.338 111.262 126.412C104.602 133.738 101.322 142.292 101.422 152.072C101.442 153.945 101.715 155.452 102.242 156.592C103.269 158.825 104.822 159.572 106.902 158.832C108.395 158.298 109.809 157.132 111.142 155.332C112.922 152.938 114.212 150.128 115.012 146.902C116.605 140.482 117.009 133.862 116.222 127.042C116.082 125.848 115.415 125.172 114.222 125.012Z" stroke="#F8D5CC" stroke-width="2"/>
<path d="M288.482 267.882C291.209 269.802 294.225 271.225 297.532 272.152C299.565 272.725 300.935 272.015 301.642 270.022C302.335 268.075 302.042 266.118 300.762 264.152C299.195 261.738 298.049 260.135 297.322 259.342C291.555 253.035 287.555 246.535 285.322 239.842C280.122 224.215 282.372 209.505 292.072 195.712C293.219 194.085 296.872 189.688 303.032 182.522C304.479 180.848 305.479 179.482 306.032 178.422C306.839 176.875 307.405 175.258 307.732 173.572C308.152 171.392 307.252 170.252 305.032 170.152C302.639 170.045 300.395 170.555 298.302 171.682C293.589 174.228 289.445 177.498 285.872 181.492C271.759 197.285 266.335 215.835 269.602 237.142C271.042 246.548 274.889 254.595 281.142 261.282C283.749 264.068 286.195 266.268 288.482 267.882Z" stroke="#FCBF99" stroke-width="2"/>
<path d="M117.692 172.132C116.652 171.218 115.589 171.198 114.502 172.072C111.276 174.678 108.546 177.638 106.312 180.952C98.0456 193.245 92.6756 206.708 90.2023 221.342C89.2156 227.155 89.0056 232.462 89.5723 237.262C89.7123 238.422 90.0723 239.248 90.6523 239.742C91.659 240.602 92.759 240.302 93.9523 238.842C94.6323 238.002 95.2856 236.375 95.9123 233.962C96.179 232.942 96.5123 231.228 96.9123 228.822C98.8456 217.188 102.149 206.985 106.822 198.212C110.562 191.192 114.269 184.148 117.942 177.082C119.069 174.915 118.986 173.265 117.692 172.132Z" stroke="#FCBF9A" stroke-width="2"/>
<path d="M128.572 209.092C126.792 209.152 125.252 209.902 123.952 211.342C120.172 215.528 117.026 220.032 114.512 224.852C112.326 229.038 110.266 234.088 108.332 240.002C105.019 250.115 103.479 260.568 103.712 271.362C103.739 272.808 103.876 273.988 104.122 274.902C104.429 276.055 104.872 277.165 105.452 278.232C106.386 279.932 107.736 280.385 109.502 279.592C112.776 278.125 115.489 275.695 117.642 272.302C129.022 254.375 133.729 234.742 131.762 213.402C131.622 211.908 130.856 210.575 129.462 209.402C129.212 209.19 128.894 209.079 128.572 209.092Z" stroke="#FCBF99" stroke-width="2"/>
<path d="M199.248 83.2963C199.328 83.1807 199.359 83.0381 199.334 82.8998C199.309 82.7615 199.23 82.6389 199.114 82.5589L199.081 82.5361C198.966 82.4561 198.823 82.4252 198.685 82.4504C198.546 82.4755 198.424 82.5545 198.344 82.6701L187.516 98.3073C187.436 98.4228 187.405 98.5654 187.43 98.7037C187.456 98.842 187.535 98.9647 187.65 99.0447L187.683 99.0675C187.799 99.1475 187.941 99.1783 188.079 99.1532C188.218 99.1281 188.34 99.049 188.42 98.9335L199.248 83.2963Z" stroke="#EF8140" stroke-width="2"/>
<path d="M193.994 101.956C194.095 102.023 194.341 101.868 194.721 101.501C195.1 101.134 195.604 100.561 196.204 99.8145C196.804 99.0685 197.489 98.1642 198.219 97.1532C198.949 96.1422 199.709 95.0443 200.458 93.9223C201.206 92.8002 201.927 91.676 202.58 90.6137C203.233 89.5514 203.805 88.5719 204.263 87.7311C204.721 86.8902 205.056 86.2046 205.25 85.7133C205.443 85.222 205.491 84.9346 205.391 84.8676C205.29 84.8005 205.043 84.955 204.664 85.3225C204.285 85.6899 203.781 86.263 203.181 87.009C202.58 87.755 201.896 88.6593 201.166 89.6703C200.436 90.6813 199.675 91.7792 198.927 92.9013C198.179 94.0233 197.457 95.1476 196.805 96.2099C196.152 97.2721 195.58 98.2517 195.122 99.0925C194.664 99.9333 194.328 100.619 194.135 101.11C193.941 101.602 193.894 101.889 193.994 101.956Z" stroke="#EF8140" stroke-width="2"/>
<path d="M247.975 88.8059C248 88.7749 248.018 88.7394 248.028 88.7014C248.039 88.6635 248.042 88.6238 248.037 88.5847C248.032 88.5456 248.02 88.5078 248.001 88.4735C247.981 88.4391 247.955 88.409 247.924 88.3847L247.704 88.212C247.673 88.1877 247.638 88.1697 247.6 88.1591C247.562 88.1485 247.522 88.1454 247.483 88.1502C247.444 88.1549 247.406 88.1673 247.372 88.1866C247.337 88.206 247.307 88.2319 247.283 88.2629L235.51 103.278C235.485 103.309 235.467 103.344 235.457 103.382C235.446 103.42 235.443 103.46 235.448 103.499C235.453 103.538 235.465 103.576 235.484 103.61C235.504 103.644 235.53 103.675 235.561 103.699L235.781 103.872C235.812 103.896 235.847 103.914 235.885 103.924C235.923 103.935 235.963 103.938 236.002 103.933C236.041 103.929 236.079 103.916 236.113 103.897C236.148 103.878 236.178 103.852 236.202 103.821L247.975 88.8059Z" stroke="#EF8140" stroke-width="2"/>
<path d="M250.3 94.0989C250.339 94.042 250.354 93.9719 250.341 93.9042C250.329 93.8364 250.29 93.7764 250.233 93.7375L250.068 93.6245C250.011 93.5855 249.941 93.5707 249.873 93.5834C249.805 93.5961 249.745 93.6352 249.706 93.6921L244.384 101.465C244.345 101.522 244.331 101.592 244.343 101.659C244.356 101.727 244.395 101.787 244.452 101.826L244.617 101.939C244.674 101.978 244.744 101.993 244.812 101.98C244.879 101.967 244.939 101.928 244.978 101.871L250.3 94.0989Z" stroke="#EF8140" stroke-width="2"/>
<path d="M165.185 102.264C165.318 102.374 165.781 102.074 166.473 101.429C167.164 100.784 168.028 99.8477 168.873 98.8261C169.718 97.8043 170.476 96.7807 170.98 95.9805C171.484 95.1803 171.692 94.6691 171.559 94.5592C171.426 94.4494 170.963 94.75 170.272 95.3948C169.58 96.0396 168.717 96.9758 167.871 97.9975C167.026 99.0192 166.268 100.043 165.764 100.843C165.261 101.643 165.052 102.154 165.185 102.264Z" stroke="#EF8140" stroke-width="2"/>
<path d="M186.582 136.992C179.722 135.685 173.472 136.815 167.832 140.382C166.046 141.508 164.686 142.722 163.752 144.022C162.666 145.542 161.919 147.258 161.512 149.172C161.226 150.518 161.689 150.865 162.902 150.212C164.262 149.472 165.666 148.568 167.112 147.502C168.966 146.128 170.362 145.242 171.302 144.842C173.802 143.775 176.456 143.295 179.262 143.402C179.876 143.422 181.252 143.365 183.392 143.232C185.206 143.112 186.486 142.725 187.232 142.072C188.506 140.958 188.546 139.438 187.352 137.512C187.27 137.379 187.16 137.265 187.027 137.175C186.895 137.086 186.743 137.023 186.582 136.992Z" stroke="#854E3F" stroke-width="2"/>
<path d="M165.302 158.652C164.335 159.885 164.359 160.768 165.372 161.302" stroke="#875242" stroke-width="2"/>
<path d="M165.372 161.302C167.752 162.802 170.165 162.908 172.612 161.622" stroke="#E6A88D" stroke-width="2"/>
<path d="M172.612 161.622C173.946 162.262 175.302 162.422 176.682 162.102C177.996 161.795 178.926 160.992 179.472 159.692C180.099 158.218 180.266 156.622 179.972 154.902" stroke="#875242" stroke-width="2"/>
<path d="M179.972 154.902C182.766 154.695 185.409 155.772 187.902 158.132C188.576 158.765 188.782 158.638 188.522 157.752C187.582 154.545 185.746 152.512 183.012 151.652C180.806 150.958 178.049 150.832 174.742 151.272C170.076 151.898 166.929 154.358 165.302 158.652" stroke="#B86146" stroke-width="2"/>
<path d="M179.972 154.902C176.846 152.968 174.059 153.182 171.612 155.542C171.372 155.775 171.092 155.938 170.772 156.032C169.572 156.392 168.632 156.912 167.952 157.592C167.132 158.405 166.249 158.758 165.302 158.652" stroke="#532728" stroke-width="2"/>
<path d="M172.612 161.622C172.019 160.375 171.715 159.235 171.702 158.202C171.675 157.008 171.175 156.792 170.202 157.552L165.372 161.302" stroke="#816E6F" stroke-width="2"/>
<path d="M242.072 167.592C239.025 164.792 235.712 163.328 232.132 163.202C229.412 163.115 226.805 163.482 224.312 164.302C221.705 165.155 219.502 166.762 217.702 169.122C216.022 171.335 216.125 173.595 218.012 175.902C222.599 181.522 228.172 182.858 234.732 179.912C237.679 178.592 240.242 176.795 242.422 174.522C243.522 173.382 244.045 172.275 243.992 171.202C243.932 169.908 243.292 168.705 242.072 167.592Z" stroke="#E57B5C" stroke-width="2"/>
<path d="M180.652 166.732C178.206 164.938 175.159 164.162 171.512 164.402C166.639 164.722 162.616 166.198 159.442 168.832C157.109 170.758 156.652 173.012 158.072 175.592C159.872 178.852 162.519 181.438 166.012 183.352C167.792 184.332 169.706 184.658 171.752 184.332C175.672 183.712 178.886 182.042 181.392 179.322C183.166 177.395 184.079 175.372 184.132 173.252C184.206 170.652 183.046 168.478 180.652 166.732Z" stroke="#EA7D60" stroke-width="2"/>
<path d="M188.912 205.412C188.565 210.218 188.702 213.362 189.322 214.842C192.175 221.648 196.612 224.282 202.632 222.742C206.299 221.808 209.015 220.028 210.782 217.402C212.749 214.475 213.165 210.905 212.032 206.692" stroke="#8D5B58" stroke-width="2"/>
<path d="M212.032 206.692C213.446 205.492 214.516 204.152 215.242 202.672C215.268 202.618 215.281 202.559 215.28 202.499C215.279 202.44 215.264 202.381 215.237 202.328C215.21 202.275 215.171 202.229 215.124 202.193C215.076 202.157 215.021 202.133 214.962 202.122C205.656 200.388 196.326 200.218 186.972 201.612C186.926 201.618 186.499 201.672 185.692 201.772C184.126 201.965 183.882 202.405 184.962 203.092C185.182 203.225 185.562 203.388 186.102 203.582C187.182 203.962 188.119 204.572 188.912 205.412" stroke="#F8CFC3" stroke-width="2"/>
<path d="M212.032 206.692C204.625 204.725 196.919 204.298 188.912 205.412" stroke="#90858F" stroke-width="2"/>
<path d="M300.762 295.442C289.489 289.595 282.572 285.832 280.012 284.152C277.426 282.452 274.996 281.328 272.722 280.782C272.069 280.622 271.512 280.388 271.052 280.082C270.546 279.735 270.046 279.385 269.552 279.032C268.779 278.472 267.982 278.032 267.162 277.712C262.809 275.998 258.456 274.208 254.102 272.342C247.516 272.262 242.202 270.045 238.162 265.692C236.682 264.092 235.689 262.155 235.182 259.882C234.696 257.688 234.452 255.462 234.452 253.202C234.446 250.535 234.442 249.165 234.442 249.092C234.309 245.278 234.179 241.462 234.052 237.642C247.539 222.042 252.762 203.795 249.722 182.902C249.829 182.182 250.119 181.925 250.592 182.132C250.708 182.184 250.813 182.282 250.897 182.417C250.982 182.551 251.042 182.719 251.072 182.902C251.259 183.955 251.772 184.638 252.612 184.952C253.212 185.172 253.962 185.108 254.862 184.762C261.349 182.275 264.576 177.322 264.542 169.902C264.502 160.188 259.732 155.308 250.232 155.262C250.712 146.115 250.696 137.225 250.182 128.592L248.882 121.072C256.362 116.258 260.646 109.615 261.732 101.142C262.186 97.6218 262.272 94.6285 261.992 92.1618C261.646 89.0951 260.596 86.2185 258.842 83.5318C257.656 81.7318 256.192 80.4585 254.452 79.7118C249.752 77.7118 244.772 77.2751 239.512 78.4018C236.919 78.9551 235.096 78.2518 234.042 76.2918C233.874 75.9743 233.645 75.7347 233.392 75.6118C231.586 74.7651 229.892 74.9785 228.312 76.2518C226.899 77.3918 225.739 77.1751 224.832 75.6018C224.259 74.6151 223.566 73.7451 222.752 72.9918C222.066 72.3585 221.126 71.7918 219.932 71.2918C215.906 69.6118 211.932 68.6485 208.012 68.4018C196.712 67.7018 185.889 70.0351 175.542 75.4018C172.142 77.1618 169.922 79.8851 168.882 83.5718C168.402 85.2851 167.676 86.8818 166.702 88.3618C165.022 90.9018 162.699 91.5718 159.732 90.3718C155.879 88.8185 152.169 89.0318 148.602 91.0118C143.489 93.8518 140.039 98.0651 138.252 103.652C136.852 108.045 137.169 112.398 139.202 116.712C141.176 120.898 144.446 122.725 149.012 122.192L148.742 125.812L148.602 155.542C147.722 155.362 146.869 155.172 146.042 154.972C145.049 154.732 144.182 154.638 143.442 154.692C139.202 154.992 136.162 156.915 134.322 160.462C132.069 164.815 131.772 169.718 133.432 175.172C134.646 179.165 137.082 182.152 140.742 184.132C142.402 185.032 144.076 185.372 145.762 185.152C146.949 184.998 148.256 184.552 149.682 183.812C149.189 190.825 149.616 197.708 150.962 204.462C153.362 216.508 158.792 226.945 167.252 235.772C166.686 242.445 166.529 248.988 166.782 255.402C166.956 259.622 166.179 262.935 164.452 265.342C162.972 267.395 161.159 268.748 159.012 269.402C154.119 270.888 150.536 272.068 148.262 272.942C143.122 275.182 137.936 277.315 132.702 279.342C131.696 279.735 131.196 280.415 131.202 281.382C131.202 281.419 131.195 281.455 131.181 281.489C131.167 281.523 131.146 281.554 131.12 281.58C131.068 281.632 130.997 281.662 130.922 281.662C128.369 281.648 126.399 282.078 125.012 282.952C123.532 283.892 122.756 284.378 122.682 284.412C114.682 288.038 106.779 291.868 98.9723 295.902C78.9323 274.922 66.799 250.002 62.5723 221.142C60.619 207.808 60.4857 194.522 62.1723 181.282C62.999 174.748 64.3223 168.215 66.1423 161.682C72.8157 137.708 84.7523 117.012 101.952 99.5918C121.452 79.8251 144.936 67.2185 172.402 61.7718C178.876 60.4918 185.482 59.6551 192.222 59.2618C226.422 57.2685 256.816 66.6585 283.402 87.4318C288.602 91.4985 293.526 95.9818 298.172 100.882C320.026 123.922 332.972 151.345 337.012 183.152C338.586 195.518 338.306 208.662 336.172 222.582C332.006 249.842 320.682 273.845 302.202 294.592C301.722 295.125 301.242 295.408 300.762 295.442ZM114.222 125.012C113.216 124.872 112.229 125.338 111.262 126.412C104.602 133.738 101.322 142.292 101.422 152.072C101.442 153.945 101.716 155.452 102.242 156.592C103.269 158.825 104.822 159.572 106.902 158.832C108.396 158.298 109.809 157.132 111.142 155.332C112.922 152.938 114.212 150.128 115.012 146.902C116.606 140.482 117.009 133.862 116.222 127.042C116.082 125.848 115.416 125.172 114.222 125.012ZM288.482 267.882C291.209 269.802 294.226 271.225 297.532 272.152C299.566 272.725 300.936 272.015 301.642 270.022C302.336 268.075 302.042 266.118 300.762 264.152C299.196 261.738 298.049 260.135 297.322 259.342C291.556 253.035 287.556 246.535 285.322 239.842C280.122 224.215 282.372 209.505 292.072 195.712C293.219 194.085 296.872 189.688 303.032 182.522C304.479 180.848 305.479 179.482 306.032 178.422C306.839 176.875 307.406 175.258 307.732 173.572C308.152 171.392 307.252 170.252 305.032 170.152C302.639 170.045 300.396 170.555 298.302 171.682C293.589 174.228 289.446 177.498 285.872 181.492C271.759 197.285 266.336 215.835 269.602 237.142C271.042 246.548 274.889 254.595 281.142 261.282C283.749 264.068 286.196 266.268 288.482 267.882ZM117.692 172.132C116.652 171.218 115.589 171.198 114.502 172.072C111.276 174.678 108.546 177.638 106.312 180.952C98.0457 193.245 92.6757 206.708 90.2023 221.342C89.2157 227.155 89.0057 232.462 89.5723 237.262C89.7123 238.422 90.0723 239.248 90.6523 239.742C91.659 240.602 92.759 240.302 93.9523 238.842C94.6323 238.002 95.2857 236.375 95.9123 233.962C96.179 232.942 96.5123 231.228 96.9123 228.822C98.8457 217.188 102.149 206.985 106.822 198.212C110.562 191.192 114.269 184.148 117.942 177.082C119.069 174.915 118.986 173.265 117.692 172.132ZM128.572 209.092C126.792 209.152 125.252 209.902 123.952 211.342C120.172 215.528 117.026 220.032 114.512 224.852C112.326 229.038 110.266 234.088 108.332 240.002C105.019 250.115 103.479 260.568 103.712 271.362C103.739 272.808 103.876 273.988 104.122 274.902C104.429 276.055 104.872 277.165 105.452 278.232C106.386 279.932 107.736 280.385 109.502 279.592C112.776 278.125 115.489 275.695 117.642 272.302C129.022 254.375 133.729 234.742 131.762 213.402C131.622 211.908 130.856 210.575 129.462 209.402C129.211 209.19 128.894 209.079 128.572 209.092Z" fill="#FDE8E1"/>
<path d="M248.882 121.072C244.589 122.158 240.299 122.752 236.012 122.852C229.672 123.012 223.342 122.825 217.022 122.292C200.636 120.905 184.219 120.265 167.772 120.372C165.479 120.385 163.306 120.315 161.252 120.162C159.092 119.995 156.929 119.825 154.762 119.652C152.596 119.478 150.679 120.325 149.012 122.192C144.446 122.725 141.176 120.898 139.202 116.712C137.169 112.398 136.852 108.045 138.252 103.652C140.039 98.0651 143.489 93.8518 148.602 91.0118C152.169 89.0318 155.879 88.8185 159.732 90.3718C162.699 91.5718 165.022 90.9018 166.702 88.3618C167.676 86.8818 168.402 85.2851 168.882 83.5718C169.922 79.8851 172.142 77.1618 175.542 75.4018C185.889 70.0351 196.712 67.7018 208.012 68.4018C211.932 68.6485 215.906 69.6118 219.932 71.2918C221.126 71.7918 222.066 72.3585 222.752 72.9918C223.566 73.7451 224.259 74.6151 224.832 75.6018C225.739 77.1751 226.899 77.3918 228.312 76.2518C229.892 74.9785 231.586 74.7651 233.392 75.6118C233.645 75.7347 233.874 75.9743 234.042 76.2918C235.096 78.2518 236.919 78.9551 239.512 78.4018C244.772 77.2751 249.752 77.7118 254.452 79.7118C256.192 80.4585 257.656 81.7318 258.842 83.5318C260.596 86.2185 261.646 89.0951 261.992 92.1618C262.272 94.6285 262.186 97.6218 261.732 101.142C260.646 109.615 256.362 116.258 248.882 121.072ZM199.248 83.2963C199.328 83.1807 199.359 83.0381 199.334 82.8998C199.309 82.7616 199.23 82.6389 199.114 82.5589L199.081 82.5361C198.966 82.4561 198.823 82.4253 198.685 82.4504C198.547 82.4755 198.424 82.5546 198.344 82.6701L187.516 98.3073C187.436 98.4229 187.405 98.5655 187.431 98.7037C187.456 98.842 187.535 98.9647 187.65 99.0447L187.683 99.0675C187.799 99.1475 187.941 99.1783 188.08 99.1532C188.218 99.1281 188.341 99.049 188.421 98.9335L199.248 83.2963ZM193.994 101.956C194.094 102.023 194.341 101.869 194.721 101.501C195.1 101.134 195.604 100.561 196.204 99.8146C196.804 99.0686 197.489 98.1643 198.219 97.1533C198.949 96.1423 199.709 95.0444 200.458 93.9223C201.206 92.8003 201.927 91.676 202.58 90.6137C203.233 89.5514 203.805 88.5719 204.263 87.7311C204.721 86.8903 205.056 86.2046 205.25 85.7133C205.443 85.222 205.491 84.9346 205.391 84.8676C205.29 84.8005 205.043 84.9551 204.664 85.3225C204.285 85.6899 203.781 86.263 203.18 87.009C202.58 87.755 201.896 88.6593 201.166 89.6703C200.436 90.6813 199.675 91.7792 198.927 92.9013C198.179 94.0233 197.457 95.1476 196.805 96.2099C196.152 97.2722 195.58 98.2517 195.122 99.0925C194.664 99.9333 194.328 100.619 194.135 101.11C193.941 101.602 193.893 101.889 193.994 101.956ZM247.975 88.8059C247.999 88.7749 248.017 88.7394 248.028 88.7015C248.039 88.6635 248.042 88.6238 248.037 88.5847C248.032 88.5456 248.02 88.5078 248 88.4735C247.981 88.4392 247.955 88.409 247.924 88.3847L247.704 88.212C247.673 88.1877 247.637 88.1697 247.599 88.1591C247.561 88.1485 247.522 88.1455 247.483 88.1502C247.444 88.1549 247.406 88.1673 247.371 88.1867C247.337 88.206 247.307 88.2319 247.283 88.2629L235.509 103.278C235.485 103.309 235.467 103.344 235.457 103.382C235.446 103.42 235.443 103.46 235.448 103.499C235.453 103.538 235.465 103.576 235.484 103.61C235.504 103.644 235.529 103.675 235.561 103.699L235.781 103.872C235.812 103.896 235.847 103.914 235.885 103.924C235.923 103.935 235.963 103.938 236.002 103.933C236.041 103.929 236.079 103.916 236.113 103.897C236.147 103.878 236.178 103.852 236.202 103.821L247.975 88.8059ZM250.3 94.0989C250.339 94.042 250.354 93.972 250.341 93.9042C250.329 93.8364 250.29 93.7765 250.233 93.7375L250.068 93.6245C250.011 93.5855 249.941 93.5708 249.873 93.5835C249.805 93.5961 249.745 93.6352 249.706 93.6921L244.384 101.465C244.345 101.522 244.331 101.592 244.343 101.659C244.356 101.727 244.395 101.787 244.452 101.826L244.617 101.939C244.674 101.978 244.744 101.993 244.812 101.98C244.879 101.967 244.939 101.928 244.978 101.871L250.3 94.0989ZM165.185 102.264C165.318 102.374 165.781 102.074 166.473 101.429C167.165 100.784 168.028 99.8478 168.873 98.8261C169.718 97.8043 170.476 96.7808 170.98 95.9806C171.484 95.1804 171.692 94.6691 171.559 94.5592C171.426 94.4494 170.963 94.75 170.272 95.3948C169.58 96.0396 168.717 96.9758 167.872 97.9975C167.026 99.0193 166.268 100.043 165.765 100.843C165.261 101.643 165.052 102.155 165.185 102.264Z" fill="#FC9149"/>
<path d="M199.114 82.5589L199.081 82.5361C198.841 82.3695 198.51 82.4295 198.344 82.6701L187.516 98.3073C187.349 98.5479 187.409 98.8781 187.65 99.0447L187.683 99.0675C187.924 99.2342 188.254 99.1741 188.42 98.9335L199.248 83.2963C199.415 83.0557 199.355 82.7255 199.114 82.5589Z" fill="#E27136"/>
<path d="M198.927 92.9013C195.78 97.6201 193.571 101.674 193.994 101.956C194.417 102.238 197.31 98.641 200.458 93.9222C203.605 89.2034 205.813 85.1495 205.39 84.8676C204.968 84.5857 202.074 88.1825 198.927 92.9013Z" fill="#E27136"/>
<path d="M247.924 88.3847L247.704 88.212C247.573 88.1097 247.385 88.1326 247.283 88.2629L235.51 103.278C235.407 103.408 235.43 103.597 235.561 103.699L235.781 103.872C235.911 103.974 236.1 103.951 236.202 103.821L247.975 88.8059C248.077 88.6755 248.055 88.487 247.924 88.3847Z" fill="#E27136"/>
<path d="M250.233 93.7375L250.068 93.6245C249.949 93.5434 249.787 93.5736 249.706 93.6921L244.384 101.465C244.303 101.583 244.333 101.745 244.452 101.826L244.617 101.939C244.735 102.02 244.897 101.99 244.978 101.871L250.3 94.0989C250.381 93.9804 250.351 93.8186 250.233 93.7375Z" fill="#E27136"/>
<path d="M167.871 97.9974C166.111 100.125 164.908 102.035 165.185 102.264C165.462 102.493 167.113 100.954 168.873 98.8261C170.633 96.6984 171.836 94.788 171.559 94.5592C171.283 94.3304 169.631 95.8697 167.871 97.9974Z" fill="#E27136"/>
<path d="M248.882 121.072L250.182 128.592C243.969 130.205 237.162 130.225 229.762 128.652C225.149 127.672 218.079 126.652 208.552 125.592C203.639 125.045 199.266 124.718 195.432 124.612C190.079 124.452 185.689 124.548 182.262 124.902C175.776 125.575 169.279 126.095 162.772 126.462C160.539 126.595 158.202 126.562 155.762 126.362C153.449 126.168 151.109 125.985 148.742 125.812L149.012 122.192C150.679 120.325 152.596 119.478 154.762 119.652C156.929 119.825 159.092 119.995 161.252 120.162C163.306 120.315 165.479 120.385 167.772 120.372C184.219 120.265 200.636 120.905 217.022 122.292C223.342 122.825 229.672 123.012 236.012 122.852C240.299 122.752 244.589 122.158 248.882 121.072Z" fill="#D16047"/>
<path d="M250.182 128.592C250.695 137.225 250.712 146.115 250.232 155.262L248.562 163.222C249.135 166.408 249.165 169.855 248.652 173.562C247.539 174.875 247.479 176.405 248.472 178.152C247.492 179.065 246.742 180.148 246.222 181.402C245.542 181.208 245.075 181.395 244.822 181.962C242.929 186.348 240.742 190.578 238.262 194.652C236.675 197.258 234.305 199.898 231.152 202.572C231.051 202.66 230.921 202.708 230.784 202.708C230.647 202.708 230.512 202.66 230.402 202.572C229.995 202.238 229.545 202.015 229.052 201.902C229.092 201.002 229.062 200.108 228.962 199.222C228.862 198.348 228.499 197.572 227.872 196.892C223.979 192.732 219.109 190.388 213.262 189.862C213.242 189.268 213.365 188.762 213.632 188.342C216.772 187.108 218.392 185.145 218.492 182.452C218.532 181.278 217.975 179.748 216.822 177.862C214.882 174.695 213.695 171.708 213.262 168.902C212.889 166.502 213.599 164.012 215.392 161.432C217.419 158.498 220.122 156.612 223.502 155.772C222.175 159.212 222.659 161.275 224.952 161.962C229.832 163.422 231.849 161.622 231.002 156.562C230.895 155.928 231.112 155.788 231.652 156.142C234.012 157.668 236.315 159.325 238.562 161.112C238.922 161.392 239.222 161.452 239.462 161.292C239.557 161.228 239.615 161.109 239.626 160.956C239.637 160.804 239.6 160.628 239.522 160.462L238.472 158.152C239.385 155.298 238.752 153.028 236.572 151.342C234.205 149.508 232.419 147.792 231.212 146.192C234.279 147.292 237.155 148.678 239.842 150.352C240.342 150.665 240.555 150.528 240.482 149.942C240.242 147.922 239.535 146.118 238.362 144.532C237.422 143.245 235.995 142.045 234.082 140.932C229.355 138.172 224.165 136.882 218.512 137.062C216.005 137.142 214.505 138.255 214.012 140.402C213.759 141.502 214.265 142.588 215.532 143.662C214.552 144.042 213.515 143.882 212.422 143.182C212.294 143.101 212.148 143.059 212.001 143.059C211.853 143.059 211.711 143.101 211.592 143.182C208.372 145.422 206.109 148.412 204.802 152.152C203.495 155.698 202.739 159.365 202.532 163.152C202.145 170.485 202.252 178.215 202.852 186.342C202.886 186.816 202.76 187.288 202.494 187.683C202.227 188.078 201.836 188.373 201.382 188.522C199.622 189.102 198.069 190.278 196.722 192.052C187.175 187.745 179.105 189.432 172.512 197.112C171.019 198.765 170.415 200.718 170.702 202.972C170.855 204.205 170.415 204.482 169.382 203.802C164.455 200.568 160.575 196.288 157.742 190.962C157.009 189.582 155.932 187.435 154.512 184.522C153.472 182.395 152.555 180.168 151.762 177.842C152.782 176.335 152.212 175.355 150.052 174.902C150.985 170.162 150.722 165.508 149.262 160.942C149.529 158.982 149.309 157.182 148.602 155.542L148.742 125.812C151.109 125.985 153.449 126.168 155.762 126.362C158.202 126.562 160.539 126.595 162.772 126.462C169.279 126.095 175.775 125.575 182.262 124.902C185.689 124.548 190.079 124.452 195.432 124.612C199.265 124.718 203.639 125.045 208.552 125.592C218.079 126.652 225.149 127.672 229.762 128.652C237.162 130.225 243.969 130.205 250.182 128.592ZM186.582 136.992C179.722 135.685 173.472 136.815 167.832 140.382C166.045 141.508 164.685 142.722 163.752 144.022C162.665 145.542 161.919 147.258 161.512 149.172C161.225 150.518 161.689 150.865 162.902 150.212C164.262 149.472 165.665 148.568 167.112 147.502C168.965 146.128 170.362 145.242 171.302 144.842C173.802 143.775 176.455 143.295 179.262 143.402C179.875 143.422 181.252 143.365 183.392 143.232C185.205 143.112 186.485 142.725 187.232 142.072C188.505 140.958 188.545 139.438 187.352 137.512C187.27 137.379 187.159 137.265 187.027 137.175C186.894 137.086 186.743 137.023 186.582 136.992ZM165.302 158.652C164.335 159.885 164.359 160.768 165.372 161.302C167.752 162.802 170.165 162.908 172.612 161.622C173.945 162.262 175.302 162.422 176.682 162.102C177.995 161.795 178.925 160.992 179.472 159.692C180.099 158.218 180.265 156.622 179.972 154.902C182.765 154.695 185.409 155.772 187.902 158.132C188.575 158.765 188.782 158.638 188.522 157.752C187.582 154.545 185.745 152.512 183.012 151.652C180.805 150.958 178.049 150.832 174.742 151.272C170.075 151.898 166.929 154.358 165.302 158.652ZM242.072 167.592C239.025 164.792 235.712 163.328 232.132 163.202C229.412 163.115 226.805 163.482 224.312 164.302C221.705 165.155 219.502 166.762 217.702 169.122C216.022 171.335 216.125 173.595 218.012 175.902C222.599 181.522 228.172 182.858 234.732 179.912C237.679 178.592 240.242 176.795 242.422 174.522C243.522 173.382 244.045 172.275 243.992 171.202C243.932 169.908 243.292 168.705 242.072 167.592ZM180.652 166.732C178.205 164.938 175.159 164.162 171.512 164.402C166.639 164.722 162.615 166.198 159.442 168.832C157.109 170.758 156.652 173.012 158.072 175.592C159.872 178.852 162.519 181.438 166.012 183.352C167.792 184.332 169.705 184.658 171.752 184.332C175.672 183.712 178.885 182.042 181.392 179.322C183.165 177.395 184.079 175.372 184.132 173.252C184.205 170.652 183.045 168.478 180.652 166.732Z" fill="#EB8B60"/>
<path d="M114.222 125.012C115.415 125.172 116.082 125.848 116.222 127.042C117.009 133.862 116.605 140.482 115.012 146.902C114.212 150.128 112.922 152.938 111.142 155.332C109.809 157.132 108.395 158.298 106.902 158.832C104.822 159.572 103.269 158.825 102.242 156.592C101.715 155.452 101.442 153.945 101.422 152.072C101.322 142.292 104.602 133.738 111.262 126.412C112.229 125.338 113.215 124.872 114.222 125.012Z" fill="#F2C2B6"/>
<path d="M187.352 137.512C188.546 139.438 188.506 140.958 187.232 142.072C186.486 142.725 185.206 143.112 183.392 143.232C181.252 143.365 179.876 143.422 179.262 143.402C176.456 143.295 173.802 143.775 171.302 144.842C170.362 145.242 168.966 146.128 167.112 147.502C165.666 148.568 164.262 149.472 162.902 150.212C161.689 150.865 161.226 150.518 161.512 149.172C161.919 147.258 162.666 145.542 163.752 144.022C164.686 142.722 166.046 141.508 167.832 140.382C173.472 136.815 179.722 135.685 186.582 136.992C186.743 137.023 186.895 137.086 187.027 137.175C187.16 137.265 187.27 137.379 187.352 137.512Z" fill="#1E111E"/>
<path d="M231.212 146.192C228.059 144.698 224.659 144.015 221.012 144.142C219.092 144.202 217.265 144.042 215.532 143.662C214.265 142.588 213.759 141.502 214.012 140.402C214.505 138.255 216.005 137.142 218.512 137.062C224.165 136.882 229.355 138.172 234.082 140.932C235.995 142.045 237.422 143.245 238.362 144.532C239.535 146.118 240.242 147.922 240.482 149.942C240.555 150.528 240.342 150.665 239.842 150.352C237.155 148.678 234.279 147.292 231.212 146.192Z" fill="#18111A"/>
<path d="M215.532 143.662C217.266 144.042 219.092 144.202 221.012 144.142C224.659 144.015 228.059 144.698 231.212 146.192C232.419 147.792 234.206 149.508 236.572 151.342C238.752 153.028 239.386 155.298 238.472 158.152L235.722 155.902C235.136 153.902 233.819 152.715 231.772 152.342C230.332 152.082 228.886 151.892 227.432 151.772C225.066 151.578 223.616 151.498 223.082 151.532C220.509 151.678 218.462 152.945 216.942 155.332C215.762 157.198 215.246 159.232 215.392 161.432C213.599 164.012 212.889 166.502 213.262 168.902C213.696 171.708 214.882 174.695 216.822 177.862C217.976 179.748 218.532 181.278 218.492 182.452C218.392 185.145 216.772 187.108 213.632 188.342C213.906 186.775 213.272 186.268 211.732 186.822C210.119 187.395 208.746 187.832 207.612 188.132C206.252 188.492 205.552 187.968 205.512 186.562C205.439 183.648 205.232 180.772 204.892 177.932C204.379 173.725 204.102 170.862 204.062 169.342C203.949 165.075 204.089 160.872 204.482 156.732C204.549 156.032 204.692 155.352 204.912 154.692C205.526 152.865 205.489 152.018 204.802 152.152C206.109 148.412 208.372 145.422 211.592 143.182C211.712 143.101 211.854 143.059 212.001 143.059C212.148 143.059 212.295 143.101 212.422 143.182C213.516 143.882 214.552 144.042 215.532 143.662Z" fill="#C96042"/>
<path d="M179.972 154.902C176.846 152.968 174.059 153.182 171.612 155.542C171.372 155.775 171.092 155.938 170.772 156.032C169.572 156.392 168.632 156.912 167.952 157.592C167.132 158.405 166.249 158.758 165.302 158.652C166.929 154.358 170.076 151.898 174.742 151.272C178.049 150.832 180.806 150.958 183.012 151.652C185.746 152.512 187.582 154.545 188.522 157.752C188.782 158.638 188.576 158.765 187.902 158.132C185.409 155.772 182.766 154.695 179.972 154.902Z" fill="#84362C"/>
<path d="M235.722 155.902C231.582 153.568 227.509 153.525 223.502 155.772C220.122 156.612 217.419 158.498 215.392 161.432C215.246 159.232 215.762 157.198 216.942 155.332C218.462 152.945 220.509 151.678 223.082 151.532C223.616 151.498 225.066 151.578 227.432 151.772C228.886 151.892 230.332 152.082 231.772 152.342C233.819 152.715 235.136 153.902 235.722 155.902Z" fill="#A94E39"/>
<path d="M204.802 152.152C205.489 152.018 205.525 152.865 204.912 154.692C204.692 155.352 204.549 156.032 204.482 156.732C204.089 160.872 203.949 165.075 204.062 169.342C204.102 170.862 204.379 173.725 204.892 177.932C205.232 180.772 205.439 183.648 205.512 186.562C205.552 187.968 206.252 188.492 207.612 188.132C208.746 187.832 210.119 187.395 211.732 186.822C213.272 186.268 213.905 186.775 213.632 188.342C213.365 188.762 213.242 189.268 213.262 189.862C208.369 189.488 204.339 191.142 201.172 194.822C200.459 195.435 199.239 195.282 197.512 194.362C197.805 193.182 197.542 192.412 196.722 192.052C198.069 190.278 199.622 189.102 201.382 188.522C201.836 188.373 202.227 188.078 202.494 187.683C202.76 187.288 202.886 186.816 202.852 186.342C202.252 178.215 202.145 170.485 202.532 163.152C202.739 159.365 203.495 155.698 204.802 152.152Z" fill="#A94E39"/>
<path d="M179.972 154.902C180.265 156.622 180.099 158.218 179.472 159.692C178.925 160.992 177.995 161.795 176.682 162.102C175.302 162.422 173.945 162.262 172.612 161.622C172.019 160.375 171.715 159.235 171.702 158.202C171.675 157.008 171.175 156.792 170.202 157.552L165.372 161.302C164.359 160.768 164.335 159.885 165.302 158.652C166.249 158.758 167.132 158.405 167.952 157.592C168.632 156.912 169.572 156.392 170.772 156.032C171.092 155.938 171.372 155.775 171.612 155.542C174.059 153.182 176.845 152.968 179.972 154.902Z" fill="#221824"/>
<path d="M235.722 155.902L238.472 158.152L239.522 160.462C239.6 160.628 239.637 160.804 239.626 160.956C239.615 161.109 239.557 161.228 239.462 161.292C239.222 161.452 238.922 161.392 238.562 161.112C236.316 159.325 234.012 157.668 231.652 156.142C231.112 155.788 230.896 155.928 231.002 156.562C231.849 161.622 229.832 163.422 224.952 161.962C222.659 161.275 222.176 159.212 223.502 155.772C227.509 153.525 231.582 153.568 235.722 155.902Z" fill="#332022"/>
<path d="M148.602 155.542C149.309 157.182 149.529 158.982 149.262 160.942C145.882 158.695 143.152 159.035 141.072 161.962C138.379 165.762 138.486 169.705 141.392 173.792C142.812 175.785 144.602 176.822 146.762 176.902C148.129 176.948 149.226 176.282 150.052 174.902C152.212 175.355 152.782 176.335 151.762 177.842C150.382 179.488 149.689 181.478 149.682 183.812C148.256 184.552 146.949 184.998 145.762 185.152C144.076 185.372 142.402 185.032 140.742 184.132C137.082 182.152 134.646 179.165 133.432 175.172C131.772 169.718 132.069 164.815 134.322 160.462C136.162 156.915 139.202 154.992 143.442 154.692C144.182 154.638 145.049 154.732 146.042 154.972C146.869 155.172 147.722 155.362 148.602 155.542Z" fill="#F69674"/>
<path d="M250.232 155.262C259.732 155.308 264.502 160.188 264.542 169.902C264.575 177.322 261.349 182.275 254.862 184.762C253.962 185.108 253.212 185.172 252.612 184.952C251.772 184.638 251.259 183.955 251.072 182.902C251.042 182.719 250.981 182.551 250.897 182.417C250.813 182.282 250.708 182.183 250.592 182.132C250.119 181.925 249.829 182.182 249.722 182.902L248.472 178.152C247.479 176.405 247.539 174.875 248.652 173.562C250.219 176.335 252.235 176.928 254.702 175.342C257.542 173.502 258.852 170.975 258.632 167.762C258.465 165.302 257.625 163.425 256.112 162.132C254.092 160.405 251.575 160.768 248.562 163.222L250.232 155.262Z" fill="#F7B3A4"/>
<path d="M172.612 161.622C170.165 162.908 167.752 162.802 165.372 161.302L170.202 157.552C171.175 156.792 171.675 157.008 171.702 158.202C171.715 159.235 172.019 160.375 172.612 161.622Z" fill="#E0C4B9"/>
<path d="M149.262 160.942C150.722 165.508 150.986 170.162 150.052 174.902C149.226 176.282 148.129 176.948 146.762 176.902C144.602 176.822 142.812 175.785 141.392 173.792C138.486 169.705 138.379 165.762 141.072 161.962C143.152 159.035 145.882 158.695 149.262 160.942Z" fill="#E86E5F"/>
<path d="M248.652 173.562C249.166 169.855 249.136 166.408 248.562 163.222C251.576 160.768 254.093 160.405 256.113 162.132C257.626 163.425 258.466 165.302 258.632 167.762C258.852 170.975 257.542 173.502 254.702 175.342C252.236 176.928 250.219 176.335 248.652 173.562Z" fill="#EB8075"/>
<path d="M242.072 167.592C243.292 168.705 243.932 169.908 243.992 171.202C244.045 172.275 243.522 173.382 242.422 174.522C240.242 176.795 237.679 178.592 234.732 179.912C228.172 182.858 222.599 181.522 218.012 175.902C216.125 173.595 216.022 171.335 217.702 169.122C219.502 166.762 221.705 165.155 224.312 164.302C226.805 163.482 229.412 163.115 232.132 163.202C235.712 163.328 239.025 164.792 242.072 167.592Z" fill="#DF6B57"/>
<path d="M180.652 166.732C183.046 168.478 184.206 170.652 184.132 173.252C184.079 175.372 183.166 177.395 181.392 179.322C178.886 182.042 175.672 183.712 171.752 184.332C169.706 184.658 167.792 184.332 166.012 183.352C162.519 181.438 159.872 178.852 158.072 175.592C156.652 173.012 157.109 170.758 159.442 168.832C162.616 166.198 166.639 164.722 171.512 164.402C175.159 164.162 178.206 164.938 180.652 166.732Z" fill="#E86E5F"/>
<path d="M281.142 261.282C274.889 254.595 271.042 246.548 269.602 237.142C266.335 215.835 271.759 197.285 285.872 181.492C289.445 177.498 293.589 174.228 298.302 171.682C300.395 170.555 302.639 170.045 305.032 170.152C307.252 170.252 308.152 171.392 307.732 173.572C307.405 175.258 306.839 176.875 306.032 178.422C305.479 179.482 304.479 180.848 303.032 182.522C296.872 189.688 293.219 194.085 292.072 195.712C282.372 209.505 280.122 224.215 285.322 239.842C287.555 246.535 291.555 253.035 297.322 259.342C298.049 260.135 299.195 261.738 300.762 264.152C302.042 266.118 302.335 268.075 301.642 270.022C300.935 272.015 299.565 272.725 297.532 272.152C294.225 271.225 291.209 269.802 288.482 267.882C286.195 266.268 283.749 264.068 281.142 261.282Z" fill="#FB9550"/>
<path d="M117.692 172.132C118.986 173.265 119.069 174.915 117.942 177.082C114.269 184.148 110.562 191.192 106.822 198.212C102.149 206.985 98.8456 217.188 96.9123 228.822C96.5123 231.228 96.179 232.942 95.9123 233.962C95.2856 236.375 94.6323 238.002 93.9523 238.842C92.759 240.302 91.659 240.602 90.6523 239.742C90.0723 239.248 89.7123 238.422 89.5723 237.262C89.0056 232.462 89.2156 227.155 90.2023 221.342C92.6756 206.708 98.0456 193.245 106.312 180.952C108.546 177.638 111.276 174.678 114.502 172.072C115.589 171.198 116.652 171.218 117.692 172.132Z" fill="#FB9652"/>
<path d="M151.762 177.842C152.556 180.168 153.472 182.395 154.512 184.522C155.932 187.435 157.009 189.582 157.742 190.962C160.576 196.288 164.456 200.568 169.382 203.802C170.416 204.482 170.856 204.205 170.702 202.972C170.416 200.718 171.019 198.765 172.512 197.112C174.006 196.965 175.069 197.482 175.702 198.662C175.722 198.702 175.822 199.218 176.002 200.212C176.129 200.892 176.632 201.302 177.512 201.442C177.906 207.888 179.989 213.715 183.762 218.922C186.436 222.615 189.602 225.025 193.262 226.152C200.749 228.458 207.116 227.155 212.362 222.242C214.216 220.502 215.842 218.205 217.242 215.352C218.556 212.678 219.542 210.008 220.202 207.342C220.929 204.395 221.629 202.082 222.302 200.402C223.576 200.248 224.666 199.602 225.572 198.462C225.919 198.022 226.326 197.855 226.792 197.962C226.93 197.994 227.054 198.08 227.145 198.204C227.235 198.329 227.287 198.487 227.292 198.652L227.502 204.402C227.508 204.583 227.552 204.754 227.63 204.889C227.707 205.024 227.813 205.116 227.932 205.152C228.219 205.238 228.496 205.142 228.762 204.862C229.296 204.868 229.782 204.702 230.222 204.362C234.796 200.795 238.409 196.428 241.062 191.262C242.756 187.962 244.476 184.675 246.222 181.402C246.742 180.148 247.492 179.065 248.472 178.152L249.722 182.902C252.762 203.795 247.539 222.042 234.052 237.642C232.499 238.555 231.316 239.705 230.502 241.092C221.749 247.378 212.336 250.565 202.262 250.652C192.636 250.732 183.516 248.025 174.902 242.532L167.252 235.772C158.792 226.945 153.362 216.508 150.962 204.462C149.616 197.708 149.189 190.825 149.682 183.812C149.689 181.478 150.382 179.488 151.762 177.842Z" fill="#502018"/>
<path d="M246.222 181.402C244.476 184.675 242.756 187.962 241.062 191.262C238.409 196.428 234.796 200.795 230.222 204.362C229.782 204.702 229.296 204.868 228.762 204.862C228.649 203.842 228.746 202.855 229.052 201.902C229.546 202.015 229.996 202.238 230.402 202.572C230.512 202.66 230.647 202.708 230.784 202.708C230.921 202.708 231.051 202.66 231.152 202.572C234.306 199.898 236.676 197.258 238.262 194.652C240.742 190.578 242.929 186.348 244.822 181.962C245.076 181.395 245.542 181.208 246.222 181.402Z" fill="#F5B486"/>
<path d="M196.722 192.052C197.542 192.412 197.806 193.182 197.512 194.362C197.159 195.428 196.479 196.192 195.472 196.652C189.986 197.585 184.582 198.848 179.262 200.442C178.562 200.555 177.979 200.888 177.512 201.442C176.632 201.302 176.129 200.892 176.002 200.212C175.822 199.218 175.722 198.702 175.702 198.662C175.069 197.482 174.006 196.965 172.512 197.112C179.106 189.432 187.176 187.745 196.722 192.052Z" fill="#2A151C"/>
<path d="M213.262 189.862C219.109 190.388 223.979 192.732 227.872 196.892C228.499 197.572 228.862 198.348 228.962 199.222C229.062 200.108 229.092 201.002 229.052 201.902C228.746 202.855 228.649 203.842 228.762 204.862C228.496 205.142 228.219 205.238 227.932 205.152C227.813 205.116 227.707 205.024 227.63 204.889C227.552 204.754 227.508 204.583 227.502 204.402L227.292 198.652C227.287 198.487 227.235 198.329 227.145 198.204C227.054 198.08 226.93 197.994 226.792 197.962C226.326 197.855 225.919 198.022 225.572 198.462C224.666 199.602 223.576 200.248 222.302 200.402L218.512 199.442L215.362 199.002C210.389 198.575 205.659 197.182 201.172 194.822C204.339 191.142 208.369 189.488 213.262 189.862Z" fill="#22151C"/>
<path d="M197.512 194.362C199.239 195.282 200.459 195.435 201.172 194.822C205.659 197.182 210.389 198.575 215.362 199.002C215.416 200.388 216.279 200.948 217.952 200.682C218.141 200.652 218.313 200.585 218.444 200.49C218.576 200.395 218.659 200.276 218.682 200.152C218.729 199.925 218.672 199.688 218.512 199.442L222.302 200.402C221.629 202.082 220.929 204.395 220.202 207.342C219.542 210.008 218.556 212.678 217.242 215.352C215.842 218.205 214.216 220.502 212.362 222.242C207.116 227.155 200.749 228.458 193.262 226.152C189.602 225.025 186.436 222.615 183.762 218.922C179.989 213.715 177.906 207.888 177.512 201.442C177.979 200.888 178.562 200.555 179.262 200.442C179.216 201.135 179.549 201.375 180.262 201.162C184.916 199.735 189.656 198.752 194.482 198.212C194.949 198.158 195.259 198.022 195.412 197.802C195.612 197.502 195.632 197.118 195.472 196.652C196.479 196.192 197.159 195.428 197.512 194.362ZM188.912 205.412C188.566 210.218 188.702 213.362 189.322 214.842C192.176 221.648 196.612 224.282 202.632 222.742C206.299 221.808 209.016 220.028 210.782 217.402C212.749 214.475 213.166 210.905 212.032 206.692C213.446 205.492 214.516 204.152 215.242 202.672C215.268 202.618 215.28 202.559 215.28 202.499C215.279 202.44 215.264 202.381 215.237 202.328C215.21 202.275 215.171 202.229 215.124 202.193C215.076 202.157 215.021 202.133 214.962 202.122C205.656 200.388 196.326 200.218 186.972 201.612C186.926 201.618 186.499 201.672 185.692 201.772C184.126 201.965 183.882 202.405 184.962 203.092C185.182 203.225 185.562 203.388 186.102 203.582C187.182 203.962 188.119 204.572 188.912 205.412Z" fill="#F5A48C"/>
<path d="M195.472 196.652C195.632 197.118 195.612 197.502 195.412 197.802C195.259 198.022 194.949 198.158 194.482 198.212C189.655 198.752 184.915 199.735 180.262 201.162C179.549 201.375 179.215 201.135 179.262 200.442C184.582 198.848 189.985 197.585 195.472 196.652Z" fill="#FABBB4"/>
<path d="M215.362 199.002L218.512 199.442C218.672 199.688 218.729 199.925 218.682 200.152C218.659 200.276 218.576 200.395 218.444 200.49C218.313 200.585 218.141 200.652 217.952 200.682C216.279 200.948 215.416 200.388 215.362 199.002Z" fill="#F2C7BB"/>
<path d="M212.032 206.692C204.626 204.725 196.919 204.298 188.912 205.412C188.119 204.572 187.182 203.962 186.102 203.582C185.562 203.388 185.182 203.225 184.962 203.092C183.882 202.405 184.126 201.965 185.692 201.772C186.499 201.672 186.926 201.618 186.972 201.612C196.326 200.218 205.656 200.388 214.962 202.122C215.021 202.133 215.076 202.157 215.124 202.193C215.171 202.229 215.21 202.275 215.237 202.328C215.264 202.381 215.279 202.44 215.28 202.499C215.281 202.559 215.268 202.618 215.242 202.672C214.516 204.152 213.446 205.492 212.032 206.692Z" fill="#FAF9F9"/>
<path d="M212.032 206.692C213.165 210.905 212.749 214.475 210.782 217.402C209.015 220.028 206.299 221.808 202.632 222.742C196.612 224.282 192.175 221.648 189.322 214.842C188.702 213.362 188.565 210.218 188.912 205.412C196.919 204.298 204.625 204.725 212.032 206.692Z" fill="#251124"/>
<path d="M129.462 209.402C130.856 210.575 131.622 211.908 131.762 213.402C133.729 234.742 129.022 254.375 117.642 272.302C115.489 275.695 112.776 278.125 109.502 279.592C107.736 280.385 106.386 279.932 105.452 278.232C104.872 277.165 104.429 276.055 104.122 274.902C103.876 273.988 103.739 272.808 103.712 271.362C103.479 260.568 105.019 250.115 108.332 240.002C110.266 234.088 112.326 229.038 114.512 224.852C117.026 220.032 120.172 215.528 123.952 211.342C125.252 209.902 126.792 209.152 128.572 209.092C128.894 209.079 129.212 209.19 129.462 209.402Z" fill="#FB9550"/>
<path d="M167.252 235.772L174.902 242.532C176.336 244.945 178.139 247.012 180.312 248.732C181.846 249.938 184.079 251.465 187.012 253.312C194.632 258.098 202.799 259.128 211.512 256.402C219.479 253.902 225.809 248.798 230.502 241.092C231.316 239.705 232.499 238.555 234.052 237.642C234.179 241.462 234.309 245.278 234.442 249.092C234.442 249.165 234.446 250.535 234.452 253.202C234.452 255.462 234.696 257.688 235.182 259.882C235.689 262.155 236.682 264.092 238.162 265.692C242.202 270.045 247.516 272.262 254.102 272.342C255.896 277.428 256.116 282.782 254.762 288.402C252.942 295.968 249.939 302.602 245.752 308.302C241.939 313.495 237.172 318.115 231.452 322.162C223.299 327.922 214.169 331.025 204.062 331.472C197.249 331.778 190.702 330.785 184.422 328.492C175.089 325.078 167.179 319.322 160.692 311.222C151.766 300.068 147.622 287.308 148.262 272.942C150.536 272.068 154.119 270.888 159.012 269.402C161.159 268.748 162.972 267.395 164.452 265.342C166.179 262.935 166.956 259.622 166.782 255.402C166.529 248.988 166.686 242.445 167.252 235.772Z" fill="#F6915B"/>
<path d="M230.502 241.092C225.809 248.798 219.479 253.902 211.512 256.402C202.799 259.128 194.632 258.098 187.012 253.312C184.079 251.465 181.846 249.938 180.312 248.732C178.139 247.012 176.336 244.945 174.902 242.532C183.516 248.025 192.636 250.732 202.262 250.652C212.336 250.565 221.749 247.378 230.502 241.092Z" fill="#DF6B57"/>
<path d="M254.102 272.342C258.456 274.208 262.809 275.998 267.162 277.712C267.982 278.032 268.779 278.472 269.552 279.032C270.046 279.385 270.546 279.735 271.052 280.082C271.512 280.388 272.069 280.622 272.722 280.782C274.995 281.328 277.426 282.452 280.012 284.152C282.572 285.832 289.489 289.595 300.762 295.442C300.916 295.842 300.812 296.225 300.452 296.592C277.452 320.585 249.702 334.765 217.202 339.132C210.409 340.045 203.762 340.435 197.262 340.302C176.576 339.875 156.722 334.845 137.702 325.212C122.676 317.605 109.766 307.835 98.9722 295.902C106.779 291.868 114.682 288.038 122.682 284.412C122.756 284.378 123.532 283.892 125.012 282.952C126.399 282.078 128.369 281.648 130.922 281.662C130.996 281.662 131.068 281.632 131.12 281.58C131.173 281.527 131.202 281.456 131.202 281.382C131.196 280.415 131.696 279.735 132.702 279.342C137.936 277.315 143.122 275.182 148.262 272.942C147.622 287.308 151.765 300.068 160.692 311.222C167.179 319.322 175.089 325.078 184.422 328.492C190.702 330.785 197.249 331.778 204.062 331.472C214.169 331.025 223.299 327.922 231.452 322.162C237.172 318.115 241.939 313.495 245.752 308.302C249.939 302.602 252.942 295.968 254.762 288.402C256.116 282.782 255.896 277.428 254.102 272.342Z" fill="#599B97"/>
</svg>
